# https://github.com/mikedh/trimesh
v 15.00804448 14.99706432 16.99295318
v 14.99921340 14.99706432 50.00000167
v 15.00804448 -14.99412721 16.99295318
v 15.00804448 14.99412721 1.99686765
v 14.99921340 14.99706432 -50.00000167
v 14.99921340 -14.99706432 50.00000167
v -14.99894375 14.99706432 50.00000167
v 15.00804448 -14.99706432 1.99686765
v 14.99921340 -14.99706432 -50.00000167
v -14.99894375 14.99706432 -50.00000167
v -14.99894375 -14.99706432 50.00000167
v -15.06075203 14.99706432 16.99295318
v -14.99894375 -14.99706432 -50.00000167
v -15.06075203 14.99706432 1.99686765
v -15.06075203 -14.99706432 16.99295318
v -15.06075203 -14.99706432 1.99686765
f 1 2 6
f 1 6 3
f 1 3 8
f 1 8 4
f 1 4 5
f 1 5 10
f 1 10 14
f 1 14 12
f 1 12 7
f 1 7 2
f 2 7 11
f 2 11 6
f 3 6 8
f 4 8 9
f 4 9 5
f 5 9 13
f 5 13 10
f 6 11 15
f 6 15 16
f 6 16 13
f 6 13 9
f 6 9 8
f 7 12 15
f 7 15 11
f 10 13 16
f 10 16 14
f 12 14 16
f 12 16 15

