# https://github.com/mikedh/trimesh
v 15.00804448 14.99706432 16.98364323
v 15.00804448 -14.99119243 16.98364323
v 15.00804448 14.99119243 1.98777563
v 14.99627048 14.99706432 -49.99855113
v 14.99627048 14.99706432 50.00000167
v 15.00804448 -14.99706432 1.98777563
v 14.99627048 -14.99706432 50.00000167
v 14.99627048 -14.99706432 -49.99855113
v -14.99599966 14.99706432 -49.99855113
v -14.99599966 14.99706432 50.00000167
v -14.99599966 -14.99706432 50.00000167
v -14.99599966 -14.99706432 -49.99855113
v -15.06075203 14.99706432 1.98777563
v -15.06075203 14.99706432 16.98364323
v -15.06075203 -14.99706432 16.98364323
v -15.06075203 -14.99706432 1.98777563
f 1 2 6
f 1 6 3
f 1 3 4
f 1 4 9
f 1 9 13
f 1 13 14
f 1 14 10
f 1 10 5
f 1 5 7
f 1 7 2
f 2 7 6
f 3 6 8
f 3 8 4
f 4 8 12
f 4 12 9
f 5 10 11
f 5 11 7
f 6 7 11
f 6 11 15
f 6 15 16
f 6 16 12
f 6 12 8
f 9 12 16
f 9 16 13
f 10 14 15
f 10 15 11
f 13 16 15
f 13 15 14

