# https://github.com/mikedh/trimesh
v -78.00000000 -14.99706432 -50.00000167
v -58.00065207 -14.99706432 -50.00000167
v -78.00000000 -14.99706432 1.64036974
v -78.00000000 14.99706432 -50.00000167
v -58.00065207 14.99706432 -50.00000167
v -57.96731758 -14.99706432 2.00107732
v -78.00000000 14.99706432 1.64036974
v -77.99803805 -14.99706432 16.99344367
v -57.96731758 14.99706432 2.00107732
v -57.96731758 -14.99706432 16.99344367
v -77.99803805 14.99706432 16.99344367
v -57.96731758 14.99706432 16.99344367
f 1 2 6
f 1 6 10
f 1 10 8
f 1 8 3
f 1 3 7
f 1 7 4
f 1 4 5
f 1 5 2
f 2 5 9
f 2 9 6
f 3 8 11
f 3 11 7
f 4 7 11
f 4 11 12
f 4 12 9
f 4 9 5
f 6 9 12
f 6 12 10
f 8 10 12
f 8 12 11

