# https://github.com/mikedh/trimesh
v -60.29895306 11.06402867 0.00000000
v -78.72581214 11.06402867 0.00000000
v -56.51113749 11.05326619 0.00000000
v -56.51113749 11.06402867 -10.66219617
v -78.72581214 11.06402867 -24.99999918
v -79.46270883 0.01337470 0.00000000
v -56.51113749 0.01875593 0.00000000
v -56.51113749 11.06402867 -24.99999918
v -79.46270883 0.01337470 -24.99999918
v -79.46270883 -16.42403618 0.00000000
v -56.51113749 0.01875593 -24.99999918
v -57.12446749 -16.37560375 0.00000000
v -79.46270883 -16.42403618 -24.99999918
v -67.20734328 -16.42403618 0.00000000
v -57.12446749 -16.37560375 -24.99999918
v -67.20284671 -16.42403618 -0.06362550
v -67.20284671 -16.42403618 -24.99999918
f 1 2 6
f 1 6 10
f 1 10 14
f 1 14 12
f 1 12 7
f 1 7 3
f 1 3 4
f 1 4 8
f 1 8 5
f 1 5 2
f 2 5 9
f 2 9 6
f 3 7 11
f 3 11 8
f 3 8 4
f 5 8 11
f 5 11 15
f 5 15 17
f 5 17 13
f 5 13 9
f 6 9 13
f 6 13 10
f 7 12 15
f 7 15 11
f 10 13 17
f 10 17 16
f 10 16 14
f 12 14 16
f 12 16 17
f 12 17 15

