# https://github.com/mikedh/trimesh
v -79.42823052 -101.42164767 15.03834412
v -56.71996772 -101.42164767 15.03834412
v -79.42823052 -101.42164767 24.99999747
v -79.42823052 -16.50000155 15.03834412
v -56.50224373 -101.18058056 15.03834412
v -56.50224373 -101.42164767 15.04712135
v -56.50224373 -101.42164767 24.99999747
v -79.42823052 -16.50000155 24.99999747
v -56.50224373 -16.50000155 15.03834412
v -56.50224373 -16.50000155 24.99999747
f 1 2 6
f 1 6 7
f 1 7 3
f 1 3 8
f 1 8 4
f 1 4 9
f 1 9 5
f 1 5 2
f 2 5 6
f 3 7 10
f 3 10 8
f 4 8 10
f 4 10 9
f 5 9 10
f 5 10 7
f 5 7 6

