# https://github.com/mikedh/trimesh
v -79.40567911 -114.99034882 1.72854986
v -67.19769210 -115.00000000 1.72854986
v -79.40567911 -114.99034882 15.03737077
v -79.40567911 -16.50283590 1.72854986
v -67.19769210 -115.00000000 15.03737077
v -37.89284840 -115.00000000 1.72854986
v -79.40567911 -16.50283590 15.03737077
v -56.50961235 -16.42564356 1.72854986
v -37.89284840 -115.00000000 15.03737077
v -37.89284840 -16.42564356 1.72854986
v -67.19769210 -16.50283590 15.03737077
v -56.50148630 -16.42564356 14.99698043
v -56.50961235 -16.42564356 1.75330458
v -37.89284840 -101.48172766 15.03737077
v -37.89284840 -16.42564356 14.99698043
v -56.50148630 -16.51248366 15.03737077
f 1 2 5
f 1 5 3
f 1 3 7
f 1 7 4
f 1 4 8
f 1 8 10
f 1 10 6
f 1 6 2
f 2 6 9
f 2 9 5
f 3 5 9
f 3 9 14
f 3 14 16
f 3 16 11
f 3 11 7
f 4 7 13
f 4 13 8
f 6 10 15
f 6 15 14
f 6 14 9
f 7 11 15
f 7 15 12
f 7 12 13
f 8 13 12
f 8 12 15
f 8 15 10
f 11 16 15
f 14 15 16

