# https://github.com/mikedh/trimesh
v 56.48527876 115.00000000 24.99999747
v 56.48527876 101.50140703 24.99999747
v 56.48527876 115.00000000 15.03834412
v 0.01845583 115.00000000 24.99999747
v 56.48527876 101.50140703 15.03834412
v 16.49531648 101.48553193 24.99999747
v 16.50636941 101.48553193 15.03834412
v 0.01845583 115.00000000 15.03834412
v 0.01845583 101.48553193 24.99999747
v 0.01845583 101.48553193 15.03834412
f 1 2 5
f 1 5 3
f 1 3 8
f 1 8 4
f 1 4 9
f 1 9 6
f 1 6 2
f 2 6 7
f 2 7 5
f 3 5 7
f 3 7 10
f 3 10 8
f 4 8 10
f 4 10 9
f 6 9 10
f 6 10 7

