# https://github.com/mikedh/trimesh
v 17.60538772 114.98874485 1.72464278
v 17.60538772 114.98874485 -25.00000089
v 16.44054532 114.98874485 1.72464278
v 17.60538772 -0.00719383 1.72464278
v 16.44054532 114.98874485 -25.00000089
v 17.60538772 -0.00719383 -25.00000089
v 16.44054532 16.50925517 1.72464278
v 16.50007010 -0.00719383 1.72464278
v 16.44054532 -0.00719383 -25.00000089
v 16.44054532 -0.00719383 -0.00189099
f 1 2 5
f 1 5 3
f 1 3 7
f 1 7 8
f 1 8 4
f 1 4 6
f 1 6 2
f 2 6 9
f 2 9 5
f 3 5 9
f 3 9 10
f 3 10 7
f 4 8 10
f 4 10 9
f 4 9 6
f 7 10 8

