# https://github.com/mikedh/trimesh
v -78.72768342 11.06294736 -0.00029046
v -79.50169742 11.06294736 16.48749545
v -78.72768342 0.02061630 -0.00029046
v -78.72768342 11.06294736 -24.99999747
v -79.50169742 0.02061630 16.48749545
v -115.00000000 11.06294736 16.48749545
v -78.72768342 0.02061630 -24.99999747
v -115.00000000 11.06294736 -24.99999747
v -115.00000000 0.02061630 16.48749545
v -115.00000000 0.02061630 -24.99999747
f 1 2 5
f 1 5 3
f 1 3 7
f 1 7 4
f 1 4 8
f 1 8 6
f 1 6 2
f 2 6 9
f 2 9 5
f 3 5 9
f 3 9 10
f 3 10 7
f 4 7 10
f 4 10 8
f 6 8 10
f 6 10 9

