# https://github.com/mikedh/trimesh
v -75.92742115 16.42797410 -0.91964971
v -56.46839947 16.42797410 -0.91964971
v -75.92742115 16.42797410 -0.29936578
v -75.92742115 115.00000000 -0.91964971
v -56.46839947 16.42797410 14.97257315
v -56.46839947 115.00000000 -0.91964971
v -75.92551559 16.42797410 0.00055179
v -75.92742115 16.50516644 16.48749717
v -75.92742115 115.00000000 16.48749717
v -56.50078714 16.50516644 16.48749717
v -56.47601828 16.42797410 14.99983877
v -56.46839947 101.49169415 16.48749717
v -56.46839947 115.00000000 16.48749717
v -56.50078714 16.42797410 14.99983877
f 1 2 5
f 1 5 11
f 1 11 14
f 1 14 7
f 1 7 3
f 1 3 8
f 1 8 9
f 1 9 4
f 1 4 6
f 1 6 2
f 2 6 13
f 2 13 12
f 2 12 5
f 3 7 8
f 4 9 13
f 4 13 6
f 5 10 11
f 5 12 10
f 7 14 8
f 8 14 11
f 8 11 10
f 8 10 12
f 8 12 13
f 8 13 9

