# https://github.com/mikedh/trimesh
v -16.49838388 -101.48420215 15.03834412
v -16.49515539 -101.48420215 24.99999747
v -16.49838388 -16.50832295 24.99999747
v -16.49838388 -16.50832295 15.03834412
v 15.62465355 -101.48420215 15.03834412
v 16.49354115 -101.48420215 24.99999747
v 16.50000155 -16.50832295 24.99999747
v 16.50000155 -16.50832295 15.03834412
v 16.50000155 -101.16812587 15.03834412
v 16.50000155 -101.48420215 15.04029423
f 1 2 3
f 1 3 4
f 1 4 8
f 1 8 9
f 1 9 5
f 1 5 10
f 1 10 6
f 1 6 2
f 2 6 7
f 2 7 3
f 3 7 8
f 3 8 4
f 5 9 10
f 6 10 7
f 7 10 9
f 7 9 8

