# https://github.com/mikedh/trimesh
v 0.01474582 115.00000000 24.99999918
v -37.88220674 115.00000000 24.99999918
v 0.01474582 101.43390357 24.99999918
v 0.01474582 115.00000000 -24.99999918
v -37.88220674 101.50031030 24.99999918
v -37.88220674 115.00000000 -24.99999918
v -16.50348708 101.43390357 24.99999918
v 0.01474582 101.43390357 -24.99999918
v -37.88220674 101.43390357 14.99608420
v -37.88220674 101.43390357 -24.99999918
f 1 2 5
f 1 5 7
f 1 7 3
f 1 3 8
f 1 8 4
f 1 4 6
f 1 6 2
f 2 6 10
f 2 10 9
f 2 9 5
f 3 7 9
f 3 9 10
f 3 10 8
f 4 8 10
f 4 10 6
f 5 9 7

