# https://github.com/mikedh/trimesh
v -115.00000000 -115.00000000 1.72724750
v -79.41384286 -115.00000000 1.72724750
v -115.00000000 -115.00000000 15.03737077
v -115.00000000 0.01684844 1.72724750
v -79.41384286 -115.00000000 15.03737077
v -79.41384286 -16.51063293 1.72724750
v -115.00000000 0.01684844 15.03737077
v -79.50092971 0.01684844 1.72724750
v -79.41384286 -16.51063293 15.03737077
v -79.50092971 0.01684844 15.03737077
f 1 2 5
f 1 5 3
f 1 3 7
f 1 7 4
f 1 4 8
f 1 8 6
f 1 6 2
f 2 6 9
f 2 9 5
f 3 5 9
f 3 9 10
f 3 10 7
f 4 7 10
f 4 10 8
f 6 8 10
f 6 10 9

