# https://github.com/mikedh/trimesh
v 17.60538772 115.00000000 15.03737077
v 16.44054532 115.00000000 15.03737077
v 17.60538772 101.48978174 15.03737077
v 17.60538772 115.00000000 1.72724707
v 16.44054532 115.00000000 1.72724707
v 16.44054532 16.82578728 15.03737077
v 16.50017805 16.51055068 15.03737077
v 17.60515980 -0.01694441 14.99828108
v 17.60538772 15.41847602 14.99828108
v 17.60538772 15.41847602 1.72724707
v 16.44054532 16.51055068 1.72724707
v 16.44054532 16.51055068 15.02694674
v 16.50017805 -0.01694441 14.99828108
v 17.60515980 -0.01694441 1.72724707
v 16.50017805 -0.01694441 1.72724707
f 1 2 6
f 1 6 7
f 1 7 3
f 1 3 9
f 1 9 10
f 1 10 4
f 1 4 5
f 1 5 2
f 2 5 11
f 2 11 12
f 2 12 6
f 3 7 8
f 3 8 9
f 4 10 14
f 4 14 15
f 4 15 11
f 4 11 5
f 6 12 13
f 6 13 7
f 7 13 8
f 8 13 15
f 8 15 14
f 8 14 10
f 8 10 9
f 11 15 13
f 11 13 12

