# https://github.com/mikedh/trimesh
v 16.44043222 115.00000000 0.03507294
v 0.01845583 115.00000000 0.03507294
v 16.44043222 16.51982486 0.03507294
v 16.44043222 115.00000000 -24.99999918
v 0.01845583 115.00000000 -24.99999918
v 0.01845583 16.51982486 0.03507294
v 16.22663759 -16.40980616 -0.00168536
v 16.44043222 -0.00930846 -0.00168536
v 16.44043222 -0.00930846 -24.99999918
v 0.01845583 -16.40980616 -24.99999918
v 0.01845583 -16.40980616 -0.00168536
v 16.22663759 -16.40980616 -24.99999918
f 1 2 6
f 1 6 3
f 1 3 8
f 1 8 9
f 1 9 4
f 1 4 5
f 1 5 2
f 2 5 10
f 2 10 11
f 2 11 6
f 3 6 11
f 3 11 7
f 3 7 8
f 4 9 12
f 4 12 10
f 4 10 5
f 7 11 10
f 7 10 12
f 7 12 9
f 7 9 8

