# https://github.com/mikedh/trimesh
v -115.00000000 -115.00000000 -25.00000089
v -57.12970778 -115.00000000 -25.00000089
v -115.00000000 -115.00000000 1.72464192
v -115.00000000 -16.42642498 -25.00000089
v -57.12970778 -115.00000000 1.72464192
v -57.12970778 -16.37815535 -25.00000089
v -115.00000000 -16.42642498 1.72464192
v -67.20248342 -16.37815535 -25.00000089
v -57.12970778 -16.50365502 1.72464192
v -57.12970778 -16.37815535 -0.00189185
v -79.50169057 -16.42642498 1.72464192
v -67.20248342 -16.37815535 -0.00189185
f 1 2 5
f 1 5 3
f 1 3 7
f 1 7 4
f 1 4 8
f 1 8 6
f 1 6 2
f 2 6 10
f 2 10 9
f 2 9 5
f 3 5 9
f 3 9 11
f 3 11 7
f 4 7 12
f 4 12 8
f 6 8 12
f 6 12 10
f 7 11 10
f 7 10 12
f 9 10 11

