# https://github.com/mikedh/trimesh
v -56.46839947 16.42797753 -0.92135328
v -56.50078714 16.42797753 0.24360356
v -56.46839947 16.42587662 0.24360356
v -56.46839947 11.06402867 -0.92135328
v -75.92742115 16.42797753 -0.92135328
v -56.50078714 11.06402867 0.24360356
v -75.92551559 16.42797753 -0.00008408
v -75.92742115 11.37696043 -0.00008408
v -56.46839947 11.06402867 0.24360356
v -75.92742115 11.06402867 -0.92135328
v -75.92742115 16.42797753 -0.29964767
v -75.92742115 11.06402867 -0.00008408
f 1 2 3
f 1 3 9
f 1 9 4
f 1 4 10
f 1 10 5
f 1 5 11
f 1 11 7
f 1 7 2
f 2 6 9
f 2 9 3
f 2 7 8
f 2 8 12
f 2 12 6
f 4 9 6
f 4 6 12
f 4 12 10
f 5 10 12
f 5 12 8
f 5 8 11
f 7 11 8

