# https://github.com/mikedh/trimesh
v -56.47433206 16.43138938 14.99999985
v -37.88592190 52.04048008 14.99608591
v -56.49802819 16.43138938 14.99999985
v -56.46521896 16.40083700 14.99999985
v -56.46339566 52.04048008 14.99608591
v -37.88592190 0.02462663 14.99608591
v -37.88592190 52.04048008 -24.99608353
v -56.49984807 16.43138938 14.96476412
v -56.49984807 11.06431141 14.99999985
v -56.46521896 11.06431141 14.99999985
v -56.46339566 52.04048008 -24.99608353
v -56.50714129 11.06940262 -10.65919474
v -56.50714129 11.06431141 -0.00636144
v -56.49802819 0.02462663 14.99608591
v -37.88592190 0.02462663 -24.99608353
v -56.50714129 0.02462663 -0.00636144
v -56.50714129 11.06940262 -24.99608353
v -56.50714129 0.02462663 -24.99608353
f 1 2 5
f 1 5 3
f 1 3 9
f 1 9 10
f 1 10 4
f 1 4 2
f 2 4 10
f 2 10 6
f 2 6 15
f 2 15 7
f 2 7 11
f 2 11 5
f 3 5 8
f 3 8 9
f 5 11 17
f 5 17 12
f 5 12 13
f 5 13 8
f 6 14 16
f 6 16 18
f 6 18 15
f 6 10 9
f 6 9 14
f 7 15 18
f 7 18 17
f 7 17 11
f 8 13 9
f 9 13 16
f 9 16 14
f 12 17 18
f 12 18 16
f 12 16 13

