# https://github.com/mikedh/trimesh
v -16.50108114 -16.50679097 15.03737077
v -16.48851335 -16.82794988 15.03737077
v -16.50108114 16.23863816 14.99817997
v -37.88591847 16.23863816 14.99817997
v -37.88591847 -101.49845272 15.03737077
v -16.48851335 -16.50679097 15.03344998
v -16.48851335 -115.00000000 15.03737077
v -16.48851335 16.23863816 -0.00015765
v -37.88591847 16.23863816 -24.99999747
v -37.88591847 -115.00000000 15.03737077
v -16.48851335 -115.00000000 -24.99999747
v -16.48851335 16.23863816 -24.99999747
v -37.88591847 -115.00000000 -24.99999747
f 1 2 3
f 1 3 4
f 1 4 5
f 1 5 10
f 1 10 7
f 1 7 2
f 2 6 3
f 2 7 11
f 2 11 12
f 2 12 8
f 2 8 6
f 3 8 12
f 3 12 9
f 3 9 4
f 3 6 8
f 4 9 13
f 4 13 10
f 4 10 5
f 7 10 13
f 7 13 11
f 9 12 11
f 9 11 13

