# https://github.com/mikedh/trimesh
v 37.91359708 -115.00000000 1.72594514
v 67.89603889 -115.00000000 1.72594514
v 37.91359708 -115.00000000 15.03737077
v 37.91359708 -16.41867936 1.72594514
v 67.89603889 -115.00000000 15.03737077
v 67.89603889 -16.50552630 1.72594514
v 37.91359708 -101.49042606 15.03737077
v 37.91359708 -16.41867936 14.99958001
v 56.49889529 -16.41867936 1.72594514
v 67.89603889 -16.50552630 15.03737077
v 56.49889529 -16.50552630 15.03737077
v 56.49889529 -16.41867936 14.99958001
f 1 2 5
f 1 5 3
f 1 3 7
f 1 7 8
f 1 8 4
f 1 4 9
f 1 9 6
f 1 6 2
f 2 6 10
f 2 10 5
f 3 5 10
f 3 10 11
f 3 11 7
f 4 8 12
f 4 12 9
f 6 9 12
f 6 12 10
f 7 11 8
f 8 11 10
f 8 10 12

