# https://github.com/mikedh/trimesh
v 79.44568217 16.50254458 15.03834412
v 79.44568217 16.50254458 24.99999747
v 79.44568217 115.00000000 15.03834412
v 79.48396474 -115.00000000 15.03834412
v 79.44568217 115.00000000 24.99999747
v 79.48396474 -115.00000000 24.99999747
v 115.00000000 115.00000000 15.03834412
v 115.00000000 -115.00000000 15.03834412
v 115.00000000 115.00000000 24.99999747
v 115.00000000 -115.00000000 24.99999747
f 1 2 5
f 1 5 3
f 1 3 7
f 1 7 8
f 1 8 4
f 1 4 6
f 1 6 2
f 2 6 10
f 2 10 9
f 2 9 5
f 3 5 9
f 3 9 7
f 4 8 10
f 4 10 6
f 7 9 10
f 7 10 8

