# https://github.com/mikedh/trimesh
v 79.07237053 -16.50709599 0.01854151
v 79.07237053 -0.01845241 -0.00105046
v 67.89603889 -16.50709599 0.01854151
v 79.07237053 -115.00000000 0.01854151
v 79.07237053 -0.01845241 -24.99999918
v 67.89603889 -0.01845241 -0.00105046
v 67.89603889 -115.00000000 0.01854151
v 79.07237053 -115.00000000 -24.99999918
v 67.89603889 -0.01845241 -24.99999918
v 67.89603889 -115.00000000 -24.99999918
f 1 2 6
f 1 6 3
f 1 3 7
f 1 7 4
f 1 4 8
f 1 8 5
f 1 5 2
f 2 5 9
f 2 9 6
f 3 6 9
f 3 9 10
f 3 10 7
f 4 7 10
f 4 10 8
f 5 8 10
f 5 10 9

