# https://github.com/mikedh/trimesh
v -115.00000000 -115.00000000 -25.00000000
v -115.00000000 -115.00000000 25.00000000
v -79.50000000 -16.50000000 0.00000000
v -79.50000000 -16.50000000 25.00000000
v -56.50000000 -101.50000000 15.00000000
v -56.50000000 -101.50000000 25.00000000
v -16.50000000 -101.50000000 15.00000000
v -16.50000000 -101.50000000 25.00000000
v -56.50000000 -16.50000000 0.00000000
v -16.50000000 -16.50000000 0.00000000
v -56.50000000 -16.50000000 15.00000000
v -56.50000000 -16.50000000 25.00000000
v -16.50000000 -16.50000000 15.00000000
v -16.50000000 -16.50000000 25.00000000
v -115.00000000 115.00000000 -25.00000000
v -79.50000000 16.50000000 0.00000000
v -79.50000000 16.50000000 25.00000000
v -115.00000000 115.00000000 25.00000000
v -56.50000000 16.50000000 0.00000000
v -16.50000000 16.50000000 0.00000000
v -56.50000000 16.50000000 15.00000000
v -56.50000000 16.50000000 25.00000000
v -16.50000000 16.50000000 15.00000000
v -16.50000000 16.50000000 25.00000000
v -56.50000000 101.50000000 15.00000000
v -56.50000000 101.50000000 25.00000000
v -16.50000000 101.50000000 15.00000000
v -16.50000000 101.50000000 25.00000000
v 115.00000000 -115.00000000 -25.00000000
v 16.50000000 -101.50000000 15.00000000
v 16.50000000 -101.50000000 25.00000000
v 56.50000000 -101.50000000 15.00000000
v 56.50000000 -101.50000000 25.00000000
v 16.50000000 -16.50000000 0.00000000
v 56.50000000 -16.50000000 0.00000000
v 16.50000000 -16.50000000 15.00000000
v 16.50000000 -16.50000000 25.00000000
v 56.50000000 -16.50000000 15.00000000
v 56.50000000 -16.50000000 25.00000000
v 115.00000000 -115.00000000 25.00000000
v 79.50000000 -16.50000000 0.00000000
v 79.50000000 -16.50000000 25.00000000
v 115.00000000 115.00000000 -25.00000000
v 16.50000000 16.50000000 0.00000000
v 56.50000000 16.50000000 0.00000000
v 16.50000000 16.50000000 15.00000000
v 16.50000000 16.50000000 25.00000000
v 56.50000000 16.50000000 15.00000000
v 56.50000000 16.50000000 25.00000000
v 16.50000000 101.50000000 15.00000000
v 16.50000000 101.50000000 25.00000000
v 56.50000000 101.50000000 15.00000000
v 56.50000000 101.50000000 25.00000000
v 79.50000000 16.50000000 0.00000000
v 79.50000000 16.50000000 25.00000000
v 115.00000000 115.00000000 25.00000000
f 1 29 2
f 1 15 29
f 2 8 6
f 2 6 12
f 1 2 18
f 2 4 18
f 2 12 4
f 2 31 8
f 2 33 31
f 8 37 14
f 1 18 15
f 18 4 17
f 22 26 17
f 18 17 26
f 15 18 56
f 28 24 51
f 18 26 56
f 29 43 40
f 2 29 40
f 2 40 33
f 8 31 37
f 40 42 33
f 39 33 42
f 40 55 42
f 15 43 29
f 15 56 43
f 47 51 24
f 56 26 28
f 56 28 51
f 40 43 56
f 56 49 55
f 40 56 55
f 56 53 49
f 56 51 53
f 5 6 7
f 7 6 8
f 5 7 11
f 5 12 6
f 7 8 13
f 5 11 12
f 11 7 21
f 7 13 25
f 13 8 14
f 7 25 21
f 13 23 25
f 21 26 22
f 23 24 27
f 21 25 26
f 25 23 27
f 25 27 28
f 25 28 26
f 27 24 28
f 30 37 31
f 30 31 32
f 32 31 33
f 30 32 36
f 32 33 38
f 30 36 37
f 36 32 46
f 38 33 39
f 32 38 50
f 46 51 47
f 32 50 46
f 38 48 50
f 48 49 52
f 46 50 51
f 50 48 52
f 52 49 53
f 50 52 53
f 50 53 51
f 3 9 16
f 3 4 9
f 3 17 4
f 9 4 11
f 11 4 12
f 9 11 19
f 9 19 16
f 16 19 21
f 3 16 17
f 16 21 22
f 16 22 17
f 11 21 19
f 10 13 34
f 10 34 20
f 10 23 13
f 13 14 34
f 10 20 23
f 20 47 23
f 23 47 24
f 34 36 44
f 34 14 36
f 36 14 37
f 20 34 44
f 20 44 46
f 36 46 44
f 20 46 47
f 35 48 38
f 35 38 41
f 35 41 45
f 41 42 54
f 41 38 39
f 41 39 42
f 35 45 48
f 41 54 45
f 45 54 55
f 45 55 48
f 54 42 55
f 48 55 49

