# https://github.com/mikedh/trimesh
v -37.89346188 115.00000000 24.99999918
v -37.89346188 101.50041312 24.99999918
v -37.89346188 115.00000000 16.48749717
v -114.99245316 115.00000000 24.99999918
v -37.89346188 101.50041312 16.48749717
v -56.50017709 101.42600715 24.99999918
v -114.99245316 115.00000000 16.48749717
v -114.99245316 101.42600715 24.99999918
v -56.50017709 101.42600715 16.48749717
v -114.99245316 101.42600715 16.48749717
f 1 2 5
f 1 5 3
f 1 3 7
f 1 7 4
f 1 4 8
f 1 8 6
f 1 6 2
f 2 6 9
f 2 9 5
f 3 5 9
f 3 9 10
f 3 10 7
f 4 7 10
f 4 10 8
f 6 8 10
f 6 10 9

