# https://github.com/mikedh/trimesh
v -115.00000000 -16.42403618 -25.00000089
v -115.00000000 -16.42403618 1.72464278
v -115.00000000 0.01684673 -25.00000089
v -79.46609497 -16.42403618 -25.00000089
v -115.00000000 0.01684673 1.72464278
v -79.50087488 -16.42403618 1.72464278
v -79.46609497 0.01684673 -25.00000089
v -79.46609497 -16.42403618 -0.00189099
v -79.50087488 0.01684673 1.72464278
v -79.46609497 0.01684673 -0.00189099
f 1 2 5
f 1 5 3
f 1 3 7
f 1 7 4
f 1 4 8
f 1 8 6
f 1 6 2
f 2 6 9
f 2 9 5
f 3 5 9
f 3 9 10
f 3 10 7
f 4 7 10
f 4 10 8
f 6 8 10
f 6 10 9

