# https://github.com/mikedh/trimesh
v 16.22668214 -16.50631800 15.03737077
v 16.22668214 -16.40980959 -0.00407588
v -3.34830905 -16.50631800 15.03737077
v 16.22668214 -114.99034882 15.03737077
v 16.22668214 -16.40980959 -24.99999747
v 0.01719314 -16.40980959 -0.00407588
v -16.48689739 -16.50631800 15.02953261
v -16.48689739 -16.82478651 15.03737077
v 0.01399095 -115.00000000 15.03737077
v 16.22668214 -114.99034882 -24.99999747
v 0.01719314 -16.40980959 -24.99999747
v -16.48689739 -16.43876314 -0.00407588
v -16.48689739 -115.00000000 15.03737077
v 0.01399095 -115.00000000 -24.99999747
v -16.48689739 -16.43876314 -24.99999747
v -16.48689739 -115.00000000 -24.99999747
f 1 2 6
f 1 6 3
f 1 3 8
f 1 8 13
f 1 13 9
f 1 9 4
f 1 4 10
f 1 10 5
f 1 5 2
f 2 5 11
f 2 11 6
f 3 7 8
f 3 6 7
f 4 9 14
f 4 14 10
f 5 10 14
f 5 14 16
f 5 16 15
f 5 15 11
f 6 11 15
f 6 15 12
f 6 12 7
f 7 12 15
f 7 15 16
f 7 16 13
f 7 13 8
f 9 13 16
f 9 16 14

