# https://github.com/mikedh/trimesh
v 79.07237053 114.99034882 0.01854151
v 67.89603889 114.99034882 0.01854151
v 79.07237053 16.52050346 0.01854151
v 79.07237053 114.99034882 -24.99999918
v 67.89603889 114.99034882 -24.99999918
v 67.89603889 16.52050346 0.01854151
v 79.07237053 -0.01684844 -0.00105046
v 79.07237053 -0.01684844 -24.99999918
v 67.89603889 -0.01684844 -24.99999918
v 67.89603889 -0.01684844 -0.00105046
f 1 2 6
f 1 6 3
f 1 3 7
f 1 7 8
f 1 8 4
f 1 4 5
f 1 5 2
f 2 5 9
f 2 9 10
f 2 10 6
f 3 6 10
f 3 10 7
f 4 8 9
f 4 9 5
f 7 10 9
f 7 9 8

