# https://github.com/mikedh/trimesh
v -75.93314469 115.00000000 16.48749545
v -75.93314469 115.00000000 0.71445109
v -115.00000000 115.00000000 16.48749545
v -75.93314469 16.50516644 16.48749545
v -115.00000000 115.00000000 0.71445109
v -75.93314469 114.99034882 -24.99999747
v -115.00000000 16.42797410 16.48749545
v -79.50483680 16.42797410 16.48749545
v -75.93314469 16.43762529 -0.00435134
v -114.99617517 114.99034882 -24.99999747
v -115.00000000 16.42797410 0.71445109
v -75.93314469 16.43762529 -24.99999747
v -79.50483680 16.42797410 0.71445109
v -114.99617517 16.46657199 -24.99999747
v -77.57367462 16.43762529 -24.99999747
f 1 2 5
f 1 5 3
f 1 3 7
f 1 7 8
f 1 8 4
f 1 4 9
f 1 9 12
f 1 12 6
f 1 6 2
f 2 6 10
f 2 10 5
f 3 5 11
f 3 11 7
f 4 8 9
f 5 10 14
f 5 14 11
f 6 12 15
f 6 15 14
f 6 14 10
f 7 11 13
f 7 13 8
f 8 13 12
f 8 12 9
f 11 14 15
f 11 15 12
f 11 12 13

