# https://github.com/mikedh/trimesh
v 16.50049165 -16.50709599 15.03737077
v 37.91066334 -0.01845241 14.99817997
v 16.22880362 -16.50709599 15.03737077
v 37.91066334 -101.49394244 15.03737077
v 37.91066334 -0.01845241 -24.99999747
v 16.50049165 -0.01845241 14.99817997
v 16.22880362 -0.01845241 -0.00015765
v 16.22880362 -115.00000000 15.03737077
v 37.91066334 -115.00000000 15.03737077
v 16.22880362 -0.01845241 -24.99999747
v 37.91066334 -115.00000000 -24.99999747
v 16.22880362 -115.00000000 -24.99999747
f 1 2 6
f 1 6 3
f 1 3 8
f 1 8 9
f 1 9 4
f 1 4 2
f 2 5 10
f 2 10 7
f 2 7 6
f 2 4 9
f 2 9 11
f 2 11 5
f 3 6 7
f 3 7 10
f 3 10 12
f 3 12 8
f 5 11 12
f 5 12 10
f 8 12 11
f 8 11 9

