# https://github.com/mikedh/trimesh
v 56.07348233 -115.00000000 15.03834412
v 56.07348233 -115.00000000 24.99999747
v 56.07348233 -101.49192035 15.03834412
v 79.47764486 -115.00000000 15.03834412
v 79.47764486 -115.00000000 24.99999747
v 56.07348233 -101.49192035 24.99999747
v 56.50188729 -16.50000155 15.03834412
v 79.47764486 -31.26150474 15.03834412
v 79.47764486 -16.50000155 24.99999747
v 56.50188729 -16.50000155 24.99999747
v 65.66790402 -16.50000155 15.03834412
v 79.47764486 -16.50000155 15.04809469
f 1 2 6
f 1 6 3
f 1 3 7
f 1 7 11
f 1 11 8
f 1 8 4
f 1 4 5
f 1 5 2
f 2 5 9
f 2 9 10
f 2 10 6
f 3 6 10
f 3 10 7
f 4 8 12
f 4 12 9
f 4 9 5
f 7 10 9
f 7 9 12
f 7 12 11
f 8 11 12

