# https://github.com/mikedh/trimesh
v 0.01686901 101.43257380 15.03737077
v 0.01686901 101.43257380 0.18795904
v -16.19644165 101.43257380 15.03737077
v 0.01686901 16.51383400 15.03737077
v -16.19644165 101.43257380 0.18795904
v 0.01686901 101.42423868 -24.99999747
v -37.88591847 101.42423868 14.99817997
v -16.50438331 101.42423868 15.03737077
v -16.50438331 16.51383400 15.03737077
v -16.50438331 16.24697670 14.99817997
v 0.01686901 16.24697670 -0.00799496
v -37.88591847 101.42423868 -24.99999747
v 0.01686901 16.24697670 -24.99999747
v -37.88591847 16.24697670 14.99817997
v -37.88591847 16.24697670 -24.99999747
f 1 2 5
f 1 5 3
f 1 3 8
f 1 8 9
f 1 9 4
f 1 4 11
f 1 11 13
f 1 13 6
f 1 6 2
f 2 6 12
f 2 12 5
f 3 5 12
f 3 12 7
f 3 7 8
f 4 9 14
f 4 14 10
f 4 10 11
f 6 13 15
f 6 15 12
f 7 12 15
f 7 15 14
f 7 14 9
f 7 9 8
f 10 14 15
f 10 15 13
f 10 13 11

