# https://github.com/mikedh/trimesh
v 37.91066334 16.36122122 1.72594471
v 37.91249007 -16.41546115 1.72594471
v 37.91066334 16.36122122 14.99958001
v 37.91066334 115.00000000 1.72594471
v 37.91249007 -16.41546115 14.99958001
v 56.49713367 -16.41546115 1.72594471
v 37.91066334 101.48025393 15.03737077
v 37.91066334 115.00000000 15.03737077
v 56.55736789 115.00000000 1.72594471
v 56.49713367 -16.41546115 14.99958001
v 56.49896041 16.51558533 15.03737077
v 56.55736789 16.51558533 1.72594471
v 56.55736789 115.00000000 15.03737077
v 56.55736789 16.51558533 15.03737077
f 1 2 5
f 1 5 3
f 1 3 7
f 1 7 8
f 1 8 4
f 1 4 9
f 1 9 12
f 1 12 6
f 1 6 2
f 2 6 10
f 2 10 5
f 3 5 7
f 4 8 13
f 4 13 9
f 5 10 14
f 5 14 11
f 5 11 7
f 6 12 14
f 6 14 10
f 7 11 14
f 7 14 13
f 7 13 8
f 9 13 14
f 9 14 12

