# https://github.com/mikedh/trimesh
v 37.91066334 114.98874485 15.03737077
v 17.60538772 114.98874485 15.03737077
v 37.91066334 101.48961037 15.03737077
v 37.91066334 114.98874485 -24.99999747
v 17.60538772 114.98874485 -24.99999747
v 17.60538772 101.48961037 15.03737077
v 37.91066334 -0.00719383 14.99817997
v 37.91066334 -0.00719383 -24.99999747
v 17.60538772 -0.00719383 -24.99999747
v 17.60538772 -0.00719383 14.99817997
f 1 2 6
f 1 6 3
f 1 3 7
f 1 7 8
f 1 8 4
f 1 4 5
f 1 5 2
f 2 5 9
f 2 9 10
f 2 10 6
f 3 6 10
f 3 10 7
f 4 8 9
f 4 9 5
f 7 10 9
f 7 9 8

