# https://github.com/mikedh/trimesh
v -37.88592190 115.00000000 16.48749545
v -56.46467745 115.00000000 16.48749545
v -37.88592190 101.50089979 16.48749545
v -37.88592190 115.00000000 -24.99999747
v -56.46467745 101.50089979 16.48749545
v -56.46467745 115.00000000 -24.99999747
v -37.88592190 101.34044886 14.99709696
v -37.88592190 101.34044886 -24.99999747
v -56.46467745 101.34044886 14.99709696
v -56.46467745 101.34044886 -24.99999747
f 1 2 5
f 1 5 3
f 1 3 7
f 1 7 8
f 1 8 4
f 1 4 6
f 1 6 2
f 2 6 10
f 2 10 9
f 2 9 5
f 3 5 9
f 3 9 7
f 4 8 10
f 4 10 6
f 7 9 10
f 7 10 8

