# https://github.com/mikedh/trimesh
v -114.99651790 0.02838120 16.48749717
v -79.50010717 0.02838120 16.48749717
v -114.99651790 0.02838120 24.99999918
v -114.99651790 101.42600715 16.48749717
v -79.50010717 0.02838120 24.99999918
v -79.43047881 16.50611579 16.48749717
v -114.99651790 101.42600715 24.99999918
v -79.43047881 101.42600715 16.48749717
v -79.43047881 16.50611579 24.99999918
v -79.43047881 101.42600715 24.99999918
f 1 2 5
f 1 5 3
f 1 3 7
f 1 7 4
f 1 4 8
f 1 8 6
f 1 6 2
f 2 6 9
f 2 9 5
f 3 5 9
f 3 9 10
f 3 10 7
f 4 7 10
f 4 10 8
f 6 8 10
f 6 10 9

