# https://github.com/mikedh/trimesh
v -16.49838388 16.51662722 15.03834412
v -16.49838388 16.51662722 24.99999747
v -16.49838388 101.42597973 15.03834412
v 16.50000155 16.51662722 15.03834412
v 16.50000155 16.51662722 24.99999747
v -16.49838388 101.42597973 24.99999747
v 0.01695832 101.48420215 15.03834412
v 16.50000155 101.48420215 15.03834412
v 16.49354115 101.48420215 24.99999747
v 0.01695832 101.48420215 24.99999747
f 1 2 6
f 1 6 3
f 1 3 7
f 1 7 8
f 1 8 4
f 1 4 5
f 1 5 2
f 2 5 9
f 2 9 10
f 2 10 6
f 3 6 10
f 3 10 7
f 4 8 5
f 5 8 9
f 7 10 9
f 7 9 8

