# https://github.com/mikedh/trimesh
v 58.22279692 114.98713404 1.72464192
v 37.91463554 114.98713404 1.72464192
v 58.22279692 16.51745319 1.72464192
v 58.22279692 114.98713404 -25.00000089
v 37.91463554 114.98713404 -25.00000089
v 37.91463554 -16.45161539 1.72464192
v 56.49515957 -16.45161539 1.72464192
v 58.22279692 -16.45161539 -0.00189185
v 58.22279692 -16.45161539 -25.00000089
v 37.91463554 -16.45161539 -25.00000089
f 1 2 6
f 1 6 7
f 1 7 3
f 1 3 8
f 1 8 9
f 1 9 4
f 1 4 5
f 1 5 2
f 2 5 10
f 2 10 6
f 3 7 8
f 4 9 10
f 4 10 5
f 6 10 9
f 6 9 8
f 6 8 7

