# https://github.com/mikedh/trimesh
v 56.48528218 101.49192035 15.03834412
v 56.50101334 16.50000155 15.03834412
v 56.48528218 101.49192035 24.99999747
v 56.48528218 115.00000000 15.03834412
v 79.44343388 16.50000155 15.03834412
v 56.50101334 16.50000155 24.99999747
v 56.48528218 115.00000000 24.99999747
v 79.44343388 115.00000000 15.03834412
v 79.44343388 16.50000155 24.99999747
v 79.44343388 115.00000000 24.99999747
f 1 2 6
f 1 6 3
f 1 3 7
f 1 7 4
f 1 4 8
f 1 8 5
f 1 5 2
f 2 5 9
f 2 9 6
f 3 6 9
f 3 9 10
f 3 10 7
f 4 7 10
f 4 10 8
f 5 8 10
f 5 10 9

