# https://github.com/mikedh/trimesh
v -37.88592190 0.00719383 1.72464278
v -37.88592190 0.00719383 -25.00000089
v -56.49977610 0.00719383 1.72464278
v -37.88592190 -114.98874485 1.72464278
v -57.12118074 0.00719383 -25.00000089
v -37.88592190 -114.98874485 -25.00000089
v -57.12118074 0.00719383 -0.00189099
v -57.12118074 -16.50925517 1.72464278
v -57.12118074 -114.98874485 1.72464278
v -57.12118074 -114.98874485 -25.00000089
f 1 2 5
f 1 5 7
f 1 7 3
f 1 3 8
f 1 8 9
f 1 9 4
f 1 4 6
f 1 6 2
f 2 6 10
f 2 10 5
f 3 7 8
f 4 9 10
f 4 10 6
f 5 10 9
f 5 9 8
f 5 8 7

