# https://github.com/mikedh/trimesh
v -115.00000000 11.06402867 -24.99999918
v -115.00000000 11.06402867 0.04394442
v -115.00000000 16.42797753 -24.99999918
v -75.93314469 11.06402867 -24.99999918
v -115.00000000 16.42797753 0.04394442
v -79.50136840 11.06402867 0.04394442
v -75.93314469 16.42797753 -24.99999918
v -75.93314469 11.06402867 -0.00018165
v -79.50136840 16.42797753 0.04394442
v -75.93314469 16.42797753 -0.00018165
f 1 2 5
f 1 5 3
f 1 3 7
f 1 7 4
f 1 4 8
f 1 8 6
f 1 6 2
f 2 6 9
f 2 9 5
f 3 5 9
f 3 9 10
f 3 10 7
f 4 7 10
f 4 10 8
f 6 8 10
f 6 10 9

