# https://github.com/mikedh/trimesh
v -56.48636520 -101.42164767 24.99999747
v -56.48636520 -101.42164767 15.04809469
v -114.99246001 -101.42164767 24.99999747
v 56.07171044 -101.50405288 24.99999747
v -56.72079369 -101.42164767 15.03834412
v 56.07171044 -101.50405288 15.03834412
v -114.99246001 -101.42164767 15.03834412
v -114.99246001 -115.00000000 24.99999747
v 56.07171044 -115.00000000 24.99999747
v 56.07171044 -115.00000000 15.03834412
v -114.99246001 -115.00000000 15.03834412
f 1 2 5
f 1 5 7
f 1 7 3
f 1 3 8
f 1 8 9
f 1 9 4
f 1 4 6
f 1 6 2
f 2 6 5
f 3 7 11
f 3 11 8
f 4 9 10
f 4 10 6
f 5 6 10
f 5 10 11
f 5 11 7
f 8 11 10
f 8 10 9

