# https://github.com/mikedh/trimesh
v 0.01845583 16.50000155 0.03507294
v 0.01845583 16.50000155 15.03674701
v 0.01845583 115.00000000 0.03507294
v 16.44043222 16.50000155 0.03507294
v 3.35236158 16.50000155 15.03674701
v 0.01845583 115.00000000 15.03674701
v 16.44043222 115.00000000 0.03507294
v 16.44043222 16.50000155 15.02793550
v 16.44043222 16.81817874 15.03674701
v 16.44043222 115.00000000 15.03674701
f 1 2 6
f 1 6 3
f 1 3 7
f 1 7 4
f 1 4 8
f 1 8 5
f 1 5 2
f 2 5 9
f 2 9 10
f 2 10 6
f 3 6 10
f 3 10 7
f 4 7 10
f 4 10 9
f 4 9 8
f 5 8 9

