mtllib assembly3.mtl
o obj4

v 15.000000 15.000000 17.000000
v 15.000000 -15.000000 50.000000
v 15.000000 -15.000000 17.000000
v 15.000000 15.000000 50.000000
v -15.000000 -15.000000 50.000000
v -15.000000 15.000000 50.000000
v -15.000000 -15.000000 17.000000
v -15.000000 15.000000 17.000000
v -78.000000 -15.000000 17.000000
v -78.000000 15.000000 17.000000
v -78.000000 15.000000 -50.000000
v -78.000000 -15.000000 -50.000000
v -58.000000 -15.000000 -50.000000
v -58.000000 15.000000 -50.000000
v -58.000000 -15.000000 2.000000
v -58.000000 15.000000 2.000000
v -15.000000 -15.000000 2.000000
v -15.000000 15.000000 2.000000
v -15.000000 -15.000000 -50.000000
v -15.000000 15.000000 -50.000000
v 15.000000 -15.000000 -50.000000
v 15.000000 15.000000 -50.000000
v 15.000000 -15.000000 2.000000
v 15.000000 15.000000 2.000000
v 58.000000 -15.000000 2.000000
v 58.000000 15.000000 2.000000
v 58.000000 -15.000000 -50.000000
v 58.000000 15.000000 -50.000000
v 78.000000 -15.000000 -50.000000
v 78.000000 15.000000 -50.000000
v 78.000000 -15.000000 17.000000
v 78.000000 15.000000 17.000000

usemtl mat4
f 1 2 3
f 1 4 2
f 4 5 2
f 4 6 5
f 6 7 5
f 6 8 7
f 8 9 7
f 8 10 9
f 9 11 12
f 10 11 9
f 11 13 12
f 11 14 13
f 14 15 13
f 14 16 15
f 16 17 15
f 16 18 17
f 18 19 17
f 18 20 19
f 20 21 19
f 20 22 21
f 22 23 21
f 22 24 23
f 24 25 23
f 24 26 25
f 26 27 25
f 26 28 27
f 28 29 27
f 28 30 29
f 30 31 29
f 30 32 31
f 32 3 31
f 32 1 3
f 16 14 11
f 16 11 10
f 8 18 16
f 24 22 20
f 24 20 18
f 1 18 8
f 1 24 18
f 26 30 28
f 26 24 1
f 4 8 6
f 4 1 8
f 32 30 26
f 1 32 26
f 10 8 16
f 9 12 15
f 15 17 7
f 12 13 15
f 7 3 5
f 5 3 2
f 7 23 3
f 17 23 7
f 23 25 3
f 19 21 17
f 17 21 23
f 27 29 25
f 25 29 31
f 7 9 15
f 31 3 25