# https://github.com/mikedh/trimesh
v 58.00155866 -14.99775821 1.92893395
v 58.00155866 -14.99482226 -50.00000167
v 78.00000000 -14.99775821 1.92893395
v 57.95053411 -14.99775821 1.99451736
v 78.00000000 -14.99482226 -50.00000167
v 58.00155866 14.99637043 -50.00000167
v 78.00000000 -14.99775821 16.99999782
v 57.95053411 -14.99775821 16.99999782
v 57.95053411 14.99930638 1.99451736
v 78.00000000 14.99637043 -50.00000167
v 58.00155866 14.99930638 1.92893395
v 78.00000000 14.99930638 16.99999782
v 57.95053411 14.99930638 16.99999782
v 78.00000000 14.99930638 1.92893395
f 1 2 5
f 1 5 3
f 1 3 7
f 1 7 8
f 1 8 4
f 1 4 2
f 2 4 9
f 2 9 6
f 2 6 10
f 2 10 5
f 3 5 10
f 3 10 14
f 3 14 12
f 3 12 7
f 4 8 13
f 4 13 9
f 6 9 11
f 6 11 14
f 6 14 10
f 7 12 13
f 7 13 8
f 9 13 12
f 9 12 14
f 9 14 11

