# https://github.com/mikedh/trimesh
v 14.99999968 -20.48817378 49.99999973
v 14.99999968 -30.49963561 49.99999973
v 14.99999968 -20.48817378 21.99491075
v -14.99999968 -20.48817378 49.99999973
v -14.99999968 -30.49963561 49.99999973
v 14.99999968 -30.55086091 -4.99216917
v -14.99999968 -20.48817378 21.99491075
v 14.99999968 -20.50196373 -49.99999973
v -14.99999968 -30.55086091 -4.99216917
v 14.99999968 -30.55086091 -49.99999973
v -14.99999968 -20.50196373 -49.99999973
v -14.99999968 -30.55086091 -49.99999973
f 1 2 6
f 1 6 10
f 1 10 8
f 1 8 3
f 1 3 7
f 1 7 4
f 1 4 5
f 1 5 2
f 2 5 9
f 2 9 6
f 3 8 11
f 3 11 7
f 4 7 11
f 4 11 12
f 4 12 9
f 4 9 5
f 6 9 12
f 6 12 10
f 8 10 12
f 8 12 11

