# https://github.com/mikedh/trimesh
v 14.99999968 -20.50098251 -2.29837328
v -14.99999968 -20.50098251 -2.29837328
v 14.99999968 -30.49969558 -2.29837328
v 14.99999968 -20.50098251 -49.99999973
v -14.99999968 -30.49969558 -2.29837328
v -14.99999968 -20.50098251 -49.99999973
v 14.99999968 -30.55184454 -5.00190197
v 14.99999968 -30.55184454 -49.99999973
v -14.99999968 -30.55184454 -5.00190197
v -14.99999968 -30.55184454 -49.99999973
f 1 2 5
f 1 5 3
f 1 3 7
f 1 7 8
f 1 8 4
f 1 4 6
f 1 6 2
f 2 6 10
f 2 10 9
f 2 9 5
f 3 5 9
f 3 9 7
f 4 8 10
f 4 10 6
f 7 9 10
f 7 10 8

