# https://github.com/mikedh/trimesh
v 14.99999968 -20.50586945 -2.29837328
v -14.99999968 -20.50586945 -2.29837328
v 14.99999968 -30.50195312 -2.29837328
v 14.99999968 -20.50586945 -49.99999973
v -14.99999968 -20.50586945 -49.99999973
v -14.99999968 -30.50195312 -2.29837328
v 14.99999968 -80.50000000 -5.00190197
v 14.99999968 -80.50000000 -49.99999973
v -14.99999968 -80.50000000 -49.99999973
v -14.99999968 -80.50000000 -5.00190197
f 1 2 6
f 1 6 3
f 1 3 7
f 1 7 8
f 1 8 4
f 1 4 5
f 1 5 2
f 2 5 9
f 2 9 10
f 2 10 6
f 3 6 10
f 3 10 7
f 4 8 9
f 4 9 5
f 7 10 9
f 7 9 8

