mtllib assembly1.mtl
o obj4

v -15.000000 -30.500000 -5.000000
v 15.000000 -80.500000 -5.000000
v 15.000000 -30.500000 -5.000000
v -15.000000 -80.500000 -5.000000
v 15.000000 -80.500000 -50.000000
v -15.000000 -80.500000 -50.000000
v -15.000000 -20.500000 -50.000000
v 15.000000 -20.500000 -50.000000
v 15.000000 -20.500000 22.000000
v -15.000000 -20.500000 22.000000
v 15.000000 20.500000 22.000000
v -15.000000 20.500000 22.000000
v 15.000000 20.500000 -50.000000
v -15.000000 20.500000 -50.000000
v -15.000000 80.500000 -50.000000
v 15.000000 80.500000 -50.000000
v 15.000000 80.500000 -5.000000
v -15.000000 80.500000 -5.000000
v 15.000000 30.500000 -5.000000
v -15.000000 30.500000 -5.000000
v 15.000000 30.500000 50.000000
v -15.000000 30.500000 50.000000
v 15.000000 -30.500000 50.000000
v -15.000000 -30.500000 50.000000

usemtl mat4
f 1 2 3
f 1 4 2
f 4 5 2
f 4 6 5
f 5 7 8
f 6 7 5
f 7 9 8
f 7 10 9
f 10 11 9
f 10 12 11
f 12 13 11
f 12 14 13
f 13 15 16
f 14 15 13
f 15 17 16
f 15 18 17
f 18 19 17
f 18 20 19
f 20 21 19
f 20 22 21
f 22 23 21
f 22 24 23
f 24 3 23
f 24 1 3
f 1 7 6
f 1 6 4
f 15 14 20
f 18 15 20
f 1 24 10
f 1 10 7
f 22 20 12
f 14 12 20
f 12 10 24
f 12 24 22
f 5 3 2
f 23 11 21
f 9 11 23
f 5 8 3
f 19 16 17
f 13 16 19
f 19 21 11
f 11 13 19
f 8 9 3
f 3 9 23