# https://github.com/mikedh/trimesh
v 14.99999968 30.49949646 50.00000453
v -14.99999968 30.49949646 50.00000453
v 14.99999968 20.46146235 50.00000453
v 14.99999968 30.55184454 -4.99953257
v -14.99999968 20.46146235 50.00000453
v -14.99999968 30.55184454 -4.99953257
v 14.99999968 20.46146235 21.99614628
v 14.99999968 30.55184454 -49.99559021
v -14.99999968 20.46146235 21.99614628
v -14.99999968 30.55184454 -49.99559021
v 14.99999968 20.50195894 -49.99559021
v -14.99999968 20.50195894 -49.99559021
f 1 2 5
f 1 5 3
f 1 3 7
f 1 7 11
f 1 11 8
f 1 8 4
f 1 4 6
f 1 6 2
f 2 6 10
f 2 10 12
f 2 12 9
f 2 9 5
f 3 5 9
f 3 9 7
f 4 8 10
f 4 10 6
f 7 9 12
f 7 12 11
f 8 11 12
f 8 12 10

