# https://github.com/mikedh/trimesh
v 84.99152124 -52.00548083 -2.47193865
v 84.99152124 -27.19961405 -2.50060603
v 67.97847152 -52.00548083 -2.47193865
v 84.99152124 -115.00000000 -2.47193865
v 67.97847152 -27.19961405 -2.50060603
v 84.99152124 -27.19961405 -24.99999918
v 67.97847152 -115.00000000 -2.47193865
v 84.99152124 -115.00000000 -24.99999918
v 67.97847152 -27.19961405 -24.99999918
v 67.97847152 -115.00000000 -24.99999918
f 1 2 5
f 1 5 3
f 1 3 7
f 1 7 4
f 1 4 8
f 1 8 6
f 1 6 2
f 2 6 9
f 2 9 5
f 3 5 9
f 3 9 10
f 3 10 7
f 4 7 10
f 4 10 8
f 6 8 10
f 6 10 9

