# https://github.com/mikedh/trimesh
v 84.99153495 51.97719902 -2.47532479
v 85.00034988 -27.19101846 -2.47532479
v 84.99153495 51.97719902 24.99999747
v 84.99153495 115.00000000 -2.47532479
v 114.99706626 -27.19101846 -2.47532479
v 85.00034988 -27.19101846 19.87661362
v 85.00328362 -27.17709690 24.99999747
v 84.99153495 114.97216374 24.99999747
v 84.99153495 115.00000000 19.87661362
v 114.99706626 115.00000000 -2.47532479
v 114.99706626 -27.19101846 19.87661362
v 114.99706626 -27.17709690 24.99999747
v 114.99706626 114.97216374 24.99999747
v 114.99706626 115.00000000 19.87661362
f 1 2 6
f 1 6 3
f 1 3 8
f 1 8 9
f 1 9 4
f 1 4 10
f 1 10 5
f 1 5 2
f 2 5 11
f 2 11 6
f 3 6 7
f 3 7 12
f 3 12 13
f 3 13 8
f 4 9 14
f 4 14 10
f 5 10 14
f 5 14 13
f 5 13 12
f 5 12 11
f 6 11 12
f 6 12 7
f 8 13 14
f 8 14 9

