# https://github.com/mikedh/trimesh
v -68.01155835 51.92357257 -24.99999918
v -5.48231125 51.92357257 -24.99999918
v -68.01155835 51.92357257 -2.49608461
v -68.01155835 115.00000000 -24.99999918
v -5.48231125 51.92357257 24.99999918
v -5.48231125 115.00000000 -24.99999918
v -50.99875540 51.92357257 24.99999918
v -68.01155835 52.00384602 24.99999918
v -68.01155835 115.00000000 24.99999918
v -5.48231125 115.00000000 24.99999918
f 1 2 5
f 1 5 7
f 1 7 3
f 1 3 8
f 1 8 9
f 1 9 4
f 1 4 6
f 1 6 2
f 2 6 10
f 2 10 5
f 3 7 8
f 4 9 10
f 4 10 6
f 5 10 9
f 5 9 8
f 5 8 7

