# https://github.com/mikedh/trimesh
v 67.98141211 -27.19101846 -24.99779373
v 67.98141211 -27.19101846 -2.50398275
v 67.98141211 115.00000000 -24.99779373
v 114.99782026 -27.19101846 -24.99779373
v 85.00213891 -27.19101846 -2.47753024
v 67.98141211 51.96328089 -2.47753024
v 67.98141211 115.00000000 -2.47753024
v 114.99782026 115.00000000 -24.99779373
v 114.99782026 -27.19101846 -2.47753024
v 114.99782026 115.00000000 -2.47753024
f 1 2 6
f 1 6 7
f 1 7 3
f 1 3 8
f 1 8 4
f 1 4 9
f 1 9 5
f 1 5 2
f 2 5 6
f 3 7 10
f 3 10 8
f 4 8 10
f 4 10 9
f 5 9 10
f 5 10 7
f 5 7 6

