# https://github.com/mikedh/trimesh
v -68.01155835 -114.99383092 -24.99999918
v -5.48231125 -114.99383092 -24.99999918
v -68.01155835 -114.99383092 24.99999918
v -68.01155835 -51.90773860 -24.99999918
v -5.48231125 -114.99383092 24.99999918
v -5.48231125 -51.90773860 -24.99999918
v -68.01155835 -52.00037763 24.99999918
v -68.01155835 -51.90773860 -2.49608461
v -5.48231125 -51.90773860 24.99999918
v -50.99875540 -51.90773860 24.99999918
f 1 2 5
f 1 5 3
f 1 3 7
f 1 7 8
f 1 8 4
f 1 4 6
f 1 6 2
f 2 6 9
f 2 9 5
f 3 5 9
f 3 9 10
f 3 10 7
f 4 8 10
f 4 10 9
f 4 9 6
f 7 10 8

