# https://github.com/mikedh/trimesh
v -5.47619015 -5.66612072 -24.99999918
v 51.00927025 -5.66612072 -24.99999918
v -5.47619015 -5.66612072 24.99999918
v -5.47619015 51.90710455 -24.99999918
v 51.00927025 -5.66612072 -2.51076745
v 51.00927025 51.90710455 -24.99999918
v 50.99821389 -5.66612072 24.99999918
v -5.47619015 51.90710455 24.99999918
v 51.00927025 -5.66048630 -2.49608461
v 51.00927025 51.90710455 -2.49608461
v 50.99821389 51.90710455 24.99999918
f 1 2 5
f 1 5 7
f 1 7 3
f 1 3 8
f 1 8 4
f 1 4 6
f 1 6 2
f 2 6 10
f 2 10 9
f 2 9 5
f 3 7 11
f 3 11 8
f 4 8 11
f 4 11 10
f 4 10 6
f 5 9 7
f 7 9 10
f 7 10 11

