# https://github.com/mikedh/trimesh
v -85.00232399 -27.19961405 24.99999918
v -115.00000000 -27.19961405 24.99999918
v -84.97881293 -52.00548083 24.99999918
v -84.97881293 -27.19961405 -2.49608461
v -115.00000000 -27.19961405 -24.99999918
v -115.00000000 -115.00000000 24.99999918
v -84.97881293 -115.00000000 24.99999918
v -84.97881293 -27.19961405 -24.99999918
v -115.00000000 -115.00000000 -24.99999918
v -84.97881293 -115.00000000 -24.99999918
f 1 2 6
f 1 6 7
f 1 7 3
f 1 3 4
f 1 4 8
f 1 8 5
f 1 5 2
f 2 5 9
f 2 9 6
f 3 7 10
f 3 10 8
f 3 8 4
f 5 8 10
f 5 10 9
f 6 9 10
f 6 10 7

