# https://github.com/mikedh/trimesh
v 67.97681272 115.00000000 24.99999918
v 67.97681272 52.00592637 24.99999918
v 67.97681272 115.00000000 -24.99999918
v -5.47619015 115.00000000 24.99999918
v 67.97681272 51.90711141 -2.49608461
v 50.99403948 51.90711141 24.99999918
v 67.97681272 51.90711141 -24.99999918
v -5.47619015 115.00000000 -24.99999918
v -5.47619015 51.90711141 24.99999918
v -5.47619015 51.90711141 -24.99999918
f 1 2 5
f 1 5 7
f 1 7 3
f 1 3 8
f 1 8 4
f 1 4 9
f 1 9 6
f 1 6 2
f 2 6 5
f 3 7 10
f 3 10 8
f 4 8 10
f 4 10 9
f 5 6 9
f 5 9 10
f 5 10 7

