# https://github.com/mikedh/trimesh
v -68.02094907 115.00000000 24.99999918
v -84.97715414 115.00000000 24.99999918
v -68.02094907 52.00525463 24.99999918
v -68.02094907 115.00000000 -2.98552148
v -84.97715414 115.00000000 -1.81580551
v -84.97715414 52.00525463 24.99999918
v -68.02094907 51.93735361 -2.49791220
v -84.45426971 115.00000000 -2.98552148
v -68.02094907 51.93735361 -2.98552148
v -84.97715414 52.00525463 -1.81580551
v -84.45426971 51.93735361 -2.49791220
v -84.45426971 51.93735361 -2.98552148
f 1 2 6
f 1 6 3
f 1 3 7
f 1 7 9
f 1 9 4
f 1 4 8
f 1 8 5
f 1 5 2
f 2 5 10
f 2 10 6
f 3 6 11
f 3 11 7
f 4 9 12
f 4 12 8
f 5 8 12
f 5 12 10
f 6 10 12
f 6 12 11
f 7 11 12
f 7 12 9

