# https://github.com/mikedh/trimesh
v -5.47619015 -115.00000000 -24.99999918
v 67.97681272 -115.00000000 -24.99999918
v -5.47619015 -115.00000000 -2.47193865
v -5.47619015 -5.66612244 -24.99999918
v 67.97681272 -115.00000000 -2.47193865
v 67.97681272 -5.66612244 -24.99999918
v -5.47619015 -5.66612244 -2.47193865
v 67.97681272 -52.00673521 -2.47193865
v 67.97681272 -5.66612244 -2.50060603
v 50.99403948 -5.66612244 -2.47193865
f 1 2 5
f 1 5 3
f 1 3 7
f 1 7 4
f 1 4 6
f 1 6 2
f 2 6 9
f 2 9 8
f 2 8 5
f 3 5 8
f 3 8 10
f 3 10 7
f 4 7 10
f 4 10 9
f 4 9 6
f 8 9 10

