# https://github.com/mikedh/trimesh
v -84.45734739 115.00000000 -1.81909526
v -84.45734739 115.00000000 -2.98552191
v -85.62230289 115.00000000 -1.81909526
v -84.45734739 51.99111715 -1.81909526
v -85.62230289 115.00000000 -2.98552191
v -84.45734739 -27.19101846 -2.98552191
v -85.62230289 -27.19101846 -1.81909526
v -85.00002772 -27.19101846 -1.81909526
v -84.45734739 -27.19101846 -2.49999598
v -85.62230289 -27.19101846 -2.98552191
f 1 2 5
f 1 5 3
f 1 3 7
f 1 7 8
f 1 8 4
f 1 4 9
f 1 9 6
f 1 6 2
f 2 6 10
f 2 10 5
f 3 5 10
f 3 10 7
f 4 8 9
f 6 9 8
f 6 8 7
f 6 7 10

