# https://github.com/mikedh/trimesh
v 67.97681272 51.90710455 -2.50220142
v 67.97681272 51.90710455 -25.00000089
v 51.01092905 51.90710455 -2.50220142
v 67.97681272 -5.66612072 -2.50220142
v 51.01092905 51.90710455 -25.00000089
v 67.97681272 -5.66612072 -25.00000089
v 51.01092905 -5.66048630 -2.50220142
v 66.10499710 -5.66612072 -2.50220142
v 51.01092905 -5.66612072 -25.00000089
v 51.01092905 -5.66612072 -2.51321323
f 1 2 5
f 1 5 3
f 1 3 7
f 1 7 8
f 1 8 4
f 1 4 6
f 1 6 2
f 2 6 9
f 2 9 5
f 3 5 9
f 3 9 10
f 3 10 7
f 4 8 10
f 4 10 9
f 4 9 6
f 7 10 8

