mtllib assembly1.mtl
o obj1

# Outer bounding box vertices
v -115.000000 -115.000000 -25.000000
v 115.000000 -115.000000 -25.000000
v 115.000000 115.000000 -25.000000
v -115.000000 115.000000 -25.000000
v -115.000000 -115.000000 25.000000
v 115.000000 -115.000000 25.000000
v 115.000000 115.000000 25.000000
v -115.000000 115.000000 25.000000

# Left hole vertices
v -85.000000 -52.000000 -20.000000
v -51.000000 -52.000000 -20.000000
v -51.000000 52.000000 -20.000000
v -85.000000 52.000000 -20.000000
v -85.000000 -52.000000 25.000000
v -51.000000 -52.000000 25.000000
v -51.000000 52.000000 25.000000
v -85.000000 52.000000 25.000000

# Right hole vertices
v 51.000000 -52.000000 -20.000000
v 85.000000 -52.000000 -20.000000
v 85.000000 52.000000 -20.000000
v 51.000000 52.000000 -20.000000
v 51.000000 -52.000000 25.000000
v 85.000000 -52.000000 25.000000
v 85.000000 52.000000 25.000000
v 51.000000 52.000000 25.000000

usemtl mat1

# Bottom
f 1 2 3
f 1 3 4

# Outer Walls
f 1 5 6
f 1 6 2
f 2 6 7
f 2 7 3
f 3 7 8
f 3 8 4
f 4 8 5
f 4 5 1

# Top Face Bridge Triangles
f 5 6 14
f 5 14 13
f 6 22 21
f 6 7 22
f 7 8 16
f 7 16 15
f 8 5 13
f 8 13 16
f 14 22 21
f 14 21 13
f 13 21 17
f 13 17 16

# Left Hole Interior Walls & Floor
f 9 10 14
f 9 14 13
f 10 11 15
f 10 15 14
f 11 12 16
f 11 16 15
f 12 9 13
f 12 13 16
f 9 12 11
f 9 11 10

# Right Hole Interior Walls & Floor
f 17 18 22
f 17 22 21
f 18 19 23
f 18 23 22
f 19 20 24
f 19 24 23
f 20 17 21
f 20 21 24
f 17 20 19
f 17 19 18
