# https://github.com/mikedh/trimesh
v -115.00000000 -115.00000000 -25.00000000
v -85.00000000 -52.00000000 -2.50000000
v -51.00000000 -52.00000000 -2.50000000
v -115.00000000 -115.00000000 25.00000000
v -85.00000000 -52.00000000 25.00000000
v -51.00000000 -52.00000000 25.00000000
v -85.00000000 52.00000000 -2.50000000
v -115.00000000 115.00000000 -25.00000000
v -51.00000000 52.00000000 -2.50000000
v -85.00000000 52.00000000 25.00000000
v -115.00000000 115.00000000 25.00000000
v -51.00000000 52.00000000 25.00000000
v 51.00000000 -52.00000000 -2.50000000
v 115.00000000 -115.00000000 -25.00000000
v 85.00000000 -52.00000000 -2.50000000
v 51.00000000 -52.00000000 25.00000000
v 115.00000000 -115.00000000 25.00000000
v 85.00000000 -52.00000000 25.00000000
v 51.00000000 52.00000000 -2.50000000
v 85.00000000 52.00000000 -2.50000000
v 115.00000000 115.00000000 -25.00000000
v 51.00000000 52.00000000 25.00000000
v 85.00000000 52.00000000 25.00000000
v 115.00000000 115.00000000 25.00000000
f 1 14 4
f 1 8 14
f 4 6 5
f 1 4 11
f 4 5 10
f 4 16 6
f 1 11 8
f 4 10 11
f 11 10 12
f 22 12 6
f 8 11 24
f 11 12 24
f 14 21 17
f 4 14 17
f 4 17 16
f 6 16 22
f 17 18 16
f 17 24 18
f 8 21 14
f 8 24 21
f 24 12 22
f 17 21 24
f 24 23 18
f 24 22 23
f 2 3 7
f 2 5 3
f 3 5 6
f 2 10 5
f 3 6 9
f 3 9 7
f 2 7 10
f 7 9 12
f 7 12 10
f 9 6 12
f 13 15 19
f 13 22 16
f 13 16 15
f 15 18 20
f 15 16 18
f 15 20 19
f 13 19 22
f 19 20 23
f 20 18 23
f 19 23 22

