# https://github.com/mikedh/trimesh
v 51.00000292 -5.66612244 24.99999918
v 51.00000292 -5.66612244 -2.47193865
v -5.47619015 -5.66612244 24.99999918
v 51.00000292 -51.93771005 24.99999918
v 51.00000292 -51.89241529 -2.47193865
v -5.47619015 -5.66612244 -2.47193865
v -5.47619015 -51.93771005 24.99999918
v 51.00000292 -51.93771005 -2.46656042
v 50.96683383 -51.93771005 -2.47193865
v -5.47619015 -51.93771005 -2.47193865
f 1 2 6
f 1 6 3
f 1 3 7
f 1 7 4
f 1 4 8
f 1 8 5
f 1 5 2
f 2 5 9
f 2 9 10
f 2 10 6
f 3 6 10
f 3 10 7
f 4 7 10
f 4 10 9
f 4 9 8
f 5 8 9

