# https://github.com/mikedh/trimesh
v -115.00000000 -27.17709690 -2.98266914
v -85.62237829 -27.17709690 -2.98266914
v -114.99412566 -27.19101846 -1.81843679
v -115.00000000 -27.17709690 -1.81843679
v -115.00000000 114.98607844 -2.98266914
v -85.00525773 -27.19101846 -1.81843679
v -85.62237829 114.98607844 -2.98266914
v -84.97881293 51.97719902 -1.81569755
v -114.99412566 -27.19101846 24.99999918
v -115.00000000 -10.96208975 24.99999918
v -115.00000000 115.00000000 -1.81569755
v -85.00525773 -27.19101846 24.99999918
v -84.97881293 115.00000000 -1.81569755
v -84.97881293 51.97719902 24.99999918
v -115.00000000 115.00000000 24.99999918
v -84.97881293 115.00000000 24.99999918
f 1 2 6
f 1 6 3
f 1 3 9
f 1 9 4
f 1 4 10
f 1 10 15
f 1 15 11
f 1 11 5
f 1 5 7
f 1 7 2
f 2 7 13
f 2 13 8
f 2 8 6
f 3 6 12
f 3 12 9
f 4 9 10
f 5 11 13
f 5 13 7
f 6 8 14
f 6 14 12
f 8 13 16
f 8 16 14
f 9 12 14
f 9 14 16
f 9 16 15
f 9 15 10
f 11 15 16
f 11 16 13

