# https://github.com/mikedh/trimesh
v 114.99706626 -27.19961405 24.99999918
v 114.99706626 -27.19961405 -24.99999918
v 85.00034302 -27.19961405 24.99999918
v 114.99706626 -115.00000000 24.99999918
v 84.99153495 -27.19961405 -24.99999918
v 114.99706626 -115.00000000 -24.99999918
v 84.99153495 -27.19961405 -2.49608461
v 84.99153495 -52.00548083 24.99999918
v 84.99153495 -115.00000000 24.99999918
v 84.99153495 -115.00000000 -24.99999918
f 1 2 5
f 1 5 7
f 1 7 3
f 1 3 8
f 1 8 9
f 1 9 4
f 1 4 6
f 1 6 2
f 2 6 10
f 2 10 5
f 3 7 8
f 4 9 10
f 4 10 6
f 5 10 9
f 5 9 8
f 5 8 7

