# https://github.com/mikedh/trimesh
v -5.48231125 51.91740006 -2.47193865
v -5.48231125 51.91740006 -24.99999918
v -50.99875540 51.91740006 -2.47193865
v -5.48231125 0.00881150 -2.47193865
v -5.48231125 0.00881150 -24.99999918
v -68.01155835 51.91740006 -24.99999918
v -68.01155835 51.91740006 -2.50060603
v -50.99875540 0.00881150 -2.47193865
v -68.01155835 0.00881150 -24.99999918
v -68.01155835 0.00881150 -2.50060603
f 1 2 6
f 1 6 7
f 1 7 3
f 1 3 8
f 1 8 4
f 1 4 5
f 1 5 2
f 2 5 9
f 2 9 6
f 3 7 10
f 3 10 8
f 4 8 10
f 4 10 9
f 4 9 5
f 6 9 10
f 6 10 7

