# https://github.com/mikedh/trimesh
v 50.99528700 -51.93771005 24.99999918
v 50.99528700 -51.93771005 -2.46656042
v -5.47619015 -51.93771005 24.99999918
v 84.99152124 -52.00561106 24.99999918
v 50.96871883 -51.93771005 -2.47193865
v 84.99152124 -52.00561106 -2.47193865
v -5.47619015 -51.93771005 -2.47193865
v -5.47619015 -115.00000000 24.99999918
v 84.99152124 -115.00000000 24.99999918
v 84.99152124 -115.00000000 -2.47193865
v -5.47619015 -115.00000000 -2.47193865
f 1 2 5
f 1 5 7
f 1 7 3
f 1 3 8
f 1 8 9
f 1 9 4
f 1 4 6
f 1 6 2
f 2 6 5
f 3 7 11
f 3 11 8
f 4 9 10
f 4 10 6
f 5 6 10
f 5 10 11
f 5 11 7
f 8 11 10
f 8 10 9

