# https://github.com/mikedh/trimesh
v -115.00000000 -115.00000000 -25.00000000
v -90.00000000 -20.00000000 -25.00000000
v -55.00000000 -20.00000000 -25.00000000
v -115.00000000 -115.00000000 25.00000000
v -90.00000000 -20.00000000 25.00000000
v -55.00000000 -20.00000000 25.00000000
v -90.00000000 20.00000000 -25.00000000
v -115.00000000 115.00000000 -25.00000000
v -55.00000000 20.00000000 -25.00000000
v -90.00000000 20.00000000 25.00000000
v -115.00000000 115.00000000 25.00000000
v -55.00000000 20.00000000 25.00000000
v 55.00000000 -20.00000000 -25.00000000
v 115.00000000 -115.00000000 -25.00000000
v 90.00000000 -20.00000000 -25.00000000
v 55.00000000 -20.00000000 25.00000000
v 115.00000000 -115.00000000 25.00000000
v 90.00000000 -20.00000000 25.00000000
v 55.00000000 20.00000000 -25.00000000
v 90.00000000 20.00000000 -25.00000000
v 115.00000000 115.00000000 -25.00000000
v 55.00000000 20.00000000 25.00000000
v 90.00000000 20.00000000 25.00000000
v 115.00000000 115.00000000 25.00000000
f 1 2 3
f 1 7 2
f 1 3 14
f 1 14 4
f 1 4 11
f 4 6 5
f 4 5 10
f 4 16 22
f 4 24 6
f 1 8 7
f 8 9 7
f 1 11 8
f 8 14 9
f 8 19 13
f 4 10 11
f 11 10 12
f 8 11 24
f 11 12 24
f 14 3 9
f 8 13 14
f 14 13 15
f 14 15 20
f 14 21 17
f 4 14 17
f 4 17 16
f 17 18 16
f 17 23 18
f 8 21 19
f 8 24 21
f 14 20 21
f 21 20 19
f 4 22 24
f 24 12 6
f 17 21 24
f 17 24 23
f 24 22 23
f 3 2 5
f 3 6 9
f 5 2 10
f 3 5 6
f 2 7 10
f 7 9 12
f 7 12 10
f 9 6 12
f 16 15 13
f 15 18 20
f 16 13 22
f 16 18 15
f 22 13 19
f 23 19 20
f 23 22 19
f 18 23 20

