# https://github.com/mikedh/trimesh
v 16.95057750 -7.80669663 -25.00000089
v 16.95057750 -7.80669663 -12.85122164
v 16.95057750 -0.01921711 -25.00000089
v 115.00000000 -7.80669663 -25.00000089
v 16.96017727 -7.80669663 -2.50109956
v 16.95057750 -0.01921711 -2.50109956
v 115.00000000 -0.01921711 -25.00000089
v 115.00000000 -7.80669663 -2.08844032
v 17.00816587 -7.80669663 -2.08844032
v 17.00816587 -0.01921711 -2.08844032
v 115.00000000 -0.01921711 -2.08844032
f 1 2 6
f 1 6 3
f 1 3 7
f 1 7 4
f 1 4 8
f 1 8 9
f 1 9 5
f 1 5 2
f 2 5 6
f 3 6 10
f 3 10 11
f 3 11 7
f 4 7 11
f 4 11 8
f 5 9 6
f 6 9 10
f 8 11 10
f 8 10 9

