# https://github.com/mikedh/trimesh
v -16.99999869 20.35724498 14.99962114
v -16.99999869 -16.23863988 14.99962114
v -16.99999869 20.35724498 -2.49206571
v -101.99217111 20.35724498 15.03737077
v -16.99999869 -16.23863988 -2.49206571
v -101.99217111 -16.23863988 15.03737077
v -115.00000000 20.35724498 -2.49206571
v -115.00000000 20.35724498 15.03737077
v -115.00000000 -16.23863988 -2.49206571
v -115.00000000 -16.23863988 15.03737077
f 1 2 5
f 1 5 3
f 1 3 7
f 1 7 8
f 1 8 4
f 1 4 6
f 1 6 2
f 2 6 10
f 2 10 9
f 2 9 5
f 3 5 9
f 3 9 7
f 4 8 10
f 4 10 6
f 7 9 10
f 7 10 8

