# https://github.com/mikedh/trimesh
v 16.95057750 -115.00000000 -25.00000089
v 115.00000000 -115.00000000 -25.00000089
v 16.95057750 -115.00000000 -2.08844032
v 16.95057750 -7.80669406 -25.00000089
v 115.00000000 -115.00000000 -2.08844032
v 115.00000000 -7.80669406 -25.00000089
v 16.95057750 -52.00189933 -2.08844032
v 16.95057750 -7.80669406 -12.85122164
v 115.00000000 -7.80669406 -2.08844032
v 17.00816587 -7.80669406 -2.08844032
v 16.96017727 -7.80669406 -2.50109956
f 1 2 5
f 1 5 3
f 1 3 7
f 1 7 8
f 1 8 4
f 1 4 6
f 1 6 2
f 2 6 9
f 2 9 5
f 3 5 9
f 3 9 10
f 3 10 7
f 4 8 11
f 4 11 10
f 4 10 9
f 4 9 6
f 7 10 11
f 7 11 8

