# https://github.com/mikedh/trimesh
v 21.82475105 114.98874485 15.03737077
v 21.82475105 114.98874485 -24.99999747
v 16.98953867 114.98874485 15.03737077
v 21.82475105 20.50607920 15.03737077
v 16.98953867 114.98874485 -24.99999747
v 21.82475105 -0.00719383 -24.99999747
v 16.98953867 52.03032508 15.03737077
v 17.00042367 20.50607920 15.03737077
v 21.82475105 -0.00719383 14.99817997
v 16.98953867 -0.00719383 -24.99999747
v 16.98953867 -0.00719383 -2.50053363
v 17.00042367 -0.00719383 14.99817997
f 1 2 5
f 1 5 3
f 1 3 7
f 1 7 8
f 1 8 4
f 1 4 9
f 1 9 6
f 1 6 2
f 2 6 10
f 2 10 5
f 3 5 10
f 3 10 11
f 3 11 7
f 4 8 12
f 4 12 9
f 6 9 12
f 6 12 11
f 6 11 10
f 7 11 12
f 7 12 8

