# https://github.com/mikedh/trimesh
v 16.98953867 52.00616285 24.99902412
v 17.00617120 20.49999923 15.03931746
v 17.00617120 20.49999923 24.99902412
v 21.83785349 20.49999923 24.99999747
v 16.98953867 114.99999315 24.99902412
v 16.98953867 52.03391343 15.03931746
v 21.82953551 20.49999923 15.03931746
v 101.94732189 20.49999923 24.99999747
v 21.83785349 114.99999315 24.99999747
v 16.98953867 114.99999315 15.03931746
v 101.94732189 20.49999923 15.04126757
v 21.82953551 114.99999315 15.03931746
v 101.94732189 114.99999315 24.99999747
v 101.94732189 114.99999315 15.04126757
f 1 2 3
f 1 3 4
f 1 4 9
f 1 9 5
f 1 5 10
f 1 10 6
f 1 6 2
f 2 6 10
f 2 10 12
f 2 12 7
f 2 7 11
f 2 11 8
f 2 8 4
f 2 4 3
f 4 8 13
f 4 13 9
f 5 9 13
f 5 13 14
f 5 14 12
f 5 12 10
f 7 12 14
f 7 14 11
f 8 11 14
f 8 14 13

