# https://github.com/mikedh/trimesh
v 98.48072350 -114.99073267 15.03834412
v 101.97351992 -115.00000000 15.03834412
v 98.48072350 -114.99073267 24.99999747
v 98.48072350 -20.50388232 15.03834412
v 101.97351992 -115.00000000 24.99999747
v 114.99872506 -115.00000000 15.03834412
v 98.48072350 -20.50388232 24.99999747
v 102.00100660 -20.32780990 15.03834412
v 114.99872506 -115.00000000 24.99999747
v 114.99872506 -20.32780990 15.03834412
v 102.00100660 -20.32780990 24.99999747
v 114.99872506 -20.32780990 24.99999747
f 1 2 5
f 1 5 3
f 1 3 7
f 1 7 4
f 1 4 8
f 1 8 10
f 1 10 6
f 1 6 2
f 2 6 9
f 2 9 5
f 3 5 9
f 3 9 12
f 3 12 11
f 3 11 7
f 4 7 11
f 4 11 8
f 6 10 12
f 6 12 9
f 8 11 12
f 8 12 10

