# https://github.com/mikedh/trimesh
v 16.95057750 -115.00000000 -2.08844118
v 16.95057750 -115.00000000 15.03737077
v 16.95057750 -52.00550824 -2.08844118
v 115.00000000 -115.00000000 -2.08844118
v 115.00000000 -115.00000000 15.03737077
v 16.95057750 -52.00550824 15.03737077
v 17.00816587 -0.01845241 -2.08844118
v 115.00000000 -0.01845241 -2.08844118
v 115.00000000 -0.01845241 15.03737077
v 17.00816587 -20.51388994 15.03737077
v 17.00816587 -0.01845241 14.99881402
v 101.98561132 -0.01845241 15.03737077
f 1 2 6
f 1 6 3
f 1 3 7
f 1 7 8
f 1 8 4
f 1 4 5
f 1 5 2
f 2 5 9
f 2 9 12
f 2 12 10
f 2 10 6
f 3 6 11
f 3 11 7
f 4 8 9
f 4 9 5
f 6 10 11
f 7 11 12
f 7 12 9
f 7 9 8
f 10 12 11

