# https://github.com/mikedh/trimesh
v -102.00135618 -16.23863816 24.99999918
v -115.00000000 -16.23863816 24.99999918
v -100.90744793 -20.50192535 24.99999918
v -100.90744793 -16.23863816 14.99608420
v -115.00000000 -16.23863816 -24.99999918
v -115.00000000 -115.00000000 24.99999918
v -100.90744793 -115.00000000 24.99999918
v -100.90744793 -16.23863816 -24.99999918
v -115.00000000 -115.00000000 -24.99999918
v -100.90744793 -115.00000000 -24.99999918
f 1 2 6
f 1 6 7
f 1 7 3
f 1 3 4
f 1 4 8
f 1 8 5
f 1 5 2
f 2 5 9
f 2 9 6
f 3 7 10
f 3 10 8
f 3 8 4
f 5 8 10
f 5 10 9
f 6 9 10
f 6 10 7

