# https://github.com/mikedh/trimesh
v -100.90744793 -114.99999315 15.03834412
v -16.91910148 -114.99999315 15.03834412
v -100.90744793 -114.99999315 24.99999747
v -100.90744793 -20.49999923 15.03834412
v -16.91910148 -114.99999315 24.99999747
v -16.91910148 -52.00616285 15.03834412
v -100.90744793 -20.49999923 24.99999747
v -17.00131476 -20.49999923 15.03834412
v -16.91910148 -52.00616285 24.99999747
v -17.00131476 -20.49999923 24.99999747
f 1 2 5
f 1 5 3
f 1 3 7
f 1 7 4
f 1 4 8
f 1 8 6
f 1 6 2
f 2 6 9
f 2 9 5
f 3 5 9
f 3 9 10
f 3 10 7
f 4 7 10
f 4 10 8
f 6 8 10
f 6 10 9

