# https://github.com/mikedh/trimesh
v -101.91250771 20.49999923 15.04809640
v -101.91250771 20.49999923 24.99999747
v -101.91250771 21.34176686 15.03834412
v -101.67968661 20.49999923 15.03834412
v -17.00770661 20.49999923 24.99999747
v -101.91250771 114.99999315 24.99999747
v -101.91250771 114.99999315 15.03834412
v -17.00770661 20.49999923 15.03834412
v -16.97444841 52.00616285 24.99999747
v -16.97444841 114.99999315 24.99999747
v -16.97444841 114.99999315 15.03834412
v -16.97444841 52.00616285 15.03834412
f 1 2 6
f 1 6 7
f 1 7 3
f 1 3 4
f 1 4 8
f 1 8 5
f 1 5 2
f 2 5 9
f 2 9 10
f 2 10 6
f 3 7 11
f 3 11 12
f 3 12 8
f 3 8 4
f 5 8 12
f 5 12 9
f 6 10 11
f 6 11 7
f 9 12 11
f 9 11 10

