# https://github.com/mikedh/trimesh
v -16.92870125 115.00000000 15.03737077
v -16.92870125 52.00364381 15.03737077
v -16.92870125 115.00000000 -2.49206571
v -114.99040365 115.00000000 15.03737077
v -17.00550631 20.50547257 15.03737077
v -17.00550631 20.35724327 14.99962114
v -16.92870125 52.00364381 -2.49206571
v -114.99040365 115.00000000 -2.49206571
v -114.99040365 20.35724327 15.03737077
v -101.99103326 20.35724327 15.03737077
v -17.00550631 20.35724327 -2.49206571
v -114.99040365 20.35724327 -2.49206571
f 1 2 7
f 1 7 3
f 1 3 8
f 1 8 4
f 1 4 9
f 1 9 10
f 1 10 5
f 1 5 2
f 2 5 6
f 2 6 11
f 2 11 7
f 3 7 11
f 3 11 12
f 3 12 8
f 4 8 12
f 4 12 9
f 5 10 6
f 6 10 9
f 6 9 12
f 6 12 11

