# https://github.com/mikedh/trimesh
v -114.98874485 -16.23863816 -24.99999918
v 0.00719383 -16.23863816 -24.99999918
v -114.98874485 -16.23863816 -2.49426901
v -114.98874485 115.00000000 -24.99999918
v 0.00719383 -16.23863816 -2.50087850
v 0.00719383 115.00000000 -24.99999918
v -17.00463921 -16.23863816 -2.49426901
v -114.98874485 115.00000000 -2.49426901
v 0.00719383 51.98849529 -2.49426901
v 0.00719383 115.00000000 -2.49426901
f 1 2 5
f 1 5 7
f 1 7 3
f 1 3 8
f 1 8 4
f 1 4 6
f 1 6 2
f 2 6 10
f 2 10 9
f 2 9 5
f 3 7 9
f 3 9 10
f 3 10 8
f 4 8 10
f 4 10 6
f 5 9 7

