# https://github.com/mikedh/trimesh
v -114.99872506 -16.23518005 15.03834412
v -102.00217187 -16.23518005 15.03834412
v -114.99872506 -16.23518005 24.99999747
v -114.99872506 115.00000000 15.03834412
v -102.00217187 -16.23518005 24.99999747
v -101.91378951 21.35234341 15.03834412
v -101.91378951 20.51735148 15.04906975
v -114.99872506 115.00000000 24.99999747
v -101.91378951 115.00000000 15.03834412
v -101.91378951 20.51735148 24.99999747
v -101.91378951 115.00000000 24.99999747
f 1 2 5
f 1 5 3
f 1 3 8
f 1 8 4
f 1 4 9
f 1 9 6
f 1 6 2
f 2 6 7
f 2 7 10
f 2 10 5
f 3 5 10
f 3 10 11
f 3 11 8
f 4 8 11
f 4 11 9
f 6 9 11
f 6 11 10
f 6 10 7

