# https://github.com/mikedh/trimesh
v 101.95645213 20.51162794 15.04126757
v 101.95645213 20.51162794 24.99999747
v 101.95645213 115.00000000 15.04126757
v 102.00241864 -20.32780305 15.03931746
v 101.95645213 115.00000000 24.99999747
v 102.00241864 -20.32780305 24.99902412
v 102.00241864 -0.00743717 24.99999747
v 114.99872506 115.00000000 15.04126757
v 102.00241864 -0.00743717 15.03931746
v 115.00000000 -20.32780305 15.03931746
v 114.99872506 115.00000000 24.99999747
v 115.00000000 -20.32780305 24.99902412
v 114.99872506 -0.00743717 24.99999747
v 115.00000000 -0.00743717 15.03931746
v 115.00000000 -0.00743717 24.99902412
f 1 2 5
f 1 5 3
f 1 3 9
f 1 9 4
f 1 4 6
f 1 6 2
f 2 6 7
f 2 7 13
f 2 13 11
f 2 11 5
f 3 5 11
f 3 11 8
f 3 8 14
f 3 14 9
f 4 9 14
f 4 14 10
f 4 10 12
f 4 12 6
f 6 12 13
f 6 13 7
f 8 11 15
f 8 15 14
f 10 14 15
f 10 15 12
f 11 13 12
f 11 12 15

