# https://github.com/mikedh/trimesh
v 98.47911268 -51.92813426 24.99999747
v 98.47911268 -115.00000000 24.99999747
v 98.47911268 -51.92813426 15.03834412
v 17.00040996 -51.92813426 24.99999747
v 98.47911268 -115.00000000 15.03834412
v 0.02808988 -115.00000000 24.99999747
v 17.00040996 -51.92813426 15.03834412
v 0.02808988 -52.00222492 24.99999747
v 0.02808988 -115.00000000 15.03834412
v 0.02808988 -52.00222492 15.03834412
f 1 2 5
f 1 5 3
f 1 3 7
f 1 7 4
f 1 4 8
f 1 8 6
f 1 6 2
f 2 6 9
f 2 9 5
f 3 5 9
f 3 9 10
f 3 10 7
f 4 7 10
f 4 10 8
f 6 8 10
f 6 10 9

