# https://github.com/mikedh/trimesh
v 16.98953867 114.99383092 24.99999918
v 0.01845583 114.99383092 24.99999918
v 16.98953867 52.00077176 24.99999918
v 16.98953867 114.99383092 -24.99999918
v 0.01845583 114.99383092 -24.99999918
v 0.01845583 52.00077176 24.99999918
v 16.98953867 51.91431895 -2.49608461
v 16.98953867 51.91431895 -24.99999918
v 0.01845583 51.91431895 -24.99999918
v 0.01845583 51.91431895 -2.49608461
f 1 2 6
f 1 6 3
f 1 3 7
f 1 7 8
f 1 8 4
f 1 4 5
f 1 5 2
f 2 5 9
f 2 9 10
f 2 10 6
f 3 6 10
f 3 10 7
f 4 8 9
f 4 9 5
f 7 10 9
f 7 9 8

