# https://github.com/mikedh/trimesh
v 0.01513481 115.00000000 24.99999747
v -16.96613386 115.00000000 24.99999747
v 0.01513481 52.00000405 24.99999747
v 0.01679704 115.00000000 15.03493227
v -16.96613386 115.00000000 15.03762268
v -16.96613386 52.00000405 24.99999747
v 0.01679704 52.00000405 15.03493227
v 0.01679704 115.00000000 -2.49206614
v -16.91626370 115.00000000 -2.49206614
v -16.96613386 52.00000405 15.03762268
v 0.01679704 52.00000405 -2.49206614
v -16.91626370 52.00000405 -2.49206614
f 1 2 6
f 1 6 3
f 1 3 7
f 1 7 4
f 1 4 8
f 1 8 9
f 1 9 5
f 1 5 2
f 2 5 10
f 2 10 6
f 3 6 10
f 3 10 12
f 3 12 11
f 3 11 7
f 4 7 11
f 4 11 8
f 5 9 12
f 5 12 10
f 8 11 12
f 8 12 9

