# https://github.com/mikedh/trimesh
v 0.01679789 -52.00496674 24.99999918
v 0.01679789 -51.98029041 -2.49608461
v -16.91744268 -52.00496674 24.99999918
v 0.01679789 -114.99383092 24.99999918
v -16.91744268 -51.98029041 -2.49608461
v 0.01679789 -51.98029041 -24.99999918
v -16.91744268 -114.99383092 24.99999918
v 0.01679789 -114.99383092 -24.99999918
v -16.91744268 -51.98029041 -24.99999918
v -16.91744268 -114.99383092 -24.99999918
f 1 2 5
f 1 5 3
f 1 3 7
f 1 7 4
f 1 4 8
f 1 8 6
f 1 6 2
f 2 6 9
f 2 9 5
f 3 5 9
f 3 9 10
f 3 10 7
f 4 7 10
f 4 10 8
f 6 8 10
f 6 10 9

