# https://github.com/mikedh/trimesh
v -115.00000000 -115.00000000 -25.00000000
v -17.00000000 -52.00000000 -2.50000000
v -115.00000000 -115.00000000 25.00000000
v -102.00000000 -20.50000000 15.00000000
v -102.00000000 -20.50000000 25.00000000
v -17.00000000 -52.00000000 25.00000000
v -17.00000000 -20.50000000 15.00000000
v -17.00000000 -20.50000000 25.00000000
v -115.00000000 115.00000000 -25.00000000
v -17.00000000 52.00000000 -2.50000000
v -102.00000000 20.50000000 15.00000000
v -102.00000000 20.50000000 25.00000000
v -115.00000000 115.00000000 25.00000000
v -17.00000000 20.50000000 15.00000000
v -17.00000000 20.50000000 25.00000000
v -17.00000000 52.00000000 25.00000000
v 17.00000000 -52.00000000 -2.50000000
v 115.00000000 -115.00000000 -25.00000000
v 17.00000000 -52.00000000 25.00000000
v 17.00000000 -20.50000000 15.00000000
v 17.00000000 -20.50000000 25.00000000
v 115.00000000 -115.00000000 25.00000000
v 102.00000000 -20.50000000 15.00000000
v 102.00000000 -20.50000000 25.00000000
v 17.00000000 52.00000000 -2.50000000
v 115.00000000 115.00000000 -25.00000000
v 17.00000000 20.50000000 15.00000000
v 17.00000000 20.50000000 25.00000000
v 17.00000000 52.00000000 25.00000000
v 102.00000000 20.50000000 15.00000000
v 102.00000000 20.50000000 25.00000000
v 115.00000000 115.00000000 25.00000000
f 1 18 3
f 1 9 18
f 1 3 13
f 3 5 13
f 3 8 5
f 3 6 8
f 3 22 6
f 1 13 9
f 13 5 12
f 13 12 16
f 15 16 12
f 9 13 32
f 13 16 29
f 18 26 22
f 3 18 22
f 22 19 6
f 21 19 24
f 22 24 19
f 22 31 24
f 9 26 18
f 9 32 26
f 13 29 32
f 32 29 28
f 22 26 32
f 32 28 31
f 22 32 31
f 2 17 10
f 2 6 17
f 2 14 7
f 2 7 6
f 7 8 6
f 2 10 14
f 14 10 16
f 10 29 16
f 14 16 15
f 17 20 25
f 17 6 19
f 17 19 20
f 20 19 21
f 10 17 25
f 20 27 25
f 10 25 29
f 27 29 25
f 27 28 29
f 4 12 5
f 4 5 7
f 4 7 14
f 7 5 8
f 4 11 12
f 4 14 11
f 11 15 12
f 11 14 15
f 20 21 23
f 20 23 30
f 23 21 24
f 23 24 30
f 20 30 27
f 27 31 28
f 27 30 31
f 30 24 31

