# https://github.com/mikedh/trimesh
v -91.92225039 -16.89843506 -9.98266164
v -80.15191853 -16.89843506 -9.98266164
v -91.92225039 -16.89843506 4.98240065
v -91.92225039 -4.53146055 -9.98266164
v -80.15191853 -7.98273735 -9.98266164
v -80.15191853 -16.89843506 4.99999966
v -91.90842479 -16.89843506 4.99999966
v -91.92225039 -16.89480387 4.99999966
v -83.34943533 -4.53146055 -9.98266164
v -91.92225039 -4.53146055 4.99999966
v -80.15191853 -7.98273735 4.99999966
v -83.34943533 -4.53146055 4.99999966
f 1 2 6
f 1 6 7
f 1 7 3
f 1 3 8
f 1 8 10
f 1 10 4
f 1 4 9
f 1 9 5
f 1 5 2
f 2 5 11
f 2 11 6
f 3 7 8
f 4 10 12
f 4 12 9
f 5 9 12
f 5 12 11
f 6 11 12
f 6 12 10
f 6 10 8
f 6 8 7

