# https://github.com/mikedh/trimesh
v 67.03887939 -5.17863140 5.00000009
v 74.99174297 -9.49718840 5.00000009
v 67.03887939 -5.17863140 -4.88385515
v 16.99999869 -5.17863140 5.00000009
v 74.99174297 -16.23863988 5.00000009
v 74.99174297 -9.49718840 -4.88385515
v 16.99999869 -5.17863140 -4.88385515
v 16.99999869 -16.23863988 5.00000009
v 74.99174297 -16.23863988 -4.88385515
v 16.99999869 -16.23863988 -4.88385515
f 1 2 6
f 1 6 3
f 1 3 7
f 1 7 4
f 1 4 8
f 1 8 5
f 1 5 2
f 2 5 9
f 2 9 6
f 3 6 9
f 3 9 10
f 3 10 7
f 4 7 10
f 4 10 8
f 5 8 10
f 5 10 9

