# https://github.com/mikedh/trimesh
v 16.92870125 -115.00000000 -19.98777874
v 16.92870125 -115.00000000 24.99999918
v 16.92870125 -52.00772911 -19.98777874
v 114.99040365 -115.00000000 -19.98777874
v 114.99040365 -115.00000000 24.99999918
v 16.92870125 -52.00772911 24.99999918
v 17.00550631 -16.23863816 -19.98777874
v 114.99040365 -16.23863816 -19.98777874
v 114.99040365 -16.23863816 24.99999918
v 17.00550631 -17.00235665 24.99999918
v 17.00550631 -16.23863816 4.99858078
v 91.99669063 -16.23863816 24.99999918
f 1 2 6
f 1 6 3
f 1 3 7
f 1 7 8
f 1 8 4
f 1 4 5
f 1 5 2
f 2 5 9
f 2 9 12
f 2 12 10
f 2 10 6
f 3 6 11
f 3 11 7
f 4 8 9
f 4 9 5
f 6 10 11
f 7 11 12
f 7 12 9
f 7 9 8
f 10 12 11

