# https://github.com/mikedh/trimesh
v -0.01573801 -52.00000405 25.00000089
v -16.94891870 -52.00000405 25.00000089
v -0.01573801 -115.00000000 25.00000089
v 16.91744268 -52.00000405 24.99559686
v -16.94891870 -52.00000405 -17.81237066
v -16.94891870 -115.00000000 25.00000089
v 16.91744268 -115.00000000 24.99559686
v 16.91744268 -52.00000405 -19.98778045
v -0.01573801 -52.00000405 -19.98778045
v -16.94891870 -115.00000000 -17.81237066
v 16.91744268 -115.00000000 -19.98778045
v -0.01573801 -115.00000000 -19.98778045
f 1 2 6
f 1 6 3
f 1 3 7
f 1 7 4
f 1 4 8
f 1 8 9
f 1 9 5
f 1 5 2
f 2 5 10
f 2 10 6
f 3 6 10
f 3 10 12
f 3 12 11
f 3 11 7
f 4 7 11
f 4 11 8
f 5 9 12
f 5 12 10
f 8 11 12
f 8 12 9

