# https://github.com/mikedh/trimesh
v -115.00000000 -115.00000000 -17.81585276
v -16.95057750 -115.00000000 -17.81585276
v -115.00000000 -115.00000000 25.00000089
v -115.00000000 -16.90803483 -17.81585276
v -16.95057750 -115.00000000 25.00000089
v -16.95057750 -52.00603947 -17.81585276
v -115.00000000 -16.90803483 25.00000089
v -17.00816587 -16.90803483 -17.81585276
v -16.95057750 -52.00603947 25.00000089
v -91.99446976 -16.90803483 25.00000089
v -17.00816587 -16.90803483 4.99607801
v -17.00816587 -17.00406343 25.00000089
f 1 2 5
f 1 5 3
f 1 3 7
f 1 7 4
f 1 4 8
f 1 8 6
f 1 6 2
f 2 6 9
f 2 9 5
f 3 5 9
f 3 9 12
f 3 12 10
f 3 10 7
f 4 7 10
f 4 10 11
f 4 11 8
f 6 8 11
f 6 11 9
f 9 11 12
f 10 12 11

