# https://github.com/mikedh/trimesh
v -115.00000000 -115.00000000 -24.99929488
v -16.95057750 -115.00000000 -24.99929488
v -115.00000000 -115.00000000 24.99999747
v -115.00000000 -16.90803826 -24.99929488
v -16.95057750 -115.00000000 24.99999747
v -16.95057750 -16.90803826 -24.99929488
v -115.00000000 -16.90803826 24.99999747
v -16.95057750 -52.01220855 24.99999747
v -16.95057750 -16.90803826 -19.99740764
v -91.98487341 -16.90803826 24.99999747
v -17.00816587 -17.01365635 24.99999747
v -17.00816587 -16.90803826 4.99245068
f 1 2 5
f 1 5 3
f 1 3 7
f 1 7 4
f 1 4 6
f 1 6 2
f 2 6 9
f 2 9 8
f 2 8 5
f 3 5 8
f 3 8 11
f 3 11 10
f 3 10 7
f 4 7 10
f 4 10 12
f 4 12 9
f 4 9 6
f 8 9 11
f 9 12 11
f 10 11 12

