# https://github.com/mikedh/trimesh
v 16.93829760 16.62599474 -24.99999918
v 114.99040365 16.62599474 -24.99999918
v 16.93829760 16.62599474 -19.99766812
v 16.93829760 115.00000000 -24.99999918
v 115.00000000 16.62599474 -18.96016926
v 114.99040365 115.00000000 -24.99999918
v 17.00549603 16.62599474 4.99929793
v 16.93829760 52.00789362 5.02574958
v 16.93829760 115.00000000 5.02574958
v 115.00000000 16.62599474 5.02574958
v 115.00000000 51.94047928 -18.96016926
v 114.99040365 115.00000000 5.02574958
v 91.98934257 16.62599474 5.02574958
v 17.00549603 17.00157866 5.02574958
v 115.00000000 51.94047928 5.02574958
f 1 2 5
f 1 5 10
f 1 10 13
f 1 13 7
f 1 7 3
f 1 3 8
f 1 8 9
f 1 9 4
f 1 4 6
f 1 6 2
f 2 6 11
f 2 11 5
f 3 7 8
f 4 9 12
f 4 12 6
f 5 11 15
f 5 15 10
f 6 12 15
f 6 15 11
f 7 13 14
f 7 14 8
f 8 14 13
f 8 13 10
f 8 10 15
f 8 15 12
f 8 12 9

