# https://github.com/mikedh/trimesh
v -68.28958511 6.72159260 -9.98266164
v -68.28456759 6.72159260 4.99999966
v -65.52830458 6.72159260 -9.98266164
v -65.49315453 0.00091894 -9.98266164
v -65.49315453 -0.00830384 -9.71574266
v -65.49315453 -0.00830384 4.99999966
v -65.52830458 6.72159260 4.99999966
v -16.99999869 6.72093371 -9.98266164
v -65.36764801 -0.00830384 -9.98266164
v -16.99999869 -0.00830384 4.99999966
v -16.99999869 6.72093371 4.99999966
v -16.99999869 -0.00830384 -9.98266164
f 1 2 7
f 1 7 3
f 1 3 8
f 1 8 12
f 1 12 9
f 1 9 4
f 1 4 5
f 1 5 6
f 1 6 2
f 2 6 10
f 2 10 11
f 2 11 7
f 3 7 11
f 3 11 8
f 4 9 5
f 5 9 12
f 5 12 10
f 5 10 6
f 8 11 10
f 8 10 12

