# https://github.com/mikedh/trimesh
v -74.99912530 16.89505234 4.99999966
v -74.99912530 9.49540965 4.99999966
v -74.99912530 16.89505234 -9.98266164
v -91.91065937 16.89505234 4.99999966
v -74.99912530 9.49540965 -9.98266164
v -84.49861169 -0.00896230 4.99999966
v -91.92225039 16.89505234 -9.98266164
v -91.92225039 16.89505234 4.98680040
v -91.92225039 16.88677892 4.99999966
v -84.49861169 -0.00896230 -9.71574266
v -84.49861169 0.00096563 -9.98266164
v -91.92225039 -0.00896230 4.99999966
v -91.92225039 -0.00896230 -9.98266164
v -86.66225225 -0.00896230 -9.98266164
f 1 2 5
f 1 5 3
f 1 3 7
f 1 7 8
f 1 8 4
f 1 4 9
f 1 9 12
f 1 12 6
f 1 6 2
f 2 6 10
f 2 10 5
f 3 5 11
f 3 11 14
f 3 14 13
f 3 13 7
f 4 8 9
f 5 10 11
f 6 12 13
f 6 13 14
f 6 14 10
f 7 13 12
f 7 12 9
f 7 9 8
f 10 14 11

