# https://github.com/mikedh/trimesh
v 91.91484749 11.69717856 -14.67971317
v 91.91484749 11.69717856 -19.99155901
v 91.90752000 11.69717856 -10.00015955
v 91.90752000 -1.23434898 -9.99232911
v 91.91484749 -16.23590492 -14.67971317
v 91.91484749 -16.23590492 -19.99155901
v 17.00733989 11.69717856 -19.99155901
v 17.00000897 11.69717856 -10.00015955
v 91.90752000 -16.23863988 -9.99232911
v 17.00000897 -1.23434898 -9.99232911
v 91.90752000 -16.23863988 -14.67775449
v 17.00733989 -16.23590492 -19.99155901
v 17.00000897 11.69717856 -14.67873469
v 17.00000897 -16.23863988 -9.99232911
v 17.00000897 -16.23863988 -14.67775449
v 17.00000897 -1.23434898 -14.67873469
f 1 2 7
f 1 7 13
f 1 13 8
f 1 8 3
f 1 3 4
f 1 4 9
f 1 9 5
f 1 5 6
f 1 6 2
f 2 6 12
f 2 12 7
f 3 8 10
f 3 10 4
f 4 10 14
f 4 14 9
f 5 9 11
f 5 11 6
f 6 11 15
f 6 15 12
f 7 12 16
f 7 16 13
f 8 13 16
f 8 16 15
f 8 15 14
f 8 14 10
f 9 14 15
f 9 15 11
f 12 15 16

