# https://github.com/mikedh/trimesh
v 81.65021688 6.78281173 -4.88385515
v 84.49670613 0.14247749 -4.88385515
v 81.65021688 6.78281173 5.00000009
v 81.65021688 11.69604842 -4.88385515
v 91.91485435 0.14247749 -4.88385515
v 84.49670613 0.14247749 5.00000009
v 81.65021688 11.69604842 5.00000009
v 91.91485435 11.69604842 -4.88385515
v 91.91485435 0.14247749 5.00000009
v 91.91485435 11.69604842 5.00000009
f 1 2 6
f 1 6 3
f 1 3 7
f 1 7 4
f 1 4 8
f 1 8 5
f 1 5 2
f 2 5 9
f 2 9 6
f 3 6 9
f 3 9 10
f 3 10 7
f 4 7 10
f 4 10 8
f 5 8 10
f 5 10 9

