# https://github.com/mikedh/trimesh
v -16.95057750 51.63509950 -19.99766812
v -16.95057750 51.63509950 -24.99999918
v -17.00816587 51.63509950 5.02281070
v -17.00816587 17.04807639 5.02574958
v -16.95057750 16.89505234 -19.99766812
v -16.95057750 16.89505234 -24.99999918
v -115.00000000 51.63509950 -24.99999918
v -17.78557286 51.63509950 5.02574958
v -17.00816587 17.00046994 5.02574958
v -17.00816587 16.89505234 4.99929793
v -115.00000000 16.89505234 -24.99999918
v -115.00000000 51.63509950 5.02574958
v -91.99446976 16.89505234 5.02574958
v -115.00000000 16.89505234 5.02574958
f 1 2 7
f 1 7 12
f 1 12 8
f 1 8 3
f 1 3 4
f 1 4 9
f 1 9 5
f 1 5 6
f 1 6 2
f 2 6 11
f 2 11 7
f 3 8 4
f 4 8 12
f 4 12 14
f 4 14 13
f 4 13 9
f 5 9 10
f 5 10 13
f 5 13 14
f 5 14 11
f 5 11 6
f 7 11 14
f 7 14 12
f 9 13 10

