# https://github.com/mikedh/trimesh
v 91.92732275 -114.99033511 5.03074568
v 115.00000000 -114.99033511 5.03074568
v 91.92732275 -114.99033511 24.99999747
v 91.92732275 -17.01412246 5.03074568
v 115.00000000 -114.99033511 24.99999747
v 115.00000000 -16.26016140 5.03074568
v 91.92732275 -76.81866139 24.99999747
v 91.92732275 -17.01412246 24.99804392
v 92.00185210 -16.26016140 5.03074568
v 115.00000000 -76.81866139 24.99999747
v 115.00000000 -16.26016140 24.99804392
v 92.00185210 -16.26016140 24.99804392
f 1 2 5
f 1 5 3
f 1 3 7
f 1 7 8
f 1 8 4
f 1 4 9
f 1 9 6
f 1 6 2
f 2 6 11
f 2 11 10
f 2 10 5
f 3 5 10
f 3 10 7
f 4 8 12
f 4 12 9
f 6 9 12
f 6 12 11
f 7 10 11
f 7 11 12
f 7 12 8

