# https://github.com/mikedh/trimesh
v -74.99747336 9.49776676 -9.98266164
v -74.99747336 16.89326160 -9.98266164
v -68.28144193 6.72159389 -9.98266164
v -74.99747336 9.49776676 4.99999966
v -74.99747336 16.89326160 4.99999966
v -16.99999869 16.89326160 -9.98266164
v -16.99999869 6.72159389 -9.98266164
v -68.28144193 6.72159389 4.99999966
v -16.99999869 16.89326160 4.99999966
v -16.99999869 6.72159389 4.99999966
f 1 2 6
f 1 6 7
f 1 7 3
f 1 3 8
f 1 8 4
f 1 4 5
f 1 5 2
f 2 5 9
f 2 9 6
f 3 7 10
f 3 10 8
f 4 8 10
f 4 10 9
f 4 9 5
f 6 9 10
f 6 10 7

