# https://github.com/mikedh/trimesh
v -0.01845241 -16.90803483 -20.00007063
v -0.01845241 -16.90803483 -24.99929659
v -17.00231895 -16.90803483 -17.81585276
v -0.01845241 -52.00603947 -17.81585276
v -0.01845241 -115.00000000 -24.99929659
v -115.00000000 -16.90803483 -24.99929659
v -115.00000000 -16.90803483 -17.81585276
v -0.01845241 -115.00000000 -17.81585276
v -115.00000000 -115.00000000 -24.99929659
v -115.00000000 -115.00000000 -17.81585276
f 1 2 6
f 1 6 7
f 1 7 3
f 1 3 4
f 1 4 8
f 1 8 5
f 1 5 2
f 2 5 9
f 2 9 6
f 3 7 10
f 3 10 8
f 3 8 4
f 5 8 10
f 5 10 9
f 6 9 10
f 6 10 7

