# https://github.com/mikedh/trimesh
v -115.00000000 16.89505577 -24.99999918
v -115.00000000 16.89505577 24.99999918
v -115.00000000 115.00000000 -24.99999918
v -16.95057750 16.89505577 -24.99999918
v -91.99446976 16.89505577 24.99999918
v -115.00000000 115.00000000 24.99999918
v -16.95057750 115.00000000 -24.99999918
v -16.95057750 16.89505577 -19.99804169
v -17.00816587 16.89505577 4.99706335
v -17.00816587 17.00068757 24.99999918
v -16.95057750 115.00000000 24.99999918
v -16.95057750 52.00387344 24.99999918
f 1 2 6
f 1 6 3
f 1 3 7
f 1 7 4
f 1 4 8
f 1 8 9
f 1 9 5
f 1 5 2
f 2 5 10
f 2 10 12
f 2 12 11
f 2 11 6
f 3 6 11
f 3 11 7
f 4 7 11
f 4 11 12
f 4 12 8
f 5 9 10
f 8 12 10
f 8 10 9

