# https://github.com/mikedh/trimesh
v 71.55080795 8.85146216 -9.99814689
v 71.55080795 8.85146216 -4.88385558
v 71.55080795 11.69690095 -9.99814689
v 80.24364591 7.91925237 -9.99814689
v 71.55080795 11.69690095 -4.88385558
v 80.24364591 7.91999180 -4.88385558
v 74.99186635 11.69690095 -9.99814689
v 80.24364591 11.69653080 -9.99814689
v 74.99186635 11.69690095 -4.88385558
v 80.24364591 11.69653080 -4.88385558
f 1 2 5
f 1 5 3
f 1 3 7
f 1 7 8
f 1 8 4
f 1 4 2
f 2 4 6
f 2 6 10
f 2 10 9
f 2 9 5
f 3 5 9
f 3 9 7
f 4 8 10
f 4 10 6
f 7 9 10
f 7 10 8

