# https://github.com/mikedh/trimesh
v 16.91744268 115.00000000 24.99999918
v -16.94891870 115.00000000 24.99999918
v 16.91744268 52.00662211 24.99999918
v 16.91744268 115.00000000 -24.99999918
v -16.94891870 115.00000000 -19.98335928
v -16.94891870 52.00045303 24.99999918
v -0.01573801 52.00045303 24.99999918
v 16.91744268 51.96342826 -19.99804169
v -0.01573801 115.00000000 -24.99999918
v 16.91744268 51.96342826 -24.99999918
v -16.94891870 52.00045303 -19.98335928
v -0.01573801 51.96342826 -19.99804169
v -0.01573801 51.96342826 -24.99999918
f 1 2 6
f 1 6 7
f 1 7 3
f 1 3 8
f 1 8 10
f 1 10 4
f 1 4 9
f 1 9 5
f 1 5 2
f 2 5 11
f 2 11 6
f 3 7 8
f 4 10 13
f 4 13 9
f 5 9 13
f 5 13 11
f 6 11 13
f 6 13 12
f 6 12 8
f 6 8 7
f 8 12 13
f 8 13 10

