# https://github.com/mikedh/trimesh
v 114.98874485 -16.23863816 -19.98777874
v 114.98874485 -115.00000000 -19.98777874
v 114.98874485 -16.23863816 -24.99999918
v 17.00463921 -16.23863816 -19.98777874
v 114.98874485 -115.00000000 -24.99999918
v -0.00719383 -115.00000000 -19.98777874
v -0.00719383 -16.23863816 -24.99999918
v -0.00719383 -16.23863816 -20.00004493
v -0.00719383 -52.00772911 -19.98777874
v -0.00719383 -115.00000000 -24.99999918
f 1 2 5
f 1 5 3
f 1 3 7
f 1 7 8
f 1 8 4
f 1 4 9
f 1 9 6
f 1 6 2
f 2 6 10
f 2 10 5
f 3 5 10
f 3 10 7
f 4 8 9
f 6 9 8
f 6 8 7
f 6 7 10

