# https://github.com/mikedh/trimesh
v 91.91371650 11.69643827 -4.88385558
v 91.91371650 4.12751900 -4.88385558
v 91.91371650 11.69643827 -9.99814689
v 80.24364591 11.69643827 -4.88385558
v 91.91371650 4.12751900 -9.99814689
v 83.55673701 4.12751900 -4.88385558
v 80.24364591 11.69643827 -9.99814689
v 80.24364591 7.91864831 -4.88385558
v 83.55673701 4.12751900 -9.99814689
v 80.24364591 7.91864831 -9.99814689
f 1 2 5
f 1 5 3
f 1 3 7
f 1 7 4
f 1 4 8
f 1 8 6
f 1 6 2
f 2 6 9
f 2 9 5
f 3 5 9
f 3 9 10
f 3 10 7
f 4 7 10
f 4 10 8
f 6 8 10
f 6 10 9

