# https://github.com/mikedh/trimesh
v 16.92644268 -115.00000000 5.02879128
v 91.91998154 -115.00000000 5.02879128
v 16.92644268 -115.00000000 24.99999918
v 16.92644268 -52.00410992 5.02879128
v 91.91998154 -115.00000000 24.99999918
v 91.91998154 -16.99999869 5.02879128
v 16.92644268 -52.00410992 24.99999918
v 17.00720623 -16.99999869 5.02879128
v 91.91998154 -16.99999869 24.99999918
v 17.00720623 -16.99999869 24.99999918
f 1 2 5
f 1 5 3
f 1 3 7
f 1 7 4
f 1 4 8
f 1 8 6
f 1 6 2
f 2 6 9
f 2 9 5
f 3 5 9
f 3 9 10
f 3 10 7
f 4 7 10
f 4 10 8
f 6 8 10
f 6 10 9

