# https://github.com/mikedh/trimesh
v -114.99774486 -16.89843506 -24.99999918
v -114.99774486 16.89505234 -24.99999918
v -91.92226410 -16.89843506 -24.99999918
v -114.99774486 -16.89843506 24.99999918
v -91.92226410 16.89505234 -24.99999918
v -114.99774486 16.89505234 24.99999918
v -91.92226410 -16.89843506 4.98238051
v -92.00132430 -16.89843506 24.99999918
v -91.92226410 16.89505234 4.98238051
v -92.00132430 16.89505234 24.99999918
v -91.92226410 -16.89182043 4.99706335
v -91.92226410 16.88512869 4.99706335
f 1 2 5
f 1 5 3
f 1 3 7
f 1 7 8
f 1 8 4
f 1 4 6
f 1 6 2
f 2 6 10
f 2 10 9
f 2 9 5
f 3 5 9
f 3 9 12
f 3 12 11
f 3 11 7
f 4 8 10
f 4 10 6
f 7 11 8
f 8 11 12
f 8 12 10
f 9 10 12

