# https://github.com/mikedh/trimesh
v -16.99999869 -0.00896230 4.99999966
v -16.99999869 -16.89843506 4.99999966
v -16.99999869 -0.00896230 -9.98266164
v -65.49964577 -0.00896230 4.99999966
v -16.99999869 -16.89843506 -9.98266164
v -74.99747336 -16.89843506 4.99999966
v -65.49964577 -0.00896230 -9.98266164
v -74.99747336 -9.49689109 4.99999966
v -74.99747336 -16.89843506 -9.98266164
v -74.99747336 -9.49689109 -9.98266164
f 1 2 5
f 1 5 3
f 1 3 7
f 1 7 4
f 1 4 8
f 1 8 6
f 1 6 2
f 2 6 9
f 2 9 5
f 3 5 9
f 3 9 10
f 3 10 7
f 4 7 10
f 4 10 8
f 6 8 10
f 6 10 9

