# https://github.com/mikedh/trimesh
v -81.69932961 16.89505234 4.99999966
v -81.69932961 16.89505234 -9.98266164
v -91.91125572 16.89505234 4.99999966
v -81.69932961 6.73378039 4.99999966
v -91.92126334 16.89505234 -9.98266164
v -81.69932961 6.73378039 -9.98266164
v -91.92126334 16.89505234 4.98680040
v -91.92126334 16.88677892 4.99999966
v -84.50022936 -0.00896230 4.99999966
v -91.92126334 -0.00896230 -9.98266164
v -84.50022936 -0.00896230 -9.71574266
v -84.50022936 0.00096563 -9.98266164
v -91.92126334 -0.00896230 4.99999966
v -86.66269779 -0.00896230 -9.98266164
f 1 2 5
f 1 5 7
f 1 7 3
f 1 3 8
f 1 8 13
f 1 13 9
f 1 9 4
f 1 4 6
f 1 6 2
f 2 6 12
f 2 12 14
f 2 14 10
f 2 10 5
f 3 7 8
f 4 9 11
f 4 11 6
f 5 10 13
f 5 13 8
f 5 8 7
f 6 11 12
f 9 13 10
f 9 10 14
f 9 14 11
f 11 14 12

