# https://github.com/mikedh/trimesh
v 65.50457418 -0.36702260 5.00000009
v 67.72399694 -6.11535704 5.00000009
v 65.50457418 -0.36702260 -4.88385515
v 17.00000040 -0.36702260 5.00000009
v 67.72399694 -6.11535704 -4.88385515
v 67.72399694 -16.23863988 5.00000009
v 17.00000040 -0.36702260 -4.88385515
v 17.00000040 -5.18008756 5.00000009
v 67.72399694 -16.23863988 -4.88385515
v 17.00496480 -16.23863988 5.00000009
v 17.00000040 -5.18008756 -4.88385515
v 17.00496480 -16.23863988 -4.88385515
f 1 2 5
f 1 5 3
f 1 3 7
f 1 7 4
f 1 4 8
f 1 8 10
f 1 10 6
f 1 6 2
f 2 6 9
f 2 9 5
f 3 5 9
f 3 9 12
f 3 12 11
f 3 11 7
f 4 7 11
f 4 11 8
f 6 10 12
f 6 12 9
f 8 11 12
f 8 12 10

