# https://github.com/mikedh/trimesh
v 16.92644268 52.00410992 5.02574872
v 17.00720623 16.99999869 5.02574872
v 16.92644268 52.00410992 25.00000089
v 16.92644268 115.00000000 5.02574872
v 91.91998154 16.99999869 5.02574872
v 17.00720623 16.99999869 25.00000089
v 16.92644268 115.00000000 25.00000089
v 91.91998154 115.00000000 5.02574872
v 91.91998154 16.99999869 25.00000089
v 91.91998154 115.00000000 25.00000089
f 1 2 6
f 1 6 3
f 1 3 7
f 1 7 4
f 1 4 8
f 1 8 5
f 1 5 2
f 2 5 9
f 2 9 6
f 3 6 9
f 3 9 10
f 3 10 7
f 4 7 10
f 4 10 8
f 5 8 10
f 5 10 9

