# https://github.com/mikedh/trimesh
v 16.93829760 -114.99383092 -19.98777874
v 16.93829760 -114.99383092 5.02683602
v 16.93829760 -52.00549453 -19.98777874
v 114.99040365 -114.99383092 -19.98777874
v 114.99040365 -114.99383092 5.02683602
v 16.93829760 -52.00549453 5.02683602
v 17.00549603 -16.24830648 -19.98777874
v 115.00000000 -51.97649643 -19.98777874
v 115.00000000 -51.97649643 5.02683602
v 17.00549603 -17.00230867 5.02683602
v 17.00549603 -16.24830648 4.99990199
v 115.00000000 -16.24830648 -19.98777874
v 115.00000000 -16.24830648 5.02683602
v 91.98934257 -16.24830648 5.02683602
f 1 2 6
f 1 6 3
f 1 3 7
f 1 7 12
f 1 12 8
f 1 8 4
f 1 4 5
f 1 5 2
f 2 5 9
f 2 9 13
f 2 13 14
f 2 14 10
f 2 10 6
f 3 6 11
f 3 11 7
f 4 8 9
f 4 9 5
f 6 10 11
f 7 11 14
f 7 14 13
f 7 13 12
f 8 12 13
f 8 13 9
f 10 14 11

