# https://github.com/mikedh/trimesh
v 114.98874485 -16.23864502 -19.98777874
v 114.98874485 -16.23864502 -24.99999918
v 17.01256305 -16.23864502 -19.98777874
v 114.98874485 -114.99999315 -19.98777874
v 114.98874485 -114.99999315 -24.99999918
v 0.00406131 -16.23864502 -24.99999918
v 0.00406131 -16.23864502 -20.00053503
v 0.00406131 -52.00773254 -19.98777874
v 0.00406131 -114.99999315 -19.98777874
v 0.00406131 -114.99999315 -24.99999918
f 1 2 6
f 1 6 7
f 1 7 3
f 1 3 8
f 1 8 9
f 1 9 4
f 1 4 5
f 1 5 2
f 2 5 10
f 2 10 6
f 3 7 8
f 4 9 10
f 4 10 5
f 6 10 9
f 6 9 8
f 6 8 7

