# https://github.com/mikedh/trimesh
v 91.91485435 11.69717856 -14.67879809
v 91.91485435 -16.23863988 -14.67879809
v 91.91485435 11.69717856 -24.99999918
v 17.00756609 11.69717856 -14.67879809
v 91.91485435 -16.23863988 -24.99999918
v 17.00756609 -16.23863988 -14.67879809
v -0.01845241 11.69717856 -24.99999918
v -0.01845241 11.69717856 -19.99902532
v -0.01845241 -16.23863988 -24.99999918
v -0.01845241 -16.23863988 -19.99902532
f 1 2 5
f 1 5 3
f 1 3 7
f 1 7 8
f 1 8 4
f 1 4 6
f 1 6 2
f 2 6 10
f 2 10 9
f 2 9 5
f 3 5 9
f 3 9 7
f 4 8 10
f 4 10 6
f 7 9 10
f 7 10 8

