# https://github.com/mikedh/trimesh
v -16.95933074 115.00000000 -18.99754532
v -16.95933074 52.00720474 -18.99754532
v -16.95933074 115.00000000 -24.99999918
v -114.99915689 115.00000000 -18.99754532
v -16.95933074 51.64749250 -20.00108853
v -17.00731248 51.64749250 -18.99754532
v -16.95933074 51.64749250 -24.99999918
v -114.99915689 115.00000000 -24.99999918
v -114.99915689 51.64749250 -18.99754532
v -114.99915689 51.64749250 -24.99999918
f 1 2 5
f 1 5 7
f 1 7 3
f 1 3 8
f 1 8 4
f 1 4 9
f 1 9 6
f 1 6 2
f 2 6 5
f 3 7 10
f 3 10 8
f 4 8 10
f 4 10 9
f 5 6 9
f 5 9 10
f 5 10 7

