# https://github.com/mikedh/trimesh
v -16.95057750 115.00000000 5.02574958
v -16.95057750 52.00104252 5.02574958
v -16.95057750 115.00000000 -18.99754532
v -115.00000000 115.00000000 5.02574958
v -17.00816587 51.64129600 5.02339847
v -17.00816587 51.64129600 -18.99754532
v -16.96017727 52.00104252 -18.99754532
v -16.95057750 52.34218240 -18.99754532
v -17.78557286 51.64129600 5.02574958
v -115.00000000 115.00000000 -18.99754532
v -115.00000000 51.64129600 5.02574958
v -115.00000000 51.64129600 -18.99754532
f 1 2 8
f 1 8 3
f 1 3 10
f 1 10 4
f 1 4 11
f 1 11 9
f 1 9 2
f 2 5 6
f 2 6 7
f 2 7 8
f 2 9 5
f 3 8 7
f 3 7 6
f 3 6 12
f 3 12 10
f 4 10 12
f 4 12 11
f 5 9 11
f 5 11 12
f 5 12 6

