# https://github.com/mikedh/trimesh
v 91.91486120 -16.23863988 -24.99999918
v 91.91486120 11.69717856 -24.99999918
v 114.99774486 -16.23863988 -24.99999918
v 91.91486120 -16.23863988 4.99706335
v 114.99774486 11.69717856 -24.99999918
v 91.91486120 11.69717856 4.99706335
v 114.99774486 -16.23863988 24.99999918
v 92.00072795 -16.23863988 24.99999918
v 114.99774486 11.69717856 24.99999918
v 92.00072795 11.69717856 24.99999918
f 1 2 5
f 1 5 3
f 1 3 7
f 1 7 8
f 1 8 4
f 1 4 6
f 1 6 2
f 2 6 10
f 2 10 9
f 2 9 5
f 3 5 9
f 3 9 7
f 4 8 10
f 4 10 6
f 7 9 10
f 7 10 8

