# https://github.com/mikedh/trimesh
v 91.92732275 17.00157866 5.02574872
v 92.00185210 16.62599474 5.02574872
v 92.00185210 16.61636755 23.55706662
v 91.92732275 17.00157866 25.00000089
v 91.92732275 115.00000000 5.02574872
v 113.86623949 16.61636755 5.02574872
v 92.00185210 16.61636755 25.00000089
v 91.92732275 115.00000000 25.00000089
v 115.00000000 115.00000000 5.02574872
v 115.00000000 16.61636755 5.02574872
v 115.00000000 16.61636755 25.00000089
v 115.00000000 115.00000000 25.00000089
f 1 2 3
f 1 3 7
f 1 7 4
f 1 4 8
f 1 8 5
f 1 5 9
f 1 9 10
f 1 10 6
f 1 6 2
f 2 6 3
f 3 6 10
f 3 10 11
f 3 11 7
f 4 7 11
f 4 11 12
f 4 12 8
f 5 8 12
f 5 12 9
f 9 12 11
f 9 11 10

