# https://github.com/mikedh/trimesh
v 16.92870125 11.69718027 -24.99999918
v 16.92870125 11.69718027 -19.99804169
v 16.92870125 115.00000000 -24.99999918
v 114.99040365 11.69718027 -24.99999918
v 17.00550631 11.69718027 4.99706335
v 17.00550631 17.00591072 24.99999918
v 16.92870125 52.00307831 24.99999918
v 16.92870125 115.00000000 24.99999918
v 114.99040365 115.00000000 -24.99999918
v 114.99040365 11.69718027 24.99999918
v 91.99669063 11.69718027 24.99999918
v 114.99040365 115.00000000 24.99999918
f 1 2 7
f 1 7 8
f 1 8 3
f 1 3 9
f 1 9 4
f 1 4 10
f 1 10 11
f 1 11 5
f 1 5 2
f 2 5 6
f 2 6 7
f 3 8 12
f 3 12 9
f 4 9 12
f 4 12 10
f 5 11 6
f 6 11 10
f 6 10 12
f 6 12 8
f 6 8 7

