# https://github.com/mikedh/trimesh
v -17.00333171 -20.50400913 24.99999918
v -50.99847779 -20.50400913 24.99999918
v -17.00333171 -45.91089517 24.99999918
v -17.00333171 -20.46758413 14.99929041
v -50.99847779 -20.46758413 14.99929041
v -51.02512479 -52.00004518 24.99999918
v -17.01665349 -82.48830706 24.99999918
v -17.00333171 -82.48830706 24.99559514
v -17.00333171 -20.46758413 -19.98777874
v -50.99847779 -20.46758413 -19.98777874
v -51.02512479 -51.98790580 -19.94814582
v -51.02512479 -82.48830706 24.99999918
v -17.00333171 -82.48830706 -19.98337470
v -17.00333171 -45.91089517 -19.98777874
v -51.02512479 -51.98790580 -19.98777874
v -51.02512479 -82.48830706 -19.98337470
v -51.02512479 -52.18824670 -19.98777874
f 1 2 6
f 1 6 12
f 1 12 7
f 1 7 3
f 1 3 8
f 1 8 13
f 1 13 14
f 1 14 9
f 1 9 4
f 1 4 5
f 1 5 2
f 2 5 6
f 3 7 8
f 4 9 10
f 4 10 5
f 5 10 15
f 5 15 11
f 5 11 6
f 6 11 15
f 6 15 17
f 6 17 16
f 6 16 12
f 7 12 16
f 7 16 13
f 7 13 8
f 9 14 17
f 9 17 15
f 9 15 10
f 13 16 17
f 13 17 14

