# https://github.com/mikedh/trimesh
v -16.97878562 0.01845583 14.99999985
v -50.99667162 0.01845583 14.99999985
v -16.97878562 -18.49838786 14.99999985
v -16.97878562 0.01845583 -19.98573095
v -50.99667162 -20.46758242 14.99999985
v -50.99667162 0.01845583 -19.98573095
v -17.00209618 -20.46758242 14.99999985
v -16.97878562 -18.50039281 -19.96175893
v -16.97878562 -18.47432330 -19.98573095
v -50.99667162 -20.46758242 -19.98573095
v -17.00209618 -20.46758242 -19.98573095
v -16.97878562 -18.49838786 -19.97545771
f 1 2 5
f 1 5 7
f 1 7 3
f 1 3 8
f 1 8 12
f 1 12 9
f 1 9 4
f 1 4 6
f 1 6 2
f 2 6 10
f 2 10 5
f 3 7 8
f 4 9 11
f 4 11 10
f 4 10 6
f 5 10 11
f 5 11 7
f 7 11 8
f 8 11 12
f 9 12 11

