# https://github.com/mikedh/trimesh
v 50.99476948 -32.94891968 24.99999918
v 17.67276950 -32.94891968 24.99999918
v 51.02474436 -52.00904861 24.99999918
v 50.99809736 -20.50432101 24.99510504
v 17.67276950 -115.00000000 24.99999918
v 17.00000212 -20.50432101 24.99510504
v 51.02474436 -115.00000000 24.99999918
v 51.02474436 -32.94891968 -19.99804169
v 50.99809736 -20.48581719 14.99608420
v 17.67276950 -115.00000000 -24.99999918
v 17.00000212 -32.93966606 24.99510504
v 17.00000212 -20.48581719 14.99608420
v 51.02474436 -115.00000000 -24.99999918
v 51.02474436 -32.94891968 -24.99999918
v 50.99809736 -20.48581719 -19.66033593
v 17.00000212 -32.93966606 -19.66033593
v 17.67276950 -32.94891968 -24.99999918
v 17.00000212 -20.48581719 -19.66033593
f 1 2 5
f 1 5 7
f 1 7 3
f 1 3 4
f 1 4 6
f 1 6 2
f 2 6 11
f 2 11 5
f 3 7 13
f 3 13 14
f 3 14 8
f 3 8 4
f 4 9 12
f 4 12 6
f 4 8 9
f 5 10 13
f 5 13 7
f 5 11 16
f 5 16 10
f 6 12 18
f 6 18 16
f 6 16 11
f 8 14 15
f 8 15 9
f 9 15 18
f 9 18 12
f 10 16 18
f 10 18 17
f 10 17 14
f 10 14 13
f 14 17 18
f 14 18 15

