# https://github.com/mikedh/trimesh
v -115.00000000 0.02168089 -24.99999747
v -115.00000000 32.96204954 -24.99999747
v -84.95101094 0.02168089 -24.99999747
v -115.00000000 0.02168089 15.03737077
v -84.95101094 32.96204954 -24.99999747
v -115.00000000 32.96204954 15.03737077
v -84.95101094 0.02168089 -19.99924466
v -101.99916273 0.02168089 15.03737077
v -84.95101094 32.96204954 -19.99924466
v -85.00101477 32.96204954 15.03737077
v -85.00101477 20.49734138 15.03737077
v -85.00101477 0.02168089 14.99817997
f 1 2 5
f 1 5 3
f 1 3 7
f 1 7 12
f 1 12 8
f 1 8 4
f 1 4 6
f 1 6 2
f 2 6 10
f 2 10 9
f 2 9 5
f 3 5 9
f 3 9 7
f 4 8 11
f 4 11 10
f 4 10 6
f 7 9 10
f 7 10 11
f 7 11 12
f 8 12 11

