# https://github.com/mikedh/trimesh
v 17.67252445 114.99196649 -19.98811632
v 17.67252445 114.99196649 -24.99929659
v -16.93454303 114.99196649 -17.81585276
v 17.67252445 32.96527803 -19.98811632
v 17.67252445 32.96527803 -24.99929659
v -16.93454303 114.99196649 -24.99929659
v -16.93454303 82.87501931 -17.81585276
v -67.86925137 114.99196649 -17.81585276
v -17.01380372 32.96527803 -17.81585276
v -16.93454303 32.96527803 -24.99929659
v -83.54299366 114.99196649 -24.99859400
v -83.54299366 114.99196649 -19.98881891
v -67.86925137 52.01062858 -17.81585276
v -50.98678738 32.96527803 -17.81585276
v -83.54299366 32.96527803 -24.99859400
v -83.54299366 52.01062858 -19.98881891
v -83.54299366 32.96527803 -20.00077322
f 1 2 6
f 1 6 11
f 1 11 12
f 1 12 8
f 1 8 3
f 1 3 7
f 1 7 4
f 1 4 5
f 1 5 2
f 2 5 10
f 2 10 6
f 3 8 13
f 3 13 14
f 3 14 9
f 3 9 7
f 4 7 9
f 4 9 14
f 4 14 17
f 4 17 15
f 4 15 10
f 4 10 5
f 6 10 15
f 6 15 11
f 8 12 16
f 8 16 13
f 11 15 17
f 11 17 16
f 11 16 12
f 13 16 17
f 13 17 14

