# https://github.com/mikedh/trimesh
v -85.00000715 -20.50177798 24.99999918
v -85.00000715 -47.70789355 24.99999918
v -85.00000715 -20.48045695 14.99929041
v -101.99980706 -20.48045695 24.99999918
v -114.99706626 -47.70789355 24.99999918
v -85.00000715 -47.70789355 -19.98777874
v -85.00000715 -20.48045695 -19.98777874
v -114.99706626 -20.48045695 24.99999918
v -114.99706626 -47.70789355 -19.98777874
v -114.99706626 -20.48045695 -19.98777874
f 1 2 6
f 1 6 7
f 1 7 3
f 1 3 4
f 1 4 8
f 1 8 5
f 1 5 2
f 2 5 9
f 2 9 6
f 3 7 10
f 3 10 8
f 3 8 4
f 5 8 10
f 5 10 9
f 6 9 10
f 6 10 7

