# https://github.com/mikedh/trimesh
v 67.98635423 -52.00000405 25.00000089
v 84.99762177 -85.46104312 25.00000089
v 84.99762177 -52.00000405 24.99560028
v 67.98635423 -52.00000405 -19.94648874
v 67.98635423 -115.00000000 25.00000089
v 84.99762177 -115.00000000 25.00000089
v 84.99762177 -52.00000405 -19.94648874
v 67.98635423 -115.00000000 -19.94648874
v 84.99762177 -115.00000000 -19.94648874
f 1 2 3
f 1 3 7
f 1 7 4
f 1 4 8
f 1 8 5
f 1 5 6
f 1 6 2
f 2 6 9
f 2 9 7
f 2 7 3
f 4 7 9
f 4 9 8
f 5 8 9
f 5 9 6

