# https://github.com/mikedh/trimesh
v 114.99705940 -20.48581719 24.99999918
v 103.06282878 -20.48581719 24.99999918
v 115.00000000 -32.93966606 24.99999918
v 114.99705940 -20.48581719 -24.99999918
v 101.99580401 -20.48581719 24.99021091
v 85.00275582 -20.50432101 24.99999918
v 115.00000000 -115.00000000 24.99999918
v 115.00000000 -32.93966606 -24.99999918
v 84.97042298 -20.48581719 -24.99999918
v 85.00275582 -20.48581719 14.99608420
v 84.97042298 -20.48581719 -19.99804169
v 84.99981523 -52.00904861 24.99510504
v 84.99981523 -85.45680016 24.99999918
v 84.99981523 -115.00000000 24.99999918
v 115.00000000 -115.00000000 -24.99999918
v 84.97042298 -32.93966606 -24.99999918
v 84.97042298 -32.93966606 -19.99804169
v 84.99981523 -115.00000000 -24.99999918
f 1 2 6
f 1 6 13
f 1 13 14
f 1 14 7
f 1 7 3
f 1 3 8
f 1 8 4
f 1 4 9
f 1 9 11
f 1 11 10
f 1 10 5
f 1 5 2
f 2 5 6
f 3 7 15
f 3 15 8
f 4 8 15
f 4 15 18
f 4 18 16
f 4 16 9
f 5 10 6
f 6 10 11
f 6 11 12
f 6 12 13
f 7 14 18
f 7 18 15
f 9 16 17
f 9 17 11
f 11 17 14
f 11 14 13
f 11 13 12
f 14 17 16
f 14 16 18

