# https://github.com/mikedh/trimesh
v 51.00815296 32.96527460 -20.00119820
v 51.00815296 32.96527460 -24.99848090
v 50.99815905 32.96527460 -17.23776191
v 50.99815905 18.50696802 -17.23776191
v 51.00815296 18.50696802 -24.94757399
v 51.00815296 18.50696802 -24.99848090
v -0.00260842 32.96527460 -24.99924004
v 16.99764758 32.96527460 -17.23776191
v 16.99764758 18.50696802 -17.23776191
v -0.00260842 18.50696802 -24.99924004
v -51.09332055 32.96527460 -24.99924004
v -50.99338144 32.96527460 -19.98828083
v -50.99338144 18.50696802 -19.98828083
v -51.09332055 18.50696802 -24.99924004
v -51.09332055 32.96527460 -20.00043906
v -51.09332055 18.50696802 -20.00043906
f 1 2 7
f 1 7 11
f 1 11 15
f 1 15 12
f 1 12 8
f 1 8 3
f 1 3 4
f 1 4 5
f 1 5 6
f 1 6 2
f 2 6 10
f 2 10 7
f 3 8 9
f 3 9 4
f 4 9 13
f 4 13 16
f 4 16 14
f 4 14 10
f 4 10 6
f 4 6 5
f 7 10 14
f 7 14 11
f 8 12 13
f 8 13 9
f 11 14 16
f 11 16 15
f 12 15 16
f 12 16 13

