# https://github.com/mikedh/trimesh
v -16.92732692 114.99196649 25.00000089
v -16.92732692 114.99196649 -17.81237066
v -51.03428930 114.99196649 25.00000089
v -16.92732692 82.49344796 25.00000089
v -51.03428930 114.99196649 -17.81237066
v -16.92732692 82.88066745 -17.81237066
v -17.00077668 32.96649471 -19.98778045
v -51.03428930 52.00660497 25.00000089
v -17.00077668 32.96649471 25.00000089
v -17.00077668 20.50920144 24.99559686
v -17.00077668 18.50696802 14.99488808
v -16.92732692 82.49344796 24.90312234
v -50.99756271 32.96649471 -19.98778045
v -51.03428930 52.00660497 -17.81237066
v -17.00077668 18.50696802 -19.98778045
v -50.99756271 18.50696802 14.99488808
v -50.99756271 20.50920144 24.99559686
v -50.99422455 32.96649471 25.00000089
v -50.99756271 18.50696802 -19.98778045
f 1 2 5
f 1 5 3
f 1 3 8
f 1 8 18
f 1 18 9
f 1 9 4
f 1 4 12
f 1 12 6
f 1 6 2
f 2 6 15
f 2 15 7
f 2 7 13
f 2 13 5
f 3 5 14
f 3 14 8
f 4 9 10
f 4 10 11
f 4 11 15
f 4 15 12
f 5 13 19
f 5 19 14
f 6 12 15
f 7 15 19
f 7 19 13
f 8 14 19
f 8 19 16
f 8 16 17
f 8 17 18
f 9 18 17
f 9 17 10
f 10 17 16
f 10 16 11
f 11 16 19
f 11 19 15

