# https://github.com/mikedh/trimesh
v 0.00880808 -0.00406131 -19.98573095
v 0.00880808 -0.00406131 -24.99901898
v -50.99951968 -0.00406131 -19.98573095
v 0.00880808 -18.50967214 -19.98573095
v 0.00880808 -114.98874485 -24.99901898
v -54.65825066 -0.01531646 -24.99950908
v -54.65825066 -0.00406131 -24.99901898
v -54.65825066 -0.00406131 -20.00045620
v -114.98790175 -0.01531646 -19.98818658
v -50.99951968 -20.47955215 -19.98573095
v -17.01273099 -20.47955215 -19.98573095
v -54.65825066 -114.98874485 -19.98818658
v 0.00880808 -114.98874485 -19.98867668
v -54.65825066 -114.98874485 -24.99950908
v -114.98790175 -0.01531646 -24.99950908
v -114.98790175 -114.98874485 -19.98818658
v -114.98790175 -114.98874485 -24.99950908
f 1 2 7
f 1 7 8
f 1 8 3
f 1 3 10
f 1 10 11
f 1 11 4
f 1 4 13
f 1 13 5
f 1 5 2
f 2 5 14
f 2 14 6
f 2 6 15
f 2 15 7
f 3 8 9
f 3 9 16
f 3 16 10
f 4 11 12
f 4 12 13
f 5 13 12
f 5 12 16
f 5 16 17
f 5 17 14
f 6 14 17
f 6 17 15
f 7 15 9
f 7 9 8
f 9 15 17
f 9 17 16
f 10 16 12
f 10 12 11

