# https://github.com/mikedh/trimesh
v -115.00000000 0.02168089 15.03834412
v -102.00016350 0.02168089 15.03834412
v -115.00000000 0.02168089 24.99999747
v -115.00000000 32.96204954 15.03834412
v -101.97849631 20.49734138 15.03834412
v -102.00016350 0.02168089 24.99999747
v -115.00000000 32.96204954 24.99999747
v -101.97849631 32.96204954 15.03834412
v -101.97849631 20.49734138 24.99999747
v -101.97849631 32.96204954 24.99999747
f 1 2 6
f 1 6 3
f 1 3 7
f 1 7 4
f 1 4 8
f 1 8 5
f 1 5 2
f 2 5 9
f 2 9 6
f 3 6 9
f 3 9 10
f 3 10 7
f 4 7 10
f 4 10 8
f 5 8 10
f 5 10 9

