# https://github.com/mikedh/trimesh
v 50.99999949 32.96527460 25.00000089
v 17.00000212 32.96527460 25.00000089
v 50.99999949 20.50126731 25.00000089
v 50.99999949 32.96527460 -17.23776191
v 17.00000212 20.50126731 25.00000089
v 17.00000212 32.96527460 -17.23776191
v 50.99999949 18.50696802 14.99871463
v 50.99999949 18.50696802 -17.23776191
v 17.00000212 18.50696802 14.99871463
v 17.00000212 18.50696802 -17.23776191
f 1 2 5
f 1 5 3
f 1 3 7
f 1 7 8
f 1 8 4
f 1 4 6
f 1 6 2
f 2 6 10
f 2 10 9
f 2 9 5
f 3 5 9
f 3 9 7
f 4 8 10
f 4 10 6
f 7 9 10
f 7 10 8

