# https://github.com/mikedh/trimesh
v -16.92732692 114.99196649 25.00000089
v -16.92732692 114.99196649 -17.81585276
v -51.03428930 114.99196649 25.00000089
v -16.92732692 82.49446243 25.00000089
v -51.03428930 114.99196649 -17.81585276
v -16.92732692 82.88793325 -17.81585276
v -51.03428930 52.00446293 25.00000089
v -17.00077668 32.96527803 25.00000089
v -16.92732692 82.49446243 24.90360558
v -51.03428930 52.00446293 -17.81585276
v -17.00077668 32.96527803 -17.81585276
v -50.99756271 32.96527803 25.00000089
v -50.99756271 32.96527803 -17.81585276
f 1 2 5
f 1 5 3
f 1 3 7
f 1 7 12
f 1 12 8
f 1 8 4
f 1 4 9
f 1 9 6
f 1 6 2
f 2 6 11
f 2 11 13
f 2 13 10
f 2 10 5
f 3 5 10
f 3 10 7
f 4 8 11
f 4 11 9
f 6 9 11
f 7 10 13
f 7 13 12
f 8 12 13
f 8 13 11

