# https://github.com/mikedh/trimesh
v -16.92732349 32.96528146 -24.99999918
v 17.67252788 32.96528146 -24.99999918
v -16.92732349 32.96528146 -20.00053503
v -16.92732349 114.99363899 -24.99999918
v 17.67252788 32.96528146 -19.98777874
v 17.67252788 114.98560548 -24.99999918
v 16.99854895 32.96528146 -19.98777874
v -16.92732349 82.49062389 -19.98777874
v -16.92732349 114.99363899 -19.98777874
v 0.01021058 114.99363899 -24.99999918
v 17.67252788 114.98560548 -19.98777874
v 0.01021058 114.99363899 -19.98777874
f 1 2 5
f 1 5 7
f 1 7 3
f 1 3 8
f 1 8 9
f 1 9 4
f 1 4 10
f 1 10 6
f 1 6 2
f 2 6 11
f 2 11 5
f 3 7 8
f 4 9 12
f 4 12 10
f 5 11 12
f 5 12 9
f 5 9 8
f 5 8 7
f 6 10 12
f 6 12 11

