# https://github.com/mikedh/trimesh
v 0.00881493 -20.47656700 -24.99608353
v 0.00881493 -20.47656700 -19.99706149
v 0.00881493 18.50555256 -24.99608353
v 51.00815296 -20.47656700 -24.99608353
v 17.00693034 -20.47656700 14.99608591
v 0.00881493 -18.49617042 14.99608591
v 0.00881493 18.50555256 -19.99706149
v 51.00815296 18.50555256 -24.99608353
v 51.00815296 -20.47656700 -23.39107208
v 50.99816933 -20.47656700 14.99608591
v 0.00881493 18.49792004 14.99608591
v 17.00693034 18.50555256 14.99608591
v 51.00815296 18.50555256 -24.94127810
v 51.00815296 0.00278262 -19.99706149
v 50.99816933 18.50555256 14.99608591
v 51.00815296 0.06001948 -19.99706149
f 1 2 6
f 1 6 11
f 1 11 7
f 1 7 3
f 1 3 8
f 1 8 4
f 1 4 9
f 1 9 10
f 1 10 5
f 1 5 2
f 2 5 6
f 3 7 12
f 3 12 15
f 3 15 13
f 3 13 8
f 4 8 13
f 4 13 16
f 4 16 14
f 4 14 9
f 5 10 15
f 5 15 12
f 5 12 11
f 5 11 6
f 7 11 12
f 9 14 10
f 10 14 16
f 10 16 15
f 13 15 16

