# https://github.com/mikedh/trimesh
v 67.98956215 -52.00000405 25.00000089
v 51.03138298 -52.00000405 24.99560200
v 67.98956215 -115.00000000 25.00000089
v 84.99762177 -85.45487404 25.00000089
v 84.99762177 -52.00000405 24.99120139
v 51.03138298 -52.00000405 -19.92449082
v 51.03138298 -115.00000000 24.99560200
v 84.99762177 -115.00000000 25.00000089
v 84.99762177 -52.00000405 -19.94648874
v 67.98956215 -52.00000405 -19.94648874
v 51.03138298 -115.00000000 -19.92449082
v 84.99762177 -115.00000000 -19.94648874
v 67.98956215 -115.00000000 -19.94648874
f 1 2 7
f 1 7 3
f 1 3 8
f 1 8 4
f 1 4 5
f 1 5 9
f 1 9 10
f 1 10 6
f 1 6 2
f 2 6 11
f 2 11 7
f 3 7 11
f 3 11 13
f 3 13 12
f 3 12 8
f 4 8 12
f 4 12 9
f 4 9 5
f 6 10 13
f 6 13 11
f 9 12 13
f 9 13 10

