# https://github.com/mikedh/trimesh
v 0.00881322 -18.51251677 -24.99608353
v 0.00881322 -18.51251677 -19.99999866
v 0.00881322 0.01664195 -24.99608353
v 51.00815296 -18.51251677 -24.99608353
v 17.00193852 -18.51251677 14.99608591
v 0.00881322 -18.49981874 14.99608591
v 0.00881322 0.01664195 14.99608591
v 51.00815296 0.01664195 -24.99608353
v 51.00815296 -18.51251677 -23.06969553
v 50.99817276 -18.51251677 14.99608591
v 50.99817276 0.01664195 14.99608591
v 51.00815296 0.01664195 -19.99999866
v 51.00815296 0.00575867 -19.99999866
f 1 2 6
f 1 6 7
f 1 7 3
f 1 3 8
f 1 8 4
f 1 4 9
f 1 9 10
f 1 10 5
f 1 5 2
f 2 5 6
f 3 7 11
f 3 11 12
f 3 12 8
f 4 8 12
f 4 12 13
f 4 13 9
f 5 10 11
f 5 11 7
f 5 7 6
f 9 13 10
f 10 13 12
f 10 12 11

