# https://github.com/mikedh/trimesh
v -17.00000212 -20.50244458 24.99999918
v -17.00000212 -45.90447932 24.99999918
v -17.00000212 -20.46758242 14.99929041
v -50.99999949 -20.50244458 24.99999918
v -50.99999949 -45.90447932 24.99999918
v -17.00000212 -45.90447932 -19.98777874
v -50.99999949 -20.46758242 14.99929041
v -17.00000212 -20.46758242 -19.98777874
v -50.99999949 -45.90447932 -19.98777874
v -50.99999949 -20.46758242 -19.98777874
f 1 2 6
f 1 6 8
f 1 8 3
f 1 3 7
f 1 7 4
f 1 4 5
f 1 5 2
f 2 5 9
f 2 9 6
f 3 8 10
f 3 10 7
f 4 7 10
f 4 10 9
f 4 9 5
f 6 9 10
f 6 10 8

