# https://github.com/mikedh/trimesh
v 51.02640316 -115.00000000 -24.99999918
v 67.98635423 -115.00000000 -24.99999918
v 51.02640316 -115.00000000 -13.05511747
v 51.02640316 -32.93894634 -24.99999918
v 67.98635423 -115.00000000 -13.05511747
v 67.98635423 -32.93894634 -24.99999918
v 51.02640316 -52.00030565 -13.05511747
v 51.02640316 -32.93894634 -19.99987014
v 67.98635423 -52.00030565 -13.05511747
v 67.98635423 -32.93894634 -19.99987014
f 1 2 5
f 1 5 3
f 1 3 7
f 1 7 8
f 1 8 4
f 1 4 6
f 1 6 2
f 2 6 10
f 2 10 9
f 2 9 5
f 3 5 9
f 3 9 7
f 4 8 10
f 4 10 6
f 7 9 10
f 7 10 8

