# https://github.com/mikedh/trimesh
v -101.99783295 -20.48045352 24.99999918
v -114.99705255 -20.48045352 24.99999918
v -85.00135064 -20.50821096 24.99999918
v -85.00135064 -20.48045352 14.99929041
v -114.99705255 -20.48045352 -19.98777874
v -115.00000000 -51.98388904 24.99999918
v -84.90708709 -52.01164305 24.99999918
v -85.00135064 -20.48045352 -19.98777874
v -115.00000000 -51.98388904 -19.98777874
v -115.00000000 -115.00000000 24.99999918
v -84.90708709 -115.00000000 24.99999918
v -84.90708709 -52.01164305 -19.98777874
v -115.00000000 -115.00000000 -19.98777874
v -84.90708709 -115.00000000 -19.98777874
f 1 2 6
f 1 6 10
f 1 10 11
f 1 11 7
f 1 7 3
f 1 3 4
f 1 4 8
f 1 8 5
f 1 5 2
f 2 5 9
f 2 9 6
f 3 7 4
f 4 7 12
f 4 12 8
f 5 8 12
f 5 12 14
f 5 14 13
f 5 13 9
f 6 9 13
f 6 13 10
f 7 11 14
f 7 14 12
f 10 13 14
f 10 14 11

