# https://github.com/mikedh/trimesh
v -51.09332055 0.02026543 -24.99608353
v -51.09332055 0.02026543 -19.99706149
v -51.09332055 18.50555256 -24.99608353
v 51.00815296 0.02026543 -24.99608353
v -50.99338144 0.02026543 14.99608591
v -51.09332055 18.50555256 -19.99706149
v 51.00815296 18.50555256 -24.99608353
v 51.00815296 0.02026543 -19.99706149
v -50.99338144 18.50555256 14.99608591
v 50.99815905 0.02026543 14.99608591
v 51.00815296 18.50555256 -24.94127810
v 51.00815296 0.06369576 -19.99706149
v 50.99815905 18.50555256 14.99608591
f 1 2 6
f 1 6 3
f 1 3 7
f 1 7 4
f 1 4 8
f 1 8 10
f 1 10 5
f 1 5 2
f 2 5 9
f 2 9 6
f 3 6 9
f 3 9 13
f 3 13 11
f 3 11 7
f 4 7 11
f 4 11 12
f 4 12 8
f 5 10 13
f 5 13 9
f 8 12 13
f 8 13 10
f 11 13 12

