# https://github.com/mikedh/trimesh
v 51.00815296 -20.47656700 -23.39717433
v 51.00815296 -20.47656700 -24.99999918
v 50.99817276 -20.47656700 -19.66456003
v 51.00815296 -32.93894291 -20.00037566
v 51.00815296 -32.93894291 -24.99999918
v 0.00881322 -20.47656700 -24.99999918
v 50.99817276 -32.93894291 -19.66456003
v 17.00193852 -20.47656700 -19.66456003
v 0.00881322 -32.93894291 -24.99999918
v 0.00881322 -20.47656700 -20.00037566
v 17.00193852 -32.93894291 -19.66456003
v 0.00881322 -32.93894291 -20.00037566
f 1 2 6
f 1 6 10
f 1 10 8
f 1 8 3
f 1 3 4
f 1 4 5
f 1 5 2
f 2 5 9
f 2 9 6
f 3 7 4
f 3 8 11
f 3 11 7
f 4 7 11
f 4 11 12
f 4 12 9
f 4 9 5
f 6 9 12
f 6 12 10
f 8 10 12
f 8 12 11

