# https://github.com/mikedh/trimesh
v -54.64942545 -20.46758242 -24.99608353
v -54.64942545 -20.46758242 -19.99999866
v -54.64942545 0.01845583 -24.99608353
v 0.00881150 -20.46758242 -24.99608353
v -54.64942545 0.01845583 -19.99999866
v -50.99519789 -20.46758242 14.99608591
v 0.00881150 0.01845583 -24.99608353
v 0.00881150 -20.46758242 -19.99999866
v -50.99519789 0.01845583 14.99608591
v -17.00500935 -20.46758242 14.99608591
v 0.00881150 0.01845583 14.99608591
v 0.00881150 -18.49838786 14.99608591
f 1 2 5
f 1 5 3
f 1 3 7
f 1 7 4
f 1 4 8
f 1 8 10
f 1 10 6
f 1 6 2
f 2 6 9
f 2 9 5
f 3 5 9
f 3 9 11
f 3 11 7
f 4 7 11
f 4 11 12
f 4 12 8
f 6 10 12
f 6 12 11
f 6 11 9
f 8 12 10

