# https://github.com/mikedh/trimesh
v -51.03428930 32.96527803 -24.99929659
v -16.92732692 32.96527803 -24.99929659
v -51.03428930 32.96527803 -20.00007063
v -51.03428930 114.99196649 -24.99929659
v -16.92732692 32.96527803 -20.00007063
v -16.92732692 114.99196649 -24.99929659
v -50.99756271 32.96527803 -17.81585276
v -51.03428930 52.00446293 -17.81585276
v -51.03428930 114.99196649 -17.81585276
v -17.00077668 32.96527803 -17.81585276
v -16.92732692 82.88793325 -17.81585276
v -16.92732692 114.99196649 -17.81585276
f 1 2 5
f 1 5 10
f 1 10 7
f 1 7 3
f 1 3 8
f 1 8 9
f 1 9 4
f 1 4 6
f 1 6 2
f 2 6 12
f 2 12 11
f 2 11 5
f 3 7 8
f 4 9 12
f 4 12 6
f 5 11 10
f 7 10 11
f 7 11 12
f 7 12 9
f 7 9 8

