# https://github.com/mikedh/trimesh
v 15.00000060 50.00000000 5.08056730
v -15.00000060 50.00000000 5.08056730
v 15.00000060 19.99369264 5.08056730
v 15.00000060 50.00000000 -50.00000000
v -15.00000060 50.00000000 -50.00000000
v -15.00000060 19.99369264 5.08056730
v 15.00000060 -19.98731494 4.99969274
v 15.00000060 -19.98731494 -50.00000000
v -15.00000060 -19.98731494 -50.00000000
v -15.00000060 -19.98731494 4.99969274
f 1 2 6
f 1 6 3
f 1 3 7
f 1 7 8
f 1 8 4
f 1 4 5
f 1 5 2
f 2 5 9
f 2 9 10
f 2 10 6
f 3 6 10
f 3 10 7
f 4 8 9
f 4 9 5
f 7 10 9
f 7 9 8

