# https://github.com/mikedh/trimesh
v -30.06336272 0.02592288 -20.01012146
v -30.06336272 0.02532441 -20.00000015
v -30.06336272 0.02592288 -21.87993899
v -65.43563783 0.02592288 -20.00000015
v -30.06336272 -6.08981073 -20.00000015
v -30.06336272 -6.08981073 -21.87993899
v -65.49828351 0.02592288 -21.87993899
v -65.49828351 0.02592288 -20.00000015
v -67.70928204 -6.08981073 -20.00000015
v -67.70928204 -6.08981073 -21.87993899
f 1 2 5
f 1 5 6
f 1 6 3
f 1 3 7
f 1 7 8
f 1 8 4
f 1 4 2
f 2 4 8
f 2 8 9
f 2 9 5
f 3 6 10
f 3 10 7
f 5 9 10
f 5 10 6
f 7 10 9
f 7 9 8

