# https://github.com/mikedh/trimesh
v -80.53643703 -7.72097602 -21.87994033
v -74.97594953 -9.49744262 -21.87994033
v -80.53643703 -7.72097602 -25.68616927
v -90.00000000 -7.72097602 -21.87994033
v -74.97594953 -14.99999911 -21.87994033
v -74.97594953 -9.49744262 -25.68616927
v -90.00000000 -7.72097602 -25.68616927
v -90.00000000 -14.99999911 -21.87994033
v -74.97594953 -14.99999911 -25.68616927
v -90.00000000 -14.99999911 -25.68616927
f 1 2 6
f 1 6 3
f 1 3 7
f 1 7 4
f 1 4 8
f 1 8 5
f 1 5 2
f 2 5 9
f 2 9 6
f 3 6 9
f 3 9 10
f 3 10 7
f 4 7 10
f 4 10 8
f 5 8 10
f 5 10 9

