# https://github.com/mikedh/trimesh
v 68.36543083 6.80297457 -20.00000149
v 68.36543083 6.80035137 -20.00000149
v 68.36543083 6.80297457 -20.84972799
v 30.31001061 6.80297457 -20.00000149
v 68.36543083 6.80035137 -20.84972799
v 65.79089642 2.33674519 -20.00000149
v 30.31001061 6.80297457 -20.84972799
v 30.31001061 2.33674519 -20.00000149
v 65.79089642 2.33674519 -20.84972799
v 30.31001061 2.33674519 -20.84972799
f 1 2 5
f 1 5 3
f 1 3 7
f 1 7 4
f 1 4 8
f 1 8 6
f 1 6 2
f 2 6 9
f 2 9 5
f 3 5 9
f 3 9 10
f 3 10 7
f 4 7 10
f 4 10 8
f 6 8 10
f 6 10 9

