# https://github.com/mikedh/trimesh
v 65.73702693 -2.11934410 -20.84981114
v 65.73702693 -2.11934410 -25.68654209
v 17.00000167 -2.11934410 -20.84981114
v 74.97594953 -9.49593119 -20.84981114
v 17.00000167 -2.11934410 -25.68654209
v 74.97594953 -9.49593119 -25.68654209
v 17.00000167 -15.00000045 -20.84981114
v 74.97594953 -15.00000045 -20.84981114
v 17.00000167 -15.00000045 -25.68654209
v 74.97594953 -15.00000045 -25.68654209
f 1 2 5
f 1 5 3
f 1 3 7
f 1 7 8
f 1 8 4
f 1 4 6
f 1 6 2
f 2 6 10
f 2 10 9
f 2 9 5
f 3 5 9
f 3 9 7
f 4 8 10
f 4 10 6
f 7 9 10
f 7 10 8

