# https://github.com/mikedh/trimesh
v 81.74156427 -15.00000045 -50.00000238
v 89.99844432 -15.00000045 -50.00000238
v 81.74156427 -15.00000045 -25.68915188
v 81.74156427 -6.69220403 -50.00000238
v 89.99844432 0.00117213 -50.00000238
v 89.99844432 -15.00000045 -20.85266232
v 81.74156427 -6.69220403 -25.68915188
v 82.27827966 -15.00000045 -20.85266232
v 82.27746964 -6.10836290 -20.85266232
v 84.46960688 0.73598005 -25.68915188
v 84.50112820 0.00117213 -50.00000238
v 89.99844432 0.73598005 -25.68915188
v 89.99844432 0.73598005 -20.85266232
v 84.46960688 0.73598005 -20.85266232
f 1 2 6
f 1 6 8
f 1 8 3
f 1 3 7
f 1 7 4
f 1 4 11
f 1 11 5
f 1 5 2
f 2 5 12
f 2 12 13
f 2 13 6
f 3 8 9
f 3 9 7
f 4 7 14
f 4 14 10
f 4 10 11
f 5 11 10
f 5 10 12
f 6 13 14
f 6 14 9
f 6 9 8
f 7 9 14
f 10 14 13
f 10 13 12

