# https://github.com/mikedh/trimesh
v 82.20878363 6.18452422 -20.84972799
v 82.20878363 6.18452422 -20.00000149
v 82.20878363 14.71036345 -20.84972799
v 84.46851254 -0.73751964 -20.84972799
v 82.20878363 14.99383807 -20.00000149
v 84.46851254 -0.73751964 -20.00000149
v 82.20878363 15.00000045 -20.84124416
v 82.73348808 15.00000045 -20.84972799
v 90.00000000 -0.73751964 -20.84972799
v 90.00000000 15.00000045 -20.00000149
v 82.20878363 15.00000045 -20.37774101
v 90.00000000 -0.73751964 -20.00000149
v 90.00000000 15.00000045 -20.84972799
f 1 2 5
f 1 5 11
f 1 11 7
f 1 7 3
f 1 3 8
f 1 8 13
f 1 13 9
f 1 9 4
f 1 4 6
f 1 6 2
f 2 6 12
f 2 12 10
f 2 10 5
f 3 7 8
f 4 9 12
f 4 12 6
f 5 10 11
f 7 11 10
f 7 10 13
f 7 13 8
f 9 13 10
f 9 10 12

