# https://github.com/mikedh/trimesh
v -73.14834595 9.31497194 -49.99955177
v -73.14834595 9.31497194 -42.58077621
v -73.14834595 15.00000045 -49.99955177
v -71.39508247 8.78842279 -49.99955177
v -73.14834595 15.00000045 -42.58077621
v -71.40607417 8.79267879 -45.39476752
v -71.41157269 8.79511088 -42.58077621
v -17.00000167 15.00000045 -49.99955177
v -17.00000167 8.78842279 -49.99955177
v -70.47723055 8.78842279 -42.58077621
v -17.00000167 15.00000045 -42.58077621
v -17.00000167 8.78842279 -42.58077621
f 1 2 5
f 1 5 3
f 1 3 8
f 1 8 9
f 1 9 4
f 1 4 2
f 2 4 6
f 2 6 7
f 2 7 10
f 2 10 12
f 2 12 11
f 2 11 5
f 3 5 11
f 3 11 8
f 4 9 12
f 4 12 10
f 4 10 7
f 4 7 6
f 8 11 12
f 8 12 9

