# https://github.com/mikedh/trimesh
v -17.00000167 8.78842212 -25.68654209
v -17.00000167 6.76675670 -25.68654209
v -17.00000167 8.78842212 -27.44362503
v -69.73060548 8.78842212 -25.68654209
v -17.00000167 6.76675670 -27.44362503
v -68.33181739 6.76675670 -25.68654209
v -69.73060548 8.78842212 -27.44362503
v -69.73060548 7.90166773 -25.68654209
v -68.33181739 6.76675670 -27.44362503
v -69.73060548 7.90166773 -27.44362503
f 1 2 5
f 1 5 3
f 1 3 7
f 1 7 4
f 1 4 8
f 1 8 6
f 1 6 2
f 2 6 9
f 2 9 5
f 3 5 9
f 3 9 10
f 3 10 7
f 4 7 10
f 4 10 8
f 6 8 10
f 6 10 9

