# https://github.com/mikedh/trimesh
v -73.14834595 9.31558013 -42.58077621
v -73.14834595 15.00000045 -42.58077621
v -71.41157269 8.79511088 -42.58077621
v -71.39508247 8.78842279 -28.94764692
v -73.14834595 9.31558013 -25.68654478
v -73.14834595 15.00000045 -25.68819702
v -17.00000167 15.00000045 -42.58077621
v -70.47723055 8.78842279 -42.58077621
v -71.29615188 8.78842279 -30.43101847
v -71.39508247 8.78842279 -25.68654478
v -73.14834595 11.31962880 -25.68654478
v -17.00000167 15.00000045 -25.68819702
v -17.00000167 8.78842279 -42.58077621
v -17.00000167 8.78842279 -25.68654478
v -17.00000167 11.31962880 -25.68654478
f 1 2 7
f 1 7 13
f 1 13 8
f 1 8 3
f 1 3 4
f 1 4 10
f 1 10 5
f 1 5 11
f 1 11 6
f 1 6 2
f 2 6 12
f 2 12 7
f 3 8 9
f 3 9 4
f 4 9 8
f 4 8 13
f 4 13 14
f 4 14 10
f 5 10 14
f 5 14 15
f 5 15 11
f 6 11 15
f 6 15 12
f 7 12 15
f 7 15 14
f 7 14 13

