# https://github.com/mikedh/trimesh
v 17.00000167 3.68632413 -50.00000238
v 17.00000167 1.88024931 -49.99714851
v 17.00000167 6.76660046 -50.00000238
v 66.23322487 3.68632413 -50.00000238
v 17.00000167 1.88024931 -41.67952716
v 65.68049669 1.88024931 -49.99714851
v 17.00000167 6.76660046 -25.68915188
v 68.33360374 6.76660046 -50.00000238
v 66.23825133 3.69110718 -50.00000238
v 65.45940757 1.88024931 -41.67952716
v 17.00000167 1.88072758 -25.68915188
v 65.68049669 1.88024931 -49.84592021
v 17.00000167 6.44709371 -20.85266232
v 68.33360374 6.76660046 -25.68915188
v 65.68049669 1.88072758 -25.68915188
v 17.00000167 2.45038737 -20.85266232
v 68.02206516 6.44709371 -20.85266232
v 65.81616282 2.45038737 -20.85266232
f 1 2 5
f 1 5 11
f 1 11 16
f 1 16 13
f 1 13 7
f 1 7 3
f 1 3 8
f 1 8 9
f 1 9 4
f 1 4 6
f 1 6 2
f 2 6 12
f 2 12 10
f 2 10 5
f 3 7 14
f 3 14 8
f 4 9 6
f 5 10 15
f 5 15 11
f 6 9 8
f 6 8 14
f 6 14 12
f 7 13 17
f 7 17 14
f 10 12 15
f 11 15 18
f 11 18 16
f 12 14 15
f 13 16 18
f 13 18 17
f 14 17 15
f 15 17 18

