# https://github.com/mikedh/trimesh
v -30.09266585 0.02642913 -21.87993899
v -30.09266585 0.02642913 -20.00035688
v -30.09266585 15.00000179 -21.87993899
v -30.06313741 -15.00000179 -21.87993899
v -30.09266585 15.00000179 -20.00035688
v -30.06313741 -15.00000179 -20.00035688
v -29.99894142 -15.00000179 -19.93505850
v -17.00098202 15.00000179 -21.87993899
v -17.00098202 -15.00000179 -21.87993899
v -29.99765933 15.00000179 -19.93505850
v -29.99894142 0.02349256 -19.93505850
v -16.97658867 -15.00000179 -19.93505850
v -16.97658867 15.00000179 -20.00035688
v -16.97658867 -15.00000179 -20.00035688
v -16.97658867 15.00000179 -19.93505850
f 1 2 5
f 1 5 3
f 1 3 8
f 1 8 9
f 1 9 4
f 1 4 6
f 1 6 2
f 2 6 7
f 2 7 11
f 2 11 5
f 3 5 10
f 3 10 15
f 3 15 13
f 3 13 8
f 4 9 14
f 4 14 12
f 4 12 7
f 4 7 6
f 5 11 10
f 7 12 15
f 7 15 10
f 7 10 11
f 8 13 14
f 8 14 9
f 12 14 13
f 12 13 15

