# https://github.com/mikedh/trimesh
v -30.06336808 -6.08981073 -20.00000015
v -30.06336808 -6.08981073 -21.87993899
v -67.70458281 -6.08981073 -20.00000015
v -30.06336808 -15.00000045 -20.00000015
v -30.06336808 -15.00000045 -21.87993899
v -67.70458281 -6.08981073 -21.87993899
v -72.78558254 -9.23663601 -20.00000015
v -72.78558254 -15.00000045 -20.00000015
v -72.78558254 -15.00000045 -21.87993899
v -72.78558254 -9.23663601 -21.87993899
f 1 2 6
f 1 6 3
f 1 3 7
f 1 7 8
f 1 8 4
f 1 4 5
f 1 5 2
f 2 5 9
f 2 9 10
f 2 10 6
f 3 6 10
f 3 10 7
f 4 8 9
f 4 9 5
f 7 10 9
f 7 9 8

