# https://github.com/mikedh/trimesh
v -89.99925435 2.19358429 -25.68616927
v -84.24103975 2.19358429 -25.68616927
v -89.99925435 2.19358429 -21.87994033
v -89.99925435 15.00000045 -25.68616927
v -84.24103975 2.19358429 -21.87994033
v -82.33439684 6.03576019 -25.68616927
v -89.99925435 15.00000045 -21.87994033
v -82.33439684 15.00000045 -25.68616927
v -82.33439684 6.03576019 -21.87994033
v -82.33439684 15.00000045 -21.87994033
f 1 2 5
f 1 5 3
f 1 3 7
f 1 7 4
f 1 4 8
f 1 8 6
f 1 6 2
f 2 6 9
f 2 9 5
f 3 5 9
f 3 9 10
f 3 10 7
f 4 7 10
f 4 10 8
f 6 8 10
f 6 10 9

