# https://github.com/mikedh/trimesh
v -17.00000167 15.00000045 -21.87994167
v -17.00000167 6.10323116 -21.87994167
v -17.00000167 15.00000045 -25.68579912
v -74.97594953 15.00000045 -21.87994167
v -17.00000167 6.10323116 -25.68579912
v -67.71760762 6.10323116 -21.87994167
v -74.97594953 15.00000045 -25.68579912
v -74.97594953 9.49786775 -21.87994167
v -67.71760762 6.10323116 -25.68579912
v -74.97594953 9.49786775 -25.68579912
f 1 2 5
f 1 5 3
f 1 3 7
f 1 7 4
f 1 4 8
f 1 8 6
f 1 6 2
f 2 6 9
f 2 9 5
f 3 5 9
f 3 9 10
f 3 10 7
f 4 7 10
f 4 10 8
f 6 8 10
f 6 10 9

