# https://github.com/mikedh/trimesh
v -68.32356691 6.76675603 -50.00000238
v -66.24851346 3.70868638 -50.00000238
v -68.32356691 6.76675603 -25.68892121
v -17.01004922 6.76675603 -50.00000238
v -17.00502545 3.70868638 -50.00000238
v -66.24851346 3.70868638 -25.68892121
v -17.01004922 6.76675603 -25.68892121
v -17.00502545 5.35955317 -50.00000238
v -17.00502545 3.70868638 -25.68892121
v -17.00502545 5.35955317 -25.68892121
f 1 2 6
f 1 6 3
f 1 3 7
f 1 7 4
f 1 4 8
f 1 8 5
f 1 5 2
f 2 5 9
f 2 9 6
f 3 6 9
f 3 9 10
f 3 10 7
f 4 7 10
f 4 10 8
f 5 8 10
f 5 10 9

