# https://github.com/mikedh/trimesh
v -69.73060548 7.90166773 -39.59362417
v -69.73060548 7.90166773 -27.44362503
v -69.73060548 8.78842212 -39.59362417
v -68.33697796 6.77328721 -39.59362417
v -68.33181739 6.76675670 -37.14602262
v -69.73060548 8.78842212 -27.44362503
v -68.33181739 6.76675670 -27.44362503
v -17.00000167 8.78842212 -39.59362417
v -67.92921782 6.76675670 -39.59362417
v -17.00000167 8.78842212 -27.44362503
v -17.00000167 6.76675670 -27.44362503
v -17.00000167 6.76675670 -39.59362417
f 1 2 6
f 1 6 3
f 1 3 8
f 1 8 12
f 1 12 9
f 1 9 4
f 1 4 5
f 1 5 7
f 1 7 2
f 2 7 11
f 2 11 10
f 2 10 6
f 3 6 10
f 3 10 8
f 4 9 5
f 5 9 12
f 5 12 11
f 5 11 7
f 8 10 11
f 8 11 12

