# https://github.com/mikedh/trimesh
v 65.61794758 -1.48448534 -20.00000149
v 65.61794758 -1.48448534 -20.84972799
v 30.30628771 -1.48448534 -20.00000149
v 75.03701806 -9.49588493 -20.00000149
v 30.30628771 -1.48448534 -20.84972799
v 75.03701806 -9.49588493 -20.84972799
v 30.30628771 -14.99867678 -20.00000149
v 75.03701806 -14.99867678 -20.00000149
v 30.30628771 -14.99867678 -20.84972799
v 75.03701806 -14.99867678 -20.84972799
f 1 2 5
f 1 5 3
f 1 3 7
f 1 7 8
f 1 8 4
f 1 4 6
f 1 6 2
f 2 6 10
f 2 10 9
f 2 9 5
f 3 5 9
f 3 9 7
f 4 8 10
f 4 10 6
f 7 9 10
f 7 10 8

