# https://github.com/mikedh/trimesh
v -81.63654506 -6.79848388 -20.00000015
v -81.63654506 -6.79848388 -21.87993899
v -90.00000000 -6.79848388 -20.00000015
v -78.03346395 -9.00300220 -20.00000015
v -90.00000000 -6.79848388 -21.87993899
v -78.03346395 -9.00300220 -21.87993899
v -90.00000000 -14.99919713 -20.00000015
v -78.03346395 -14.99919713 -20.00000015
v -90.00000000 -14.99919713 -21.87993899
v -78.03346395 -14.99919713 -21.87993899
f 1 2 5
f 1 5 3
f 1 3 7
f 1 7 8
f 1 8 4
f 1 4 6
f 1 6 2
f 2 6 10
f 2 10 9
f 2 9 5
f 3 5 9
f 3 9 7
f 4 8 10
f 4 10 6
f 7 9 10
f 7 10 8

