# https://github.com/mikedh/trimesh
v 72.00680315 -9.01636228 -20.00000149
v 75.03701806 -9.49723206 -20.00000149
v 72.00680315 -9.01636228 -20.84972799
v 30.30628771 -9.01636228 -20.00000149
v 75.03701806 -14.99941438 -20.00000149
v 75.03701806 -9.49723206 -20.84972799
v 30.30628771 -9.01636228 -20.84972799
v 30.30628771 -14.99941438 -20.00000149
v 75.03701806 -14.99941438 -20.84972799
v 30.30628771 -14.99941438 -20.84972799
f 1 2 6
f 1 6 3
f 1 3 7
f 1 7 4
f 1 4 8
f 1 8 5
f 1 5 2
f 2 5 9
f 2 9 6
f 3 6 9
f 3 9 10
f 3 10 7
f 4 7 10
f 4 10 8
f 5 8 10
f 5 10 9

