# https://github.com/mikedh/trimesh
v 78.57522726 8.79925355 -50.00000238
v 74.97594953 9.49786976 -50.00000238
v 78.57522726 15.00000045 -50.00000238
v 78.57522726 8.79925355 -25.68915188
v 74.97594953 15.00000045 -50.00000238
v 74.97594953 9.49786976 -20.85266232
v 78.57522726 15.00000045 -25.68915188
v 78.46248329 8.84720340 -20.85266232
v 74.97594953 15.00000045 -25.68915188
v 74.97594953 14.99939293 -20.85266232
v 78.46248329 14.99939293 -20.85266232
f 1 2 5
f 1 5 3
f 1 3 7
f 1 7 4
f 1 4 6
f 1 6 2
f 2 6 10
f 2 10 9
f 2 9 5
f 3 5 9
f 3 9 7
f 4 7 11
f 4 11 8
f 4 8 6
f 6 8 11
f 6 11 10
f 7 9 10
f 7 10 11

