# https://github.com/mikedh/trimesh
v 75.04209816 9.49706309 -20.84972799
v 82.20808089 6.18425533 -20.84972799
v 75.04209816 9.49706309 -20.00000149
v 75.04209816 15.00000045 -20.84972799
v 82.20808089 6.18425533 -20.00000149
v 82.20808089 14.71177965 -20.84972799
v 75.04209816 15.00000045 -20.00000149
v 82.20808089 15.00000045 -20.84124416
v 82.20808089 14.99482244 -20.00000149
v 82.20808089 15.00000045 -20.37774101
f 1 2 5
f 1 5 3
f 1 3 7
f 1 7 4
f 1 4 6
f 1 6 2
f 2 6 8
f 2 8 10
f 2 10 9
f 2 9 5
f 3 5 9
f 3 9 7
f 4 7 10
f 4 10 8
f 4 8 6
f 7 9 10

