# https://github.com/mikedh/trimesh
v 84.46745574 -0.73598005 -20.85160419
v 90.00000000 -0.73598005 -20.85160419
v 84.46745574 -0.73598005 -20.00293583
v 74.97594953 9.49433327 -25.69107234
v 74.97594953 9.49587353 -50.00000238
v 84.49833870 0.00344932 -50.00000238
v 90.00000000 -0.73598005 -20.00293583
v 90.00000000 0.00344932 -50.00000238
v 75.04213035 9.49587353 -20.00293583
v 74.97594953 9.49433327 -20.85454121
v 74.97594953 15.00000045 -50.00000238
v 90.00000000 15.00000045 -20.00293583
v 90.00000000 15.00000045 -50.00000238
v 75.04213035 15.00000045 -20.00293583
v 74.97594953 14.99845952 -20.85454121
v 74.97594953 15.00000045 -25.69107234
f 1 2 7
f 1 7 3
f 1 3 10
f 1 10 4
f 1 4 5
f 1 5 6
f 1 6 8
f 1 8 2
f 2 8 13
f 2 13 12
f 2 12 7
f 3 7 12
f 3 12 14
f 3 14 9
f 3 9 10
f 4 10 15
f 4 15 16
f 4 16 11
f 4 11 5
f 5 11 13
f 5 13 8
f 5 8 6
f 9 14 15
f 9 15 10
f 11 16 14
f 11 14 12
f 11 12 13
f 14 16 15

