# https://github.com/mikedh/trimesh
v -78.63307714 15.00000045 -20.00000015
v -78.63307714 8.77613157 -20.00000015
v -78.63307714 15.00000045 -21.87993899
v -90.00000000 15.00000045 -20.00000015
v -78.63307714 8.77613157 -21.87993899
v -83.10751677 4.95211154 -20.00000015
v -90.00000000 15.00000045 -21.87993899
v -90.00000000 4.95211154 -20.00000015
v -83.10751677 4.95211154 -21.87993899
v -90.00000000 4.95211154 -21.87993899
f 1 2 5
f 1 5 3
f 1 3 7
f 1 7 4
f 1 4 8
f 1 8 6
f 1 6 2
f 2 6 9
f 2 9 5
f 3 5 9
f 3 9 10
f 3 10 7
f 4 7 10
f 4 10 8
f 6 8 10
f 6 10 9

