# https://github.com/mikedh/trimesh
v -90.00000000 -2.11808145 -50.00000238
v -90.00000000 14.99999911 -50.00000238
v -84.25715446 -2.11808145 -50.00000238
v -90.00000000 -2.11808145 -21.88269094
v -74.97594953 14.99999911 -50.00000238
v -90.00000000 14.99999911 -21.88269094
v -74.97594953 9.49560463 -50.00000238
v -84.25715446 -2.11808145 -21.88269094
v -74.97594953 14.99999911 -21.88269094
v -74.97594953 9.49560463 -21.88269094
f 1 2 5
f 1 5 7
f 1 7 3
f 1 3 8
f 1 8 4
f 1 4 6
f 1 6 2
f 2 6 9
f 2 9 5
f 3 7 10
f 3 10 8
f 4 8 10
f 4 10 9
f 4 9 6
f 5 9 10
f 5 10 7

