# https://github.com/mikedh/trimesh
v -82.33439147 6.03504673 -25.68579912
v -74.97628748 9.49782148 -25.68579912
v -82.33439147 6.03504673 -21.87994167
v -82.33439147 15.00000045 -25.68579912
v -74.97628748 9.49782148 -21.87994167
v -74.97628748 14.99912202 -25.68579912
v -82.33439147 15.00000045 -21.87994167
v -78.46951604 15.00000045 -25.68579912
v -74.97628748 14.99912202 -21.87994167
v -78.46951604 15.00000045 -21.87994167
f 1 2 5
f 1 5 3
f 1 3 7
f 1 7 4
f 1 4 8
f 1 8 6
f 1 6 2
f 2 6 9
f 2 9 5
f 3 5 9
f 3 9 10
f 3 10 7
f 4 7 10
f 4 10 8
f 6 8 10
f 6 10 9

