# https://github.com/mikedh/trimesh
v -30.09655505 14.99853462 -20.00000015
v -30.09655505 0.02885319 -20.00000015
v -30.09655505 14.99853462 -21.87993899
v -69.79864240 14.99853462 -20.00000015
v -30.09655505 0.02885319 -21.87993899
v -65.49570322 0.02885319 -20.00000015
v -69.79864240 14.99853462 -21.87993899
v -69.79864240 7.95044437 -20.00000015
v -65.49570322 0.02885319 -21.87993899
v -69.79864240 7.95044437 -21.87993899
f 1 2 5
f 1 5 3
f 1 3 7
f 1 7 4
f 1 4 8
f 1 8 6
f 1 6 2
f 2 6 9
f 2 9 5
f 3 5 9
f 3 9 10
f 3 10 7
f 4 7 10
f 4 10 8
f 6 8 10
f 6 10 9

