# https://github.com/mikedh/trimesh
v -69.73060548 7.90166773 -50.00000238
v -69.73060548 7.90166773 -39.59464073
v -69.73060548 8.78842212 -50.00000238
v -68.33181739 6.76675670 -50.00000238
v -69.73060548 8.78842212 -39.59464073
v -68.33697796 6.77328721 -39.59464073
v -17.00000167 8.78842212 -50.00000238
v -67.92921782 6.76675670 -39.59464073
v -17.00000167 6.76675670 -50.00000238
v -17.00000167 8.78842212 -39.59464073
v -17.00000167 6.76675670 -39.59464073
f 1 2 5
f 1 5 3
f 1 3 7
f 1 7 9
f 1 9 4
f 1 4 2
f 2 4 6
f 2 6 8
f 2 8 11
f 2 11 10
f 2 10 5
f 3 5 10
f 3 10 7
f 4 8 6
f 4 9 11
f 4 11 8
f 7 10 11
f 7 11 9

