# https://github.com/mikedh/trimesh
v -72.78558254 -9.23547797 -19.99999881
v -72.78558254 -15.00000045 -19.99999881
v -72.78558254 -9.23547797 -21.88234091
v -84.25568461 -2.12060407 -21.88527793
v -84.25736904 -2.12060407 -19.99999881
v -90.00000000 -15.00000045 -19.99999881
v -72.78558254 -15.00000045 -21.88234091
v -74.97614264 -9.49394837 -50.00000238
v -84.25568461 -2.12060407 -50.00000238
v -90.00000000 -2.12060407 -19.99999881
v -90.00000000 -15.00000045 -50.00000238
v -74.97614264 -15.00000045 -50.00000238
v -90.00000000 -2.12060407 -50.00000238
f 1 2 7
f 1 7 3
f 1 3 9
f 1 9 4
f 1 4 5
f 1 5 10
f 1 10 6
f 1 6 2
f 2 6 11
f 2 11 12
f 2 12 7
f 3 7 12
f 3 12 8
f 3 8 9
f 4 9 13
f 4 13 10
f 4 10 5
f 6 10 13
f 6 13 11
f 8 12 11
f 8 11 13
f 8 13 9

