# https://github.com/mikedh/trimesh
v 17.00000167 -14.99933660 -50.00000238
v 17.00000167 -14.99933660 -25.68892121
v 17.00000167 -8.23523998 -50.00000238
v 70.62889338 -14.99999911 -50.00000238
v 17.00000167 -8.23523998 -25.68892121
v 70.62889338 -14.99999911 -25.68892121
v 57.04857945 -8.23523998 -50.00000238
v 74.97594953 -14.99999911 -50.00000238
v 57.04857945 -8.23523998 -25.68892121
v 74.97594953 -14.99999911 -25.68892121
v 70.26001453 -8.23590249 -50.00000238
v 74.97594953 -9.49812792 -50.00000238
v 70.26001453 -8.23590249 -25.68892121
v 74.97594953 -9.49812792 -25.68892121
f 1 2 5
f 1 5 3
f 1 3 7
f 1 7 11
f 1 11 12
f 1 12 8
f 1 8 4
f 1 4 6
f 1 6 2
f 2 6 10
f 2 10 14
f 2 14 13
f 2 13 9
f 2 9 5
f 3 5 9
f 3 9 7
f 4 8 10
f 4 10 6
f 7 9 13
f 7 13 11
f 8 12 14
f 8 14 10
f 11 13 14
f 11 14 12

