# https://github.com/mikedh/trimesh
v 74.97666299 -15.00000045 -50.00000238
v 81.74143553 -15.00000045 -50.00000238
v 74.97594953 -15.00000045 -25.68915188
v 74.97666299 -9.49780539 -50.00000238
v 81.74143553 -6.69056252 -50.00000238
v 82.27746964 -15.00000045 -25.68915188
v 74.97594953 -9.49780539 -25.68915188
v 74.97594953 -15.00000045 -20.85266232
v 82.27675617 -6.10735238 -25.68915188
v 82.27746964 -6.19875133 -25.68915188
v 82.27746964 -15.00000045 -20.85266232
v 74.97594953 -9.49780539 -20.85266232
v 82.27675617 -6.10735238 -20.85266232
v 82.27746964 -6.12737305 -20.85266232
f 1 2 6
f 1 6 11
f 1 11 8
f 1 8 3
f 1 3 7
f 1 7 4
f 1 4 5
f 1 5 2
f 2 5 10
f 2 10 6
f 3 8 12
f 3 12 7
f 4 7 9
f 4 9 5
f 5 9 10
f 6 10 14
f 6 14 11
f 7 12 13
f 7 13 9
f 8 11 14
f 8 14 13
f 8 13 12
f 9 13 14
f 9 14 10

