# https://github.com/mikedh/trimesh
v -74.97594953 -15.00000045 -50.00000238
v -74.97594953 -15.00000045 -21.88085899
v -74.97594953 -9.49618265 -50.00000238
v -17.00497717 -15.00000045 -50.00000238
v -72.78450966 -15.00000045 -20.00036359
v -74.97594953 -9.49324094 -21.88085899
v -74.97594953 -9.49324094 -25.68893462
v -65.49485028 0.02592221 -21.88085899
v -65.49485028 0.00091799 -50.00000238
v -17.00497717 0.00091799 -50.00000238
v -16.97659135 -15.00000045 -20.00036359
v -72.78450966 -9.23584744 -20.00036359
v -30.00033081 -15.00000045 -19.93562043
v -65.49485028 0.02592221 -20.00036359
v -17.00497717 0.02592221 -21.88085899
v -16.97659135 0.02592221 -20.00036359
v -16.97659135 -15.00000045 -19.93562043
v -30.00033081 0.02592221 -19.93562043
v -16.97659135 0.02592221 -19.95033503
v -16.98794514 0.02592221 -19.93562043
f 1 2 6
f 1 6 7
f 1 7 3
f 1 3 9
f 1 9 10
f 1 10 4
f 1 4 11
f 1 11 17
f 1 17 13
f 1 13 5
f 1 5 2
f 2 5 12
f 2 12 6
f 3 7 8
f 3 8 9
f 4 10 16
f 4 16 11
f 5 13 18
f 5 18 12
f 6 12 14
f 6 14 8
f 6 8 7
f 8 14 18
f 8 18 20
f 8 20 19
f 8 19 16
f 8 16 15
f 8 15 10
f 8 10 9
f 10 15 16
f 11 16 19
f 11 19 17
f 12 18 14
f 13 17 20
f 13 20 18
f 17 19 20

