# https://github.com/mikedh/trimesh
v -16.97659135 15.00000045 -19.93505850
v -16.97659135 4.11828987 -19.93505850
v -16.97659135 15.00000045 -20.00016779
v -30.00014573 15.00000045 -19.93505850
v -16.98751599 0.02738804 -19.93505850
v -16.97659135 0.02738804 -19.94914681
v -16.97659135 0.02738804 -20.00016779
v -17.00390697 15.00000045 -21.87993899
v -30.00014573 0.02738804 -19.93505850
v -72.78558254 15.00000045 -20.00016779
v -17.00390697 0.02738804 -21.87993899
v -72.78558254 15.00000045 -21.87993899
v -65.49807429 0.02738804 -20.00016779
v -72.78558254 9.23521444 -20.00016779
v -65.49807429 0.02738804 -21.87993899
v -72.78558254 9.23521444 -21.87993899
f 1 2 6
f 1 6 7
f 1 7 3
f 1 3 8
f 1 8 12
f 1 12 10
f 1 10 4
f 1 4 9
f 1 9 5
f 1 5 2
f 2 5 6
f 3 7 11
f 3 11 8
f 4 10 14
f 4 14 9
f 5 9 13
f 5 13 15
f 5 15 11
f 5 11 7
f 5 7 6
f 8 11 15
f 8 15 16
f 8 16 12
f 9 14 13
f 10 12 16
f 10 16 14
f 13 14 16
f 13 16 15

