# https://github.com/mikedh/trimesh
v 30.30628502 15.00000179 -20.00014767
v 30.30628502 15.00000179 -20.84972262
v 29.99618411 15.00000179 -19.93514702
v 30.30628502 -15.00000179 -20.00014767
v 30.30628502 -15.00000179 -20.84972262
v 16.99524879 15.00000179 -20.84972262
v 29.99618411 -15.00000179 -19.93514702
v -16.97658733 15.00000179 -19.93514702
v 16.99524879 -15.00000179 -20.84972262
v -16.97658733 15.00000179 -20.00005782
v -16.97658733 -15.00000179 -19.93514702
v -16.97658733 -15.00000179 -20.00005782
f 1 2 6
f 1 6 10
f 1 10 8
f 1 8 3
f 1 3 7
f 1 7 4
f 1 4 5
f 1 5 2
f 2 5 9
f 2 9 6
f 3 8 11
f 3 11 7
f 4 7 11
f 4 11 12
f 4 12 9
f 4 9 5
f 6 9 12
f 6 12 10
f 8 10 12
f 8 12 11

