# https://github.com/mikedh/trimesh
v 17.00493693 0.00016261 -50.00000238
v 17.00493693 1.88007278 -50.00000238
v 65.48996866 0.00016261 -50.00000238
v 17.01974005 -5.73121615 -49.99524415
v 17.00493693 -4.32743076 -49.99524415
v 17.00493693 1.88007278 -25.68971515
v 65.68242788 1.88007278 -50.00000238
v 67.40469575 -5.73121615 -49.99524415
v 17.01480478 -5.73196113 -33.76934409
v 17.00493693 -4.32743076 -25.69209158
v 17.00493693 0.00016261 -25.68971515
v 17.01480478 -4.32743076 -25.68733335
v 65.68242788 1.88007278 -25.68971515
v 67.40963101 -5.73196113 -33.76934409
v 17.01480478 -5.73196113 -25.68733335
v 66.54109955 -4.32743076 -25.68733335
v 67.40963101 -5.73196113 -25.68733335
f 1 2 7
f 1 7 3
f 1 3 8
f 1 8 4
f 1 4 5
f 1 5 10
f 1 10 11
f 1 11 6
f 1 6 2
f 2 6 13
f 2 13 7
f 3 7 8
f 4 9 5
f 4 8 14
f 4 14 9
f 5 9 15
f 5 15 10
f 6 11 15
f 6 15 12
f 6 12 16
f 6 16 13
f 7 13 17
f 7 17 14
f 7 14 8
f 9 14 17
f 9 17 15
f 10 15 11
f 12 15 17
f 12 17 16
f 13 16 17

