# https://github.com/mikedh/trimesh
v -72.78558254 14.99999911 -20.00000015
v -72.78558254 9.23588499 -20.00000015
v -72.78558254 14.99999911 -21.87993899
v -90.00000000 14.99999911 -20.00000015
v -72.78558254 9.23588499 -21.87993899
v -84.25736904 -2.11808212 -20.00000015
v -90.00000000 14.99999911 -21.87993899
v -90.00000000 -2.11808212 -20.00000015
v -84.25736904 -2.11808212 -21.87993899
v -90.00000000 -2.11808212 -21.87993899
f 1 2 5
f 1 5 3
f 1 3 7
f 1 7 4
f 1 4 8
f 1 8 6
f 1 6 2
f 2 6 9
f 2 9 5
f 3 5 9
f 3 9 10
f 3 10 7
f 4 7 10
f 4 10 8
f 6 8 10
f 6 10 9

