# https://github.com/mikedh/trimesh
v -84.24061060 2.19358362 -21.88269094
v -84.25865114 -2.11808346 -21.88269094
v -84.24061060 2.19358362 -25.68671644
v -90.00000000 2.19358362 -21.88269094
v -90.00000000 -2.11808346 -21.88269094
v -84.25865114 -2.11808346 -50.00000238
v -90.00000000 2.19358362 -25.68671644
v -84.37478542 1.52632210 -50.00000238
v -90.00000000 -2.11808346 -25.68671644
v -89.99943674 -2.11808346 -50.00000238
v -89.99943674 1.52632210 -50.00000238
f 1 2 6
f 1 6 3
f 1 3 7
f 1 7 4
f 1 4 5
f 1 5 2
f 2 5 9
f 2 9 10
f 2 10 6
f 3 6 8
f 3 8 11
f 3 11 7
f 4 7 9
f 4 9 5
f 6 10 11
f 6 11 8
f 7 11 10
f 7 10 9

