# https://github.com/mikedh/trimesh
v -114.99872506 -0.12232430 -25.00000089
v -114.99872506 37.92323112 -25.00000089
v -101.96456790 -0.12232430 -25.00000089
v -114.99872506 -0.12232430 17.81585276
v -101.96456790 37.92323112 -25.00000089
v -114.99872506 37.92323112 17.81585276
v -101.96456790 -0.12232430 14.99946177
v -102.00029373 -0.12232430 17.81585276
v -101.96456790 37.92323112 17.81585276
v -101.96456790 20.49809709 17.81585276
f 1 2 5
f 1 5 3
f 1 3 7
f 1 7 8
f 1 8 4
f 1 4 6
f 1 6 2
f 2 6 9
f 2 9 5
f 3 5 9
f 3 9 10
f 3 10 7
f 4 8 10
f 4 10 9
f 4 9 6
f 7 10 8

