# https://github.com/mikedh/trimesh
v 101.91559911 115.00000000 24.99929488
v 101.91559911 82.35748827 24.99929488
v 101.91559911 115.00000000 17.81655535
v -16.87967077 115.00000000 24.99929488
v 101.91559911 82.35748827 17.81655535
v 17.01698422 82.35748827 24.99929488
v -16.87967077 115.00000000 17.81655535
v -16.87967077 82.50447005 24.99929488
v 17.01698422 82.35748827 17.81655535
v -16.87967077 82.50447005 17.81655535
f 1 2 5
f 1 5 3
f 1 3 7
f 1 7 4
f 1 4 8
f 1 8 6
f 1 6 2
f 2 6 9
f 2 9 5
f 3 5 9
f 3 9 10
f 3 10 7
f 4 7 10
f 4 10 8
f 6 8 10
f 6 10 9

