# https://github.com/mikedh/trimesh
v -115.00000000 -115.00000000 -25.00000000
v -115.00000000 -115.00000000 25.00000000
v -102.00000000 -20.50000000 15.00000000
v -102.00000000 -20.50000000 25.00000000
v -17.00000000 -83.50000000 5.00000000
v -17.00000000 -83.50000000 25.00000000
v -17.00000000 -21.50000000 5.00000000
v -17.00000000 -21.50000000 25.00000000
v -115.00000000 115.00000000 -25.00000000
v -102.00000000 20.50000000 15.00000000
v -102.00000000 20.50000000 25.00000000
v -115.00000000 115.00000000 25.00000000
v -17.00000000 20.50000000 5.00000000
v -17.00000000 20.50000000 15.00000000
v -17.00000000 20.50000000 25.00000000
v -17.00000000 82.50000000 5.00000000
v -17.00000000 82.50000000 25.00000000
v 115.00000000 -115.00000000 -25.00000000
v 17.00000000 -83.50000000 5.00000000
v 17.00000000 -83.50000000 25.00000000
v 17.00000000 -21.50000000 5.00000000
v 17.00000000 -21.50000000 25.00000000
v 115.00000000 -115.00000000 25.00000000
v 102.00000000 -20.50000000 15.00000000
v 102.00000000 -20.50000000 25.00000000
v 115.00000000 115.00000000 -25.00000000
v 17.00000000 20.50000000 5.00000000
v 17.00000000 20.50000000 15.00000000
v 17.00000000 20.50000000 25.00000000
v 17.00000000 82.50000000 5.00000000
v 17.00000000 82.50000000 25.00000000
v 102.00000000 20.50000000 15.00000000
v 102.00000000 20.50000000 25.00000000
v 115.00000000 115.00000000 25.00000000
f 1 18 2
f 1 9 18
f 1 2 12
f 2 4 12
f 2 8 4
f 2 20 6
f 2 6 8
f 4 8 25
f 1 12 9
f 12 4 11
f 12 11 15
f 9 12 34
f 12 15 17
f 12 17 31
f 18 26 23
f 2 18 23
f 2 23 20
f 23 22 20
f 8 22 25
f 23 25 22
f 23 33 25
f 9 26 18
f 9 34 26
f 12 31 34
f 34 31 29
f 23 26 34
f 34 29 33
f 23 34 33
f 3 11 4
f 3 4 24
f 3 24 10
f 3 10 11
f 10 15 11
f 10 14 15
f 10 24 14
f 24 4 25
f 24 25 32
f 14 24 28
f 28 33 29
f 24 32 28
f 28 32 33
f 32 25 33
f 13 14 28
f 13 27 16
f 13 17 14
f 14 17 15
f 13 16 17
f 16 31 17
f 13 28 27
f 27 28 30
f 28 29 30
f 16 27 30
f 16 30 31
f 30 29 31
f 5 19 7
f 5 6 19
f 5 8 6
f 5 7 8
f 7 22 8
f 19 20 21
f 19 6 20
f 7 19 21
f 7 21 22
f 21 20 22

