# https://github.com/mikedh/trimesh
v -101.95702791 -0.12030907 -24.99608353
v -101.95702791 -0.12030907 14.99608591
v -101.95702791 20.47011003 -24.99608353
v -16.91910148 -0.12030907 -24.99608353
v -101.95702791 20.47011003 14.99608591
v -16.91910148 -0.12030907 14.99608591
v -16.91910148 20.47212698 14.99608591
v -25.02667189 20.47011003 -24.99608353
v -16.91910148 20.46809480 -24.99608353
f 1 2 5
f 1 5 3
f 1 3 8
f 1 8 9
f 1 9 4
f 1 4 6
f 1 6 2
f 2 6 7
f 2 7 5
f 3 5 7
f 3 7 8
f 4 9 7
f 4 7 6
f 7 9 8

