# https://github.com/mikedh/trimesh
v -101.86501265 -20.47574617 -24.99608353
v -101.86501265 -20.47574617 14.98042330
v -101.86501265 -0.12232430 -24.99608353
v 0.01845241 -20.47574617 -24.99608353
v -101.86501265 -20.47176197 14.99608591
v 0.01845241 -20.47574617 14.99608591
v -101.86501265 -0.12232430 14.99608591
v 0.01845241 -0.12232430 -24.99608353
v 0.01845241 -0.12232430 14.99608591
f 1 2 5
f 1 5 7
f 1 7 3
f 1 3 8
f 1 8 4
f 1 4 6
f 1 6 2
f 2 6 5
f 3 7 9
f 3 9 8
f 4 8 9
f 4 9 6
f 5 6 9
f 5 9 7

