# https://github.com/mikedh/trimesh
v 101.84346199 -0.12030821 -25.00000089
v 101.84346199 20.47211155 -25.00000089
v 115.00000000 -0.12030821 -25.00000089
v 101.84346199 -0.12030821 14.99946177
v 115.00000000 20.47211155 -25.00000089
v 101.84346199 20.47211155 14.99946177
v 115.00000000 -0.12030821 17.81585276
v 102.00059533 -0.12030821 17.81585276
v 101.84346199 20.39349176 15.00365332
v 115.00000000 20.47211155 17.81585276
v 102.00059533 20.47211155 17.81585276
f 1 2 5
f 1 5 3
f 1 3 7
f 1 7 8
f 1 8 4
f 1 4 9
f 1 9 6
f 1 6 2
f 2 6 11
f 2 11 10
f 2 10 5
f 3 5 10
f 3 10 7
f 4 8 9
f 6 9 11
f 7 10 11
f 7 11 8
f 8 11 9

