# https://github.com/mikedh/trimesh
v 98.47759783 -20.47574617 -24.99999747
v 0.02808988 -20.47574617 -24.99607839
v 98.47759783 -0.12232430 -24.99999747
v 114.99838233 -20.47574617 -24.99999747
v 0.02808988 -0.12232430 -24.99607839
v 0.02808988 -20.47574617 14.99426089
v 114.99838233 -0.12232430 -24.99999747
v 114.99838233 -20.47574617 15.03737077
v 0.02808988 -0.12232430 14.99426089
v 102.00007439 -20.47574617 15.03737077
v 114.99838233 -0.12232430 15.03737077
v 102.00007439 -0.12232430 15.03737077
f 1 2 5
f 1 5 3
f 1 3 7
f 1 7 4
f 1 4 8
f 1 8 10
f 1 10 6
f 1 6 2
f 2 6 9
f 2 9 5
f 3 5 9
f 3 9 12
f 3 12 11
f 3 11 7
f 4 7 11
f 4 11 8
f 6 10 12
f 6 12 9
f 8 11 12
f 8 12 10

