# https://github.com/mikedh/trimesh
v 115.00000000 114.99681264 17.81585276
v 115.00000000 82.40488052 17.81585276
v 115.00000000 114.99681264 5.61810985
v -16.91471457 114.99681264 17.81585276
v 115.00000000 82.40488052 5.61810985
v 17.00658247 82.40488052 17.81585276
v -16.91471457 114.99681264 5.61810985
v -16.91471457 82.50059724 17.81585276
v 17.00658247 82.40488052 5.61810985
v -16.91471457 82.50059724 5.61810985
f 1 2 5
f 1 5 3
f 1 3 7
f 1 7 4
f 1 4 8
f 1 8 6
f 1 6 2
f 2 6 9
f 2 9 5
f 3 5 9
f 3 9 10
f 3 10 7
f 4 7 10
f 4 10 8
f 6 8 10
f 6 10 9

