# https://github.com/mikedh/trimesh
v 101.91688091 20.51089451 17.81585276
v 102.00013608 -0.12232602 17.81585276
v 101.91688091 20.51089451 24.99929659
v 101.91688091 115.00000000 17.81585276
v 102.00013608 -0.12232602 24.99929659
v 115.00000000 -0.12232602 17.81585276
v 101.91688091 115.00000000 24.99929659
v 115.00000000 115.00000000 17.81585276
v 115.00000000 -0.12232602 24.99929659
v 115.00000000 115.00000000 24.99929659
f 1 2 5
f 1 5 3
f 1 3 7
f 1 7 4
f 1 4 8
f 1 8 6
f 1 6 2
f 2 6 9
f 2 9 5
f 3 5 9
f 3 9 10
f 3 10 7
f 4 7 10
f 4 10 8
f 6 8 10
f 6 10 9

