# https://github.com/mikedh/trimesh
v 11.06402867 20.47211155 -24.99999747
v 11.06402867 37.92322770 -24.99999747
v 16.93586938 20.47211155 -24.99999747
v 11.06402867 20.47211155 5.01881365
v 16.93586938 37.92322770 -24.99999747
v 11.06402867 37.92322770 4.99824490
v 16.93586938 20.47211155 5.01881365
v 11.07552372 20.50115079 5.01881365
v 16.93586938 37.92322770 4.99824490
v 16.93586938 20.50115079 5.01881365
f 1 2 5
f 1 5 3
f 1 3 7
f 1 7 4
f 1 4 6
f 1 6 2
f 2 6 9
f 2 9 5
f 3 5 9
f 3 9 10
f 3 10 7
f 4 7 10
f 4 10 8
f 4 8 6
f 6 8 10
f 6 10 9

