# https://github.com/mikedh/trimesh
v 11.06402867 20.49437337 5.01587562
v 11.06402867 37.92323112 4.99824576
v -16.91744268 20.49437337 5.01587562
v 11.06402867 -0.11860229 5.01587562
v -16.91744268 37.92323112 4.99824576
v 11.06402867 37.92323112 -24.99999747
v -16.91744268 -0.11860229 5.01587562
v 11.06402867 -0.11860229 -24.99999747
v -16.91744268 37.92323112 -24.99999747
v -16.91744268 -0.11860229 -24.99999747
f 1 2 5
f 1 5 3
f 1 3 7
f 1 7 4
f 1 4 8
f 1 8 6
f 1 6 2
f 2 6 9
f 2 9 5
f 3 5 9
f 3 9 10
f 3 10 7
f 4 7 10
f 4 10 8
f 6 8 10
f 6 10 9

