# https://github.com/mikedh/trimesh
v -21.79484129 -32.84965232 5.99367063
v -21.79484129 -20.47717020 5.99367063
v -17.00018719 -32.84965232 5.99367063
v -21.79484129 -32.84965232 24.99813989
v -21.79484129 -20.48201464 15.00009581
v -16.98323250 -20.48080310 15.00009581
v -16.98323250 -20.47717020 7.98062786
v -16.98323250 -20.47717020 5.99367063
v -16.98323250 -21.50063954 5.99367063
v -17.00018719 -32.84965232 24.99813989
v -21.79484129 -20.50018258 24.99813989
v -16.98323250 -20.50018258 24.99813989
v -16.98323250 -21.50063954 24.99813989
f 1 2 8
f 1 8 9
f 1 9 3
f 1 3 10
f 1 10 4
f 1 4 11
f 1 11 5
f 1 5 2
f 2 5 6
f 2 6 7
f 2 7 8
f 3 9 13
f 3 13 10
f 4 10 13
f 4 13 12
f 4 12 11
f 5 11 6
f 6 11 12
f 6 12 13
f 6 13 9
f 6 9 8
f 6 8 7

