# https://github.com/mikedh/trimesh
v -101.90528989 82.26355374 17.81655535
v -101.89696848 60.18333763 17.81655535
v -101.89696848 20.49999923 17.82428898
v -101.90528989 82.26355374 21.25394829
v -101.90528989 112.41918564 17.81655535
v -99.26722646 55.79874232 17.81655535
v -101.89696848 20.49999923 24.99929488
v -78.04618508 20.49999923 17.81655535
v -101.90528989 112.41918564 21.25394829
v -101.89696848 114.99999315 17.81655535
v -17.00449184 20.49999923 24.99929488
v -101.89696848 114.99999315 24.99929488
v -17.00449184 20.49999923 17.81655535
v -16.89630330 114.99999315 17.81655535
v -16.88798189 82.49481201 21.25394829
v -16.89630330 82.49481201 24.99929488
v -16.89630330 114.99999315 24.99929488
v -16.88798189 82.49481201 17.81655535
v -16.88798189 112.41918564 17.81655535
v -16.88798189 112.41918564 21.25394829
f 1 2 3
f 1 3 7
f 1 7 4
f 1 4 9
f 1 9 5
f 1 5 10
f 1 10 14
f 1 14 19
f 1 19 18
f 1 18 13
f 1 13 8
f 1 8 6
f 1 6 2
f 2 6 3
f 3 6 8
f 3 8 13
f 3 13 11
f 3 11 7
f 4 7 12
f 4 12 9
f 5 9 12
f 5 12 10
f 7 11 16
f 7 16 17
f 7 17 12
f 10 12 17
f 10 17 14
f 11 13 18
f 11 18 15
f 11 15 16
f 14 17 20
f 14 20 19
f 15 18 19
f 15 19 20
f 15 20 17
f 15 17 16

