# https://github.com/mikedh/trimesh
v 0.01845241 -32.84965232 -24.99705859
v 0.01845241 -32.84965232 4.99764942
v 0.01845241 -20.47695771 -24.99705859
v 115.00000000 -32.84965232 -24.99705859
v 17.00231895 -32.84965232 5.03587373
v 0.01845241 -21.50044419 5.03587373
v 0.01845241 -20.47695771 5.03587373
v 115.00000000 -20.47695771 -24.99705859
v 115.00000000 -32.84965232 5.03587373
v 115.00000000 -20.47695771 5.03587373
f 1 2 6
f 1 6 7
f 1 7 3
f 1 3 8
f 1 8 4
f 1 4 9
f 1 9 5
f 1 5 2
f 2 5 6
f 3 7 10
f 3 10 8
f 4 8 10
f 4 10 9
f 5 9 10
f 5 10 7
f 5 7 6

