# https://github.com/mikedh/trimesh
v 16.94891870 -83.50000203 25.00000089
v 16.94891870 -115.00000000 25.00000089
v 16.94891870 -83.50000203 5.03161363
v -16.91744268 -83.50000203 25.00000089
v 16.94891870 -115.00000000 5.02770312
v -16.91744268 -115.00000000 25.00000089
v 16.94891870 -83.53700280 5.02770312
v 0.01573801 -83.50000203 5.02770312
v -16.91744268 -83.50000203 5.02770312
v -16.91744268 -115.00000000 5.02770312
f 1 2 5
f 1 5 7
f 1 7 3
f 1 3 8
f 1 8 9
f 1 9 4
f 1 4 6
f 1 6 2
f 2 6 10
f 2 10 5
f 3 7 8
f 4 9 10
f 4 10 6
f 5 10 9
f 5 9 8
f 5 8 7

