# https://github.com/mikedh/trimesh
v -115.00000000 -32.84965232 -24.99999918
v -115.00000000 -32.84965232 24.99999918
v -115.00000000 -20.47695771 -24.99999918
v -21.79484129 -32.84965232 -24.99999918
v -115.00000000 -20.47695771 24.99999918
v -21.79484129 -32.84965232 24.99999918
v -21.79484129 -20.47695771 -24.99999918
v -101.99908733 -20.47695771 24.99999918
v -21.79484129 -20.50239146 24.99999918
v -21.79484129 -20.47695771 2.79953012
v -21.79484129 -20.48180215 14.99608420
f 1 2 5
f 1 5 3
f 1 3 7
f 1 7 4
f 1 4 6
f 1 6 2
f 2 6 9
f 2 9 8
f 2 8 5
f 3 5 8
f 3 8 10
f 3 10 7
f 4 7 10
f 4 10 11
f 4 11 9
f 4 9 6
f 8 9 11
f 8 11 10

