# https://github.com/mikedh/trimesh
v -16.91471457 115.00000000 17.81585276
v -16.91471457 82.49738246 17.81585276
v -16.91471457 115.00000000 5.61810985
v -115.00000000 115.00000000 17.81585276
v -16.91471457 82.49738246 5.61810985
v -17.00112283 37.96095505 17.81585276
v -17.00112283 37.92323112 17.80988246
v -115.00000000 115.00000000 5.61810985
v -115.00000000 37.92323112 17.81585276
v -17.00112283 37.92323112 5.61810985
v -17.12594047 37.92323112 17.81585276
v -115.00000000 37.92323112 5.61810985
f 1 2 5
f 1 5 3
f 1 3 8
f 1 8 4
f 1 4 9
f 1 9 11
f 1 11 6
f 1 6 2
f 2 6 7
f 2 7 10
f 2 10 5
f 3 5 10
f 3 10 12
f 3 12 8
f 4 8 12
f 4 12 9
f 6 11 7
f 7 11 9
f 7 9 12
f 7 12 10

