# https://github.com/mikedh/trimesh
v 115.00000000 -32.85769269 5.02574958
v 115.00000000 -32.85769269 -24.99999918
v 17.01746747 -32.85769269 5.02574958
v 115.00000000 -114.99195278 5.02574958
v 115.00000000 -114.99195278 -24.99999918
v 16.95290461 -32.85769269 -24.99999918
v 16.95290461 -32.85769269 4.99929793
v -16.91744268 -32.86573306 4.99929793
v -16.91744268 -83.48102182 5.02574958
v -16.91744268 -114.99195278 5.02574958
v -16.91744268 -114.99195278 -24.99999918
v -16.91744268 -32.86573306 -24.99999918
f 1 2 6
f 1 6 7
f 1 7 3
f 1 3 9
f 1 9 10
f 1 10 4
f 1 4 5
f 1 5 2
f 2 5 11
f 2 11 12
f 2 12 6
f 3 7 8
f 3 8 9
f 4 10 11
f 4 11 5
f 6 12 8
f 6 8 7
f 8 12 11
f 8 11 10
f 8 10 9

