# https://github.com/mikedh/trimesh
v -115.00000000 -0.12232602 17.81585276
v -102.00070500 -0.12232602 17.81585276
v -115.00000000 -0.12232602 24.99929659
v -115.00000000 115.00000000 17.81585276
v -101.91487938 60.17716169 17.81585276
v -101.91487938 20.51089451 17.82358810
v -102.00070500 -0.12232602 24.99929659
v -115.00000000 115.00000000 24.99929659
v -101.91487938 115.00000000 17.81585276
v -101.91487938 20.51089451 24.99929659
v -101.91487938 115.00000000 24.99929659
f 1 2 7
f 1 7 3
f 1 3 8
f 1 8 4
f 1 4 9
f 1 9 5
f 1 5 2
f 2 5 6
f 2 6 10
f 2 10 7
f 3 7 10
f 3 10 11
f 3 11 8
f 4 8 11
f 4 11 9
f 5 9 11
f 5 11 10
f 5 10 6

