# https://github.com/mikedh/trimesh
v -16.92870125 -32.84965575 4.99706335
v -16.92870125 -32.84965575 -24.99999918
v -17.00550631 -32.84965575 24.99999918
v -16.92870125 -83.49402487 24.99999918
v -16.92870125 -114.99195963 -24.99999918
v -114.99040365 -32.84965575 -24.99999918
v -114.99040365 -32.84965575 24.99999918
v -16.92870125 -114.99195963 24.99999918
v -114.99040365 -114.99195963 -24.99999918
v -114.99040365 -114.99195963 24.99999918
f 1 2 6
f 1 6 7
f 1 7 3
f 1 3 4
f 1 4 8
f 1 8 5
f 1 5 2
f 2 5 9
f 2 9 6
f 3 7 10
f 3 10 8
f 3 8 4
f 5 8 10
f 5 10 9
f 6 9 10
f 6 10 7

