# https://github.com/mikedh/trimesh
v 16.94891870 74.55922186 4.99771453
v 16.94891870 37.92681605 4.99771453
v 16.94891870 74.55922186 -24.99999918
v -17.01702192 74.55922186 5.61810814
v 16.94891870 37.92681605 -24.99999918
v -17.01702192 37.92681605 5.61810814
v 0.01760930 74.55922186 -24.99999918
v -114.98874485 74.55922186 5.61810814
v 0.01760930 37.92681605 -24.99999918
v -114.98874485 37.92681605 5.61810814
v -114.98874485 74.55922186 -24.99700204
v -114.98874485 37.92681605 -24.99700204
f 1 2 5
f 1 5 3
f 1 3 7
f 1 7 11
f 1 11 8
f 1 8 4
f 1 4 6
f 1 6 2
f 2 6 10
f 2 10 12
f 2 12 9
f 2 9 5
f 3 5 9
f 3 9 7
f 4 8 10
f 4 10 6
f 7 9 12
f 7 12 11
f 8 11 12
f 8 12 10

