# https://github.com/mikedh/trimesh
v -101.96456105 20.47211155 -25.00000089
v -101.96456105 20.47211155 14.99946177
v -101.96456105 37.92322770 -25.00000089
v -16.92741945 20.47211155 -25.00000089
v -101.96456105 20.50115079 17.81585276
v -16.96904361 20.47211155 14.99946177
v -101.96456105 37.92322770 17.81585276
v -16.92741945 37.92322770 -25.00000089
v -16.92741945 20.47211155 9.06492349
v -17.00234294 20.50115079 17.81585276
v -16.92741945 20.47382005 14.99946177
v -17.12721542 37.92322770 17.81585276
v -16.92741945 37.92322770 4.99959696
v -16.92741945 20.50115079 14.99946177
v -17.00234294 37.92322770 17.80747309
f 1 2 5
f 1 5 7
f 1 7 3
f 1 3 8
f 1 8 4
f 1 4 9
f 1 9 6
f 1 6 2
f 2 6 10
f 2 10 5
f 3 7 12
f 3 12 15
f 3 15 13
f 3 13 8
f 4 8 13
f 4 13 14
f 4 14 11
f 4 11 9
f 5 10 12
f 5 12 7
f 6 9 11
f 6 11 10
f 10 11 14
f 10 14 15
f 10 15 12
f 13 15 14

