# https://github.com/mikedh/trimesh
v 0.01605781 -21.49990097 5.03881432
v -16.98323250 -21.49990097 5.99427812
v 0.01605781 -20.47574788 5.03881432
v 16.94891870 -21.49990097 5.03881432
v -16.98323250 -20.47604948 5.99427812
v -16.98323250 -21.49990097 6.01577137
v -16.08311392 -20.47574788 5.99427812
v 16.94891870 -20.47574788 5.03881432
v 16.94891870 -21.49990097 24.99999918
v -16.98323250 -20.47685146 7.98140928
v -16.98323250 -21.49970047 24.99804564
v 0.01605781 -21.49990097 24.99999918
v -16.98323250 -20.47985889 15.00182144
v 0.01605781 -20.47574788 15.00182144
v 16.94891870 -20.47574788 15.00182144
v 16.94891870 -20.50010890 24.99999918
v -16.98323250 -20.50010890 24.99804564
v 0.01605781 -20.50010890 24.99999918
f 1 2 5
f 1 5 3
f 1 3 8
f 1 8 4
f 1 4 9
f 1 9 12
f 1 12 6
f 1 6 2
f 2 6 11
f 2 11 17
f 2 17 13
f 2 13 10
f 2 10 5
f 3 5 7
f 3 7 14
f 3 14 15
f 3 15 8
f 4 8 15
f 4 15 16
f 4 16 9
f 5 10 7
f 6 12 11
f 7 10 13
f 7 13 14
f 9 16 18
f 9 18 12
f 11 12 18
f 11 18 17
f 13 17 14
f 14 18 16
f 14 16 15
f 14 17 18

