# https://github.com/mikedh/trimesh
v 16.93586767 20.47398798 -25.00000089
v 16.93586767 20.47398798 14.99946177
v 16.93586767 37.92168885 -25.00000089
v 115.00000000 20.47398798 -25.00000089
v 101.98365092 20.47398798 17.81585276
v 17.00306267 20.50131701 17.81585276
v 16.93586767 20.50131701 14.99946177
v 16.93586767 37.92168885 4.99959610
v 115.00000000 37.92168885 -25.00000089
v 115.00000000 20.47398798 17.81585276
v 17.00306267 37.92168885 17.81585276
v 115.00000000 37.92168885 17.81585276
f 1 2 7
f 1 7 8
f 1 8 3
f 1 3 9
f 1 9 4
f 1 4 10
f 1 10 5
f 1 5 2
f 2 5 6
f 2 6 11
f 2 11 7
f 3 8 11
f 3 11 12
f 3 12 9
f 4 9 12
f 4 12 10
f 5 10 12
f 5 12 11
f 5 11 6
f 7 11 8

