# https://github.com/mikedh/trimesh
v 115.00000000 115.00000000 5.61810814
v 115.00000000 74.56355393 5.61810814
v 115.00000000 115.00000000 -24.99700204
v -115.00000000 115.00000000 5.61810814
v 115.00000000 74.56355393 -24.99700204
v -115.00000000 74.56355393 5.61810814
v 16.23237997 82.19881952 -24.99999918
v -115.00000000 115.00000000 -24.99700204
v 16.23237997 74.56355393 -24.99999918
v -115.00000000 74.56355393 -24.99700204
v -16.81773663 82.19881952 -24.99999918
v -16.81773663 74.56355393 -24.99999918
f 1 2 5
f 1 5 3
f 1 3 8
f 1 8 4
f 1 4 6
f 1 6 2
f 2 6 10
f 2 10 12
f 2 12 9
f 2 9 5
f 3 5 9
f 3 9 7
f 3 7 11
f 3 11 8
f 4 8 10
f 4 10 6
f 7 9 12
f 7 12 11
f 8 11 12
f 8 12 10

