# https://github.com/mikedh/trimesh
v 0.01845583 -20.47695771 5.99063750
v -16.08529195 -20.47695771 5.99063750
v 0.01845583 -21.50044419 5.99063750
v 0.01845583 -20.47695771 -24.99696776
v -21.79484129 -20.47816753 5.99063750
v -21.79484129 -20.47695771 2.79904131
v -16.99916072 -32.84965232 5.99063750
v 0.01845583 -32.84965232 4.99857221
v 0.01845583 -32.84965232 -24.99696776
v -21.79484129 -20.47695771 -24.99696776
v -21.79484129 -32.84965232 5.99063750
v -21.79484129 -32.84965232 -24.99696776
f 1 2 5
f 1 5 11
f 1 11 7
f 1 7 3
f 1 3 8
f 1 8 9
f 1 9 4
f 1 4 10
f 1 10 6
f 1 6 2
f 2 6 5
f 3 7 8
f 4 9 12
f 4 12 10
f 5 6 10
f 5 10 12
f 5 12 11
f 7 11 12
f 7 12 9
f 7 9 8

