# https://github.com/mikedh/trimesh
v 115.00000000 74.56279993 5.61810985
v 115.00000000 74.56279993 -24.99999747
v 17.00816587 74.56279993 5.61810985
v 115.00000000 37.92323112 5.61810985
v 115.00000000 37.92323112 -24.99999747
v 16.95057750 74.56279993 -24.99999747
v 16.95057750 74.56279993 4.99771625
v 17.00816587 37.92323112 5.61810985
v 16.95057750 37.92323112 -24.99999747
v 16.95057750 37.92323112 4.99771625
f 1 2 6
f 1 6 7
f 1 7 3
f 1 3 8
f 1 8 4
f 1 4 5
f 1 5 2
f 2 5 9
f 2 9 6
f 3 7 10
f 3 10 8
f 4 8 10
f 4 10 9
f 4 9 5
f 6 9 10
f 6 10 7

