# https://github.com/mikedh/trimesh
v 115.00000000 -20.48620448 24.99804564
v 115.00000000 -20.48620448 5.03943466
v 101.99520767 -20.48620448 24.99804564
v 115.00000000 -32.85568088 25.00000089
v 115.00000000 -32.85568088 5.02770312
v 16.95057750 -20.48620448 5.03943466
v 17.00816587 -32.85568088 25.00000089
v 16.95057750 -20.48620448 15.00309810
v 16.95057750 -20.50470829 24.99804564
v 115.00000000 -114.99195963 25.00000089
v 115.00000000 -114.99195963 5.02770312
v 17.00816587 -32.85568088 5.02770312
v 16.95057750 -83.51779640 5.02770312
v 16.95057750 -83.49004239 25.00000089
v 16.95057750 -114.99195963 25.00000089
v 16.95057750 -114.99195963 5.02770312
f 1 2 6
f 1 6 8
f 1 8 3
f 1 3 7
f 1 7 4
f 1 4 10
f 1 10 11
f 1 11 5
f 1 5 2
f 2 5 12
f 2 12 6
f 3 8 9
f 3 9 7
f 4 7 14
f 4 14 15
f 4 15 10
f 5 11 16
f 5 16 13
f 5 13 12
f 6 12 13
f 6 13 16
f 6 16 15
f 6 15 14
f 6 14 9
f 6 9 8
f 7 9 14
f 10 15 16
f 10 16 11

