# https://github.com/mikedh/trimesh
v 11.06402695 -0.12030821 -24.99608353
v 11.06402695 -0.12030821 14.99894597
v 11.06402695 20.47211155 -24.99608353
v 101.84218019 -0.12030821 -24.99608353
v 11.06402695 20.47211155 14.99894597
v 101.84218019 -0.12030821 14.99894597
v 101.84218019 20.39349176 15.00286162
v 101.84218019 20.47211155 -24.99608353
v 101.84218019 20.47211155 14.99894597
f 1 2 5
f 1 5 3
f 1 3 8
f 1 8 4
f 1 4 6
f 1 6 2
f 2 6 7
f 2 7 5
f 3 5 9
f 3 9 8
f 4 8 9
f 4 9 7
f 4 7 6
f 5 7 9

