mtllib assembly3.mtl
o obj1

v 56.500000 35.000000 0.000000
v 56.500000 68.000000 15.000000
v 56.500000 35.000000 15.000000
v 56.500000 68.000000 0.000000
v 79.500000 35.000000 0.000000
v 79.500000 35.000000 25.000000
v 56.500000 35.000000 25.000000
v 79.500000 68.000000 0.000000
v 79.500000 68.000000 25.000000
v 56.500000 68.000000 25.000000
v -56.500000 -35.000000 0.000000
v -56.500000 -68.000000 0.000000
v -56.500000 -35.000000 15.000000
v -56.500000 -68.000000 15.000000
v -79.500000 -35.000000 0.000000
v -79.500000 -35.000000 25.000000
v -56.500000 -35.000000 25.000000
v -79.500000 -68.000000 0.000000
v -79.500000 -68.000000 25.000000
v -56.500000 -68.000000 25.000000
v 56.500000 -68.000000 0.000000
v 56.500000 -35.000000 0.000000
v 56.500000 -68.000000 15.000000
v 56.500000 -35.000000 15.000000
v 79.500000 -68.000000 0.000000
v 79.500000 -68.000000 25.000000
v 56.500000 -68.000000 25.000000
v 79.500000 -35.000000 0.000000
v 79.500000 -35.000000 25.000000
v 56.500000 -35.000000 25.000000
v -56.500000 68.000000 0.000000
v -56.500000 35.000000 0.000000
v -56.500000 68.000000 15.000000
v -56.500000 35.000000 15.000000
v -79.500000 68.000000 0.000000
v -79.500000 68.000000 25.000000
v -56.500000 68.000000 25.000000
v -79.500000 35.000000 0.000000
v -79.500000 35.000000 25.000000
v -56.500000 35.000000 25.000000
v -16.500000 35.000000 0.000000
v -16.500000 68.000000 15.000000
v -16.500000 35.000000 15.000000
v -16.500000 68.000000 0.000000
v 16.500000 35.000000 15.000000
v -16.500000 35.000000 25.000000
v 16.500000 35.000000 25.000000
v 16.500000 35.000000 0.000000
v 16.500000 68.000000 0.000000
v 16.500000 68.000000 15.000000
v 16.500000 68.000000 25.000000
v -16.500000 68.000000 25.000000
v -16.500000 -68.000000 0.000000
v -16.500000 -35.000000 0.000000
v -16.500000 -68.000000 15.000000
v -16.500000 -35.000000 15.000000
v 16.500000 -68.000000 15.000000
v -16.500000 -68.000000 25.000000
v 16.500000 -68.000000 25.000000
v 16.500000 -68.000000 0.000000
v 16.500000 -35.000000 0.000000
v 16.500000 -35.000000 15.000000
v 16.500000 -35.000000 25.000000
v -16.500000 -35.000000 25.000000
v 56.500000 -101.500000 15.000000
v 56.500000 -101.500000 25.000000
v 56.500000 101.500000 15.000000
v 56.500000 101.500000 25.000000
v -56.500000 101.500000 15.000000
v -56.500000 101.500000 25.000000
v -56.500000 -101.500000 15.000000
v -56.500000 -101.500000 25.000000
v 16.500000 -101.500000 15.000000
v 16.500000 -101.500000 25.000000
v 16.500000 101.500000 15.000000
v 16.500000 101.500000 25.000000
v -16.500000 -101.500000 15.000000
v -16.500000 -101.500000 25.000000
v -16.500000 101.500000 15.000000
v -16.500000 101.500000 25.000000
v 115.000000 -115.000000 25.000000
v -115.000000 -115.000000 -25.000000
v 115.000000 -115.000000 -25.000000
v -115.000000 -115.000000 25.000000
v -115.000000 115.000000 -25.000000
v -115.000000 115.000000 25.000000
v 115.000000 115.000000 -25.000000
v 115.000000 115.000000 25.000000

usemtl mat1
f 1 2 3
f 1 4 2
f 5 3 6
f 6 3 7
f 5 1 3
f 8 5 9
f 9 5 6
f 2 9 10
f 4 8 2
f 2 8 9
f 8 4 5
f 5 4 1
f 11 12 13
f 13 12 14
f 15 13 16
f 16 13 17
f 15 11 13
f 18 15 19
f 19 15 16
f 14 19 20
f 12 18 14
f 14 18 19
f 12 11 18
f 11 15 18
f 21 22 23
f 23 22 24
f 25 23 26
f 26 23 27
f 25 21 23
f 28 25 29
f 29 25 26
f 24 29 30
f 22 28 24
f 24 28 29
f 25 28 21
f 28 22 21
f 31 32 33
f 33 32 34
f 35 33 36
f 36 33 37
f 35 31 33
f 38 35 39
f 39 35 36
f 34 39 40
f 32 38 34
f 34 38 39
f 32 31 38
f 31 35 38
f 41 42 43
f 41 44 42
f 45 46 47
f 45 43 46
f 48 41 45
f 45 41 43
f 49 48 50
f 50 48 45
f 42 51 52
f 42 50 51
f 44 49 42
f 42 49 50
f 49 44 48
f 48 44 41
f 53 54 55
f 55 54 56
f 57 58 59
f 57 55 58
f 60 53 57
f 57 53 55
f 61 60 62
f 62 60 57
f 56 63 64
f 56 62 63
f 54 61 56
f 56 61 62
f 61 54 60
f 60 54 53
f 27 65 66
f 23 65 27
f 67 2 68
f 68 2 10
f 7 24 30
f 3 24 7
f 37 69 70
f 33 69 37
f 71 14 72
f 72 14 20
f 17 34 40
f 13 34 17
f 73 57 74
f 74 57 59
f 51 75 76
f 50 75 51
f 62 45 63
f 63 45 47
f 47 46 64
f 47 64 63
f 58 77 78
f 55 77 58
f 79 42 80
f 80 42 52
f 46 56 64
f 43 56 46
f 69 79 70
f 70 79 80
f 77 71 78
f 78 71 72
f 55 14 77
f 77 14 71
f 56 13 55
f 55 13 14
f 43 34 56
f 56 34 13
f 79 33 42
f 42 33 43
f 43 33 34
f 79 69 33
f 75 67 76
f 76 67 68
f 65 73 66
f 66 73 74
f 23 57 65
f 65 57 73
f 24 62 23
f 23 62 57
f 3 45 24
f 24 45 62
f 2 50 3
f 67 50 2
f 3 50 45
f 67 75 50
f 81 82 83
f 81 84 82
f 84 85 82
f 84 86 85
f 86 87 85
f 86 88 87
f 88 83 87
f 88 81 83
f 19 84 72
f 20 19 72
f 78 72 84
f 16 84 19
f 74 78 84
f 59 58 78
f 59 78 74
f 40 16 17
f 40 39 16
f 81 66 74
f 81 74 84
f 86 39 36
f 86 16 39
f 86 84 16
f 26 27 66
f 26 66 81
f 29 26 81
f 70 36 37
f 70 86 36
f 6 7 30
f 6 30 29
f 76 80 52
f 76 52 51
f 68 10 9
f 88 9 6
f 88 29 81
f 88 6 29
f 88 68 9
f 88 86 70
f 88 70 80
f 88 80 76
f 88 76 68
f 85 83 82
f 85 87 83