# https://github.com/mikedh/trimesh
v -16.97878391 -18.50081436 -19.96175893
v -16.97878391 -18.49900134 -19.97545771
v 0.00880979 -18.49900134 -19.98573095
v 0.00880979 -18.49900134 14.99999985
v -16.97878391 -18.49900134 14.99999985
v -16.97878391 -18.47362243 -19.98573095
v 0.00880979 0.01664281 -19.98573095
v 0.00880979 0.01664281 14.99999985
v -16.97878391 0.01664281 14.99999985
v -16.97878391 0.01664281 -19.98573095
f 1 2 3
f 1 3 4
f 1 4 5
f 1 5 9
f 1 9 10
f 1 10 6
f 1 6 2
f 2 6 3
f 3 6 10
f 3 10 7
f 3 7 8
f 3 8 4
f 4 8 9
f 4 9 5
f 7 10 9
f 7 9 8

