# https://github.com/mikedh/trimesh
v -115.00000000 -20.48045523 -19.98777874
v -115.00000000 0.01644917 -19.98777874
v -101.97849631 -20.48045523 -19.98777874
v -115.00000000 -20.48045523 24.99999918
v -101.97849631 0.01644917 -19.98777874
v -115.00000000 0.01644917 24.99999918
v -101.97849631 -20.48045523 14.99929041
v -102.00016350 -20.48045523 24.99999918
v -101.97849631 0.01644917 14.99929041
v -102.00016350 0.01644917 24.99999918
f 1 2 5
f 1 5 3
f 1 3 7
f 1 7 8
f 1 8 4
f 1 4 6
f 1 6 2
f 2 6 10
f 2 10 9
f 2 9 5
f 3 5 9
f 3 9 7
f 4 8 10
f 4 10 6
f 7 9 10
f 7 10 8

