# https://github.com/mikedh/trimesh
v 51.03675693 51.93423823 -19.99804169
v 51.03675693 32.96527460 -19.99804169
v 51.03675693 51.93423823 -24.99999918
v 50.99756271 51.93423823 24.99999918
v 51.03675693 32.96527460 -24.99999918
v 50.99756271 32.96527460 24.99999918
v 17.67252959 51.93423823 -24.99999918
v 17.67252959 51.93423823 24.99999918
v 17.67252959 32.96527460 -24.99999918
v 17.67252959 32.96527460 24.99999918
f 1 2 5
f 1 5 3
f 1 3 7
f 1 7 8
f 1 8 4
f 1 4 6
f 1 6 2
f 2 6 10
f 2 10 9
f 2 9 5
f 3 5 9
f 3 9 7
f 4 8 10
f 4 10 6
f 7 9 10
f 7 10 8

