# https://github.com/mikedh/trimesh
v 50.99536240 -32.94697642 24.99999918
v 17.67252788 -32.94697642 24.99999918
v 51.02474436 -52.00030565 24.99999918
v 51.02474436 -32.94697642 -19.99804169
v 17.67252788 -32.94697642 -24.99999918
v 17.67252788 -115.00000000 24.99999918
v 51.02474436 -115.00000000 24.99999918
v 51.02474436 -32.94697642 -24.99999918
v 17.67252788 -115.00000000 -24.99999918
v 51.02474436 -115.00000000 -24.99999918
f 1 2 6
f 1 6 7
f 1 7 3
f 1 3 4
f 1 4 8
f 1 8 5
f 1 5 2
f 2 5 9
f 2 9 6
f 3 7 10
f 3 10 8
f 3 8 4
f 5 8 10
f 5 10 9
f 6 9 10
f 6 10 7

