# https://github.com/mikedh/trimesh
v 51.00815296 -18.51251677 -23.07128236
v 51.00815296 -18.51251677 -24.99947652
v 50.99816933 -18.51251677 -19.93718199
v 51.00815296 -32.93894291 -20.00089660
v 51.00815296 -20.47680348 -24.99999918
v 0.00881493 -18.51251677 -24.99947652
v 50.99816933 -20.47680348 -19.66456003
v 17.00693034 -18.51251677 -19.93718199
v 51.00815296 -32.93894291 -24.99999918
v 50.99816933 -32.93894291 -19.66456003
v 0.00881493 -20.47680348 -24.99999918
v 0.00881493 -18.51251677 -20.00037566
v 17.00693034 -20.47680348 -19.66456003
v 0.00881493 -32.93894291 -24.99999918
v 17.00693034 -32.93894291 -19.66456003
v 0.00881493 -20.47680348 -20.00037566
v 0.00881493 -32.93894291 -20.00089660
f 1 2 6
f 1 6 12
f 1 12 8
f 1 8 3
f 1 3 4
f 1 4 9
f 1 9 5
f 1 5 2
f 2 5 11
f 2 11 6
f 3 7 4
f 3 8 13
f 3 13 7
f 4 7 10
f 4 10 15
f 4 15 17
f 4 17 14
f 4 14 9
f 5 9 14
f 5 14 11
f 6 11 14
f 6 14 17
f 6 17 16
f 6 16 12
f 7 13 15
f 7 15 10
f 8 12 13
f 12 16 15
f 12 15 13
f 15 16 17

