# https://github.com/mikedh/trimesh
v -114.99706626 -51.97188675 -19.98777874
v -114.99706626 -20.48045695 -19.98777874
v -85.02349764 -51.97188675 -19.98777874
v -114.99706626 -51.97188675 24.99999918
v -85.00000715 -20.48045695 -19.98777874
v -114.99706626 -20.48045695 24.99999918
v -85.00000715 -47.70562470 -19.98777874
v -85.00000715 -51.97188675 -19.98337470
v -85.00000715 -51.97188675 24.99999918
v -85.00000715 -20.48045695 14.99929041
v -101.99814141 -20.48045695 24.99999918
v -85.00000715 -20.50203502 24.99999918
f 1 2 5
f 1 5 7
f 1 7 3
f 1 3 8
f 1 8 9
f 1 9 4
f 1 4 6
f 1 6 2
f 2 6 11
f 2 11 10
f 2 10 5
f 3 7 8
f 4 9 12
f 4 12 11
f 4 11 6
f 5 10 12
f 5 12 9
f 5 9 8
f 5 8 7
f 10 11 12

