# https://github.com/mikedh/trimesh
v -16.92732692 32.96527803 -24.99999918
v 17.67252788 32.96527803 -24.99999918
v -16.92732692 32.96527803 -20.00102513
v -16.92732692 114.99196649 -24.99999918
v 17.67252788 32.96527803 -19.98777874
v 17.67252788 114.99196649 -24.99999918
v 16.99854895 32.96527803 -19.98777874
v -16.92732692 82.48961627 -19.98777874
v -16.92732692 114.99196649 -19.98777874
v 17.67252788 114.99196649 -19.98777874
f 1 2 5
f 1 5 7
f 1 7 3
f 1 3 8
f 1 8 9
f 1 9 4
f 1 4 6
f 1 6 2
f 2 6 10
f 2 10 5
f 3 7 8
f 4 9 10
f 4 10 6
f 5 10 9
f 5 9 8
f 5 8 7

