# https://github.com/mikedh/trimesh
v -54.64942545 -114.99681950 -19.98777874
v -54.64942545 -114.99681950 24.99999918
v -54.64942545 -82.48990417 -19.98777874
v 17.67252959 -114.99681950 -19.98777874
v -54.64942545 -82.48990417 24.99999918
v 17.67252959 -114.99681950 24.99999918
v 16.98583893 -82.44529486 -19.94374178
v 16.99291624 -82.44529486 -19.98777874
v 17.67252959 -82.44529486 -19.98777874
v 17.05662914 -82.44529486 24.99999918
v 16.99291624 -82.44529486 24.98678878
v 17.67252959 -82.44529486 24.99999918
f 1 2 5
f 1 5 3
f 1 3 8
f 1 8 9
f 1 9 4
f 1 4 6
f 1 6 2
f 2 6 12
f 2 12 10
f 2 10 5
f 3 5 7
f 3 7 8
f 4 9 12
f 4 12 6
f 5 10 11
f 5 11 7
f 7 11 10
f 7 10 12
f 7 12 9
f 7 9 8

