# https://github.com/mikedh/trimesh
v -0.00244364 0.01255065 -19.98573095
v -0.00244364 0.01255065 -24.99901898
v -50.99988982 0.01255065 -19.98573095
v -0.00244364 -18.50612834 -19.98573095
v -0.00244364 -114.99464661 -24.99901898
v -54.65864822 0.00129208 -24.99950908
v -54.65864822 0.01255065 -24.99901898
v -54.65864822 0.01255065 -20.00045620
v -115.00000000 0.00129208 -19.98818658
v -50.99988982 -20.48745885 -19.98573095
v -17.01285094 -20.48745885 -19.98573095
v -54.65864822 -114.98338461 -19.98818658
v -0.00244364 -114.99464661 -19.98867668
v -54.65864822 -114.99464661 -24.99901898
v -54.65864822 -114.98338461 -24.99950908
v -115.00000000 0.00129208 -24.99950908
v -115.00000000 -114.98338461 -19.98818658
v -54.65864822 -114.99464661 -19.98867668
v -115.00000000 -114.98338461 -24.99950908
f 1 2 7
f 1 7 8
f 1 8 3
f 1 3 10
f 1 10 11
f 1 11 4
f 1 4 13
f 1 13 5
f 1 5 2
f 2 5 15
f 2 15 6
f 2 6 16
f 2 16 7
f 3 8 9
f 3 9 17
f 3 17 10
f 4 11 12
f 4 12 13
f 5 13 18
f 5 18 14
f 5 14 19
f 5 19 15
f 6 15 19
f 6 19 16
f 7 16 9
f 7 9 8
f 9 16 19
f 9 19 17
f 10 17 12
f 10 12 11
f 12 17 18
f 12 18 13
f 14 18 17
f 14 17 19

