# https://github.com/mikedh/trimesh
v 0.01053885 -115.00000000 -24.99999918
v 17.67252788 -115.00000000 -24.99999918
v 0.01053885 -115.00000000 -19.98777874
v 0.01053885 -32.93894634 -24.99999918
v 17.67252788 -115.00000000 -19.98777874
v 17.67252788 -32.93894634 -24.99999918
v 0.01053885 -82.49206334 -19.98777874
v 0.01053885 -32.93894634 -20.00004493
v 17.67252788 -32.93894634 -19.98777874
v 16.99993700 -32.93894634 -19.98777874
f 1 2 5
f 1 5 3
f 1 3 7
f 1 7 8
f 1 8 4
f 1 4 6
f 1 6 2
f 2 6 9
f 2 9 5
f 3 5 9
f 3 9 10
f 3 10 7
f 4 8 10
f 4 10 9
f 4 9 6
f 7 10 8

