# https://github.com/mikedh/trimesh
v 51.00815296 32.96527460 -20.00053503
v 51.00815296 32.96527460 -24.99950908
v 50.92820168 32.96527460 -19.99219477
v 50.99815905 32.95253545 -19.99219477
v 50.99815905 18.50696802 -19.99219477
v 51.00815296 18.50696802 -24.94750202
v 51.00815296 18.50696802 -24.99950908
v -0.00260842 32.96527460 -24.99999918
v -17.00286388 32.96527460 -19.98777874
v -17.00286388 18.50696802 -19.98777874
v -0.00260842 18.50696802 -24.99999918
v -51.09332055 32.96527460 -24.99999918
v -50.99338144 32.96527460 -19.98777874
v -50.99338144 18.50696802 -19.98777874
v -51.09332055 18.50696802 -24.99999918
v -51.09332055 32.96527460 -20.00053503
v -51.09332055 18.50696802 -20.00053503
f 1 2 8
f 1 8 12
f 1 12 16
f 1 16 13
f 1 13 9
f 1 9 3
f 1 3 4
f 1 4 5
f 1 5 6
f 1 6 7
f 1 7 2
f 2 7 11
f 2 11 8
f 3 9 4
f 4 9 10
f 4 10 5
f 5 10 14
f 5 14 17
f 5 17 15
f 5 15 11
f 5 11 7
f 5 7 6
f 8 11 15
f 8 15 12
f 9 13 14
f 9 14 10
f 12 15 17
f 12 17 16
f 13 16 17
f 13 17 14

