# https://github.com/mikedh/trimesh
v -54.64942545 -82.48532534 -19.98777874
v -54.64942545 -52.00102538 -19.98777874
v -51.02845609 -52.19209552 -19.98777874
v -51.02845609 -82.48532534 -19.98337470
v -54.64942545 -82.48532534 24.99999918
v -51.02845609 -51.99206993 -19.98777874
v -54.64942545 -52.00102538 24.99999918
v -51.02845609 -82.48532534 24.99999918
v -51.02845609 -51.99206993 -19.94814582
v -51.02845609 -52.00102538 24.99999918
f 1 2 6
f 1 6 3
f 1 3 4
f 1 4 8
f 1 8 5
f 1 5 7
f 1 7 2
f 2 7 9
f 2 9 6
f 3 6 9
f 3 9 10
f 3 10 8
f 3 8 4
f 5 8 10
f 5 10 7
f 7 10 9

