# https://github.com/mikedh/trimesh
v -16.92732692 114.99196649 24.99999747
v -51.03428930 114.99196649 24.99999747
v -16.92732692 82.48961627 24.99999747
v -16.92732692 114.99196649 -24.99929488
v -51.03428930 114.99196649 -24.99929488
v -51.03428930 52.01062858 24.99999747
v -17.00077668 32.96527803 24.99999747
v -16.92732692 32.96527803 -19.99740764
v -16.92732692 32.96527803 -24.99929488
v -51.03428930 32.96527803 -24.99929488
v -51.03428930 32.96527803 -19.99740764
v -50.99422455 32.96527803 24.99999747
f 1 2 6
f 1 6 12
f 1 12 7
f 1 7 3
f 1 3 8
f 1 8 9
f 1 9 4
f 1 4 5
f 1 5 2
f 2 5 10
f 2 10 11
f 2 11 6
f 3 7 8
f 4 9 10
f 4 10 5
f 6 11 12
f 7 12 11
f 7 11 10
f 7 10 9
f 7 9 8

