# https://github.com/mikedh/trimesh
v 17.67246105 -32.93894291 24.99999918
v 17.67246105 -32.93894291 -19.98777874
v 17.00006209 -32.93894291 24.99999918
v 17.67246105 -82.44044870 24.99999918
v 17.00006209 -32.93894291 -19.98777874
v 17.67246105 -82.44044870 -19.98777874
v 16.99085303 -82.44044870 -19.94374178
v 17.00006209 -82.44044870 24.98678878
v 17.06105545 -82.44044870 24.99999918
v 17.00006209 -82.44044870 -19.98777874
f 1 2 5
f 1 5 3
f 1 3 9
f 1 9 4
f 1 4 6
f 1 6 2
f 2 6 10
f 2 10 5
f 3 5 7
f 3 7 8
f 3 8 9
f 4 9 8
f 4 8 7
f 4 7 10
f 4 10 6
f 5 10 7

