# https://github.com/mikedh/trimesh
v -83.54951918 115.00000000 24.99999918
v -83.54951918 115.00000000 -24.99999918
v -115.00000000 115.00000000 24.99999918
v -83.54951918 52.00214610 24.99999918
v -115.00000000 115.00000000 -24.99999918
v -83.54951918 51.93424165 -24.99999918
v -115.00000000 51.93424165 24.99999918
v -85.00259817 51.93424165 24.99999918
v -83.54951918 51.93424165 -19.99804169
v -115.00000000 51.93424165 -24.99999918
f 1 2 5
f 1 5 3
f 1 3 7
f 1 7 8
f 1 8 4
f 1 4 9
f 1 9 6
f 1 6 2
f 2 6 10
f 2 10 5
f 3 5 10
f 3 10 7
f 4 8 9
f 6 9 8
f 6 8 7
f 6 7 10

