# https://github.com/mikedh/trimesh
v 16.50398403 115.00000000 24.99559514
v 0.00758331 115.00000000 24.99999918
v 16.50398403 82.50635505 24.99559514
v 16.50398403 115.00000000 -19.98337470
v 0.00758331 82.50635505 24.99999918
v -16.92732692 115.00000000 24.99999918
v 16.50398403 82.50635505 -19.98337470
v 0.00758331 115.00000000 -19.98777874
v -16.92732692 82.50635505 24.99999918
v -16.92732692 115.00000000 -19.98777874
v 0.00758331 82.50635505 -19.98777874
v -16.92732692 82.50635505 -19.98777874
f 1 2 5
f 1 5 3
f 1 3 7
f 1 7 4
f 1 4 8
f 1 8 10
f 1 10 6
f 1 6 2
f 2 6 9
f 2 9 5
f 3 5 9
f 3 9 12
f 3 12 11
f 3 11 7
f 4 7 11
f 4 11 8
f 6 10 12
f 6 12 9
f 8 11 12
f 8 12 10

