# https://github.com/mikedh/trimesh
v -51.03428930 115.00000000 24.99999747
v -67.88263828 115.00000000 24.99999747
v -51.03428930 52.00214610 24.99999747
v -51.03428930 115.00000000 -24.99929488
v -67.88263828 115.00000000 -24.99929488
v -67.88263828 52.00214610 24.99999747
v -51.03428930 51.93424165 -19.99740764
v -51.03428930 51.93424165 -24.99929488
v -67.88263828 51.93424165 -24.99929488
v -67.88263828 51.93424165 -19.99740764
f 1 2 6
f 1 6 3
f 1 3 7
f 1 7 8
f 1 8 4
f 1 4 5
f 1 5 2
f 2 5 9
f 2 9 10
f 2 10 6
f 3 6 10
f 3 10 7
f 4 8 9
f 4 9 5
f 7 10 9
f 7 9 8

