# https://github.com/mikedh/trimesh
v 114.99412566 32.96204954 15.03954709
v 114.99412566 32.96204954 -25.00000089
v 85.00569642 32.96204954 15.03954709
v 114.99412566 0.02323130 15.03954709
v 84.97336358 32.96204954 -25.00000089
v 114.99412566 0.02323130 -25.00000089
v 84.97336358 32.96204954 -19.99505654
v 85.00569642 20.49687527 15.03954709
v 101.99707896 0.02323130 15.03954709
v 114.99412566 -20.47656700 15.03562801
v 84.97336358 0.02323130 -25.00000089
v 114.99412566 -20.47656700 -24.99608181
v 84.97336358 0.02323130 -19.99505654
v 84.97336358 -20.47656700 -19.99897562
v 85.00569642 -20.47656700 14.99643378
v 101.98826402 -20.47656700 15.03562801
v 84.97336358 -20.47656700 -24.99608181
f 1 2 5
f 1 5 7
f 1 7 3
f 1 3 8
f 1 8 9
f 1 9 4
f 1 4 10
f 1 10 12
f 1 12 6
f 1 6 2
f 2 6 11
f 2 11 5
f 3 7 13
f 3 13 8
f 4 9 16
f 4 16 10
f 5 11 17
f 5 17 14
f 5 14 13
f 5 13 7
f 6 12 17
f 6 17 11
f 8 13 14
f 8 14 15
f 8 15 16
f 8 16 9
f 10 16 15
f 10 15 14
f 10 14 17
f 10 17 12

