# https://github.com/mikedh/trimesh
v 17.00006552 82.01228023 -19.98588860
v 16.50398403 82.50632077 -19.98588860
v 17.67252788 82.01228023 -19.98588860
v 17.00006552 82.01228023 25.00000089
v 16.50398403 115.00000000 -19.98588860
v 16.50398403 82.50632077 25.00000089
v 17.67252788 115.00000000 -19.98588860
v 17.67252788 82.01228023 25.00000089
v 16.50398403 115.00000000 25.00000089
v 17.67252788 115.00000000 25.00000089
f 1 2 5
f 1 5 7
f 1 7 3
f 1 3 8
f 1 8 4
f 1 4 6
f 1 6 2
f 2 6 9
f 2 9 5
f 3 7 10
f 3 10 8
f 4 8 10
f 4 10 9
f 4 9 6
f 5 9 10
f 5 10 7

