# https://github.com/mikedh/trimesh
v 101.99123204 20.49687527 15.04029423
v 101.99123204 20.49687527 24.99902241
v 101.99123204 32.96204954 15.04029423
v 101.99250698 -20.47656700 15.03834412
v 101.99123204 32.96204954 24.99902241
v 102.00141788 -20.47656700 24.99414712
v 102.00141788 0.01800044 24.99999747
v 115.00000000 32.96204954 15.04029423
v 102.00141788 0.01800044 15.03834412
v 101.99250698 -20.31964101 15.03834412
v 115.00000000 -20.47656700 15.03834412
v 115.00000000 32.96204954 24.99902241
v 103.06595445 -20.47656700 24.99999747
v 115.00000000 0.01800044 24.99999747
v 115.00000000 0.01800044 15.03834412
v 115.00000000 -20.47656700 24.99999747
f 1 2 5
f 1 5 3
f 1 3 10
f 1 10 4
f 1 4 2
f 2 4 6
f 2 6 7
f 2 7 5
f 3 5 12
f 3 12 8
f 3 8 15
f 3 15 9
f 3 9 10
f 4 10 9
f 4 9 15
f 4 15 11
f 4 11 16
f 4 16 13
f 4 13 6
f 5 7 14
f 5 14 12
f 6 13 7
f 7 13 16
f 7 16 14
f 8 12 14
f 8 14 16
f 8 16 11
f 8 11 15

