# https://github.com/mikedh/trimesh
v 51.00816667 -32.95174032 -24.99999918
v 51.03145152 -115.00000000 -24.99999918
v 51.00816667 -32.95174032 -20.00028484
v 51.00816667 32.96205297 -24.99999918
v 51.03145152 -115.00000000 -19.92477186
v 67.98958272 -115.00000000 -24.99999918
v 51.00816667 32.96205297 -20.00028484
v 84.96102542 32.96205297 -24.99999918
v 67.98958272 -115.00000000 -19.92477186
v 51.03145152 -51.99736506 -19.92477186
v 84.99429733 -115.00000000 -24.99950223
v 84.96102542 -32.95174032 -24.99999918
v 84.96102542 32.96205297 -20.00028484
v 84.99429733 -32.95174032 -24.99950223
v 84.99429733 -115.00000000 -19.94712792
v 67.98958272 -51.99736506 -19.92477186
v 84.99429733 -32.95174032 -20.00078008
v 84.99429733 -51.99736506 -19.94712792
f 1 2 5
f 1 5 3
f 1 3 7
f 1 7 4
f 1 4 8
f 1 8 12
f 1 12 6
f 1 6 2
f 2 6 11
f 2 11 15
f 2 15 9
f 2 9 5
f 3 5 10
f 3 10 7
f 4 7 13
f 4 13 8
f 5 9 16
f 5 16 10
f 6 12 11
f 7 10 16
f 7 16 13
f 8 14 11
f 8 11 12
f 8 13 17
f 8 17 14
f 9 15 18
f 9 18 16
f 11 14 17
f 11 17 18
f 11 18 15
f 13 16 18
f 13 18 17

