# https://github.com/mikedh/trimesh
v 50.99999949 32.96527460 -17.23776191
v 50.99999949 18.50696802 -17.23776191
v 50.99999949 32.95395091 -19.99207824
v 50.93010724 32.96527460 -19.99207824
v 17.00000212 32.96527460 -17.23776191
v 50.99999949 18.50696802 -19.99207824
v 17.00000212 18.50696802 -17.23776191
v 17.00000212 32.96527460 -19.99207824
v 17.09651738 18.50696802 -19.99207824
v 17.00000212 18.50696802 -19.90256831
v 17.00000212 18.50979894 -19.99207824
f 1 2 6
f 1 6 3
f 1 3 4
f 1 4 8
f 1 8 5
f 1 5 7
f 1 7 2
f 2 7 10
f 2 10 9
f 2 9 6
f 3 6 9
f 3 9 11
f 3 11 8
f 3 8 4
f 5 8 11
f 5 11 10
f 5 10 7
f 9 10 11

