# https://github.com/mikedh/trimesh
v -51.09332398 0.01845669 -24.99608353
v -51.09332398 0.01845669 -19.99999866
v -51.09332398 18.50555256 -24.99608353
v 0.00380769 0.01845669 -24.99608353
v -51.09332398 18.50555256 -19.99999866
v -50.99828243 0.01845669 14.99608591
v 0.00380769 18.50555256 -24.99608353
v 0.00380769 0.01845669 14.99608591
v -50.99828243 18.50555256 14.99608591
v 0.00380769 18.50555256 -19.99999866
v 0.00380769 18.49831417 14.99608591
v -17.00355791 18.50555256 14.99608591
f 1 2 5
f 1 5 3
f 1 3 7
f 1 7 4
f 1 4 8
f 1 8 6
f 1 6 2
f 2 6 9
f 2 9 5
f 3 5 9
f 3 9 12
f 3 12 10
f 3 10 7
f 4 7 10
f 4 10 11
f 4 11 8
f 6 8 11
f 6 11 12
f 6 12 9
f 10 12 11

