# https://github.com/mikedh/trimesh
v -115.00000000 -115.00000000 -19.98777874
v -54.65533063 -115.00000000 -19.98777874
v -115.00000000 -115.00000000 24.99999918
v -115.00000000 -51.97188675 -19.98777874
v -54.65533063 -115.00000000 24.99999918
v -54.65533063 -52.00273558 -19.98777874
v -115.00000000 -51.97188675 24.99999918
v -85.01965225 -51.97188675 -19.98777874
v -54.65533063 -52.00273558 24.99999918
v -84.99602467 -51.97188675 -19.98337470
v -84.99602467 -51.97188675 24.99999918
f 1 2 5
f 1 5 3
f 1 3 7
f 1 7 4
f 1 4 8
f 1 8 6
f 1 6 2
f 2 6 9
f 2 9 5
f 3 5 9
f 3 9 11
f 3 11 7
f 4 7 11
f 4 11 10
f 4 10 8
f 6 8 10
f 6 10 11
f 6 11 9

