# https://github.com/mikedh/trimesh
v 50.99999949 -20.50096400 24.99999747
v 50.99999949 -32.93894291 24.99999747
v 50.99999949 -20.47656700 14.99681592
v 17.00000212 -20.50096400 24.99999747
v 17.00000212 -32.93894291 24.99999747
v 50.99999949 -32.93894291 -19.66455832
v 17.00000212 -20.47656700 14.99681592
v 50.99999949 -20.47656700 -19.66455832
v 17.00000212 -32.93894291 -19.66455832
v 17.00000212 -20.47656700 -19.66455832
f 1 2 6
f 1 6 8
f 1 8 3
f 1 3 7
f 1 7 4
f 1 4 5
f 1 5 2
f 2 5 9
f 2 9 6
f 3 8 10
f 3 10 7
f 4 7 10
f 4 10 9
f 4 9 5
f 6 9 10
f 6 10 8

