# https://github.com/mikedh/trimesh
v -83.54951918 32.96527803 -24.99999918
v -67.88416684 32.96527803 -24.99999918
v -83.54951918 32.96527803 -20.00004493
v -83.54951918 114.99196649 -24.99999918
v -67.88416684 32.96527803 -20.00004493
v -67.88416684 114.99196649 -24.99999918
v -83.54951918 52.00446293 -19.98777874
v -83.54951918 114.99196649 -19.98777874
v -67.88416684 52.00446293 -19.98777874
v -67.88416684 114.99196649 -19.98777874
f 1 2 5
f 1 5 3
f 1 3 7
f 1 7 8
f 1 8 4
f 1 4 6
f 1 6 2
f 2 6 10
f 2 10 9
f 2 9 5
f 3 5 9
f 3 9 7
f 4 8 10
f 4 10 6
f 7 9 10
f 7 10 8

