# https://github.com/mikedh/trimesh
v -17.00333171 -20.50400913 24.99999918
v -17.00333171 -20.46758413 14.99929041
v -50.99847779 -20.50400913 24.99999918
v -17.00333171 -45.91089174 24.99999918
v -50.99847779 -20.46758413 14.99929041
v -17.00333171 -20.46758413 -19.98777874
v -51.02512479 -52.00004175 24.99999918
v -17.01665349 -82.48830020 24.99999918
v -17.00333171 -82.48830020 24.99559514
v -50.99847779 -20.46758413 -19.98777874
v -51.02512479 -51.98790237 -19.94814582
v -17.00333171 -45.91089174 -19.98777874
v -51.02512479 -82.48830020 24.99999918
v -17.00333171 -82.48830020 -19.98337470
v -51.02512479 -51.98790237 -19.98777874
v -51.02512479 -52.18824327 -19.98777874
v -51.02512479 -82.48830020 -19.98337470
f 1 2 5
f 1 5 3
f 1 3 7
f 1 7 13
f 1 13 8
f 1 8 4
f 1 4 9
f 1 9 14
f 1 14 12
f 1 12 6
f 1 6 2
f 2 6 10
f 2 10 5
f 3 5 7
f 4 8 9
f 5 10 15
f 5 15 11
f 5 11 7
f 6 12 16
f 6 16 15
f 6 15 10
f 7 11 15
f 7 15 16
f 7 16 17
f 7 17 13
f 8 13 17
f 8 17 14
f 8 14 9
f 12 14 16
f 14 17 16

