mtllib assembly2.mtl
o obj1

v 84.500000 0.000000 5.000000
v 84.500000 0.000000 -10.000000
v 84.488190 -0.473534 5.000000
v 84.488190 -0.473534 -10.000000
v 84.452789 -0.945892 -10.000000
v 84.452789 -0.945892 5.000000
v 84.393890 -1.415901 -10.000000
v 84.393890 -1.415901 5.000000
v 84.311646 -1.882385 -10.000000
v 84.311646 -1.882385 5.000000
v 84.206238 -2.344193 -10.000000
v 84.206238 -2.344193 5.000000
v 84.077942 -2.800171 5.000000
v 84.077942 -2.800171 -10.000000
v 83.927078 -3.249191 -10.000000
v 83.927078 -3.249191 5.000000
v 83.754028 -3.690132 5.000000
v 83.754028 -3.690132 -10.000000
v 83.559204 -4.121895 -10.000000
v 83.559204 -4.121895 5.000000
v 83.343109 -4.543411 -10.000000
v 83.343109 -4.543411 5.000000
v 83.106262 -4.953636 5.000000
v 83.106262 -4.953636 -10.000000
v 82.849274 -5.351540 -10.000000
v 82.849274 -5.351540 5.000000
v 82.572754 -5.736145 -10.000000
v 82.572754 -5.736145 5.000000
v 82.277420 -6.106483 -10.000000
v 82.277420 -6.106483 5.000000
v 81.963989 -6.461639 5.000000
v 81.963989 -6.461639 -10.000000
v 81.633255 -6.800735 -10.000000
v 81.633255 -6.800735 5.000000
v 81.286011 -7.122925 -10.000000
v 81.286011 -7.122925 5.000000
v 80.923157 -7.427399 -10.000000
v 80.923157 -7.427399 5.000000
v 80.545563 -7.713409 -10.000000
v 80.545563 -7.713409 5.000000
v 80.154190 -7.980248 -10.000000
v 80.154190 -7.980248 5.000000
v 79.750000 -8.227242 -10.000000
v 79.750000 -8.227242 5.000000
v 79.334000 -8.453781 -10.000000
v 79.334000 -8.453781 5.000000
v 78.907227 -8.659309 -10.000000
v 78.907227 -8.659309 5.000000
v 78.470734 -8.843300 5.000000
v 78.470734 -8.843300 -10.000000
v 78.025620 -9.005310 -10.000000
v 78.025620 -9.005310 5.000000
v 77.572983 -9.144928 -10.000000
v 77.572983 -9.144928 5.000000
v 77.113953 -9.261818 -10.000000
v 77.113953 -9.261818 5.000000
v 76.649658 -9.355675 -10.000000
v 76.649658 -9.355675 5.000000
v 76.181259 -9.426270 -10.000000
v 76.181259 -9.426270 5.000000
v 75.709930 -9.473434 -10.000000
v 75.709930 -9.473434 5.000000
v 75.236847 -9.497047 -10.000000
v 75.236847 -9.497047 5.000000
v 74.763153 -9.497047 5.000000
v 74.763153 -9.497047 -10.000000
v 74.290070 -9.473434 -10.000000
v 74.290070 -9.473434 5.000000
v 73.818741 -9.426270 5.000000
v 73.818741 -9.426270 -10.000000
v 73.350342 -9.355675 -10.000000
v 73.350342 -9.355675 5.000000
v 72.886047 -9.261818 -10.000000
v 72.886047 -9.261818 5.000000
v 72.427017 -9.144928 -10.000000
v 72.427017 -9.144928 5.000000
v 71.974380 -9.005310 5.000000
v 71.974380 -9.005310 -10.000000
v 71.529266 -8.843300 -10.000000
v 71.529266 -8.843300 5.000000
v 71.092773 -8.659309 -10.000000
v 71.092773 -8.659309 5.000000
v 70.666000 -8.453781 5.000000
v 70.666000 -8.453781 -10.000000
v 70.250000 -8.227242 -10.000000
v 70.250000 -8.227242 5.000000
v 69.845810 -7.980248 -10.000000
v 69.845810 -7.980248 5.000000
v 69.454437 -7.713409 5.000000
v 69.454437 -7.713409 -10.000000
v 69.076843 -7.427399 -10.000000
v 69.076843 -7.427399 5.000000
v 68.713989 -7.122925 -10.000000
v 68.713989 -7.122925 5.000000
v 68.366745 -6.800735 5.000000
v 68.366745 -6.800735 -10.000000
v 68.036011 -6.461639 -10.000000
v 68.036011 -6.461639 5.000000
v 67.722580 -6.106483 -10.000000
v 67.722580 -6.106483 5.000000
v 67.427246 -5.736145 -10.000000
v 67.427246 -5.736145 5.000000
v 67.150726 -5.351540 5.000000
v 67.150726 -5.351540 -10.000000
v 66.893738 -4.953636 -10.000000
v 66.893738 -4.953636 5.000000
v 66.656891 -4.543411 -10.000000
v 66.656891 -4.543411 5.000000
v 66.440796 -4.121895 5.000000
v 66.440796 -4.121895 -10.000000
v 66.245972 -3.690132 -10.000000
v 66.245972 -3.690132 5.000000
v 66.072922 -3.249191 -10.000000
v 66.072922 -3.249191 5.000000
v 65.922058 -2.800171 5.000000
v 65.922058 -2.800171 -10.000000
v 65.793762 -2.344193 -10.000000
v 65.793762 -2.344193 5.000000
v 65.688354 -1.882385 -10.000000
v 65.688354 -1.882385 5.000000
v 65.606110 -1.415901 5.000000
v 65.606110 -1.415901 -10.000000
v 65.547211 -0.945892 -10.000000
v 65.547211 -0.945892 5.000000
v 65.511810 -0.473534 -10.000000
v 65.511810 -0.473534 5.000000
v 65.500000 0.000000 -10.000000
v 65.500000 0.000000 5.000000
v 65.511810 0.473534 5.000000
v 65.511810 0.473534 -10.000000
v 65.547211 0.945892 -10.000000
v 65.547211 0.945892 5.000000
v 65.606110 1.415901 -10.000000
v 65.606110 1.415901 5.000000
v 65.688354 1.882385 5.000000
v 65.688354 1.882385 -10.000000
v 65.793762 2.344193 -10.000000
v 65.793762 2.344193 5.000000
v 65.922058 2.800171 -10.000000
v 65.922058 2.800171 5.000000
v 66.072922 3.249191 5.000000
v 66.072922 3.249191 -10.000000
v 66.245972 3.690132 -10.000000
v 66.245972 3.690132 5.000000
v 66.440796 4.121895 -10.000000
v 66.440796 4.121895 5.000000
v 66.656891 4.543411 -10.000000
v 66.656891 4.543411 5.000000
v 66.893738 4.953636 -10.000000
v 66.893738 4.953636 5.000000
v 67.150726 5.351540 5.000000
v 67.150726 5.351540 -10.000000
v 67.427246 5.736145 -10.000000
v 67.427246 5.736145 5.000000
v 67.722580 6.106483 -10.000000
v 67.722580 6.106483 5.000000
v 68.036011 6.461639 -10.000000
v 68.036011 6.461639 5.000000
v 68.366745 6.800735 5.000000
v 68.366745 6.800735 -10.000000
v 68.713989 7.122925 -10.000000
v 68.713989 7.122925 5.000000
v 69.076843 7.427399 5.000000
v 69.076843 7.427399 -10.000000
v 69.454437 7.713409 -10.000000
v 69.454437 7.713409 5.000000
v 69.845810 7.980248 -10.000000
v 69.845810 7.980248 5.000000
v 70.250000 8.227242 -10.000000
v 70.250000 8.227242 5.000000
v 70.666000 8.453781 5.000000
v 70.666000 8.453781 -10.000000
v 71.092773 8.659309 -10.000000
v 71.092773 8.659309 5.000000
v 71.529266 8.843300 5.000000
v 71.529266 8.843300 -10.000000
v 71.974380 9.005310 -10.000000
v 71.974380 9.005310 5.000000
v 72.427017 9.144928 -10.000000
v 72.427017 9.144928 5.000000
v 72.886047 9.261818 -10.000000
v 72.886047 9.261818 5.000000
v 73.350342 9.355675 5.000000
v 73.350342 9.355675 -10.000000
v 73.818741 9.426270 -10.000000
v 73.818741 9.426270 5.000000
v 74.290070 9.473434 5.000000
v 74.290070 9.473434 -10.000000
v 74.763153 9.497047 5.000000
v 74.763153 9.497047 -10.000000
v 75.236847 9.497047 -10.000000
v 75.236847 9.497047 5.000000
v 75.709930 9.473434 5.000000
v 75.709930 9.473434 -10.000000
v 76.181259 9.426270 -10.000000
v 76.181259 9.426270 5.000000
v 76.649658 9.355675 5.000000
v 76.649658 9.355675 -10.000000
v 77.113953 9.261818 -10.000000
v 77.113953 9.261818 5.000000
v 77.572983 9.144928 -10.000000
v 77.572983 9.144928 5.000000
v 78.025620 9.005310 -10.000000
v 78.025620 9.005310 5.000000
v 78.470734 8.843300 5.000000
v 78.470734 8.843300 -10.000000
v 78.907227 8.659309 -10.000000
v 78.907227 8.659309 5.000000
v 79.334000 8.453781 5.000000
v 79.334000 8.453781 -10.000000
v 79.750000 8.227242 -10.000000
v 79.750000 8.227242 5.000000
v 80.154190 7.980248 -10.000000
v 80.154190 7.980248 5.000000
v 80.545563 7.713409 -10.000000
v 80.545563 7.713409 5.000000
v 80.923157 7.427399 5.000000
v 80.923157 7.427399 -10.000000
v 81.286011 7.122925 -10.000000
v 81.286011 7.122925 5.000000
v 81.633255 6.800735 -10.000000
v 81.633255 6.800735 5.000000
v 81.963989 6.461639 -10.000000
v 81.963989 6.461639 5.000000
v 82.277420 6.106483 -10.000000
v 82.277420 6.106483 5.000000
v 82.572754 5.736145 5.000000
v 82.572754 5.736145 -10.000000
v 82.849274 5.351540 -10.000000
v 82.849274 5.351540 5.000000
v 83.106262 4.953636 -10.000000
v 83.106262 4.953636 5.000000
v 83.343109 4.543411 5.000000
v 83.343109 4.543411 -10.000000
v 83.559204 4.121895 -10.000000
v 83.559204 4.121895 5.000000
v 83.754028 3.690132 -10.000000
v 83.754028 3.690132 5.000000
v 83.927078 3.249191 -10.000000
v 83.927078 3.249191 5.000000
v 84.077942 2.800171 -10.000000
v 84.077942 2.800171 5.000000
v 84.206238 2.344193 -10.000000
v 84.206238 2.344193 5.000000
v 84.311646 1.882385 -10.000000
v 84.311646 1.882385 5.000000
v 84.393890 1.415901 5.000000
v 84.393890 1.415901 -10.000000
v 84.452789 0.945892 -10.000000
v 84.452789 0.945892 5.000000
v 84.488190 0.473534 -10.000000
v 84.488190 0.473534 5.000000
v -65.500000 0.000000 5.000000
v -65.500000 0.000000 -10.000000
v -65.511810 -0.473534 5.000000
v -65.511810 -0.473534 -10.000000
v -65.547207 -0.945892 -10.000000
v -65.547207 -0.945892 5.000000
v -65.606106 -1.415901 -10.000000
v -65.606106 -1.415901 5.000000
v -65.688362 -1.882385 -10.000000
v -65.688362 -1.882385 5.000000
v -65.793766 -2.344193 -10.000000
v -65.793766 -2.344193 5.000000
v -65.922058 -2.800171 5.000000
v -65.922058 -2.800171 -10.000000
v -66.072922 -3.249191 -10.000000
v -66.072922 -3.249191 5.000000
v -66.245975 -3.690132 5.000000
v -66.245975 -3.690132 -10.000000
v -66.440796 -4.121895 -10.000000
v -66.440796 -4.121895 5.000000
v -66.656895 -4.543411 -10.000000
v -66.656895 -4.543411 5.000000
v -66.893738 -4.953636 5.000000
v -66.893738 -4.953636 -10.000000
v -67.150730 -5.351540 -10.000000
v -67.150730 -5.351540 5.000000
v -67.427242 -5.736145 -10.000000
v -67.427242 -5.736145 5.000000
v -67.722576 -6.106483 -10.000000
v -67.722576 -6.106483 5.000000
v -68.036007 -6.461639 5.000000
v -68.036007 -6.461639 -10.000000
v -68.366749 -6.800735 -10.000000
v -68.366749 -6.800735 5.000000
v -68.713985 -7.122925 -10.000000
v -68.713985 -7.122925 5.000000
v -69.076847 -7.427399 -10.000000
v -69.076847 -7.427399 5.000000
v -69.454433 -7.713409 -10.000000
v -69.454433 -7.713409 5.000000
v -69.845810 -7.980248 -10.000000
v -69.845810 -7.980248 5.000000
v -70.250000 -8.227242 -10.000000
v -70.250000 -8.227242 5.000000
v -70.666000 -8.453781 -10.000000
v -70.666000 -8.453781 5.000000
v -71.092773 -8.659309 -10.000000
v -71.092773 -8.659309 5.000000
v -71.529259 -8.843300 5.000000
v -71.529259 -8.843300 -10.000000
v -71.974377 -9.005310 -10.000000
v -71.974377 -9.005310 5.000000
v -72.427017 -9.144928 -10.000000
v -72.427017 -9.144928 5.000000
v -72.886051 -9.261818 -10.000000
v -72.886051 -9.261818 5.000000
v -73.350342 -9.355675 -10.000000
v -73.350342 -9.355675 5.000000
v -73.818733 -9.426270 -10.000000
v -73.818733 -9.426270 5.000000
v -74.290066 -9.473434 -10.000000
v -74.290066 -9.473434 5.000000
v -74.763157 -9.497047 -10.000000
v -74.763157 -9.497047 5.000000
v -75.236843 -9.497047 5.000000
v -75.236843 -9.497047 -10.000000
v -75.709934 -9.473434 -10.000000
v -75.709934 -9.473434 5.000000
v -76.181267 -9.426270 5.000000
v -76.181267 -9.426270 -10.000000
v -76.649658 -9.355675 -10.000000
v -76.649658 -9.355675 5.000000
v -77.113949 -9.261818 -10.000000
v -77.113949 -9.261818 5.000000
v -77.572983 -9.144928 -10.000000
v -77.572983 -9.144928 5.000000
v -78.025623 -9.005310 5.000000
v -78.025623 -9.005310 -10.000000
v -78.470741 -8.843300 -10.000000
v -78.470741 -8.843300 5.000000
v -78.907227 -8.659309 -10.000000
v -78.907227 -8.659309 5.000000
v -79.334000 -8.453781 5.000000
v -79.334000 -8.453781 -10.000000
v -79.750000 -8.227242 -10.000000
v -79.750000 -8.227242 5.000000
v -80.154190 -7.980248 -10.000000
v -80.154190 -7.980248 5.000000
v -80.545567 -7.713409 5.000000
v -80.545567 -7.713409 -10.000000
v -80.923153 -7.427399 -10.000000
v -80.923153 -7.427399 5.000000
v -81.286015 -7.122925 -10.000000
v -81.286015 -7.122925 5.000000
v -81.633251 -6.800735 5.000000
v -81.633251 -6.800735 -10.000000
v -81.963993 -6.461639 -10.000000
v -81.963993 -6.461639 5.000000
v -82.277424 -6.106483 -10.000000
v -82.277424 -6.106483 5.000000
v -82.572758 -5.736145 -10.000000
v -82.572758 -5.736145 5.000000
v -82.849270 -5.351540 5.000000
v -82.849270 -5.351540 -10.000000
v -83.106264 -4.953636 -10.000000
v -83.106264 -4.953636 5.000000
v -83.343105 -4.543411 -10.000000
v -83.343105 -4.543411 5.000000
v -83.559204 -4.121895 5.000000
v -83.559204 -4.121895 -10.000000
v -83.754025 -3.690132 -10.000000
v -83.754025 -3.690132 5.000000
v -83.927080 -3.249191 -10.000000
v -83.927080 -3.249191 5.000000
v -84.077942 -2.800171 5.000000
v -84.077942 -2.800171 -10.000000
v -84.206234 -2.344193 -10.000000
v -84.206234 -2.344193 5.000000
v -84.311638 -1.882385 -10.000000
v -84.311638 -1.882385 5.000000
v -84.393892 -1.415901 5.000000
v -84.393892 -1.415901 -10.000000
v -84.452793 -0.945892 -10.000000
v -84.452793 -0.945892 5.000000
v -84.488192 -0.473534 -10.000000
v -84.488192 -0.473534 5.000000
v -84.500000 0.000000 -10.000000
v -84.500000 0.000000 5.000000
v -84.488192 0.473534 5.000000
v -84.488192 0.473534 -10.000000
v -84.452793 0.945892 -10.000000
v -84.452793 0.945892 5.000000
v -84.393892 1.415901 -10.000000
v -84.393892 1.415901 5.000000
v -84.311638 1.882385 5.000000
v -84.311638 1.882385 -10.000000
v -84.206234 2.344193 -10.000000
v -84.206234 2.344193 5.000000
v -84.077942 2.800171 -10.000000
v -84.077942 2.800171 5.000000
v -83.927080 3.249191 5.000000
v -83.927080 3.249191 -10.000000
v -83.754025 3.690132 -10.000000
v -83.754025 3.690132 5.000000
v -83.559204 4.121895 -10.000000
v -83.559204 4.121895 5.000000
v -83.343105 4.543411 -10.000000
v -83.343105 4.543411 5.000000
v -83.106264 4.953636 -10.000000
v -83.106264 4.953636 5.000000
v -82.849270 5.351540 5.000000
v -82.849270 5.351540 -10.000000
v -82.572758 5.736145 -10.000000
v -82.572758 5.736145 5.000000
v -82.277424 6.106483 -10.000000
v -82.277424 6.106483 5.000000
v -81.963993 6.461639 -10.000000
v -81.963993 6.461639 5.000000
v -81.633251 6.800735 5.000000
v -81.633251 6.800735 -10.000000
v -81.286015 7.122925 -10.000000
v -81.286015 7.122925 5.000000
v -80.923153 7.427399 5.000000
v -80.923153 7.427399 -10.000000
v -80.545567 7.713409 -10.000000
v -80.545567 7.713409 5.000000
v -80.154190 7.980248 -10.000000
v -80.154190 7.980248 5.000000
v -79.750000 8.227242 -10.000000
v -79.750000 8.227242 5.000000
v -79.334000 8.453781 5.000000
v -79.334000 8.453781 -10.000000
v -78.907227 8.659309 -10.000000
v -78.907227 8.659309 5.000000
v -78.470741 8.843300 5.000000
v -78.470741 8.843300 -10.000000
v -78.025623 9.005310 -10.000000
v -78.025623 9.005310 5.000000
v -77.572983 9.144928 -10.000000
v -77.572983 9.144928 5.000000
v -77.113949 9.261818 -10.000000
v -77.113949 9.261818 5.000000
v -76.649658 9.355675 5.000000
v -76.649658 9.355675 -10.000000
v -76.181267 9.426270 -10.000000
v -76.181267 9.426270 5.000000
v -75.709934 9.473434 5.000000
v -75.709934 9.473434 -10.000000
v -75.236843 9.497047 5.000000
v -75.236843 9.497047 -10.000000
v -74.763157 9.497047 -10.000000
v -74.763157 9.497047 5.000000
v -74.290066 9.473434 5.000000
v -74.290066 9.473434 -10.000000
v -73.818733 9.426270 -10.000000
v -73.818733 9.426270 5.000000
v -73.350342 9.355675 5.000000
v -73.350342 9.355675 -10.000000
v -72.886051 9.261818 -10.000000
v -72.886051 9.261818 5.000000
v -72.427017 9.144928 -10.000000
v -72.427017 9.144928 5.000000
v -71.974377 9.005310 -10.000000
v -71.974377 9.005310 5.000000
v -71.529259 8.843300 5.000000
v -71.529259 8.843300 -10.000000
v -71.092773 8.659309 -10.000000
v -71.092773 8.659309 5.000000
v -70.666000 8.453781 5.000000
v -70.666000 8.453781 -10.000000
v -70.250000 8.227242 -10.000000
v -70.250000 8.227242 5.000000
v -69.845810 7.980248 -10.000000
v -69.845810 7.980248 5.000000
v -69.454433 7.713409 -10.000000
v -69.454433 7.713409 5.000000
v -69.076847 7.427399 5.000000
v -69.076847 7.427399 -10.000000
v -68.713985 7.122925 -10.000000
v -68.713985 7.122925 5.000000
v -68.366749 6.800735 -10.000000
v -68.366749 6.800735 5.000000
v -68.036007 6.461639 -10.000000
v -68.036007 6.461639 5.000000
v -67.722576 6.106483 -10.000000
v -67.722576 6.106483 5.000000
v -67.427242 5.736145 5.000000
v -67.427242 5.736145 -10.000000
v -67.150730 5.351540 -10.000000
v -67.150730 5.351540 5.000000
v -66.893738 4.953636 -10.000000
v -66.893738 4.953636 5.000000
v -66.656895 4.543411 5.000000
v -66.656895 4.543411 -10.000000
v -66.440796 4.121895 -10.000000
v -66.440796 4.121895 5.000000
v -66.245975 3.690132 -10.000000
v -66.245975 3.690132 5.000000
v -66.072922 3.249191 -10.000000
v -66.072922 3.249191 5.000000
v -65.922058 2.800171 -10.000000
v -65.922058 2.800171 5.000000
v -65.793766 2.344193 -10.000000
v -65.793766 2.344193 5.000000
v -65.688362 1.882385 -10.000000
v -65.688362 1.882385 5.000000
v -65.606106 1.415901 5.000000
v -65.606106 1.415901 -10.000000
v -65.547207 0.945892 -10.000000
v -65.547207 0.945892 5.000000
v -65.511810 0.473534 -10.000000
v -65.511810 0.473534 5.000000
v 17.000000 52.000000 -20.000000
v 17.000000 17.000000 5.000000
v 17.000000 52.000000 25.000000
v 17.000000 17.000000 25.000000
v 17.000000 -17.000000 5.000000
v 17.000000 -52.000000 25.000000
v 17.000000 -17.000000 25.000000
v 17.000000 -52.000000 -20.000000
v -17.000000 52.000000 -20.000000
v -17.000000 52.000000 25.000000
v -17.000000 -52.000000 -20.000000
v -17.000000 -17.000000 5.000000
v -17.000000 -52.000000 25.000000
v -17.000000 -17.000000 25.000000
v -17.000000 17.000000 5.000000
v -17.000000 17.000000 25.000000
v -92.000000 17.000000 5.000000
v -92.000000 17.000000 25.000000
v -92.000000 -17.000000 5.000000
v 92.000000 -17.000000 5.000000
v 92.000000 17.000000 5.000000
v -92.000000 -17.000000 25.000000
v 92.000000 -17.000000 25.000000
v 92.000000 17.000000 25.000000
v -115.000000 115.000000 25.000000
v 115.000000 115.000000 -25.000000
v -115.000000 115.000000 -25.000000
v 115.000000 115.000000 25.000000
v 115.000000 -115.000000 -25.000000
v 115.000000 -115.000000 25.000000
v -115.000000 -115.000000 -25.000000
v -115.000000 -115.000000 25.000000

usemtl mat1
f 1 2 3
f 2 4 3
f 3 5 6
f 4 5 3
f 6 7 8
f 5 7 6
f 8 9 10
f 7 9 8
f 10 11 12
f 12 11 13
f 9 11 10
f 11 14 13
f 13 15 16
f 16 15 17
f 14 15 13
f 15 18 17
f 17 19 20
f 18 19 17
f 20 21 22
f 22 21 23
f 19 21 20
f 21 24 23
f 24 25 23
f 23 25 26
f 25 27 26
f 26 27 28
f 27 29 28
f 28 29 30
f 30 29 31
f 29 32 31
f 32 33 31
f 31 33 34
f 33 35 34
f 34 35 36
f 35 37 36
f 36 37 38
f 37 39 38
f 38 39 40
f 39 41 40
f 40 41 42
f 41 43 42
f 42 43 44
f 43 45 44
f 44 45 46
f 46 47 48
f 45 47 46
f 48 47 49
f 47 50 49
f 50 51 49
f 49 51 52
f 52 53 54
f 51 53 52
f 54 55 56
f 53 55 54
f 56 57 58
f 55 57 56
f 58 59 60
f 57 59 58
f 60 61 62
f 59 61 60
f 62 63 64
f 64 63 65
f 61 63 62
f 63 66 65
f 65 67 68
f 68 67 69
f 66 67 65
f 67 70 69
f 69 71 72
f 70 71 69
f 72 73 74
f 71 73 72
f 73 75 74
f 74 75 76
f 76 75 77
f 75 78 77
f 78 79 77
f 77 79 80
f 79 81 80
f 80 81 82
f 82 81 83
f 81 84 83
f 84 85 83
f 83 85 86
f 85 87 86
f 86 87 88
f 88 87 89
f 87 90 89
f 90 91 89
f 89 91 92
f 91 93 92
f 92 93 94
f 94 93 95
f 93 96 95
f 96 97 95
f 95 97 98
f 97 99 98
f 98 99 100
f 99 101 100
f 100 101 102
f 102 101 103
f 101 104 103
f 104 105 103
f 103 105 106
f 105 107 106
f 106 107 108
f 108 107 109
f 107 110 109
f 110 111 109
f 109 111 112
f 111 113 112
f 112 113 114
f 114 113 115
f 113 116 115
f 115 117 118
f 116 117 115
f 118 119 120
f 120 119 121
f 117 119 118
f 119 122 121
f 121 123 124
f 122 123 121
f 123 125 124
f 124 125 126
f 125 127 126
f 126 127 128
f 128 127 129
f 127 130 129
f 130 131 129
f 129 131 132
f 131 133 132
f 132 133 134
f 134 133 135
f 133 136 135
f 136 137 135
f 135 137 138
f 137 139 138
f 138 139 140
f 140 139 141
f 139 142 141
f 142 143 141
f 141 143 144
f 143 145 144
f 144 145 146
f 145 147 146
f 146 147 148
f 148 149 150
f 150 149 151
f 147 149 148
f 149 152 151
f 151 153 154
f 152 153 151
f 154 155 156
f 153 155 154
f 156 157 158
f 158 157 159
f 155 157 156
f 157 160 159
f 159 161 162
f 162 161 163
f 160 161 159
f 161 164 163
f 163 165 166
f 164 165 163
f 166 167 168
f 165 167 166
f 168 169 170
f 170 169 171
f 167 169 168
f 169 172 171
f 171 173 174
f 174 173 175
f 172 173 171
f 173 176 175
f 176 177 175
f 175 177 178
f 177 179 178
f 178 179 180
f 179 181 180
f 180 181 182
f 182 181 183
f 181 184 183
f 183 185 186
f 186 185 187
f 184 185 183
f 187 188 189
f 185 188 187
f 188 190 189
f 189 191 192
f 192 191 193
f 190 191 189
f 191 194 193
f 193 195 196
f 196 195 197
f 194 195 193
f 195 198 197
f 197 199 200
f 198 199 197
f 200 201 202
f 199 201 200
f 202 203 204
f 204 203 205
f 201 203 202
f 203 206 205
f 205 207 208
f 208 207 209
f 206 207 205
f 207 210 209
f 209 211 212
f 210 211 209
f 212 213 214
f 211 213 212
f 214 215 216
f 216 215 217
f 213 215 214
f 215 218 217
f 217 219 220
f 218 219 217
f 220 221 222
f 219 221 220
f 222 223 224
f 221 223 222
f 223 225 224
f 224 225 226
f 226 225 227
f 225 228 227
f 227 229 230
f 228 229 227
f 229 231 230
f 230 231 232
f 232 231 233
f 231 234 233
f 234 235 233
f 233 235 236
f 235 237 236
f 236 237 238
f 237 239 238
f 238 239 240
f 239 241 240
f 240 241 242
f 241 243 242
f 242 243 244
f 243 245 244
f 244 245 246
f 246 245 247
f 245 248 247
f 248 249 247
f 247 249 250
f 249 251 250
f 250 251 252
f 251 2 252
f 252 2 1
f 219 223 221
f 225 223 219
f 213 218 215
f 231 229 228
f 207 211 210
f 207 213 211
f 207 218 213
f 239 234 231
f 239 235 234
f 239 237 235
f 203 207 206
f 203 219 218
f 203 225 219
f 203 218 207
f 241 228 225
f 241 239 231
f 241 231 228
f 243 241 225
f 248 245 243
f 194 203 201
f 194 198 195
f 194 199 198
f 194 201 199
f 251 249 248
f 251 248 243
f 191 203 194
f 190 203 191
f 4 2 251
f 188 203 190
f 7 5 4
f 184 225 203
f 184 188 185
f 184 203 188
f 9 7 4
f 15 9 4
f 15 11 9
f 15 14 11
f 15 4 251
f 173 177 176
f 173 179 177
f 172 179 173
f 169 179 172
f 24 18 15
f 24 19 18
f 24 21 19
f 24 15 251
f 167 179 169
f 165 179 167
f 165 181 179
f 165 184 181
f 161 184 165
f 161 165 164
f 32 25 24
f 32 27 25
f 32 29 27
f 33 32 24
f 157 184 161
f 157 161 160
f 39 37 35
f 152 155 153
f 41 35 33
f 41 33 24
f 41 39 35
f 149 225 184
f 149 184 157
f 149 155 152
f 149 243 225
f 149 157 155
f 149 251 243
f 45 43 41
f 145 251 149
f 145 149 147
f 47 45 41
f 51 50 47
f 51 47 41
f 139 143 142
f 137 145 143
f 137 143 139
f 133 137 136
f 133 145 137
f 61 53 51
f 61 55 53
f 61 57 55
f 61 59 57
f 127 131 130
f 127 133 131
f 66 61 51
f 66 63 61
f 125 133 127
f 67 66 51
f 67 145 133
f 67 24 251
f 67 41 24
f 67 251 145
f 67 51 41
f 122 133 125
f 122 125 123
f 71 70 67
f 119 133 122
f 73 71 67
f 117 133 119
f 79 73 67
f 79 75 73
f 79 78 75
f 111 133 117
f 111 116 113
f 111 117 116
f 84 79 67
f 84 81 79
f 87 85 84
f 104 107 105
f 104 110 107
f 104 111 110
f 90 84 67
f 90 87 84
f 91 90 67
f 96 67 133
f 96 133 111
f 96 93 91
f 96 111 104
f 96 99 97
f 96 101 99
f 96 104 101
f 96 91 67
f 253 254 255
f 254 256 255
f 255 257 258
f 256 257 255
f 258 259 260
f 257 259 258
f 260 261 262
f 259 261 260
f 262 263 264
f 264 263 265
f 261 263 262
f 263 266 265
f 265 267 268
f 268 267 269
f 266 267 265
f 267 270 269
f 269 271 272
f 270 271 269
f 272 273 274
f 274 273 275
f 271 273 272
f 273 276 275
f 276 277 275
f 275 277 278
f 277 279 278
f 278 279 280
f 279 281 280
f 280 281 282
f 282 281 283
f 281 284 283
f 284 285 283
f 283 285 286
f 285 287 286
f 286 287 288
f 287 289 288
f 288 289 290
f 289 291 290
f 290 291 292
f 291 293 292
f 292 293 294
f 293 295 294
f 294 295 296
f 295 297 296
f 296 297 298
f 298 299 300
f 297 299 298
f 300 299 301
f 299 302 301
f 302 303 301
f 301 303 304
f 304 305 306
f 303 305 304
f 306 307 308
f 305 307 306
f 308 309 310
f 307 309 308
f 310 311 312
f 309 311 310
f 312 313 314
f 311 313 312
f 314 315 316
f 316 315 317
f 313 315 314
f 315 318 317
f 317 319 320
f 320 319 321
f 318 319 317
f 319 322 321
f 321 323 324
f 322 323 321
f 324 325 326
f 323 325 324
f 325 327 326
f 326 327 328
f 328 327 329
f 327 330 329
f 330 331 329
f 329 331 332
f 331 333 332
f 332 333 334
f 334 333 335
f 333 336 335
f 336 337 335
f 335 337 338
f 337 339 338
f 338 339 340
f 340 339 341
f 339 342 341
f 342 343 341
f 341 343 344
f 343 345 344
f 344 345 346
f 346 345 347
f 345 348 347
f 348 349 347
f 347 349 350
f 349 351 350
f 350 351 352
f 351 353 352
f 352 353 354
f 354 353 355
f 353 356 355
f 356 357 355
f 355 357 358
f 357 359 358
f 358 359 360
f 360 359 361
f 359 362 361
f 362 363 361
f 361 363 364
f 363 365 364
f 364 365 366
f 366 365 367
f 365 368 367
f 367 369 370
f 368 369 367
f 370 371 372
f 372 371 373
f 369 371 370
f 371 374 373
f 373 375 376
f 374 375 373
f 375 377 376
f 376 377 378
f 377 379 378
f 378 379 380
f 380 379 381
f 379 382 381
f 382 383 381
f 381 383 384
f 383 385 384
f 384 385 386
f 386 385 387
f 385 388 387
f 388 389 387
f 387 389 390
f 389 391 390
f 390 391 392
f 392 391 393
f 391 394 393
f 394 395 393
f 393 395 396
f 395 397 396
f 396 397 398
f 397 399 398
f 398 399 400
f 400 401 402
f 402 401 403
f 399 401 400
f 401 404 403
f 403 405 406
f 404 405 403
f 406 407 408
f 405 407 406
f 408 409 410
f 410 409 411
f 407 409 408
f 409 412 411
f 411 413 414
f 414 413 415
f 412 413 411
f 413 416 415
f 415 417 418
f 416 417 415
f 418 419 420
f 417 419 418
f 420 421 422
f 422 421 423
f 419 421 420
f 421 424 423
f 423 425 426
f 426 425 427
f 424 425 423
f 425 428 427
f 428 429 427
f 427 429 430
f 429 431 430
f 430 431 432
f 431 433 432
f 432 433 434
f 434 433 435
f 433 436 435
f 435 437 438
f 438 437 439
f 436 437 435
f 439 440 441
f 437 440 439
f 440 442 441
f 441 443 444
f 444 443 445
f 442 443 441
f 443 446 445
f 445 447 448
f 448 447 449
f 446 447 445
f 447 450 449
f 449 451 452
f 450 451 449
f 452 453 454
f 451 453 452
f 454 455 456
f 456 455 457
f 453 455 454
f 455 458 457
f 457 459 460
f 460 459 461
f 458 459 457
f 459 462 461
f 461 463 464
f 462 463 461
f 464 465 466
f 463 465 464
f 466 467 468
f 468 467 469
f 465 467 466
f 467 470 469
f 469 471 472
f 470 471 469
f 472 473 474
f 471 473 472
f 474 475 476
f 473 475 474
f 475 477 476
f 476 477 478
f 478 477 479
f 477 480 479
f 479 481 482
f 480 481 479
f 481 483 482
f 482 483 484
f 484 483 485
f 483 486 485
f 486 487 485
f 485 487 488
f 487 489 488
f 488 489 490
f 489 491 490
f 490 491 492
f 491 493 492
f 492 493 494
f 493 495 494
f 494 495 496
f 495 497 496
f 496 497 498
f 498 497 499
f 497 500 499
f 500 501 499
f 499 501 502
f 501 503 502
f 502 503 504
f 503 254 504
f 504 254 253
f 471 475 473
f 477 475 471
f 465 470 467
f 483 481 480
f 459 463 462
f 459 465 463
f 459 470 465
f 491 486 483
f 491 487 486
f 491 489 487
f 455 459 458
f 455 471 470
f 455 477 471
f 455 470 459
f 493 480 477
f 493 491 483
f 493 483 480
f 495 493 477
f 500 497 495
f 446 455 453
f 446 450 447
f 446 451 450
f 446 453 451
f 503 501 500
f 503 500 495
f 443 455 446
f 442 455 443
f 256 254 503
f 440 455 442
f 259 257 256
f 436 477 455
f 436 440 437
f 436 455 440
f 261 259 256
f 267 261 256
f 267 263 261
f 267 266 263
f 267 256 503
f 425 429 428
f 425 431 429
f 424 431 425
f 421 431 424
f 276 270 267
f 276 271 270
f 276 273 271
f 276 267 503
f 419 431 421
f 417 431 419
f 417 433 431
f 417 436 433
f 413 436 417
f 413 417 416
f 284 277 276
f 284 279 277
f 284 281 279
f 285 284 276
f 409 436 413
f 409 413 412
f 291 289 287
f 404 407 405
f 293 287 285
f 293 285 276
f 293 291 287
f 401 477 436
f 401 436 409
f 401 407 404
f 401 495 477
f 401 409 407
f 401 503 495
f 297 295 293
f 397 503 401
f 397 401 399
f 299 297 293
f 303 302 299
f 303 299 293
f 391 395 394
f 389 397 395
f 389 395 391
f 385 389 388
f 385 397 389
f 313 305 303
f 313 307 305
f 313 309 307
f 313 311 309
f 379 383 382
f 379 385 383
f 318 313 303
f 318 315 313
f 377 385 379
f 319 318 303
f 319 397 385
f 319 276 503
f 319 293 276
f 319 503 397
f 319 303 293
f 374 385 377
f 374 377 375
f 323 322 319
f 371 385 374
f 325 323 319
f 369 385 371
f 331 325 319
f 331 327 325
f 331 330 327
f 363 385 369
f 363 368 365
f 363 369 368
f 336 331 319
f 336 333 331
f 339 337 336
f 356 359 357
f 356 362 359
f 356 363 362
f 342 336 319
f 342 339 336
f 343 342 319
f 348 319 385
f 348 385 363
f 348 345 343
f 348 363 356
f 348 351 349
f 348 353 351
f 348 356 353
f 348 343 319
f 505 506 507
f 507 506 508
f 509 510 511
f 506 512 509
f 505 512 506
f 509 512 510
f 513 505 514
f 514 505 507
f 515 516 517
f 517 516 518
f 515 519 516
f 519 514 520
f 519 513 514
f 515 513 519
f 512 515 510
f 510 515 517
f 505 513 512
f 512 513 515
f 521 519 522
f 522 519 520
f 516 283 286
f 286 288 516
f 516 282 283
f 288 290 516
f 516 280 282
f 290 292 516
f 516 278 280
f 292 294 516
f 516 275 278
f 294 296 516
f 516 274 275
f 296 298 516
f 516 272 274
f 298 300 516
f 516 269 272
f 300 301 516
f 516 268 269
f 301 304 516
f 516 265 268
f 304 306 516
f 516 264 265
f 306 308 516
f 516 262 264
f 516 260 262
f 516 258 260
f 516 255 258
f 519 253 516
f 516 253 255
f 519 504 253
f 519 502 504
f 519 499 502
f 519 498 499
f 519 496 498
f 519 494 496
f 519 492 494
f 519 490 492
f 519 488 490
f 519 485 488
f 519 484 485
f 519 482 484
f 519 479 482
f 519 478 479
f 519 476 478
f 310 523 308
f 312 523 310
f 314 523 312
f 316 523 314
f 317 523 316
f 320 523 317
f 321 523 320
f 324 523 321
f 326 523 324
f 328 523 326
f 329 523 328
f 332 523 329
f 334 523 332
f 335 523 334
f 338 523 335
f 340 523 338
f 341 523 340
f 344 523 341
f 346 523 344
f 347 523 346
f 308 523 516
f 519 474 476
f 347 350 523
f 519 472 474
f 350 352 523
f 519 469 472
f 352 354 523
f 519 468 469
f 354 355 523
f 519 466 468
f 355 358 523
f 519 464 466
f 358 360 523
f 519 461 464
f 360 361 523
f 361 364 523
f 364 366 523
f 366 367 523
f 367 370 523
f 370 372 523
f 372 373 523
f 373 376 523
f 376 378 523
f 378 380 523
f 448 521 445
f 449 521 448
f 380 521 523
f 381 521 380
f 384 521 381
f 386 521 384
f 387 521 386
f 390 521 387
f 392 521 390
f 393 521 392
f 396 521 393
f 398 521 396
f 400 521 398
f 402 521 400
f 403 521 402
f 406 521 403
f 408 521 406
f 410 521 408
f 411 521 410
f 414 521 411
f 415 521 414
f 418 521 415
f 420 521 418
f 422 521 420
f 423 521 422
f 426 521 423
f 427 521 426
f 430 521 427
f 432 521 430
f 434 521 432
f 435 521 434
f 438 521 435
f 439 521 438
f 441 521 439
f 444 521 441
f 445 521 444
f 519 521 449
f 519 449 452
f 519 452 454
f 519 454 456
f 519 456 457
f 519 457 460
f 519 460 461
f 524 31 34
f 34 36 524
f 524 30 31
f 36 38 524
f 524 28 30
f 38 40 524
f 524 26 28
f 40 42 524
f 524 23 26
f 42 44 524
f 524 22 23
f 44 46 524
f 524 20 22
f 46 48 524
f 524 17 20
f 48 49 524
f 524 16 17
f 49 52 524
f 524 13 16
f 52 54 524
f 524 12 13
f 54 56 524
f 524 10 12
f 56 58 524
f 524 8 10
f 58 60 524
f 524 6 8
f 60 62 524
f 524 3 6
f 62 64 524
f 524 1 3
f 64 65 524
f 65 68 524
f 68 69 524
f 69 72 524
f 72 74 524
f 226 525 224
f 227 525 226
f 230 525 227
f 232 525 230
f 233 525 232
f 236 525 233
f 238 525 236
f 240 525 238
f 242 525 240
f 244 525 242
f 246 525 244
f 247 525 246
f 250 525 247
f 252 525 250
f 1 525 252
f 524 525 1
f 525 222 224
f 525 220 222
f 525 217 220
f 525 216 217
f 525 214 216
f 525 212 214
f 525 209 212
f 525 208 209
f 525 205 208
f 525 204 205
f 525 202 204
f 525 200 202
f 525 197 200
f 525 196 197
f 525 193 196
f 525 192 193
f 525 189 192
f 525 187 189
f 525 186 187
f 525 183 186
f 76 509 74
f 77 509 76
f 80 509 77
f 82 509 80
f 83 509 82
f 86 509 83
f 88 509 86
f 89 509 88
f 92 509 89
f 94 509 92
f 95 509 94
f 98 509 95
f 100 509 98
f 102 509 100
f 103 509 102
f 106 509 103
f 108 509 106
f 109 509 108
f 112 509 109
f 114 509 112
f 115 509 114
f 118 509 115
f 120 509 118
f 121 509 120
f 124 509 121
f 126 509 124
f 128 509 126
f 74 509 524
f 128 506 509
f 129 506 128
f 132 506 129
f 134 506 132
f 135 506 134
f 138 506 135
f 140 506 138
f 141 506 140
f 144 506 141
f 146 506 144
f 148 506 146
f 150 506 148
f 151 506 150
f 154 506 151
f 156 506 154
f 158 506 156
f 159 506 158
f 162 506 159
f 163 506 162
f 166 506 163
f 168 506 166
f 170 506 168
f 171 506 170
f 525 506 183
f 183 506 182
f 182 506 180
f 180 506 178
f 178 506 175
f 175 506 174
f 174 506 171
f 518 523 526
f 516 523 518
f 524 509 527
f 527 509 511
f 525 524 528
f 528 524 527
f 508 525 528
f 506 525 508
f 523 521 526
f 526 521 522
f 529 530 531
f 529 532 530
f 532 533 530
f 532 534 533
f 534 535 533
f 534 536 535
f 536 531 535
f 536 529 531
f 517 526 536
f 518 526 517
f 529 526 522
f 529 536 526
f 534 510 517
f 534 517 536
f 514 522 520
f 514 529 522
f 527 511 510
f 527 510 534
f 528 507 508
f 532 528 527
f 532 514 507
f 532 529 514
f 532 507 528
f 532 527 534
f 535 531 533
f 531 530 533