mtllib assembly1.mtl
o obj1

v -17.000000 -82.500000 -20.000000
v -17.000000 -20.500000 15.000000
v -17.000000 -82.500000 25.000000
v -17.000000 -20.500000 25.000000
v -17.000000 -18.500000 -20.000000
v -17.000000 -18.500000 15.000000
v 17.000000 -18.500000 -20.000000
v 17.000000 -18.500000 15.000000
v 17.000000 -82.500000 -20.000000
v 17.000000 -82.500000 25.000000
v 17.000000 -20.500000 15.000000
v 17.000000 -20.500000 25.000000
v 17.000000 82.500000 -20.000000
v 17.000000 20.500000 15.000000
v 17.000000 82.500000 25.000000
v 17.000000 20.500000 25.000000
v 17.000000 18.500000 -20.000000
v 17.000000 18.500000 15.000000
v -17.000000 18.500000 -20.000000
v -17.000000 18.500000 15.000000
v -17.000000 82.500000 -20.000000
v -17.000000 82.500000 25.000000
v -17.000000 20.500000 15.000000
v -17.000000 20.500000 25.000000
v 51.000000 -20.500000 15.000000
v 51.000000 -20.500000 25.000000
v -51.000000 -20.500000 15.000000
v -51.000000 -20.500000 25.000000
v 51.000000 20.500000 15.000000
v -51.000000 20.500000 15.000000
v -51.000000 20.500000 25.000000
v 51.000000 20.500000 25.000000
v -51.000000 52.000000 25.000000
v -51.000000 52.000000 -20.000000
v -51.000000 -52.000000 25.000000
v -51.000000 -52.000000 -20.000000
v -85.000000 52.000000 25.000000
v -85.000000 52.000000 -20.000000
v -85.000000 -52.000000 25.000000
v -85.000000 -20.500000 15.000000
v -85.000000 -20.500000 25.000000
v -85.000000 -52.000000 -20.000000
v -85.000000 20.500000 15.000000
v -85.000000 20.500000 25.000000
v 85.000000 52.000000 25.000000
v 85.000000 20.500000 15.000000
v 85.000000 20.500000 25.000000
v 85.000000 52.000000 -20.000000
v 85.000000 -20.500000 15.000000
v 85.000000 -52.000000 25.000000
v 85.000000 -20.500000 25.000000
v 85.000000 -52.000000 -20.000000
v 51.000000 52.000000 -20.000000
v 51.000000 52.000000 25.000000
v 51.000000 -52.000000 25.000000
v 51.000000 -52.000000 -20.000000
v 102.000000 20.500000 15.000000
v 102.000000 20.500000 25.000000
v -102.000000 20.500000 15.000000
v -102.000000 20.500000 25.000000
v 102.000000 -20.500000 15.000000
v -102.000000 -20.500000 15.000000
v 102.000000 -20.500000 25.000000
v -102.000000 -20.500000 25.000000
v -115.000000 115.000000 25.000000
v 115.000000 115.000000 -25.000000
v -115.000000 115.000000 -25.000000
v 115.000000 115.000000 25.000000
v 115.000000 -115.000000 -25.000000
v 115.000000 -115.000000 25.000000
v -115.000000 -115.000000 -25.000000
v -115.000000 -115.000000 25.000000

usemtl mat1
f 1 2 3
f 3 2 4
f 2 5 6
f 1 5 2
f 5 7 6
f 6 7 8
f 9 1 10
f 10 1 3
f 8 7 11
f 11 10 12
f 7 9 11
f 11 9 10
f 9 7 1
f 7 5 1
f 13 14 15
f 15 14 16
f 14 17 18
f 13 17 14
f 17 19 18
f 18 19 20
f 21 13 22
f 22 13 15
f 20 19 23
f 23 22 24
f 19 21 23
f 23 21 22
f 17 13 19
f 13 21 19
f 25 11 26
f 26 11 12
f 4 27 28
f 2 27 4
f 25 8 11
f 25 29 8
f 29 18 8
f 29 14 18
f 6 27 2
f 8 20 6
f 18 20 8
f 23 30 20
f 6 30 27
f 20 30 6
f 30 23 31
f 31 23 24
f 16 29 32
f 14 29 16
f 33 30 31
f 33 34 30
f 27 35 28
f 30 36 27
f 27 36 35
f 34 36 30
f 37 38 33
f 38 34 33
f 39 40 41
f 39 42 40
f 43 37 44
f 40 38 43
f 43 38 37
f 42 38 40
f 35 36 39
f 36 42 39
f 34 38 36
f 36 38 42
f 45 46 47
f 45 48 46
f 49 50 51
f 46 52 49
f 49 52 50
f 48 52 46
f 53 48 54
f 54 48 45
f 55 25 26
f 55 56 25
f 29 54 32
f 25 53 29
f 29 53 54
f 56 53 25
f 52 56 50
f 50 56 55
f 48 53 52
f 52 53 56
f 47 57 58
f 46 57 47
f 59 44 60
f 59 43 44
f 57 46 61
f 61 46 49
f 40 59 62
f 43 59 40
f 61 49 63
f 63 49 51
f 41 62 64
f 40 62 41
f 57 63 58
f 57 61 63
f 62 60 64
f 62 59 60
f 65 66 67
f 65 68 66
f 68 69 66
f 68 70 69
f 70 71 69
f 70 72 71
f 72 67 71
f 72 65 67
f 64 72 39
f 41 64 39
f 35 39 72
f 3 35 72
f 4 28 35
f 4 35 3
f 37 60 44
f 55 12 10
f 65 60 37
f 70 10 3
f 70 3 72
f 70 55 10
f 33 65 37
f 24 33 31
f 26 12 55
f 50 55 70
f 22 65 33
f 22 33 24
f 63 51 50
f 63 50 70
f 54 15 16
f 54 16 32
f 45 47 58
f 68 54 45
f 68 15 54
f 68 45 58
f 65 72 64
f 65 64 60
f 70 68 58
f 70 58 63
f 68 65 22
f 68 22 15
f 71 67 69
f 67 66 69
