mtllib assembly1.mtl
o obj2

v -15.000000 -50.000000 -50.000000
v 15.000000 -50.000000 50.000000
v -15.000000 -50.000000 50.000000
v 15.000000 -50.000000 -50.000000
v -15.000000 -20.000000 50.000000
v 15.000000 -20.000000 50.000000
v 15.000000 -20.000000 -15.000000
v -15.000000 -20.000000 -15.000000
v -15.000000 20.000000 -15.000000
v 15.000000 20.000000 -15.000000
v 15.000000 20.000000 50.000000
v -15.000000 20.000000 50.000000
v -15.000000 50.000000 50.000000
v 15.000000 50.000000 50.000000
v 15.000000 50.000000 -50.000000
v -15.000000 50.000000 -50.000000

usemtl mat2
f 1 2 3
f 4 2 1
f 2 5 3
f 2 6 5
f 5 7 8
f 6 7 5
f 7 9 8
f 7 10 9
f 9 11 12
f 10 11 9
f 11 13 12
f 11 14 13
f 13 15 16
f 14 15 13
f 16 4 1
f 15 4 16
f 2 4 7
f 10 4 15
f 10 7 4
f 6 2 7
f 14 11 10
f 14 10 15
f 1 3 8
f 1 9 16
f 8 9 1
f 3 5 8
f 12 13 9
f 9 13 16