mtllib assembly2.mtl
o obj3

v 100 65 5
v 130 65 105
v 100 65 105
v 130 65 5
v 100 95 105
v 130 95 105
v 130 95 60
v 100 95 60
v 130 135 60
v 130 135 105
v 100 135 105
v 100 135 60
v 100 165 105
v 130 165 105
v 130 165 5
v 100 165 5

usemtl mat3
f 1 2 3
f 4 2 1
f 2 5 3
f 2 6 5
f 6 7 8
f 6 8 5
f 9 10 11
f 9 11 12
f 10 13 11
f 10 14 13
f 13 15 16
f 14 15 13
f 16 4 1
f 15 4 16
f 15 7 4
f 2 4 7
f 9 7 15
f 6 2 7
f 14 10 9
f 14 9 15
f 13 16 12
f 1 12 16
f 8 12 1
f 11 13 12
f 3 5 8
f 3 8 1
f 9 12 8
f 9 8 7
