# https://github.com/mikedh/trimesh
v 38.15092161 -115.00000000 -24.99999747
v 38.15092161 -115.00000000 15.03737077
v 38.15092161 -78.69616628 -24.99999747
v 115.00000000 -115.00000000 -24.99999747
v 38.15092161 -101.49977565 15.03737077
v 115.00000000 -115.00000000 15.03737077
v 38.15092161 -78.69616628 14.99817997
v 115.00000000 -78.69616628 -24.99999747
v 56.50742918 -78.69616628 15.03737077
v 115.00000000 -78.69616628 15.03737077
f 1 2 5
f 1 5 7
f 1 7 3
f 1 3 8
f 1 8 4
f 1 4 6
f 1 6 2
f 2 6 10
f 2 10 9
f 2 9 5
f 3 7 9
f 3 9 10
f 3 10 8
f 4 8 10
f 4 10 6
f 5 9 7

