# https://github.com/mikedh/trimesh
v -15.47123194 51.26109555 -24.99999918
v -15.47123194 67.94988126 -24.99999918
v -2.06258073 51.25946075 -24.99999918
v -15.47123194 51.26109555 -0.00115413
v -15.47123194 67.94988126 -0.00115413
v -2.07535073 67.94988126 -24.99999918
v 114.98853922 51.25946075 -24.99999918
v -2.06258073 51.25946075 -0.00115413
v 16.50520414 51.25946075 0.01108721
v 16.50520414 66.38147473 0.01108721
v -2.07535073 67.94988126 -0.00115413
v 114.98853922 66.38147473 -24.99999918
v 114.98853922 51.25946075 0.01108721
v 114.98853922 66.38147473 0.01108721
f 1 2 6
f 1 6 12
f 1 12 7
f 1 7 3
f 1 3 8
f 1 8 4
f 1 4 5
f 1 5 2
f 2 5 11
f 2 11 6
f 3 7 13
f 3 13 9
f 3 9 8
f 4 8 9
f 4 9 10
f 4 10 5
f 5 10 14
f 5 14 11
f 6 11 14
f 6 14 12
f 7 12 14
f 7 14 13
f 9 13 14
f 9 14 10

