# https://github.com/mikedh/trimesh
v 16.49718776 35.02692997 -24.99608353
v 16.49718776 35.02692997 -0.00489242
v 16.49718776 51.25639677 -24.99608353
v 27.57220596 35.02692997 -24.99608353
v 16.49718776 51.25639677 -0.00489242
v 16.50113083 35.02692997 14.99608591
v 56.78612083 51.25639677 -24.99608353
v 56.78612083 36.65067315 -24.99608353
v 27.57220596 35.02692997 14.99608591
v 16.50113083 51.25639677 14.99608591
v 56.78612083 51.25639677 -0.00489242
v 56.78612083 36.65067315 -0.00489242
v 56.49425820 36.65067315 14.99608591
v 56.49425820 51.25639677 14.99608591
f 1 2 5
f 1 5 3
f 1 3 7
f 1 7 8
f 1 8 4
f 1 4 9
f 1 9 6
f 1 6 2
f 2 6 10
f 2 10 5
f 3 5 10
f 3 10 14
f 3 14 11
f 3 11 7
f 4 8 12
f 4 12 9
f 6 9 13
f 6 13 14
f 6 14 10
f 7 11 12
f 7 12 8
f 9 12 13
f 11 14 13
f 11 13 12

