# https://github.com/mikedh/trimesh
v -16.47974811 -0.02347335 15.03737077
v -16.47974811 -0.02347335 -24.99999747
v -16.50209561 -0.02347335 15.03737077
v -16.47974811 -34.99626964 15.03737077
v -49.09259170 -0.02347335 -24.99999747
v -16.47974811 -51.27342343 -24.99999747
v -49.09259170 -0.02347335 14.99817997
v -16.50209561 -34.99626964 15.03737077
v -16.50209561 -51.27342343 14.99817997
v -16.47974811 -51.27342343 -0.00015765
v -49.09259170 -51.27342343 -24.99999747
v -49.09259170 -51.27342343 14.99817997
f 1 2 5
f 1 5 7
f 1 7 3
f 1 3 8
f 1 8 4
f 1 4 10
f 1 10 6
f 1 6 2
f 2 6 11
f 2 11 5
f 3 7 12
f 3 12 8
f 4 8 12
f 4 12 9
f 4 9 10
f 5 11 12
f 5 12 7
f 6 10 9
f 6 9 12
f 6 12 11

