# https://github.com/mikedh/trimesh
v -115.00000000 -99.40920442 -24.99999747
v -115.00000000 -99.40920442 15.03737077
v -115.00000000 -78.70021731 -24.99999747
v 38.14340562 -99.40920442 -24.99999747
v -115.00000000 -78.70021731 15.03737077
v 16.49705410 -99.40920442 15.03737077
v -25.76128945 -78.69819522 -24.99999747
v 38.14340562 -78.69819522 -24.99999747
v 38.14340562 -99.40920442 14.99817997
v -16.51212379 -78.69819522 15.03737077
v -25.76128945 -78.69819522 14.99817997
v 16.49705410 -78.69819522 15.03737077
v 38.14340562 -78.69819522 14.99817997
f 1 2 5
f 1 5 3
f 1 3 7
f 1 7 8
f 1 8 4
f 1 4 9
f 1 9 6
f 1 6 2
f 2 6 12
f 2 12 10
f 2 10 5
f 3 5 11
f 3 11 7
f 4 8 13
f 4 13 9
f 5 10 11
f 6 9 13
f 6 13 12
f 7 11 10
f 7 10 12
f 7 12 13
f 7 13 8

