# https://github.com/mikedh/trimesh
v -16.47974811 -0.02848916 15.03737077
v -16.50209561 -0.02848916 15.03737077
v -16.47974811 -34.99443948 15.03737077
v -16.47974811 -0.02848916 -24.99999747
v -49.09259170 -0.02848916 14.99426089
v -16.50209561 -34.99443948 15.03737077
v -16.50209561 -51.26840591 14.99817997
v -16.47974811 -51.26840591 -0.00407588
v -19.79690395 -0.02848916 -24.99999747
v -16.47974811 -51.26840591 -24.99999747
v -49.09259170 -0.02848916 -24.99607839
v -49.09259170 -51.26840591 14.99426089
v -19.79690395 -51.26840591 14.99817997
v -19.79690395 -51.26840591 -24.99999747
v -49.09259170 -51.26840591 -24.99607839
f 1 2 6
f 1 6 3
f 1 3 8
f 1 8 10
f 1 10 4
f 1 4 9
f 1 9 11
f 1 11 5
f 1 5 2
f 2 5 12
f 2 12 6
f 3 6 13
f 3 13 7
f 3 7 8
f 4 10 14
f 4 14 9
f 5 11 15
f 5 15 12
f 6 12 13
f 7 13 12
f 7 12 15
f 7 15 14
f 7 14 10
f 7 10 8
f 9 14 15
f 9 15 11

