# https://github.com/mikedh/trimesh
v -15.47122851 115.00000000 15.03737077
v -15.47122851 115.00000000 -24.99999747
v -49.09578249 115.00000000 15.03737077
v -15.47122851 68.00461471 15.03737077
v -49.09578249 115.00000000 -24.99999747
v -15.47122851 51.25798702 -24.99999747
v -49.09578249 101.49787694 15.03737077
v -16.50142387 68.00461471 15.03737077
v -16.50142387 51.25798702 14.99817997
v -15.47122851 51.25798702 -0.00015765
v -49.09578249 51.25798702 -24.99999747
v -49.09578249 51.25798702 14.99817997
f 1 2 5
f 1 5 3
f 1 3 7
f 1 7 8
f 1 8 4
f 1 4 10
f 1 10 6
f 1 6 2
f 2 6 11
f 2 11 5
f 3 5 11
f 3 11 12
f 3 12 7
f 4 8 12
f 4 12 9
f 4 9 10
f 6 10 9
f 6 9 12
f 6 12 11
f 7 12 8

