# https://github.com/mikedh/trimesh
v -56.52012035 -51.27844095 -24.99608353
v -56.52012035 -35.02243683 -24.99608353
v -49.09578249 -51.27844095 -24.99608353
v -56.52012035 -51.27844095 -0.00391522
v -49.09578249 -35.02243683 -24.99608353
v -56.52012035 -35.02243683 -0.02349220
v -49.09578249 -51.27844095 14.99608591
v -56.49977267 -51.27844095 14.99608591
v -56.52012035 -35.05108193 0.00783131
v -49.09578249 -35.02243683 14.99608591
v -56.52012035 -35.03039151 -0.00391522
v -56.49977267 -35.02243683 14.98825461
v -56.47433549 -35.02243683 14.99608591
f 1 2 5
f 1 5 3
f 1 3 7
f 1 7 8
f 1 8 4
f 1 4 9
f 1 9 11
f 1 11 6
f 1 6 2
f 2 6 12
f 2 12 13
f 2 13 10
f 2 10 5
f 3 5 10
f 3 10 7
f 4 8 9
f 6 11 12
f 7 10 13
f 7 13 8
f 8 13 12
f 8 12 9
f 9 12 11

