# https://github.com/mikedh/trimesh
v -79.49792743 67.94988126 0.00000000
v -79.49792743 51.26288459 0.00000000
v -79.49792743 67.94988126 -24.99999918
v -79.50139582 67.94988126 24.99999918
v -79.49792743 51.25961497 -24.99999918
v -79.50139582 51.25961497 24.99999918
v -115.00000000 67.94988126 -24.99999918
v -115.00000000 67.94988126 24.99999918
v -115.00000000 51.25961497 -24.99999918
v -115.00000000 51.25961497 24.99999918
f 1 2 5
f 1 5 3
f 1 3 7
f 1 7 8
f 1 8 4
f 1 4 6
f 1 6 2
f 2 6 5
f 3 5 9
f 3 9 7
f 4 8 10
f 4 10 6
f 5 6 10
f 5 10 9
f 7 9 10
f 7 10 8

