# https://github.com/mikedh/trimesh
v 114.98853922 115.00000000 15.03737077
v 114.98853922 67.95448065 15.03737077
v 114.98853922 115.00000000 6.93283349
v -2.06430808 115.00000000 15.03737077
v 114.98853922 67.95448065 6.93283349
v 79.49679643 67.95448065 15.03737077
v -2.06430808 115.00000000 6.93283349
v -2.06430808 68.00053626 15.03737077
v 16.53533667 67.95448065 6.93283349
v 16.50095433 67.95448065 14.99929041
v -2.06430808 68.00053626 6.93283349
v 16.50095433 67.95448065 6.93442032
f 1 2 5
f 1 5 3
f 1 3 7
f 1 7 4
f 1 4 8
f 1 8 6
f 1 6 2
f 2 6 10
f 2 10 12
f 2 12 9
f 2 9 5
f 3 5 9
f 3 9 11
f 3 11 7
f 4 7 11
f 4 11 8
f 6 8 10
f 8 11 12
f 8 12 10
f 9 12 11

