# https://github.com/mikedh/trimesh
v 114.99651790 -64.48596299 24.99999747
v 114.99651790 -78.69616628 24.99999747
v 114.99651790 -64.48596299 15.03834412
v 79.50010717 -64.48596299 24.99999747
v 114.99651790 -78.69616628 15.03834412
v 79.43047881 -78.69616628 24.99999747
v 79.50010717 -64.48596299 15.03834412
v 79.43047881 -68.00095439 24.99999747
v 79.43047881 -78.69616628 15.03834412
v 79.43047881 -68.00095439 15.03834412
f 1 2 5
f 1 5 3
f 1 3 7
f 1 7 4
f 1 4 8
f 1 8 6
f 1 6 2
f 2 6 9
f 2 9 5
f 3 5 9
f 3 9 10
f 3 10 7
f 4 7 10
f 4 10 8
f 6 8 10
f 6 10 9

