# https://github.com/mikedh/trimesh
v -56.56035304 34.99465540 0.04320413
v -77.05162644 34.99465540 0.04320413
v -56.56035304 -0.01845583 0.04320413
v -56.56035304 51.25647902 -0.00092022
v -77.05162644 -0.01845583 0.04320413
v -77.05162644 51.25647902 -0.00092022
v -56.56035304 -0.01845583 -24.99999918
v -56.56035304 51.25647902 -24.99999918
v -77.05162644 -0.01845583 -24.99999918
v -77.05162644 51.25647902 -24.99999918
f 1 2 5
f 1 5 3
f 1 3 7
f 1 7 8
f 1 8 4
f 1 4 6
f 1 6 2
f 2 6 10
f 2 10 9
f 2 9 5
f 3 5 9
f 3 9 7
f 4 8 10
f 4 10 6
f 7 9 10
f 7 10 8

