# https://github.com/mikedh/trimesh
v 79.48112011 66.38202310 -25.00000089
v 114.99652475 66.38202310 -25.00000089
v 79.48112011 66.38202310 -0.00324219
v 79.48112011 114.99524295 -25.00000089
v 115.00000000 66.38202310 1.07827306
v 114.99652475 114.99524295 -25.00000089
v 79.50546056 66.38202310 6.93283435
v 79.48807061 68.00468326 6.93283435
v 79.48112011 68.00468326 1.07827306
v 79.48112011 114.99524295 1.07827306
v 115.00000000 66.38202310 6.93283435
v 115.00000000 114.99524295 1.07827306
v 79.48807061 114.99524295 6.93283435
v 115.00000000 114.99524295 6.93283435
f 1 2 5
f 1 5 11
f 1 11 7
f 1 7 3
f 1 3 9
f 1 9 10
f 1 10 4
f 1 4 6
f 1 6 2
f 2 6 12
f 2 12 5
f 3 7 8
f 3 8 9
f 4 10 13
f 4 13 14
f 4 14 12
f 4 12 6
f 5 12 14
f 5 14 11
f 7 11 14
f 7 14 13
f 7 13 8
f 8 13 10
f 8 10 9

