# https://github.com/mikedh/trimesh
v -15.47122851 -68.05520803 15.03737077
v -15.47122851 -78.69616628 15.03737077
v -15.47122851 -68.00095439 15.03344998
v -16.50142387 -64.48596299 14.99817997
v -16.50142387 -68.00095439 15.03737077
v -16.50142387 -78.69616628 15.03737077
v -15.47122851 -78.69616628 -24.99999747
v -15.47122851 -64.48596299 -0.00015765
v -49.09578249 -64.48596299 14.99817997
v -49.09578249 -78.69616628 14.99817997
v -49.09578249 -78.69616628 -24.99999747
v -15.47122851 -64.48596299 -24.99999747
v -49.09578249 -64.48596299 -24.99999747
f 1 2 7
f 1 7 12
f 1 12 8
f 1 8 3
f 1 3 4
f 1 4 5
f 1 5 6
f 1 6 2
f 2 6 10
f 2 10 11
f 2 11 7
f 3 8 4
f 4 9 5
f 4 8 12
f 4 12 13
f 4 13 9
f 5 9 10
f 5 10 6
f 7 11 13
f 7 13 12
f 9 13 11
f 9 11 10

