# https://github.com/mikedh/trimesh
v -56.55634999 35.61647475 -24.99608353
v -56.55634999 51.25645161 -24.99608353
v -53.78072977 35.61647475 -24.99608353
v -56.55634999 35.61647475 -0.00391522
v -53.78072977 51.25645161 -24.99608353
v -56.55634999 51.25645161 -0.00391522
v -53.78072977 35.61647475 14.99608591
v -56.49983093 35.61647475 14.99608591
v -53.78072977 51.25645161 14.99608591
v -56.49983093 51.25645161 14.99608591
f 1 2 5
f 1 5 3
f 1 3 7
f 1 7 8
f 1 8 4
f 1 4 6
f 1 6 2
f 2 6 10
f 2 10 9
f 2 9 5
f 3 5 9
f 3 9 7
f 4 8 10
f 4 10 6
f 7 9 10
f 7 10 8

