# https://github.com/mikedh/trimesh
v -114.99354988 -78.69616628 -24.99999918
v -114.99354988 -78.69616628 24.99999918
v -114.99354988 -64.48596299 -24.99999918
v -49.10222918 -78.69616628 -24.99999918
v -114.99354988 -64.48596299 24.99999918
v -56.50161654 -78.69616628 24.99999918
v -49.10222918 -64.48596299 -24.99999918
v -49.10222918 -78.69616628 14.99608420
v -79.50616658 -64.48596299 24.99999918
v -56.50161654 -68.00095439 24.99999918
v -49.10222918 -64.48596299 14.99608420
f 1 2 5
f 1 5 3
f 1 3 7
f 1 7 4
f 1 4 8
f 1 8 6
f 1 6 2
f 2 6 10
f 2 10 9
f 2 9 5
f 3 5 9
f 3 9 11
f 3 11 7
f 4 7 11
f 4 11 8
f 6 8 11
f 6 11 10
f 9 10 11

