# https://github.com/mikedh/trimesh
v -2.06430808 -67.75265574 -24.99999918
v -2.06430808 -67.75265574 -0.00040013
v -2.06430808 -64.48596299 -24.99999918
v 114.98853922 -67.75265574 -24.99999918
v -2.06430808 -64.48596299 -0.00040013
v 16.50095433 -67.75265574 0.00694364
v 114.98853922 -64.48596299 -24.99999918
v 114.98853922 -67.75265574 0.00694364
v 16.50095433 -64.48596299 0.00694364
v 114.98853922 -64.48596299 0.00694364
f 1 2 5
f 1 5 3
f 1 3 7
f 1 7 4
f 1 4 8
f 1 8 6
f 1 6 2
f 2 6 9
f 2 9 5
f 3 5 9
f 3 9 10
f 3 10 7
f 4 7 10
f 4 10 8
f 6 8 10
f 6 10 9

