# https://github.com/mikedh/trimesh
v -56.50513291 -78.69819522 24.99999747
v -56.50513291 -99.41111684 24.99999747
v -56.44208834 -101.49697900 24.99902241
v -56.50513291 -78.69819522 15.03834412
v -114.98855293 -78.69819522 24.99999747
v -56.44208834 -114.99644935 24.99902241
v -114.98855293 -99.41111684 24.99999747
v -56.44208834 -101.49697900 15.51809467
v -56.50513291 -99.41111684 15.03834412
v -114.98855293 -78.69819522 15.03834412
v -56.44208834 -114.99644935 15.51809467
v -114.98855293 -114.99644935 24.99902241
v -114.98855293 -99.41111684 15.03834412
v -114.98855293 -114.99644935 15.51809467
f 1 2 6
f 1 6 3
f 1 3 8
f 1 8 4
f 1 4 10
f 1 10 5
f 1 5 7
f 1 7 2
f 2 7 12
f 2 12 6
f 3 6 11
f 3 11 8
f 4 8 11
f 4 11 9
f 4 9 13
f 4 13 10
f 5 10 13
f 5 13 14
f 5 14 12
f 5 12 7
f 6 12 14
f 6 14 11
f 9 11 14
f 9 14 13

