# https://github.com/mikedh/trimesh
v 114.99652475 -42.34622896 15.03737077
v 79.50276673 -42.34622896 15.03737077
v 114.99652475 -51.27756700 15.03737077
v 114.99652475 -42.34622896 -24.99999747
v 79.50276673 -51.27756700 15.03737077
v 79.47495103 -42.34622896 -0.00015765
v 114.99652475 -51.27756700 -24.99999747
v 79.47495103 -42.34622896 -24.99999747
v 79.47495103 -51.27756700 -0.00015765
v 79.47495103 -51.27756700 -24.99999747
f 1 2 5
f 1 5 3
f 1 3 7
f 1 7 4
f 1 4 8
f 1 8 6
f 1 6 2
f 2 6 9
f 2 9 5
f 3 5 9
f 3 9 10
f 3 10 7
f 4 7 10
f 4 10 8
f 6 8 10
f 6 10 9

