# https://github.com/mikedh/trimesh
v -56.52255028 -35.05127728 0.00971459
v -56.52051449 -51.27698094 -0.00007711
v -56.52255028 -35.03108725 -0.00007711
v -56.52865082 -35.02531916 -0.00007711
v -77.28490680 -35.02531916 -0.00007711
v -77.29507208 -51.27698094 -0.00007711
v -77.29507208 -64.48596299 -0.00007711
v -56.52051449 -64.48596299 -0.00007711
v -56.52255028 -35.02531916 -0.02211016
v -56.52051449 -51.27698094 -24.99999918
v -77.28490680 -35.02531916 -24.99755040
v -77.29507208 -51.27698094 -24.99999918
v -77.29507208 -64.48596299 -24.99999918
v -56.52051449 -64.48596299 -24.99999918
v -56.52255028 -35.02531916 -24.99755040
f 1 2 3
f 1 3 4
f 1 4 5
f 1 5 6
f 1 6 7
f 1 7 8
f 1 8 2
f 2 9 3
f 2 8 14
f 2 14 10
f 2 10 15
f 2 15 9
f 3 9 4
f 4 9 15
f 4 15 11
f 4 11 5
f 5 11 12
f 5 12 6
f 6 12 13
f 6 13 7
f 7 13 14
f 7 14 8
f 10 14 13
f 10 13 12
f 10 12 11
f 10 11 15

