# https://github.com/mikedh/trimesh
v -15.47122851 115.00000000 15.03737077
v -15.47122851 115.00000000 -0.14883593
v -20.83478667 115.00000000 15.03737077
v -15.47122851 68.00053626 15.03737077
v -20.83478667 115.00000000 -0.14883593
v -15.47122851 67.95448065 -0.14883593
v -20.83478667 101.49657458 15.03737077
v -16.50035970 68.00053626 15.03737077
v -16.50035970 67.95448065 14.99872148
v -15.47122851 67.95448065 0.00130150
v -20.83478667 67.95448065 -0.14883593
v -20.83478667 67.95448065 14.99872148
f 1 2 5
f 1 5 3
f 1 3 7
f 1 7 8
f 1 8 4
f 1 4 10
f 1 10 6
f 1 6 2
f 2 6 11
f 2 11 5
f 3 5 11
f 3 11 12
f 3 12 7
f 4 8 12
f 4 12 9
f 4 9 10
f 6 10 9
f 6 9 12
f 6 12 11
f 7 12 8

