# https://github.com/mikedh/trimesh
v 0.52094974 51.25798360 -0.00105046
v 0.52094974 34.99568358 0.01854151
v 0.52094974 51.25798360 -24.99999918
v -16.50405258 51.25798360 0.01854151
v 0.52094974 -0.01845583 0.01854151
v 0.52094974 -0.01845583 -24.99999918
v -53.78046244 51.25798360 -24.99999918
v -53.78046244 51.25798360 0.01854151
v -53.78046244 -0.01845583 0.01854151
v -53.78046244 -0.01845583 -24.99999918
f 1 2 5
f 1 5 6
f 1 6 3
f 1 3 7
f 1 7 8
f 1 8 4
f 1 4 2
f 2 4 8
f 2 8 9
f 2 9 5
f 3 6 10
f 3 10 7
f 5 9 10
f 5 10 6
f 7 10 9
f 7 9 8

