# https://github.com/mikedh/trimesh
v 27.57088646 -0.01845583 3.63118432
v 56.60052061 -0.01845583 3.63118432
v 27.57088646 -0.01845583 14.99941036
v 27.57088646 36.64991572 3.63118432
v 56.60052061 -0.01845583 15.03737077
v 56.60052061 34.99883324 3.63118432
v 56.49821326 -0.01845583 15.03737077
v 27.57088646 36.64991572 14.99941036
v 56.49821326 36.64991572 3.63118432
v 56.60052061 34.73322690 15.03737077
v 56.60052061 34.99883324 15.02508916
v 56.49821326 34.99883324 15.03737077
v 56.49821326 36.64991572 14.99941036
v 56.58346653 34.99883324 15.03737077
f 1 2 5
f 1 5 7
f 1 7 3
f 1 3 8
f 1 8 4
f 1 4 9
f 1 9 6
f 1 6 2
f 2 6 11
f 2 11 10
f 2 10 5
f 3 7 12
f 3 12 8
f 4 8 13
f 4 13 9
f 5 10 14
f 5 14 12
f 5 12 7
f 6 9 13
f 6 13 11
f 8 12 14
f 8 14 13
f 10 11 14
f 11 13 14

