# https://github.com/mikedh/trimesh
v 0.53215176 -0.01845583 -24.99999747
v 0.53215176 -0.01845583 15.03737077
v 0.53215176 35.02395853 -24.99999747
v 115.00000000 -0.01845583 -24.99999747
v 0.53215176 34.99883324 15.03737077
v 115.00000000 -0.01845583 15.03737077
v 0.53215176 35.02395853 -0.00407588
v 27.57188722 36.64991572 -24.99999747
v 115.00000000 36.64991572 -24.99999747
v 79.48863268 36.64991572 15.03737077
v 27.57188722 36.64991572 14.99817997
v 115.00000000 36.64991572 15.03737077
f 1 2 5
f 1 5 7
f 1 7 3
f 1 3 8
f 1 8 9
f 1 9 4
f 1 4 6
f 1 6 2
f 2 6 12
f 2 12 10
f 2 10 5
f 3 7 11
f 3 11 8
f 4 9 12
f 4 12 6
f 5 10 11
f 5 11 7
f 8 11 10
f 8 10 12
f 8 12 9

