# https://github.com/mikedh/trimesh
v 114.99652475 51.25798360 15.03737077
v 79.50156033 51.25798360 15.03737077
v 114.99652475 36.64991572 15.03737077
v 114.99652475 51.25798360 -24.99999747
v 79.50156033 36.64991572 15.03737077
v 79.47721988 51.25798360 -0.00015765
v 114.99652475 36.64991572 -24.99999747
v 79.47721988 51.25798360 -24.99999747
v 79.47721988 36.64991572 -0.00015765
v 79.47721988 36.64991572 -24.99999747
f 1 2 5
f 1 5 3
f 1 3 7
f 1 7 4
f 1 4 8
f 1 8 6
f 1 6 2
f 2 6 9
f 2 9 5
f 3 5 9
f 3 9 10
f 3 10 7
f 4 7 10
f 4 10 8
f 6 8 10
f 6 10 9

