# https://github.com/mikedh/trimesh
v 56.49608493 67.94988126 14.99999985
v 56.49608493 51.26109555 14.99999985
v 56.49608493 67.94988126 6.93333559
v 16.50000155 67.94988126 14.99999985
v 56.49608493 51.25946075 6.93333559
v 16.50000155 51.26109555 14.99999985
v 56.49608493 66.38147473 0.01255408
v 16.53523728 67.94988126 6.93333559
v 16.50000155 67.94988126 6.93480289
v 56.49608493 51.25946075 0.01255408
v 16.50000155 51.25946075 6.93333559
v 16.50000155 66.38147473 0.01255408
v 16.50000155 51.25946075 0.01255408
f 1 2 5
f 1 5 10
f 1 10 7
f 1 7 3
f 1 3 8
f 1 8 9
f 1 9 4
f 1 4 6
f 1 6 2
f 2 6 11
f 2 11 5
f 3 7 12
f 3 12 8
f 4 9 12
f 4 12 13
f 4 13 11
f 4 11 6
f 5 11 13
f 5 13 10
f 7 10 13
f 7 13 12
f 8 12 9

