# https://github.com/mikedh/trimesh
v 16.44755065 68.00008386 1.08114768
v 16.50145300 66.38202310 1.08114768
v 16.44755065 68.00008386 6.93283349
v 16.44755065 114.99524295 1.08114768
v 16.50145300 66.38202310 6.93283349
v 56.49721935 66.38202310 1.08114768
v 16.44755065 114.99524295 6.93283349
v 58.80674154 114.99524295 1.08114768
v 56.49721935 66.38202310 6.93283349
v 58.80674154 68.00008386 1.08114768
v 58.80674154 114.99524295 6.93283349
v 58.80674154 68.00008386 6.93283349
f 1 2 5
f 1 5 3
f 1 3 7
f 1 7 4
f 1 4 8
f 1 8 10
f 1 10 6
f 1 6 2
f 2 6 9
f 2 9 5
f 3 5 9
f 3 9 12
f 3 12 11
f 3 11 7
f 4 7 11
f 4 11 8
f 6 10 12
f 6 12 9
f 8 11 12
f 8 12 10

