# https://github.com/mikedh/trimesh
v -49.09578249 -64.48596299 14.99608591
v -56.49977267 -64.48596299 14.99608591
v -49.09578249 -67.99468935 14.99608591
v -49.09578249 -64.48596299 -24.99608353
v -56.49977267 -67.99468935 14.99608591
v -56.52012035 -64.48596299 -0.00391522
v -49.09578249 -67.99468935 -24.99608353
v -56.52012035 -64.48596299 -24.99608353
v -56.52012035 -67.99468935 -0.00391522
v -56.52012035 -67.99468935 -24.99608353
f 1 2 5
f 1 5 3
f 1 3 7
f 1 7 4
f 1 4 8
f 1 8 6
f 1 6 2
f 2 6 9
f 2 9 5
f 3 5 9
f 3 9 10
f 3 10 7
f 4 7 10
f 4 10 8
f 6 8 10
f 6 10 9

