# https://github.com/mikedh/trimesh
v 79.43396091 -0.01775628 15.03834412
v 79.45484668 -34.99445319 15.03834412
v 79.43396091 -0.01775628 24.99999747
v 79.43396091 34.98905182 15.03834412
v 79.50358927 -51.27342343 15.03834412
v 79.45484668 -34.99445319 24.99999747
v 79.43396091 34.98905182 24.99999747
v 79.50358927 51.25798702 15.03834412
v 79.50358927 -51.27342343 24.99999747
v 114.99651790 -51.27342343 15.03834412
v 79.50358927 51.25798702 24.99999747
v 114.99303579 51.25798702 15.03834412
v 114.99651790 -51.27342343 24.99999747
v 114.99651790 -0.01775628 15.03834412
v 114.99303579 51.25798702 24.99999747
v 114.99651790 -0.01775628 24.99999747
f 1 2 6
f 1 6 3
f 1 3 7
f 1 7 4
f 1 4 8
f 1 8 12
f 1 12 14
f 1 14 10
f 1 10 5
f 1 5 2
f 2 5 9
f 2 9 6
f 3 6 9
f 3 9 13
f 3 13 16
f 3 16 15
f 3 15 11
f 3 11 7
f 4 7 11
f 4 11 8
f 5 10 13
f 5 13 9
f 8 11 15
f 8 15 12
f 10 14 16
f 10 16 13
f 12 15 16
f 12 16 14

