# https://github.com/mikedh/trimesh
v -56.55634999 -0.01845583 -24.99999918
v -56.55634999 35.61494276 -24.99999918
v -53.78072977 -0.01845583 -24.99999918
v -56.55634999 -0.01845583 15.13027199
v -53.78072977 35.61494276 -24.99999918
v -56.55634999 35.61494276 -0.00107145
v -53.78072977 -0.01845583 14.99671482
v -56.49983093 -0.01845583 15.13027199
v -56.55634999 34.27903861 15.13027199
v -53.78072977 35.61494276 14.99671482
v -56.55634999 34.99756515 15.02421178
v -56.49983093 35.61494276 14.99671482
v -56.49983093 34.99756515 15.13027199
v -56.55553430 34.99756515 15.13027199
f 1 2 5
f 1 5 3
f 1 3 7
f 1 7 8
f 1 8 4
f 1 4 9
f 1 9 11
f 1 11 6
f 1 6 2
f 2 6 12
f 2 12 10
f 2 10 5
f 3 5 10
f 3 10 7
f 4 8 13
f 4 13 14
f 4 14 9
f 6 11 12
f 7 10 13
f 7 13 8
f 9 14 11
f 10 12 14
f 10 14 13
f 11 14 12

