# https://github.com/mikedh/trimesh
v 27.57088304 -0.01845583 0.00044169
v 60.94941407 -0.01845583 0.00044169
v 27.57088304 -0.01845583 3.63118390
v 27.57088304 36.64991572 0.00044169
v 60.94941407 -0.01845583 3.63118390
v 60.94941407 34.99883324 0.00044169
v 27.57088304 36.64991572 3.63118390
v 56.49937853 36.64991572 0.00044169
v 60.94941407 34.99883324 3.63118390
v 56.49937853 36.64991572 3.63118390
f 1 2 5
f 1 5 3
f 1 3 7
f 1 7 4
f 1 4 8
f 1 8 6
f 1 6 2
f 2 6 9
f 2 9 5
f 3 5 9
f 3 9 10
f 3 10 7
f 4 7 10
f 4 10 8
f 6 8 10
f 6 10 9

