# https://github.com/mikedh/trimesh
v -16.47974640 -36.67505816 -24.99999747
v -16.47974640 -0.01845583 -24.99999747
v -2.07576543 -36.67505816 -24.99999747
v -16.47974640 -36.67505816 -0.00015765
v -2.07576543 -0.01845583 -24.99999747
v -16.47974640 -0.01845583 15.03737077
v -2.07576543 -36.67505816 -0.00015765
v -16.47974640 -34.99938846 15.03737077
v -2.07576543 -0.01845583 15.03737077
v -2.07576543 -34.99938846 15.03737077
f 1 2 5
f 1 5 3
f 1 3 7
f 1 7 4
f 1 4 8
f 1 8 6
f 1 6 2
f 2 6 9
f 2 9 5
f 3 5 9
f 3 9 10
f 3 10 7
f 4 7 10
f 4 10 8
f 6 8 10
f 6 10 9

