# https://github.com/mikedh/trimesh
v -2.07576543 115.00000000 15.03737077
v -2.07576543 115.00000000 -24.99999747
v -15.47122851 115.00000000 15.03737077
v -2.07576543 68.00053626 15.03737077
v -15.47122851 115.00000000 -24.99999747
v -2.07576543 67.95448065 -24.99999747
v -15.47122851 68.00053626 15.03737077
v -2.07576543 67.95448065 -0.00015765
v -15.47122851 67.95448065 -24.99999747
v -15.47122851 67.95448065 -0.00015765
f 1 2 5
f 1 5 3
f 1 3 7
f 1 7 4
f 1 4 8
f 1 8 6
f 1 6 2
f 2 6 9
f 2 9 5
f 3 5 9
f 3 9 10
f 3 10 7
f 4 7 10
f 4 10 8
f 6 8 10
f 6 10 9

