# https://github.com/mikedh/trimesh
v 75.87806851 -0.01845583 15.03657907
v 75.87806851 -34.95875478 15.03657907
v 75.87806851 -0.01845583 6.95273863
v -2.07576543 -0.01845583 15.03657907
v 56.58037513 -34.99604344 15.03657907
v 56.49643794 -42.34622553 14.99938123
v 75.87806851 -34.99604344 15.03103890
v 75.87806851 -34.99604344 6.95273863
v -2.07576543 -0.01845583 6.95273863
v -2.07576543 -34.99604344 15.03657907
v 56.49643794 -42.34622553 6.95273863
v 16.50465578 -42.34622553 14.99938123
v -2.07576543 -34.99604344 6.95273863
v 16.50465578 -42.34622553 6.95273863
f 1 2 7
f 1 7 8
f 1 8 3
f 1 3 9
f 1 9 4
f 1 4 10
f 1 10 5
f 1 5 2
f 2 5 6
f 2 6 7
f 3 8 11
f 3 11 14
f 3 14 13
f 3 13 9
f 4 9 13
f 4 13 10
f 5 10 12
f 5 12 6
f 6 11 8
f 6 8 7
f 6 12 14
f 6 14 11
f 10 13 14
f 10 14 12

