# https://github.com/mikedh/trimesh
v -56.49983093 34.99568358 24.99999918
v -53.78072977 51.25798360 14.99608420
v -56.55634999 34.99568358 24.99999918
v -56.49983093 -0.01845583 24.99999918
v -53.78072977 51.25798360 -24.99999918
v -56.49983093 51.25798360 14.99608420
v -53.78072977 -0.01845583 14.99608420
v -56.55634999 51.25798360 0.00000000
v -56.55634999 -0.01845583 24.99999918
v -56.55634999 51.25798360 -24.99999918
v -53.78072977 -0.01845583 -24.99999918
v -56.55634999 -0.01845583 -24.99999918
f 1 2 6
f 1 6 3
f 1 3 9
f 1 9 4
f 1 4 7
f 1 7 2
f 2 5 10
f 2 10 8
f 2 8 6
f 2 7 11
f 2 11 5
f 3 6 8
f 3 8 10
f 3 10 12
f 3 12 9
f 4 9 12
f 4 12 11
f 4 11 7
f 5 11 12
f 5 12 10

