# https://github.com/mikedh/trimesh
v 78.92163932 36.64991572 -0.00105046
v 78.92163932 36.64991572 -24.99999918
v 60.94686419 36.64991572 -0.00105046
v 78.92163932 34.99883324 0.01854151
v 78.92163932 -0.01845583 -24.99999918
v 60.94686419 36.64991572 -24.99999918
v 27.57088304 36.64632738 -0.00594802
v 60.94686419 34.99883324 0.01854151
v 78.92163932 -0.01845583 0.01854151
v 60.94686419 -0.01845583 -24.99999918
v 27.57088304 36.64632738 -24.99755040
v 27.57088304 -0.01845583 -0.00594802
v 60.94686419 -0.01845583 0.01854151
v 27.57088304 -0.01845583 -24.99755040
f 1 2 6
f 1 6 3
f 1 3 8
f 1 8 4
f 1 4 9
f 1 9 5
f 1 5 2
f 2 5 10
f 2 10 6
f 3 6 11
f 3 11 7
f 3 7 8
f 4 8 13
f 4 13 9
f 5 9 13
f 5 13 12
f 5 12 14
f 5 14 10
f 6 10 14
f 6 14 11
f 7 11 14
f 7 14 12
f 7 12 13
f 7 13 8

