# https://github.com/mikedh/trimesh
v 79.49999750 -67.74383396 0.00694364
v 79.49999750 -64.48596299 0.00694364
v 99.78670418 -67.75239527 0.00694364
v 79.49999750 -67.75239527 0.18790934
v 79.49999750 -64.48596299 15.03737077
v 115.00000000 -64.48596299 0.00694364
v 115.00000000 -67.75239527 0.00694364
v 79.49999750 -67.98311889 6.92776671
v 79.49999750 -67.98311889 15.03737077
v 115.00000000 -64.48596299 15.03737077
v 115.00000000 -67.98311889 6.92776671
v 115.00000000 -67.98311889 15.03737077
f 1 2 6
f 1 6 7
f 1 7 3
f 1 3 4
f 1 4 8
f 1 8 9
f 1 9 5
f 1 5 2
f 2 5 10
f 2 10 6
f 3 7 11
f 3 11 8
f 3 8 4
f 5 9 12
f 5 12 10
f 6 10 12
f 6 12 11
f 6 11 7
f 8 11 12
f 8 12 9

