# https://github.com/mikedh/trimesh
v -2.07535073 115.00000000 15.03737077
v -2.07535073 115.00000000 -24.99608181
v -15.47123194 115.00000000 15.03737077
v 114.98853922 114.99524295 15.03737077
v -15.47123194 115.00000000 -24.99608181
v 114.98853922 114.99524295 -25.00000089
v -15.47123194 68.00468326 15.03737077
v 114.98853922 67.96185613 15.03737077
v -15.47123194 67.95709908 -24.99608181
v -2.06258073 114.99524295 -25.00000089
v 114.98853922 66.38678014 -25.00000089
v -15.47123194 67.95709908 -0.00015808
v -2.06258073 66.38678014 -0.00015808
v 16.51797414 66.38678014 6.93270326
v 16.51797414 67.96185613 14.99817997
v 79.48754281 67.96185613 15.03737077
v 114.98853922 66.38678014 6.93270326
v -2.06258073 66.38678014 -25.00000089
f 1 2 5
f 1 5 3
f 1 3 7
f 1 7 16
f 1 16 8
f 1 8 4
f 1 4 6
f 1 6 2
f 2 6 10
f 2 10 5
f 3 5 9
f 3 9 12
f 3 12 7
f 4 8 17
f 4 17 11
f 4 11 6
f 5 10 18
f 5 18 9
f 6 11 18
f 6 18 10
f 7 12 13
f 7 13 14
f 7 14 15
f 7 15 16
f 8 16 14
f 8 14 17
f 9 18 13
f 9 13 12
f 11 17 14
f 11 14 13
f 11 13 18
f 14 16 15

