# https://github.com/mikedh/trimesh
v 0.52095145 51.25639677 -0.00105046
v 0.52095145 51.25639677 -24.99999918
v -16.50936656 51.25639677 0.01854151
v 0.52095145 34.99459714 0.01854151
v 0.52095145 -0.01845583 -24.99999918
v -53.78046244 51.25639677 -24.99999918
v -53.78046244 51.25639677 0.01854151
v 0.52095145 -0.01845583 0.01854151
v -53.78046244 -0.01845583 -24.99999918
v -53.78046244 -0.01845583 0.01854151
f 1 2 6
f 1 6 7
f 1 7 3
f 1 3 4
f 1 4 8
f 1 8 5
f 1 5 2
f 2 5 9
f 2 9 6
f 3 7 10
f 3 10 8
f 3 8 4
f 5 8 10
f 5 10 9
f 6 9 10
f 6 10 7

