# https://github.com/mikedh/trimesh
v 56.49608493 67.94988126 14.99999985
v 56.49608493 51.25961497 14.99999985
v 56.49608493 67.94988126 6.93283349
v 16.49999984 67.94988126 14.99999985
v 56.49608493 51.25961497 6.93283349
v 16.49999984 51.25961497 14.99999985
v 16.53132334 67.94988126 6.93283349
v 16.49999984 67.94988126 6.93441261
v 16.49999984 51.25961497 6.93283349
v 16.49999984 52.29387164 6.93283349
f 1 2 5
f 1 5 3
f 1 3 7
f 1 7 8
f 1 8 4
f 1 4 6
f 1 6 2
f 2 6 9
f 2 9 5
f 3 5 9
f 3 9 10
f 3 10 7
f 4 8 10
f 4 10 9
f 4 9 6
f 7 10 8

