# https://github.com/mikedh/trimesh
v -49.10222918 115.00000000 15.03737077
v -49.10222918 101.49657458 15.03737077
v -49.10222918 115.00000000 -24.99999747
v -114.99354988 115.00000000 15.03737077
v -56.50161654 68.00053626 15.03737077
v -49.10222918 67.95448065 14.99817997
v -49.10222918 67.95448065 -24.99999747
v -114.99354988 115.00000000 -24.99999747
v -114.99354988 67.95448065 15.03737077
v -79.50616658 67.95448065 15.03737077
v -114.99354988 67.95448065 -24.99999747
f 1 2 6
f 1 6 7
f 1 7 3
f 1 3 8
f 1 8 4
f 1 4 9
f 1 9 10
f 1 10 5
f 1 5 2
f 2 5 6
f 3 7 11
f 3 11 8
f 4 8 11
f 4 11 9
f 5 10 6
f 6 10 9
f 6 9 11
f 6 11 7

