# https://github.com/mikedh/trimesh
v 0.52094802 -0.01845583 -24.99999747
v 0.52094802 35.02692997 -24.99999747
v 27.57088304 -0.01845583 -24.99999747
v 0.52094802 -0.01845583 15.03737077
v 27.57088304 35.02692997 -24.99999747
v 0.52094802 35.02692997 -0.00015765
v 27.57088304 -0.01845583 14.99817997
v 16.49777897 -0.01845583 15.03737077
v 0.52094802 34.99948442 15.03737077
v 27.57088304 35.02692997 14.99817997
v 16.49777897 35.02692997 14.99817997
v 16.49777897 34.99948442 15.03737077
f 1 2 5
f 1 5 3
f 1 3 7
f 1 7 8
f 1 8 4
f 1 4 9
f 1 9 6
f 1 6 2
f 2 6 11
f 2 11 10
f 2 10 5
f 3 5 10
f 3 10 7
f 4 8 12
f 4 12 9
f 6 9 11
f 7 10 12
f 7 12 8
f 9 12 10
f 9 10 11

