# https://github.com/mikedh/trimesh
v 114.99646991 101.45474136 24.99999747
v 114.99646991 67.98277617 24.99999747
v 114.99646991 101.45474136 15.03834412
v 56.49999887 101.45474136 24.99999747
v 114.99646991 67.98277617 15.03834412
v 79.50693429 67.98277617 24.99999747
v 56.49999887 101.45474136 15.03834412
v 56.49999887 68.00571829 24.99999747
v 79.50693429 67.98277617 15.03834412
v 56.49999887 68.00571829 15.03834412
f 1 2 5
f 1 5 3
f 1 3 7
f 1 7 4
f 1 4 8
f 1 8 6
f 1 6 2
f 2 6 9
f 2 9 5
f 3 5 9
f 3 9 10
f 3 10 7
f 4 7 10
f 4 10 8
f 6 8 10
f 6 10 9

