# https://github.com/mikedh/trimesh
v -15.47122851 67.94988126 0.00093222
v -15.47122851 67.94988126 -0.14883593
v -16.50142387 67.94988126 14.99999985
v -15.47122851 51.25961497 0.00093222
v -15.47122851 51.25961497 -0.14883593
v -49.09578249 67.94988126 -0.14883593
v -16.50142387 51.25961497 14.99999985
v -49.09578249 67.94988126 14.99999985
v -49.09578249 51.25961497 -0.14883593
v -49.09578249 51.25961497 14.99999985
f 1 2 6
f 1 6 8
f 1 8 3
f 1 3 7
f 1 7 4
f 1 4 5
f 1 5 2
f 2 5 9
f 2 9 6
f 3 8 10
f 3 10 7
f 4 7 10
f 4 10 9
f 4 9 5
f 6 9 10
f 6 10 8

