# https://github.com/mikedh/trimesh
v 16.49324469 35.02692997 -24.99608353
v 16.49324469 51.25639677 -24.99608353
v 27.57088304 35.02692997 -24.99608353
v 16.49324469 35.02692997 -0.00391522
v 27.57088304 51.25639677 -24.99608353
v 16.49324469 51.25639677 -0.00391522
v 27.57088304 35.02692997 14.99608591
v 16.50083609 35.02692997 14.99608591
v 27.57088304 51.25639677 14.99608591
v 16.50083609 51.25639677 14.99608591
f 1 2 5
f 1 5 3
f 1 3 7
f 1 7 8
f 1 8 4
f 1 4 6
f 1 6 2
f 2 6 10
f 2 10 9
f 2 9 5
f 3 5 9
f 3 9 7
f 4 8 10
f 4 10 6
f 7 9 10
f 7 10 8

