# https://github.com/mikedh/trimesh
v 56.49608493 -42.34622896 14.99999985
v 56.49608493 -42.34622896 0.01219250
v 16.50000155 -42.34622896 14.99999985
v 56.49608493 -64.48596299 14.99999985
v 56.49608493 -51.27927378 0.00191584
v 16.50000155 -42.34622896 0.01219250
v 16.50000155 -64.48596299 14.99999985
v 56.49608493 -64.48596299 0.00191584
v 16.50000155 -51.27927378 0.00191584
v 16.50000155 -64.48596299 1.59773793
v 16.50000155 -64.48163092 0.00191584
f 1 2 6
f 1 6 3
f 1 3 7
f 1 7 4
f 1 4 8
f 1 8 5
f 1 5 2
f 2 5 9
f 2 9 6
f 3 6 9
f 3 9 11
f 3 11 10
f 3 10 7
f 4 7 10
f 4 10 8
f 5 8 11
f 5 11 9
f 8 10 11

