# https://github.com/mikedh/trimesh
v 79.43396091 -0.00634387 15.03834412
v 79.43396091 -0.00634387 24.99999747
v 79.43396091 34.98880506 15.03834412
v 79.45485353 -34.98981953 15.03834412
v 79.43396091 34.98880506 24.99999747
v 79.45485353 -34.98981953 24.99999747
v 79.50010717 67.97622323 15.03834412
v 79.50358927 -51.27342001 15.03834412
v 79.50010717 67.97622323 24.99999747
v 79.50358927 -51.27342001 24.99999747
v 115.00000000 67.97622323 15.03834412
v 114.99651790 -51.27342001 15.03834412
v 115.00000000 67.97622323 24.99999747
v 114.99651790 -51.27342001 24.99999747
v 115.00000000 51.24905899 15.03834412
v 115.00000000 51.24905899 24.99999747
f 1 2 5
f 1 5 3
f 1 3 7
f 1 7 11
f 1 11 15
f 1 15 12
f 1 12 8
f 1 8 4
f 1 4 6
f 1 6 2
f 2 6 10
f 2 10 14
f 2 14 16
f 2 16 13
f 2 13 9
f 2 9 5
f 3 5 9
f 3 9 7
f 4 8 10
f 4 10 6
f 7 9 13
f 7 13 11
f 8 12 14
f 8 14 10
f 11 13 16
f 11 16 15
f 12 15 16
f 12 16 14

