# https://github.com/mikedh/trimesh
v -16.56485744 -115.00000000 15.51809467
v -16.56485744 -115.00000000 24.99902241
v -16.56485744 -101.49833620 15.51809467
v -16.49682961 -99.40984190 15.03834412
v 16.52872033 -115.00000000 15.51809467
v 16.52872033 -115.00000000 24.99902241
v -16.49682961 -99.40984190 24.99999747
v -16.56485744 -101.49833620 24.99902241
v -16.49682961 -68.00871372 15.03834412
v 16.49956629 -99.40984190 15.03834412
v 16.52872033 -101.49833620 15.51809467
v 16.52872033 -101.49833620 24.99902241
v 16.49956629 -99.40984190 24.99999747
v -16.49682961 -68.00871372 24.99999747
v 16.49956629 -68.00871372 15.03834412
v 16.49956629 -68.00871372 24.99999747
f 1 2 8
f 1 8 3
f 1 3 9
f 1 9 4
f 1 4 10
f 1 10 5
f 1 5 6
f 1 6 2
f 2 6 13
f 2 13 7
f 2 7 14
f 2 14 8
f 3 8 14
f 3 14 9
f 4 9 15
f 4 15 10
f 5 11 12
f 5 12 6
f 5 10 15
f 5 15 11
f 6 12 16
f 6 16 13
f 7 13 16
f 7 16 14
f 9 14 16
f 9 16 15
f 11 15 16
f 11 16 12

