# https://github.com/mikedh/trimesh
v 115.00000000 -101.33681595 24.99999747
v 115.00000000 -101.33681595 15.03834412
v 56.51224449 -101.33681595 24.99999747
v 115.00000000 -115.00000000 24.99999747
v 115.00000000 -115.00000000 15.03834412
v 56.51224449 -101.33681595 15.03834412
v 16.53083324 -101.50131792 24.99902241
v 38.16012383 -101.50131792 24.99999747
v 38.16012383 -115.00000000 24.99999747
v 38.16012383 -115.00000000 15.03834412
v 38.16012383 -101.50131792 15.03834412
v 16.53083324 -101.50131792 15.51809467
v 16.53083324 -115.00000000 24.99902241
v 16.53083324 -115.00000000 15.51809467
f 1 2 6
f 1 6 3
f 1 3 8
f 1 8 9
f 1 9 4
f 1 4 5
f 1 5 2
f 2 5 10
f 2 10 11
f 2 11 6
f 3 6 12
f 3 12 7
f 3 7 8
f 4 9 13
f 4 13 14
f 4 14 10
f 4 10 5
f 6 11 12
f 7 12 14
f 7 14 13
f 7 13 9
f 7 9 8
f 10 14 12
f 10 12 11

