# https://github.com/mikedh/trimesh
v -77.28602409 -0.01845583 25.00000089
v -77.28602409 -34.99686256 25.00000089
v -77.28602409 -0.01845583 1.23409119
v -115.00000000 -0.01845583 25.00000089
v -79.50101882 -35.02084658 25.00000089
v -77.28602409 -34.99686256 1.23409119
v -115.00000000 -0.01845583 1.23409119
v -115.00000000 -35.02084658 25.00000089
v -79.50101882 -35.02084658 1.23409119
v -115.00000000 -35.02084658 1.23409119
f 1 2 6
f 1 6 3
f 1 3 7
f 1 7 4
f 1 4 8
f 1 8 5
f 1 5 2
f 2 5 9
f 2 9 6
f 3 6 9
f 3 9 10
f 3 10 7
f 4 7 10
f 4 10 8
f 5 8 10
f 5 10 9

