# https://github.com/mikedh/trimesh
v -115.00000000 -51.26840591 -24.99999918
v -115.00000000 -51.26840591 1.23176493
v -115.00000000 -0.02848916 -24.99999918
v -77.28602409 -51.26840591 -24.99999918
v -79.50101882 -51.26840591 1.23176493
v -115.00000000 -0.02848916 1.23176493
v -77.28602409 -0.02848916 -24.99999918
v -77.28602409 -51.26840591 -0.00073772
v -77.28602409 -34.99443948 1.23176493
v -77.28602409 -0.02848916 1.23176493
f 1 2 6
f 1 6 3
f 1 3 7
f 1 7 4
f 1 4 8
f 1 8 5
f 1 5 2
f 2 5 9
f 2 9 10
f 2 10 6
f 3 6 10
f 3 10 7
f 4 7 10
f 4 10 9
f 4 9 8
f 5 8 9

