# https://github.com/mikedh/trimesh
v 114.99043107 -0.01845583 15.03657907
v 114.99043107 -35.03393188 15.03657907
v 114.99043107 -0.01845583 6.95399601
v -2.07577229 -0.01845583 15.03657907
v 114.99043107 -35.03393188 6.95399601
v 79.49012697 -35.03393188 15.03657907
v 114.97897029 -0.01845583 1.09709132
v -2.07577229 -0.01845583 6.95399601
v -2.07577229 -34.99965578 15.03657907
v 114.97897029 -35.03393188 1.09709132
v 16.51089340 -35.03393188 14.99837019
v -2.06431150 -0.01845583 1.09709132
v -2.07577229 -34.99965578 6.95399601
v 16.51089340 -35.03393188 1.09709132
v -2.06431150 -34.99965578 1.09709132
f 1 2 5
f 1 5 3
f 1 3 7
f 1 7 12
f 1 12 8
f 1 8 4
f 1 4 9
f 1 9 6
f 1 6 2
f 2 6 11
f 2 11 14
f 2 14 10
f 2 10 5
f 3 5 10
f 3 10 7
f 4 8 13
f 4 13 9
f 6 9 11
f 7 10 14
f 7 14 15
f 7 15 12
f 8 12 15
f 8 15 13
f 9 13 14
f 9 14 11
f 13 15 14

