# https://github.com/mikedh/trimesh
v 75.87807536 -34.99604344 6.95273863
v 79.50075835 -42.34622553 6.95273863
v 75.87807536 -34.99604344 15.03103890
v 75.87807536 -0.01845583 6.95273863
v 79.50075835 -42.34622553 15.03657907
v 114.99617517 -42.34622553 6.95273863
v 75.87807536 -34.95875478 15.03657907
v 75.87807536 -0.01845583 15.03657907
v 114.99617517 -0.01845583 6.95273863
v 114.99617517 -42.34622553 15.03657907
v 114.99617517 -0.01845583 15.03657907
f 1 2 5
f 1 5 3
f 1 3 7
f 1 7 8
f 1 8 4
f 1 4 9
f 1 9 6
f 1 6 2
f 2 6 10
f 2 10 5
f 3 5 7
f 4 8 11
f 4 11 9
f 5 10 11
f 5 11 8
f 5 8 7
f 6 9 11
f 6 11 10

