# https://github.com/mikedh/trimesh
v 79.48110640 114.99524295 1.08114682
v 79.48110640 68.00468326 1.08114682
v 79.48110640 114.99524295 -24.99999918
v -2.07576543 114.99524295 1.08114682
v 56.48934692 66.38202310 1.08114682
v 79.48110640 66.38202310 -0.00131264
v 79.48110640 66.38202310 -24.99999918
v -2.07576543 114.99524295 -24.99999918
v -2.07576543 68.00468326 1.08114682
v 16.50923803 66.38202310 1.08114682
v -2.07576543 66.38202310 -24.99999918
v -2.07576543 66.38202310 -0.00131264
f 1 2 6
f 1 6 7
f 1 7 3
f 1 3 8
f 1 8 4
f 1 4 9
f 1 9 10
f 1 10 5
f 1 5 2
f 2 5 6
f 3 7 11
f 3 11 8
f 4 8 11
f 4 11 12
f 4 12 9
f 5 10 12
f 5 12 11
f 5 11 7
f 5 7 6
f 9 12 10

