# https://github.com/mikedh/trimesh
v -79.50302720 67.94988811 24.99999918
v -77.05534160 51.25280157 0.00000000
v -79.49931204 67.94988811 0.00000000
v -115.00000000 67.94988811 24.99999918
v -77.05534160 34.98352021 24.99999918
v -77.05534160 51.25280157 -24.99999918
v -79.49931204 67.94988811 -24.99999918
v -115.00000000 67.94988811 -24.99999918
v -115.00000000 -64.48596299 24.99999918
v -77.05534160 -0.01812307 24.99999918
v -77.05534160 -0.01812307 -24.99999918
v -115.00000000 -64.48596299 -24.99999918
v -79.50674236 -64.48596299 24.99999918
v -77.29304999 -34.98087436 24.99999918
v -77.29676515 -64.48596299 0.00000000
v -77.29676515 -64.48596299 -24.99999918
f 1 2 3
f 1 3 7
f 1 7 8
f 1 8 4
f 1 4 9
f 1 9 13
f 1 13 14
f 1 14 10
f 1 10 5
f 1 5 2
f 2 6 7
f 2 7 3
f 2 5 10
f 2 10 11
f 2 11 6
f 4 8 12
f 4 12 9
f 6 11 16
f 6 16 12
f 6 12 8
f 6 8 7
f 9 12 16
f 9 16 15
f 9 15 13
f 10 14 15
f 10 15 16
f 10 16 11
f 13 15 14

