# https://github.com/mikedh/trimesh
v 56.49999887 -34.99999851 15.03834412
v 56.49999887 -34.99999851 24.99999747
v 56.49999887 -0.01370399 15.03834412
v 79.45462734 -34.99999851 15.03834412
v 79.45462734 -34.99999851 24.99999747
v 56.49999887 -0.01370399 24.99999747
v 56.50224715 34.99999851 15.03834412
v 79.45462734 -0.01370399 15.03834412
v 79.45462734 -0.01370399 24.99999747
v 56.50224715 34.99999851 24.99999747
v 79.42766160 34.99999851 15.03834412
v 79.42766160 34.99999851 24.99999747
f 1 2 6
f 1 6 3
f 1 3 7
f 1 7 11
f 1 11 8
f 1 8 4
f 1 4 5
f 1 5 2
f 2 5 9
f 2 9 12
f 2 12 10
f 2 10 6
f 3 6 10
f 3 10 7
f 4 8 9
f 4 9 5
f 7 10 12
f 7 12 11
f 8 11 12
f 8 12 9

