# https://github.com/mikedh/trimesh
v 114.98853922 -0.01845583 1.09572642
v 114.98853922 -42.34622553 1.09572642
v 114.98853922 -0.01845583 -24.99999918
v -2.06430808 -0.01845583 1.09572642
v 114.98853922 -42.34622553 -24.99999918
v 16.50095433 -42.34622553 1.09572642
v -2.06430808 -0.01845583 -24.99999918
v -2.06430808 -34.99604344 1.09572642
v -2.06430808 -42.34622553 -24.99999918
v -2.06430808 -42.34622553 -0.00011053
f 1 2 5
f 1 5 3
f 1 3 7
f 1 7 4
f 1 4 8
f 1 8 6
f 1 6 2
f 2 6 10
f 2 10 9
f 2 9 5
f 3 5 9
f 3 9 7
f 4 7 9
f 4 9 10
f 4 10 8
f 6 8 10

