# https://github.com/mikedh/trimesh
v 79.49999750 51.26124978 6.93283349
v 79.49999750 67.94840753 6.93283349
v 115.00000000 51.26124978 6.93283349
v 79.49999750 51.26124978 24.99999747
v 79.49999750 67.97623008 15.03971331
v 115.00000000 67.94840753 6.93283349
v 115.00000000 51.26124978 24.99999747
v 79.49999750 67.97623008 24.99999747
v 115.00000000 67.97623008 15.03971331
v 115.00000000 67.97623008 24.99999747
f 1 2 6
f 1 6 3
f 1 3 7
f 1 7 4
f 1 4 8
f 1 8 5
f 1 5 2
f 2 5 9
f 2 9 6
f 3 6 9
f 3 9 10
f 3 10 7
f 4 7 10
f 4 10 8
f 5 8 10
f 5 10 9

