# https://github.com/mikedh/trimesh
v -2.07576543 -0.01845583 0.01854151
v -16.47974640 -0.01845583 0.01854151
v -2.07576543 -34.99529630 0.01854151
v -2.07576543 -0.01845583 -24.99999918
v -16.47974640 -0.01845583 -24.99999918
v -16.47974640 -34.98024374 0.01854151
v -16.46705694 -34.99529630 0.01854151
v -2.07576543 -51.27701178 -0.00105046
v -2.07576543 -51.27701178 -24.99999918
v -16.47974640 -51.27701178 -24.99999918
v -16.47974640 -51.27701178 -0.00105046
f 1 2 6
f 1 6 7
f 1 7 3
f 1 3 8
f 1 8 9
f 1 9 4
f 1 4 5
f 1 5 2
f 2 5 10
f 2 10 11
f 2 11 6
f 3 7 11
f 3 11 8
f 4 9 10
f 4 10 5
f 6 11 7
f 8 11 10
f 8 10 9

