# https://github.com/mikedh/trimesh
v -115.00000000 -78.69511068 -24.99999747
v -115.00000000 -67.91582108 -24.99999747
v -77.28857398 -78.69616628 -24.99999747
v -115.00000000 -78.69511068 15.03737077
v -115.00000000 -67.91582108 15.03737077
v -77.28857398 -67.91582108 -24.99999747
v -49.10498813 -78.69616628 -24.99999747
v -77.28857398 -78.69616628 15.03737077
v -79.50119704 -67.91582108 15.03737077
v -77.28857398 -67.91582108 -0.00407588
v -49.10498813 -67.99496353 -24.99999747
v -49.10498813 -78.69616628 14.99817997
v -56.50406703 -78.69616628 15.03737077
v -56.50406703 -68.00129712 15.03737077
v -49.10498813 -67.99496353 14.99817997
f 1 2 6
f 1 6 11
f 1 11 7
f 1 7 3
f 1 3 8
f 1 8 4
f 1 4 5
f 1 5 2
f 2 5 9
f 2 9 10
f 2 10 6
f 3 7 12
f 3 12 13
f 3 13 8
f 4 8 13
f 4 13 14
f 4 14 9
f 4 9 5
f 6 10 15
f 6 15 11
f 7 11 15
f 7 15 12
f 9 14 15
f 9 15 10
f 12 15 14
f 12 14 13

