# https://github.com/mikedh/trimesh
v -53.78045902 -0.01845583 0.01854151
v -16.47425249 -0.01845583 0.01854151
v -53.78045902 -0.01845583 14.99914646
v -53.78045902 51.25798360 0.01854151
v -16.47425249 -0.01845583 15.03737077
v -16.47425249 34.99568358 0.01854151
v -16.50346652 -0.01845583 15.03737077
v -53.78045902 51.25798360 14.99914646
v -16.50346652 51.25798360 0.01854151
v -16.47425249 34.73468348 15.03737077
v -16.47425249 34.99568358 15.03590047
v -16.50346652 34.99568358 15.03737077
v -16.50346652 51.25798360 14.99914646
f 1 2 5
f 1 5 7
f 1 7 3
f 1 3 8
f 1 8 4
f 1 4 9
f 1 9 6
f 1 6 2
f 2 6 11
f 2 11 10
f 2 10 5
f 3 7 12
f 3 12 8
f 4 8 13
f 4 13 9
f 5 10 12
f 5 12 7
f 6 9 13
f 6 13 11
f 8 12 13
f 10 11 13
f 10 13 12

