# https://github.com/mikedh/trimesh
v -56.55900270 34.99999851 24.99999918
v -77.05003619 34.99999851 24.99999918
v -56.55900270 -0.01370399 24.99999918
v -56.50000229 -0.01370399 24.99755725
v -56.55900270 34.99999851 0.04564606
v -77.05003619 34.99999851 0.04564606
v -77.28196621 -0.01370399 24.99755725
v -77.05003619 -0.01370399 24.99999918
v -56.50000229 -34.99999851 24.99755725
v -56.50000229 -0.01370399 15.03633402
v -56.55900270 -0.01370399 0.04564606
v -77.05003619 -0.01370399 0.04564606
v -77.28196621 -0.01370399 15.03633402
v -77.28196621 -34.99999851 24.99755725
v -56.50000229 -34.99999851 15.03633402
v -77.28196621 -34.99999851 15.03633402
f 1 2 8
f 1 8 3
f 1 3 9
f 1 9 4
f 1 4 10
f 1 10 5
f 1 5 6
f 1 6 2
f 2 6 13
f 2 13 7
f 2 7 14
f 2 14 8
f 3 8 14
f 3 14 9
f 4 9 15
f 4 15 10
f 5 10 15
f 5 15 11
f 5 11 12
f 5 12 6
f 6 12 16
f 6 16 13
f 7 13 16
f 7 16 14
f 9 14 16
f 9 16 15
f 11 15 16
f 11 16 12

