# https://github.com/mikedh/trimesh
v 56.49608493 -35.03393531 14.99999985
v 56.49608493 -35.03393531 1.09711660
v 16.50000155 -35.03393531 14.99999985
v 56.49608493 -64.48372155 14.99999985
v 56.49608493 -42.34880626 0.01219250
v 16.50000155 -35.03393531 1.09711660
v 16.50000155 -67.97989726 14.99999985
v 56.46868050 -67.97989726 14.99999985
v 56.49608493 -67.97989726 14.99119177
v 56.49608493 -51.28275931 0.00191584
v 16.50000155 -42.34880626 0.01219250
v 16.50000155 -67.97989726 6.92986805
v 56.49608493 -67.97989726 6.92986805
v 56.49608493 -64.48372155 0.00191584
v 16.50000155 -51.28275931 0.00191584
v 16.50000155 -67.75090098 0.00778846
v 56.49608493 -67.75090098 0.00778846
v 16.50000155 -64.47727144 0.00191584
f 1 2 6
f 1 6 3
f 1 3 7
f 1 7 8
f 1 8 4
f 1 4 9
f 1 9 13
f 1 13 17
f 1 17 14
f 1 14 10
f 1 10 5
f 1 5 2
f 2 5 11
f 2 11 6
f 3 6 11
f 3 11 15
f 3 15 18
f 3 18 16
f 3 16 12
f 3 12 7
f 4 8 9
f 5 10 15
f 5 15 11
f 7 12 13
f 7 13 9
f 7 9 8
f 10 14 18
f 10 18 15
f 12 16 17
f 12 17 13
f 14 17 16
f 14 16 18

