# https://github.com/mikedh/trimesh
v -79.46834326 -64.48629200 -0.00015765
v -79.46834326 -67.91580737 -0.00015765
v -79.46834326 -64.48629200 -24.99999747
v -79.50312316 -64.48629200 15.03737077
v -79.46834326 -67.91580737 -24.99999747
v -79.50312316 -67.91580737 15.03737077
v -115.00000000 -64.48629200 -24.99999747
v -115.00000000 -64.48629200 15.03737077
v -115.00000000 -67.91580737 -24.99999747
v -115.00000000 -67.91580737 15.03737077
f 1 2 5
f 1 5 3
f 1 3 7
f 1 7 8
f 1 8 4
f 1 4 6
f 1 6 2
f 2 6 10
f 2 10 9
f 2 9 5
f 3 5 9
f 3 9 7
f 4 8 10
f 4 10 6
f 7 9 10
f 7 10 8

