# https://github.com/mikedh/trimesh
v -115.00000000 -115.00000000 -24.99999918
v -115.00000000 -115.00000000 24.99999918
v -115.00000000 -99.41275507 -24.99999918
v 38.14340562 -115.00000000 -24.99999918
v -115.00000000 -99.41275507 24.99999918
v 38.14340562 -115.00000000 24.99999918
v 38.14340562 -99.41275507 -24.99999918
v 16.49705410 -99.41275507 24.99999918
v 38.14340562 -101.50020748 24.99999918
v 38.14340562 -99.41275507 14.99608420
f 1 2 5
f 1 5 3
f 1 3 7
f 1 7 4
f 1 4 6
f 1 6 2
f 2 6 9
f 2 9 8
f 2 8 5
f 3 5 8
f 3 8 10
f 3 10 7
f 4 7 10
f 4 10 9
f 4 9 6
f 8 9 10

