# https://github.com/mikedh/trimesh
v -49.09577906 -78.69616628 -24.99999747
v -49.09577906 -78.69616628 14.99817997
v -49.09577906 -64.48596299 -24.99999747
v 115.00000000 -78.69616628 -24.99999747
v -49.09577906 -64.48596299 14.99817997
v -16.48865044 -78.69616628 15.03737077
v 115.00000000 -64.48596299 -24.99999747
v 115.00000000 -78.69616628 15.03737077
v -16.48865044 -68.00095439 15.03737077
v 79.48553443 -64.48596299 15.03737077
v 115.00000000 -64.48596299 15.03737077
f 1 2 5
f 1 5 3
f 1 3 7
f 1 7 4
f 1 4 8
f 1 8 6
f 1 6 2
f 2 6 9
f 2 9 5
f 3 5 10
f 3 10 11
f 3 11 7
f 4 7 11
f 4 11 8
f 5 9 10
f 6 8 11
f 6 11 10
f 6 10 9

