# https://github.com/mikedh/trimesh
v -15.00000060 19.93505955 -49.99657273
v 15.00000060 19.93505955 -49.99657273
v -15.00000060 19.93505955 -15.00105709
v -15.00000060 50.00000000 -49.99657273
v 15.00000060 50.00000000 -49.99657273
v 15.00000060 19.93505955 -15.00105709
v -15.00000060 20.00274658 -14.99077529
v -15.00000060 50.00000000 -14.99077529
v 15.00000060 50.00000000 -14.99077529
v 15.00000060 20.00274658 -14.99077529
f 1 2 6
f 1 6 3
f 1 3 7
f 1 7 8
f 1 8 4
f 1 4 5
f 1 5 2
f 2 5 9
f 2 9 10
f 2 10 6
f 3 6 10
f 3 10 7
f 4 8 9
f 4 9 5
f 7 10 9
f 7 9 8

