mtllib board1.mtl

o obj1
v 98 32.5 5
v 98 94.5 40
v 98 32.5 50
v 98 94.5 50
v 98 96.5 5
v 98 96.5 40
v 132 96.5 5
v 132 96.5 40
v 132 32.5 5
v 132 32.5 50
v 132 94.5 40
v 132 94.5 50
v 132 197.5 5
v 132 135.5 40
v 132 197.5 50
v 132 135.5 50
v 132 133.5 5
v 132 133.5 40
v 98 133.5 5
v 98 133.5 40
v 98 197.5 5
v 98 197.5 50
v 98 135.5 40
v 98 135.5 50
v 166 94.5 40
v 166 94.5 50
v 64 94.5 40
v 64 94.5 50
v 166 135.5 40
v 64 135.5 40
v 64 135.5 50
v 166 135.5 50
v 64 167 50
v 64 167 5
v 64 63 50
v 64 63 5
v 30 167 50
v 30 167 5
v 30 63 50
v 30 94.5 40
v 30 94.5 50
v 30 63 5
v 30 135.5 40
v 30 135.5 50
v 200 167 50
v 200 135.5 40
v 200 135.5 50
v 200 167 5
v 200 94.5 40
v 200 63 50
v 200 94.5 50
v 200 63 5
v 166 167 5
v 166 167 50
v 166 63 50
v 166 63 5
v 217 135.5 40
v 217 135.5 50
v 13 135.5 40
v 13 135.5 50
v 217 94.5 40
v 13 94.5 40
v 217 94.5 50
v 13 94.5 50
v 0 230 50
v 230 230 0
v 0 230 0
v 230 230 50
v 230 0 0
v 230 0 50
v 0 0 0
v 0 0 50
usemtl mat1
f 1 2 3
f 3 2 4
f 2 5 6
f 1 5 2
f 5 7 6
f 6 7 8
f 9 1 10
f 10 1 3
f 8 7 11
f 11 10 12
f 7 9 11
f 11 9 10
f 9 7 1
f 7 5 1
f 13 14 15
f 15 14 16
f 14 17 18
f 13 17 14
f 17 19 18
f 18 19 20
f 21 13 22
f 22 13 15
f 20 19 23
f 23 22 24
f 19 21 23
f 23 21 22
f 17 13 19
f 13 21 19
f 25 11 26
f 26 11 12
f 4 27 28
f 2 27 4
f 25 8 11
f 25 29 8
f 29 18 8
f 29 14 18
f 6 27 2
f 8 20 6
f 18 20 8
f 23 30 20
f 6 30 27
f 20 30 6
f 30 23 31
f 31 23 24
f 16 29 32
f 14 29 16
f 33 30 31
f 33 34 30
f 27 35 28
f 30 36 27
f 27 36 35
f 34 36 30
f 37 38 33
f 38 34 33
f 39 40 41
f 39 42 40
f 43 37 44
f 40 38 43
f 43 38 37
f 42 38 40
f 35 36 39
f 36 42 39
f 34 38 36
f 36 38 42
f 45 46 47
f 45 48 46
f 49 50 51
f 46 52 49
f 49 52 50
f 48 52 46
f 53 48 54
f 54 48 45
f 55 25 26
f 55 56 25
f 29 54 32
f 25 53 29
f 29 53 54
f 56 53 25
f 52 56 50
f 50 56 55
f 48 53 52
f 52 53 56
f 47 57 58
f 46 57 47
f 59 44 60
f 59 43 44
f 57 46 61
f 61 46 49
f 40 59 62
f 43 59 40
f 61 49 63
f 63 49 51
f 41 62 64
f 40 62 41
f 57 63 58
f 57 61 63
f 62 60 64
f 62 59 60
f 65 66 67
f 65 68 66
f 68 69 66
f 68 70 69
f 70 71 69
f 70 72 71
f 72 67 71
f 72 65 67
f 64 72 39
f 41 64 39
f 35 39 72
f 3 35 72
f 4 28 35
f 4 35 3
f 37 60 44
f 55 12 10
f 65 60 37
f 70 10 3
f 70 3 72
f 70 55 10
f 33 65 37
f 24 33 31
f 26 12 55
f 50 55 70
f 22 65 33
f 22 33 24
f 63 51 50
f 63 50 70
f 54 15 16
f 54 16 32
f 45 47 58
f 68 54 45
f 68 15 54
f 68 45 58
f 65 72 64
f 65 64 60
f 70 68 58
f 70 58 63
f 68 65 22
f 68 22 15
f 71 67 69
f 67 66 69
# Vertices: 72, normals: 0, texture coordinates: 0, faces: 140

o obj2
v 32 65 5
v 62 65 105
v 32 65 105
v 62 65 5
v 32 95 105
v 62 95 105
v 62 95 40
v 32 95 40
v 32 135 40
v 62 135 40
v 62 135 105
v 32 135 105
v 32 165 105
v 62 165 105
v 62 165 5
v 32 165 5
usemtl mat2
f 73 74 75
f 76 74 73
f 74 77 75
f 74 78 77
f 77 79 80
f 78 79 77
f 79 81 80
f 79 82 81
f 81 83 84
f 82 83 81
f 83 85 84
f 83 86 85
f 85 87 88
f 86 87 85
f 88 76 73
f 87 76 88
f 74 76 79
f 82 76 87
f 82 79 76
f 78 74 79
f 86 83 82
f 86 82 87
f 73 75 80
f 73 81 88
f 80 81 73
f 75 77 80
f 84 85 81
f 81 85 88
# Vertices: 16, normals: 0, texture coordinates: 0, faces: 28

o obj3
v 15 133.5 77
v 15 133.5 40
v 15 96.5 40
v 15 96.5 77
v 215 133.5 40
v 215 133.5 77
v 215 96.5 40
v 215 96.5 77
usemtl mat3
f 89 90 91
f 92 89 91
f 89 93 90
f 89 94 93
f 94 95 93
f 94 96 95
f 96 91 95
f 96 92 91
f 89 92 96
f 89 96 94
f 95 90 93
f 91 90 95
# Vertices: 8, normals: 0, texture coordinates: 0, faces: 12

o obj4
v 100 84.5 50
v 130 34.5 50
v 130 84.5 50
v 100 34.5 50
v 130 34.5 5
v 100 34.5 5
v 100 94.5 5
v 130 94.5 5
v 130 94.5 77
v 100 94.5 77
v 130 135.5 77
v 100 135.5 77
v 130 135.5 5
v 100 135.5 5
v 100 195.5 5
v 130 195.5 5
v 130 195.5 50
v 100 195.5 50
v 130 145.5 50
v 100 145.5 50
v 130 145.5 105
v 100 145.5 105
v 130 84.5 105
v 100 84.5 105
usemtl mat4
f 97 98 99
f 97 100 98
f 100 101 98
f 100 102 101
f 101 103 104
f 102 103 101
f 103 105 104
f 103 106 105
f 106 107 105
f 106 108 107
f 108 109 107
f 108 110 109
f 109 111 112
f 110 111 109
f 111 113 112
f 111 114 113
f 114 115 113
f 114 116 115
f 116 117 115
f 116 118 117
f 118 119 117
f 118 120 119
f 120 99 119
f 120 97 99
f 97 103 102
f 97 102 100
f 111 110 116
f 114 111 116
f 97 120 106
f 97 106 103
f 118 116 108
f 110 108 116
f 108 106 120
f 108 120 118
f 101 99 98
f 119 107 117
f 105 107 119
f 101 104 99
f 115 112 113
f 109 112 115
f 115 117 107
f 107 109 115
f 104 105 99
f 99 105 119
# Vertices: 24, normals: 0, texture coordinates: 0, faces: 44

o obj5
v 168 65 5
v 198 65 105
v 168 65 105
v 198 65 5
v 168 95 105
v 198 95 105
v 198 95 40
v 168 95 40
v 168 135 40
v 198 135 40
v 198 135 105
v 168 135 105
v 168 165 105
v 198 165 105
v 198 165 5
v 168 165 5
usemtl mat5
f 121 122 123
f 124 122 121
f 122 125 123
f 122 126 125
f 125 127 128
f 126 127 125
f 127 129 128
f 127 130 129
f 129 131 132
f 130 131 129
f 131 133 132
f 131 134 133
f 133 135 136
f 134 135 133
f 136 124 121
f 135 124 136
f 122 124 127
f 130 124 135
f 130 127 124
f 126 122 127
f 134 131 130
f 134 130 135
f 121 123 128
f 121 129 136
f 128 129 121
f 123 125 128
f 132 133 129
f 129 133 136
# Vertices: 16, normals: 0, texture coordinates: 0, faces: 28

