mtllib board3.mtl

o obj1
v -58.5 -80 25
v -58.5 -47 40
v -58.5 -80 40
v -58.5 -47 25
v -35.5 -80 25
v -35.5 -80 50
v -58.5 -80 50
v -35.5 -47 25
v -35.5 -47 50
v -58.5 -47 50
v -171.5 -150 25
v -171.5 -183 25
v -171.5 -150 40
v -171.5 -183 40
v -194.5 -150 25
v -194.5 -150 50
v -171.5 -150 50
v -194.5 -183 25
v -194.5 -183 50
v -171.5 -183 50
v -58.5 -183 25
v -58.5 -150 25
v -58.5 -183 40
v -58.5 -150 40
v -35.5 -183 25
v -35.5 -183 50
v -58.5 -183 50
v -35.5 -150 25
v -35.5 -150 50
v -58.5 -150 50
v -171.5 -47 25
v -171.5 -80 25
v -171.5 -47 40
v -171.5 -80 40
v -194.5 -47 25
v -194.5 -47 50
v -171.5 -47 50
v -194.5 -80 25
v -194.5 -80 50
v -171.5 -80 50
v -131.5 -80 25
v -131.5 -47 40
v -131.5 -80 40
v -131.5 -47 25
v -98.5 -80 40
v -131.5 -80 50
v -98.5 -80 50
v -98.5 -80 25
v -98.5 -47 25
v -98.5 -47 40
v -98.5 -47 50
v -131.5 -47 50
v -131.5 -183 25
v -131.5 -150 25
v -131.5 -183 40
v -131.5 -150 40
v -98.5 -183 40
v -131.5 -183 50
v -98.5 -183 50
v -98.5 -183 25
v -98.5 -150 25
v -98.5 -150 40
v -98.5 -150 50
v -131.5 -150 50
v -58.5 -216.5 40
v -58.5 -216.5 50
v -58.5 -13.5 40
v -58.5 -13.5 50
v -171.5 -13.5 40
v -171.5 -13.5 50
v -171.5 -216.5 40
v -171.5 -216.5 50
v -98.5 -216.5 40
v -98.5 -216.5 50
v -98.5 -13.5 40
v -98.5 -13.5 50
v -131.5 -216.5 40
v -131.5 -216.5 50
v -131.5 -13.5 40
v -131.5 -13.5 50
v 0 -230 50
v -230 -230 0
v 0 -230 0
v -230 -230 50
v -230 0 0
v -230 0 50
v 0 0 0
v 0 0 50
usemtl mat1
f 1 2 3
f 1 4 2
f 5 3 6
f 6 3 7
f 5 1 3
f 8 5 9
f 9 5 6
f 2 9 10
f 4 8 2
f 2 8 9
f 8 4 5
f 5 4 1
f 11 12 13
f 13 12 14
f 15 13 16
f 16 13 17
f 15 11 13
f 18 15 19
f 19 15 16
f 14 19 20
f 12 18 14
f 14 18 19
f 12 11 18
f 11 15 18
f 21 22 23
f 23 22 24
f 25 23 26
f 26 23 27
f 25 21 23
f 28 25 29
f 29 25 26
f 24 29 30
f 22 28 24
f 24 28 29
f 25 28 21
f 28 22 21
f 31 32 33
f 33 32 34
f 35 33 36
f 36 33 37
f 35 31 33
f 38 35 39
f 39 35 36
f 34 39 40
f 32 38 34
f 34 38 39
f 32 31 38
f 31 35 38
f 41 42 43
f 41 44 42
f 45 46 47
f 45 43 46
f 48 41 45
f 45 41 43
f 49 48 50
f 50 48 45
f 42 51 52
f 42 50 51
f 44 49 42
f 42 49 50
f 49 44 48
f 48 44 41
f 53 54 55
f 55 54 56
f 57 58 59
f 57 55 58
f 60 53 57
f 57 53 55
f 61 60 62
f 62 60 57
f 56 63 64
f 56 62 63
f 54 61 56
f 56 61 62
f 61 54 60
f 60 54 53
f 27 65 66
f 23 65 27
f 67 2 68
f 68 2 10
f 7 24 30
f 3 24 7
f 37 69 70
f 33 69 37
f 71 14 72
f 72 14 20
f 17 34 40
f 13 34 17
f 73 57 74
f 74 57 59
f 51 75 76
f 50 75 51
f 62 45 63
f 63 45 47
f 47 46 64
f 47 64 63
f 58 77 78
f 55 77 58
f 79 42 80
f 80 42 52
f 46 56 64
f 43 56 46
f 69 79 70
f 70 79 80
f 77 71 78
f 78 71 72
f 55 14 77
f 77 14 71
f 56 13 55
f 55 13 14
f 43 34 56
f 56 34 13
f 79 33 42
f 42 33 43
f 43 33 34
f 79 69 33
f 75 67 76
f 76 67 68
f 65 73 66
f 66 73 74
f 23 57 65
f 65 57 73
f 24 62 23
f 23 62 57
f 3 45 24
f 24 45 62
f 2 50 3
f 67 50 2
f 3 50 45
f 67 75 50
f 81 82 83
f 81 84 82
f 84 85 82
f 84 86 85
f 86 87 85
f 86 88 87
f 88 83 87
f 88 81 83
f 19 84 72
f 20 19 72
f 78 72 84
f 16 84 19
f 74 78 84
f 59 58 78
f 59 78 74
f 40 16 17
f 40 39 16
f 81 66 74
f 81 74 84
f 86 39 36
f 86 16 39
f 86 84 16
f 26 27 66
f 26 66 81
f 29 26 81
f 70 36 37
f 70 86 36
f 6 7 30
f 6 30 29
f 76 80 52
f 76 52 51
f 68 10 9
f 88 9 6
f 88 29 81
f 88 6 29
f 88 68 9
f 88 86 70
f 88 70 80
f 88 80 76
f 88 76 68
f 85 83 82
f 85 87 83
# Vertices: 88, normals: 0, texture coordinates: 0, faces: 172

o obj2
v -170 -215 77
v -133 -15 77
v -170 -15 77
v -133 -215 77
v -133 -15 40
v -133 -215 40
v -170 -15 40
v -170 -215 40
usemtl mat2
f 89 90 91
f 89 92 90
f 92 93 90
f 92 94 93
f 94 95 93
f 94 96 95
f 96 91 95
f 96 89 91
f 93 95 91
f 93 91 90
f 94 89 96
f 94 92 89
# Vertices: 8, normals: 0, texture coordinates: 0, faces: 12

o obj3
v -97 -215 77
v -60 -15 77
v -97 -15 77
v -60 -215 77
v -60 -15 40
v -60 -215 40
v -97 -15 40
v -97 -215 40
usemtl mat3
f 97 98 99
f 97 100 98
f 100 101 98
f 100 102 101
f 102 103 101
f 102 104 103
f 104 99 103
f 104 97 99
f 101 103 99
f 101 99 98
f 102 97 104
f 102 100 97
# Vertices: 8, normals: 0, texture coordinates: 0, faces: 12

o obj4
v -100 -151.5 92
v -100 -181.5 125
v -100 -181.5 92
v -100 -151.5 125
v -130 -181.5 125
v -130 -151.5 125
v -130 -181.5 92
v -130 -151.5 92
v -193 -181.5 92
v -193 -151.5 92
v -193 -151.5 25
v -193 -181.5 25
v -173 -181.5 25
v -173 -151.5 25
v -173 -181.5 77
v -173 -151.5 77
v -130 -181.5 77
v -130 -151.5 77
v -130 -181.5 25
v -130 -151.5 25
v -100 -181.5 25
v -100 -151.5 25
v -100 -181.5 77
v -100 -151.5 77
v -57 -181.5 77
v -57 -151.5 77
v -57 -181.5 25
v -57 -151.5 25
v -37 -181.5 25
v -37 -151.5 25
v -37 -181.5 92
v -37 -151.5 92
usemtl mat4
f 105 106 107
f 105 108 106
f 108 109 106
f 108 110 109
f 110 111 109
f 110 112 111
f 112 113 111
f 112 114 113
f 113 115 116
f 114 115 113
f 115 117 116
f 115 118 117
f 118 119 117
f 118 120 119
f 120 121 119
f 120 122 121
f 122 123 121
f 122 124 123
f 124 125 123
f 124 126 125
f 126 127 125
f 126 128 127
f 128 129 127
f 128 130 129
f 130 131 129
f 130 132 131
f 132 133 131
f 132 134 133
f 134 135 133
f 134 136 135
f 136 107 135
f 136 105 107
f 120 118 115
f 120 115 114
f 112 122 120
f 128 126 124
f 128 124 122
f 105 122 112
f 105 128 122
f 130 134 132
f 130 128 105
f 108 112 110
f 108 105 112
f 136 134 130
f 105 136 130
f 114 112 120
f 113 116 119
f 119 121 111
f 116 117 119
f 111 107 109
f 109 107 106
f 111 127 107
f 121 127 111
f 127 129 107
f 123 125 121
f 121 125 127
f 131 133 129
f 129 133 135
f 111 113 119
f 135 107 129
# Vertices: 32, normals: 0, texture coordinates: 0, faces: 60

o obj5
v -100 -48.5 92
v -100 -78.5 125
v -100 -78.5 92
v -100 -48.5 125
v -130 -78.5 125
v -130 -48.5 125
v -130 -78.5 92
v -130 -48.5 92
v -193 -78.5 92
v -193 -48.5 92
v -193 -48.5 25
v -193 -78.5 25
v -173 -78.5 25
v -173 -48.5 25
v -173 -78.5 77
v -173 -48.5 77
v -130 -78.5 77
v -130 -48.5 77
v -130 -78.5 25
v -130 -48.5 25
v -100 -78.5 25
v -100 -48.5 25
v -100 -78.5 77
v -100 -48.5 77
v -57 -78.5 77
v -57 -48.5 77
v -57 -78.5 25
v -57 -48.5 25
v -37 -78.5 25
v -37 -48.5 25
v -37 -78.5 92
v -37 -48.5 92
usemtl mat5
f 137 138 139
f 137 140 138
f 140 141 138
f 140 142 141
f 142 143 141
f 142 144 143
f 144 145 143
f 144 146 145
f 145 147 148
f 146 147 145
f 147 149 148
f 147 150 149
f 150 151 149
f 150 152 151
f 152 153 151
f 152 154 153
f 154 155 153
f 154 156 155
f 156 157 155
f 156 158 157
f 158 159 157
f 158 160 159
f 160 161 159
f 160 162 161
f 162 163 161
f 162 164 163
f 164 165 163
f 164 166 165
f 166 167 165
f 166 168 167
f 168 139 167
f 168 137 139
f 152 150 147
f 152 147 146
f 144 154 152
f 160 158 156
f 160 156 154
f 137 154 144
f 137 160 154
f 162 166 164
f 162 160 137
f 140 144 142
f 140 137 144
f 168 166 162
f 137 168 162
f 146 144 152
f 145 148 151
f 151 153 143
f 148 149 151
f 143 139 141
f 141 139 138
f 143 159 139
f 153 159 143
f 159 161 139
f 155 157 153
f 153 157 159
f 163 165 161
f 161 165 167
f 143 145 151
f 167 139 161
# Vertices: 32, normals: 0, texture coordinates: 0, faces: 60

