mtllib board2.mtl

o obj1
v 199.5 115 30
v 199.5 115 15
v 199.4881897 114.52646637 30
v 199.4881897 114.52646637 15
v 199.45278931 114.05410767 15
v 199.45278931 114.05410767 30
v 199.39389038 113.58409882 15
v 199.39389038 113.58409882 30
v 199.31164551 113.11761475 15
v 199.31164551 113.11761475 30
v 199.20623779 112.6558075 15
v 199.20623779 112.6558075 30
v 199.07794189 112.1998291 30
v 199.07794189 112.1998291 15
v 198.92707825 111.75080872 15
v 198.92707825 111.75080872 30
v 198.75402832 111.30986786 30
v 198.75402832 111.30986786 15
v 198.5592041 110.87810516 15
v 198.5592041 110.87810516 30
v 198.34310913 110.45658875 15
v 198.34310913 110.45658875 30
v 198.10626221 110.04636383 30
v 198.10626221 110.04636383 15
v 197.84927368 109.64846039 15
v 197.84927368 109.64846039 30
v 197.57275391 109.26385498 15
v 197.57275391 109.26385498 30
v 197.27742004 108.89351654 15
v 197.27742004 108.89351654 30
v 196.96398926 108.5383606 30
v 196.96398926 108.5383606 15
v 196.633255 108.19926453 15
v 196.633255 108.19926453 30
v 196.28601074 107.8770752 15
v 196.28601074 107.8770752 30
v 195.92315674 107.57260132 15
v 195.92315674 107.57260132 30
v 195.54556274 107.28659058 15
v 195.54556274 107.28659058 30
v 195.15419006 107.0197525 15
v 195.15419006 107.0197525 30
v 194.75 106.77275848 15
v 194.75 106.77275848 30
v 194.33399963 106.54621887 15
v 194.33399963 106.54621887 30
v 193.90722656 106.34069061 15
v 193.90722656 106.34069061 30
v 193.47073364 106.15670013 30
v 193.47073364 106.15670013 15
v 193.02561951 105.99468994 15
v 193.02561951 105.99468994 30
v 192.57298279 105.85507202 15
v 192.57298279 105.85507202 30
v 192.11395264 105.73818207 15
v 192.11395264 105.73818207 30
v 191.6496582 105.64432526 15
v 191.6496582 105.64432526 30
v 191.18125916 105.57373047 15
v 191.18125916 105.57373047 30
v 190.70993042 105.52656555 15
v 190.70993042 105.52656555 30
v 190.23684692 105.50295258 15
v 190.23684692 105.50295258 30
v 189.76315308 105.50295258 30
v 189.76315308 105.50295258 15
v 189.29006958 105.52656555 15
v 189.29006958 105.52656555 30
v 188.81874084 105.57373047 30
v 188.81874084 105.57373047 15
v 188.3503418 105.64432526 15
v 188.3503418 105.64432526 30
v 187.88604736 105.73818207 15
v 187.88604736 105.73818207 30
v 187.42701721 105.85507202 15
v 187.42701721 105.85507202 30
v 186.97438049 105.99468994 30
v 186.97438049 105.99468994 15
v 186.52926636 106.15670013 15
v 186.52926636 106.15670013 30
v 186.09277344 106.34069061 15
v 186.09277344 106.34069061 30
v 185.66600037 106.54621887 30
v 185.66600037 106.54621887 15
v 185.25 106.77275848 15
v 185.25 106.77275848 30
v 184.84580994 107.0197525 15
v 184.84580994 107.0197525 30
v 184.45443726 107.28659058 30
v 184.45443726 107.28659058 15
v 184.07684326 107.57260132 15
v 184.07684326 107.57260132 30
v 183.71398926 107.8770752 15
v 183.71398926 107.8770752 30
v 183.366745 108.19926453 30
v 183.366745 108.19926453 15
v 183.03601074 108.5383606 15
v 183.03601074 108.5383606 30
v 182.72257996 108.89351654 15
v 182.72257996 108.89351654 30
v 182.42724609 109.26385498 15
v 182.42724609 109.26385498 30
v 182.15072632 109.64846039 30
v 182.15072632 109.64846039 15
v 181.89373779 110.04636383 15
v 181.89373779 110.04636383 30
v 181.65689087 110.45658875 15
v 181.65689087 110.45658875 30
v 181.4407959 110.87810516 30
v 181.4407959 110.87810516 15
v 181.24597168 111.30986786 15
v 181.24597168 111.30986786 30
v 181.07292175 111.75080872 15
v 181.07292175 111.75080872 30
v 180.92205811 112.1998291 30
v 180.92205811 112.1998291 15
v 180.79376221 112.6558075 15
v 180.79376221 112.6558075 30
v 180.68835449 113.11761475 15
v 180.68835449 113.11761475 30
v 180.60610962 113.58409882 30
v 180.60610962 113.58409882 15
v 180.54721069 114.05410767 15
v 180.54721069 114.05410767 30
v 180.5118103 114.52646637 15
v 180.5118103 114.52646637 30
v 180.5 115 15
v 180.5 115 30
v 180.5118103 115.47353363 30
v 180.5118103 115.47353363 15
v 180.54721069 115.94589233 15
v 180.54721069 115.94589233 30
v 180.60610962 116.41590118 15
v 180.60610962 116.41590118 30
v 180.68835449 116.88238525 30
v 180.68835449 116.88238525 15
v 180.79376221 117.3441925 15
v 180.79376221 117.3441925 30
v 180.92205811 117.8001709 15
v 180.92205811 117.8001709 30
v 181.07292175 118.24919128 30
v 181.07292175 118.24919128 15
v 181.24597168 118.69013214 15
v 181.24597168 118.69013214 30
v 181.4407959 119.12189484 15
v 181.4407959 119.12189484 30
v 181.65689087 119.54341125 15
v 181.65689087 119.54341125 30
v 181.89373779 119.95363617 15
v 181.89373779 119.95363617 30
v 182.15072632 120.35153961 30
v 182.15072632 120.35153961 15
v 182.42724609 120.73614502 15
v 182.42724609 120.73614502 30
v 182.72257996 121.10648346 15
v 182.72257996 121.10648346 30
v 183.03601074 121.4616394 15
v 183.03601074 121.4616394 30
v 183.366745 121.80073547 30
v 183.366745 121.80073547 15
v 183.71398926 122.1229248 15
v 183.71398926 122.1229248 30
v 184.07684326 122.42739868 30
v 184.07684326 122.42739868 15
v 184.45443726 122.71340942 15
v 184.45443726 122.71340942 30
v 184.84580994 122.9802475 15
v 184.84580994 122.9802475 30
v 185.25 123.22724152 15
v 185.25 123.22724152 30
v 185.66600037 123.45378113 30
v 185.66600037 123.45378113 15
v 186.09277344 123.65930939 15
v 186.09277344 123.65930939 30
v 186.52926636 123.84329987 30
v 186.52926636 123.84329987 15
v 186.97438049 124.00531006 15
v 186.97438049 124.00531006 30
v 187.42701721 124.14492798 15
v 187.42701721 124.14492798 30
v 187.88604736 124.26181793 15
v 187.88604736 124.26181793 30
v 188.3503418 124.35567474 30
v 188.3503418 124.35567474 15
v 188.81874084 124.42626953 15
v 188.81874084 124.42626953 30
v 189.29006958 124.47343445 30
v 189.29006958 124.47343445 15
v 189.76315308 124.49704742 30
v 189.76315308 124.49704742 15
v 190.23684692 124.49704742 15
v 190.23684692 124.49704742 30
v 190.70993042 124.47343445 30
v 190.70993042 124.47343445 15
v 191.18125916 124.42626953 15
v 191.18125916 124.42626953 30
v 191.6496582 124.35567474 30
v 191.6496582 124.35567474 15
v 192.11395264 124.26181793 15
v 192.11395264 124.26181793 30
v 192.57298279 124.14492798 15
v 192.57298279 124.14492798 30
v 193.02561951 124.00531006 15
v 193.02561951 124.00531006 30
v 193.47073364 123.84329987 30
v 193.47073364 123.84329987 15
v 193.90722656 123.65930939 15
v 193.90722656 123.65930939 30
v 194.33399963 123.45378113 30
v 194.33399963 123.45378113 15
v 194.75 123.22724152 15
v 194.75 123.22724152 30
v 195.15419006 122.9802475 15
v 195.15419006 122.9802475 30
v 195.54556274 122.71340942 15
v 195.54556274 122.71340942 30
v 195.92315674 122.42739868 30
v 195.92315674 122.42739868 15
v 196.28601074 122.1229248 15
v 196.28601074 122.1229248 30
v 196.633255 121.80073547 15
v 196.633255 121.80073547 30
v 196.96398926 121.4616394 15
v 196.96398926 121.4616394 30
v 197.27742004 121.10648346 15
v 197.27742004 121.10648346 30
v 197.57275391 120.73614502 30
v 197.57275391 120.73614502 15
v 197.84927368 120.35153961 15
v 197.84927368 120.35153961 30
v 198.10626221 119.95363617 15
v 198.10626221 119.95363617 30
v 198.34310913 119.54341125 30
v 198.34310913 119.54341125 15
v 198.5592041 119.12189484 15
v 198.5592041 119.12189484 30
v 198.75402832 118.69013214 15
v 198.75402832 118.69013214 30
v 198.92707825 118.24919128 15
v 198.92707825 118.24919128 30
v 199.07794189 117.8001709 15
v 199.07794189 117.8001709 30
v 199.20623779 117.3441925 15
v 199.20623779 117.3441925 30
v 199.31164551 116.88238525 15
v 199.31164551 116.88238525 30
v 199.39389038 116.41590118 30
v 199.39389038 116.41590118 15
v 199.45278931 115.94589233 15
v 199.45278931 115.94589233 30
v 199.4881897 115.47353363 15
v 199.4881897 115.47353363 30
v 49.5 115 30
v 49.5 115 15
v 49.4881897 114.52646637 30
v 49.4881897 114.52646637 15
v 49.45279312 114.05410767 15
v 49.45279312 114.05410767 30
v 49.3938942 113.58409882 15
v 49.3938942 113.58409882 30
v 49.31163788 113.11761475 15
v 49.31163788 113.11761475 30
v 49.20623398 112.6558075 15
v 49.20623398 112.6558075 30
v 49.07794189 112.1998291 30
v 49.07794189 112.1998291 15
v 48.92707825 111.75080872 15
v 48.92707825 111.75080872 30
v 48.75402451 111.30986786 30
v 48.75402451 111.30986786 15
v 48.5592041 110.87810516 15
v 48.5592041 110.87810516 30
v 48.34310532 110.45658875 15
v 48.34310532 110.45658875 30
v 48.10626221 110.04636383 30
v 48.10626221 110.04636383 15
v 47.84926987 109.64846039 15
v 47.84926987 109.64846039 30
v 47.57275772 109.26385498 15
v 47.57275772 109.26385498 30
v 47.27742386 108.89351654 15
v 47.27742386 108.89351654 30
v 46.96399307 108.5383606 30
v 46.96399307 108.5383606 15
v 46.63325119 108.19926453 15
v 46.63325119 108.19926453 30
v 46.28601456 107.8770752 15
v 46.28601456 107.8770752 30
v 45.92315292 107.57260132 15
v 45.92315292 107.57260132 30
v 45.54556656 107.28659058 15
v 45.54556656 107.28659058 30
v 45.15419006 107.0197525 15
v 45.15419006 107.0197525 30
v 44.75 106.77275848 15
v 44.75 106.77275848 30
v 44.33399963 106.54621887 15
v 44.33399963 106.54621887 30
v 43.90722656 106.34069061 15
v 43.90722656 106.34069061 30
v 43.47074127 106.15670013 30
v 43.47074127 106.15670013 15
v 43.02562332 105.99468994 15
v 43.02562332 105.99468994 30
v 42.57298279 105.85507202 15
v 42.57298279 105.85507202 30
v 42.11394882 105.73818207 15
v 42.11394882 105.73818207 30
v 41.6496582 105.64432526 15
v 41.6496582 105.64432526 30
v 41.18126678 105.57373047 15
v 41.18126678 105.57373047 30
v 40.70993423 105.52656555 15
v 40.70993423 105.52656555 30
v 40.23684311 105.50295258 15
v 40.23684311 105.50295258 30
v 39.76315689 105.50295258 30
v 39.76315689 105.50295258 15
v 39.29006577 105.52656555 15
v 39.29006577 105.52656555 30
v 38.81873322 105.57373047 30
v 38.81873322 105.57373047 15
v 38.3503418 105.64432526 15
v 38.3503418 105.64432526 30
v 37.88605118 105.73818207 15
v 37.88605118 105.73818207 30
v 37.42701721 105.85507202 15
v 37.42701721 105.85507202 30
v 36.97437668 105.99468994 30
v 36.97437668 105.99468994 15
v 36.52925873 106.15670013 15
v 36.52925873 106.15670013 30
v 36.09277344 106.34069061 15
v 36.09277344 106.34069061 30
v 35.66600037 106.54621887 30
v 35.66600037 106.54621887 15
v 35.25 106.77275848 15
v 35.25 106.77275848 30
v 34.84580994 107.0197525 15
v 34.84580994 107.0197525 30
v 34.45443344 107.28659058 30
v 34.45443344 107.28659058 15
v 34.07684708 107.57260132 15
v 34.07684708 107.57260132 30
v 33.71398544 107.8770752 15
v 33.71398544 107.8770752 30
v 33.36674881 108.19926453 30
v 33.36674881 108.19926453 15
v 33.03600693 108.5383606 15
v 33.03600693 108.5383606 30
v 32.72257614 108.89351654 15
v 32.72257614 108.89351654 30
v 32.42724228 109.26385498 15
v 32.42724228 109.26385498 30
v 32.15073013 109.64846039 30
v 32.15073013 109.64846039 15
v 31.89373589 110.04636383 15
v 31.89373589 110.04636383 30
v 31.65689468 110.45658875 15
v 31.65689468 110.45658875 30
v 31.4407959 110.87810516 30
v 31.4407959 110.87810516 15
v 31.24597549 111.30986786 15
v 31.24597549 111.30986786 30
v 31.07291985 111.75080872 15
v 31.07291985 111.75080872 30
v 30.92205811 112.1998291 30
v 30.92205811 112.1998291 15
v 30.79376602 112.6558075 15
v 30.79376602 112.6558075 30
v 30.68836212 113.11761475 15
v 30.68836212 113.11761475 30
v 30.60610771 113.58409882 30
v 30.60610771 113.58409882 15
v 30.54720688 114.05410767 15
v 30.54720688 114.05410767 30
v 30.5118084 114.52646637 15
v 30.5118084 114.52646637 30
v 30.5 115 15
v 30.5 115 30
v 30.5118084 115.47353363 30
v 30.5118084 115.47353363 15
v 30.54720688 115.94589233 15
v 30.54720688 115.94589233 30
v 30.60610771 116.41590118 15
v 30.60610771 116.41590118 30
v 30.68836212 116.88238525 30
v 30.68836212 116.88238525 15
v 30.79376602 117.3441925 15
v 30.79376602 117.3441925 30
v 30.92205811 117.8001709 15
v 30.92205811 117.8001709 30
v 31.07291985 118.24919128 30
v 31.07291985 118.24919128 15
v 31.24597549 118.69013214 15
v 31.24597549 118.69013214 30
v 31.4407959 119.12189484 15
v 31.4407959 119.12189484 30
v 31.65689468 119.54341125 15
v 31.65689468 119.54341125 30
v 31.89373589 119.95363617 15
v 31.89373589 119.95363617 30
v 32.15073013 120.35153961 30
v 32.15073013 120.35153961 15
v 32.42724228 120.73614502 15
v 32.42724228 120.73614502 30
v 32.72257614 121.10648346 15
v 32.72257614 121.10648346 30
v 33.03600693 121.4616394 15
v 33.03600693 121.4616394 30
v 33.36674881 121.80073547 30
v 33.36674881 121.80073547 15
v 33.71398544 122.1229248 15
v 33.71398544 122.1229248 30
v 34.07684708 122.42739868 30
v 34.07684708 122.42739868 15
v 34.45443344 122.71340942 15
v 34.45443344 122.71340942 30
v 34.84580994 122.9802475 15
v 34.84580994 122.9802475 30
v 35.25 123.22724152 15
v 35.25 123.22724152 30
v 35.66600037 123.45378113 30
v 35.66600037 123.45378113 15
v 36.09277344 123.65930939 15
v 36.09277344 123.65930939 30
v 36.52925873 123.84329987 30
v 36.52925873 123.84329987 15
v 36.97437668 124.00531006 15
v 36.97437668 124.00531006 30
v 37.42701721 124.14492798 15
v 37.42701721 124.14492798 30
v 37.88605118 124.26181793 15
v 37.88605118 124.26181793 30
v 38.3503418 124.35567474 30
v 38.3503418 124.35567474 15
v 38.81873322 124.42626953 15
v 38.81873322 124.42626953 30
v 39.29006577 124.47343445 30
v 39.29006577 124.47343445 15
v 39.76315689 124.49704742 30
v 39.76315689 124.49704742 15
v 40.23684311 124.49704742 15
v 40.23684311 124.49704742 30
v 40.70993423 124.47343445 30
v 40.70993423 124.47343445 15
v 41.18126678 124.42626953 15
v 41.18126678 124.42626953 30
v 41.6496582 124.35567474 30
v 41.6496582 124.35567474 15
v 42.11394882 124.26181793 15
v 42.11394882 124.26181793 30
v 42.57298279 124.14492798 15
v 42.57298279 124.14492798 30
v 43.02562332 124.00531006 15
v 43.02562332 124.00531006 30
v 43.47074127 123.84329987 30
v 43.47074127 123.84329987 15
v 43.90722656 123.65930939 15
v 43.90722656 123.65930939 30
v 44.33399963 123.45378113 30
v 44.33399963 123.45378113 15
v 44.75 123.22724152 15
v 44.75 123.22724152 30
v 45.15419006 122.9802475 15
v 45.15419006 122.9802475 30
v 45.54556656 122.71340942 15
v 45.54556656 122.71340942 30
v 45.92315292 122.42739868 30
v 45.92315292 122.42739868 15
v 46.28601456 122.1229248 15
v 46.28601456 122.1229248 30
v 46.63325119 121.80073547 15
v 46.63325119 121.80073547 30
v 46.96399307 121.4616394 15
v 46.96399307 121.4616394 30
v 47.27742386 121.10648346 15
v 47.27742386 121.10648346 30
v 47.57275772 120.73614502 30
v 47.57275772 120.73614502 15
v 47.84926987 120.35153961 15
v 47.84926987 120.35153961 30
v 48.10626221 119.95363617 15
v 48.10626221 119.95363617 30
v 48.34310532 119.54341125 30
v 48.34310532 119.54341125 15
v 48.5592041 119.12189484 15
v 48.5592041 119.12189484 30
v 48.75402451 118.69013214 15
v 48.75402451 118.69013214 30
v 48.92707825 118.24919128 15
v 48.92707825 118.24919128 30
v 49.07794189 117.8001709 15
v 49.07794189 117.8001709 30
v 49.20623398 117.3441925 15
v 49.20623398 117.3441925 30
v 49.31163788 116.88238525 15
v 49.31163788 116.88238525 30
v 49.3938942 116.41590118 30
v 49.3938942 116.41590118 15
v 49.45279312 115.94589233 15
v 49.45279312 115.94589233 30
v 49.4881897 115.47353363 15
v 49.4881897 115.47353363 30
v 132 167 5
v 132 132 30
v 132 167 50
v 132 132 50
v 132 98 30
v 132 63 50
v 132 98 50
v 132 63 5
v 98 167 5
v 98 167 50
v 98 63 5
v 98 98 30
v 98 63 50
v 98 98 50
v 98 132 30
v 98 132 50
v 23 132 30
v 23 132 50
v 23 98 30
v 207 98 30
v 207 132 30
v 23 98 50
v 207 98 50
v 207 132 50
v 0 230 50
v 230 230 0
v 0 230 0
v 230 230 50
v 230 0 0
v 230 0 50
v 0 0 0
v 0 0 50
usemtl mat1
f 1 2 3
f 2 4 3
f 3 5 6
f 4 5 3
f 6 7 8
f 5 7 6
f 8 9 10
f 7 9 8
f 10 11 12
f 12 11 13
f 9 11 10
f 11 14 13
f 13 15 16
f 16 15 17
f 14 15 13
f 15 18 17
f 17 19 20
f 18 19 17
f 20 21 22
f 22 21 23
f 19 21 20
f 21 24 23
f 24 25 23
f 23 25 26
f 25 27 26
f 26 27 28
f 27 29 28
f 28 29 30
f 30 29 31
f 29 32 31
f 32 33 31
f 31 33 34
f 33 35 34
f 34 35 36
f 35 37 36
f 36 37 38
f 37 39 38
f 38 39 40
f 39 41 40
f 40 41 42
f 41 43 42
f 42 43 44
f 43 45 44
f 44 45 46
f 46 47 48
f 45 47 46
f 48 47 49
f 47 50 49
f 50 51 49
f 49 51 52
f 52 53 54
f 51 53 52
f 54 55 56
f 53 55 54
f 56 57 58
f 55 57 56
f 58 59 60
f 57 59 58
f 60 61 62
f 59 61 60
f 62 63 64
f 64 63 65
f 61 63 62
f 63 66 65
f 65 67 68
f 68 67 69
f 66 67 65
f 67 70 69
f 69 71 72
f 70 71 69
f 72 73 74
f 71 73 72
f 73 75 74
f 74 75 76
f 76 75 77
f 75 78 77
f 78 79 77
f 77 79 80
f 79 81 80
f 80 81 82
f 82 81 83
f 81 84 83
f 84 85 83
f 83 85 86
f 85 87 86
f 86 87 88
f 88 87 89
f 87 90 89
f 90 91 89
f 89 91 92
f 91 93 92
f 92 93 94
f 94 93 95
f 93 96 95
f 96 97 95
f 95 97 98
f 97 99 98
f 98 99 100
f 99 101 100
f 100 101 102
f 102 101 103
f 101 104 103
f 104 105 103
f 103 105 106
f 105 107 106
f 106 107 108
f 108 107 109
f 107 110 109
f 110 111 109
f 109 111 112
f 111 113 112
f 112 113 114
f 114 113 115
f 113 116 115
f 115 117 118
f 116 117 115
f 118 119 120
f 120 119 121
f 117 119 118
f 119 122 121
f 121 123 124
f 122 123 121
f 123 125 124
f 124 125 126
f 125 127 126
f 126 127 128
f 128 127 129
f 127 130 129
f 130 131 129
f 129 131 132
f 131 133 132
f 132 133 134
f 134 133 135
f 133 136 135
f 136 137 135
f 135 137 138
f 137 139 138
f 138 139 140
f 140 139 141
f 139 142 141
f 142 143 141
f 141 143 144
f 143 145 144
f 144 145 146
f 145 147 146
f 146 147 148
f 148 149 150
f 150 149 151
f 147 149 148
f 149 152 151
f 151 153 154
f 152 153 151
f 154 155 156
f 153 155 154
f 156 157 158
f 158 157 159
f 155 157 156
f 157 160 159
f 159 161 162
f 162 161 163
f 160 161 159
f 161 164 163
f 163 165 166
f 164 165 163
f 166 167 168
f 165 167 166
f 168 169 170
f 170 169 171
f 167 169 168
f 169 172 171
f 171 173 174
f 174 173 175
f 172 173 171
f 173 176 175
f 176 177 175
f 175 177 178
f 177 179 178
f 178 179 180
f 179 181 180
f 180 181 182
f 182 181 183
f 181 184 183
f 183 185 186
f 186 185 187
f 184 185 183
f 187 188 189
f 185 188 187
f 188 190 189
f 189 191 192
f 192 191 193
f 190 191 189
f 191 194 193
f 193 195 196
f 196 195 197
f 194 195 193
f 195 198 197
f 197 199 200
f 198 199 197
f 200 201 202
f 199 201 200
f 202 203 204
f 204 203 205
f 201 203 202
f 203 206 205
f 205 207 208
f 208 207 209
f 206 207 205
f 207 210 209
f 209 211 212
f 210 211 209
f 212 213 214
f 211 213 212
f 214 215 216
f 216 215 217
f 213 215 214
f 215 218 217
f 217 219 220
f 218 219 217
f 220 221 222
f 219 221 220
f 222 223 224
f 221 223 222
f 223 225 224
f 224 225 226
f 226 225 227
f 225 228 227
f 227 229 230
f 228 229 227
f 229 231 230
f 230 231 232
f 232 231 233
f 231 234 233
f 234 235 233
f 233 235 236
f 235 237 236
f 236 237 238
f 237 239 238
f 238 239 240
f 239 241 240
f 240 241 242
f 241 243 242
f 242 243 244
f 243 245 244
f 244 245 246
f 246 245 247
f 245 248 247
f 248 249 247
f 247 249 250
f 249 251 250
f 250 251 252
f 251 2 252
f 252 2 1
f 219 223 221
f 225 223 219
f 213 218 215
f 231 229 228
f 207 211 210
f 207 213 211
f 207 218 213
f 239 234 231
f 239 235 234
f 239 237 235
f 203 207 206
f 203 219 218
f 203 225 219
f 203 218 207
f 241 228 225
f 241 239 231
f 241 231 228
f 243 241 225
f 248 245 243
f 194 203 201
f 194 198 195
f 194 199 198
f 194 201 199
f 251 249 248
f 251 248 243
f 191 203 194
f 190 203 191
f 4 2 251
f 188 203 190
f 7 5 4
f 184 225 203
f 184 188 185
f 184 203 188
f 9 7 4
f 15 9 4
f 15 11 9
f 15 14 11
f 15 4 251
f 173 177 176
f 173 179 177
f 172 179 173
f 169 179 172
f 24 18 15
f 24 19 18
f 24 21 19
f 24 15 251
f 167 179 169
f 165 179 167
f 165 181 179
f 165 184 181
f 161 184 165
f 161 165 164
f 32 25 24
f 32 27 25
f 32 29 27
f 33 32 24
f 157 184 161
f 157 161 160
f 39 37 35
f 152 155 153
f 41 35 33
f 41 33 24
f 41 39 35
f 149 225 184
f 149 184 157
f 149 155 152
f 149 243 225
f 149 157 155
f 149 251 243
f 45 43 41
f 145 251 149
f 145 149 147
f 47 45 41
f 51 50 47
f 51 47 41
f 139 143 142
f 137 145 143
f 137 143 139
f 133 137 136
f 133 145 137
f 61 53 51
f 61 55 53
f 61 57 55
f 61 59 57
f 127 131 130
f 127 133 131
f 66 61 51
f 66 63 61
f 125 133 127
f 67 66 51
f 67 145 133
f 67 24 251
f 67 41 24
f 67 251 145
f 67 51 41
f 122 133 125
f 122 125 123
f 71 70 67
f 119 133 122
f 73 71 67
f 117 133 119
f 79 73 67
f 79 75 73
f 79 78 75
f 111 133 117
f 111 116 113
f 111 117 116
f 84 79 67
f 84 81 79
f 87 85 84
f 104 107 105
f 104 110 107
f 104 111 110
f 90 84 67
f 90 87 84
f 91 90 67
f 96 67 133
f 96 133 111
f 96 93 91
f 96 111 104
f 96 99 97
f 96 101 99
f 96 104 101
f 96 91 67
f 253 254 255
f 254 256 255
f 255 257 258
f 256 257 255
f 258 259 260
f 257 259 258
f 260 261 262
f 259 261 260
f 262 263 264
f 264 263 265
f 261 263 262
f 263 266 265
f 265 267 268
f 268 267 269
f 266 267 265
f 267 270 269
f 269 271 272
f 270 271 269
f 272 273 274
f 274 273 275
f 271 273 272
f 273 276 275
f 276 277 275
f 275 277 278
f 277 279 278
f 278 279 280
f 279 281 280
f 280 281 282
f 282 281 283
f 281 284 283
f 284 285 283
f 283 285 286
f 285 287 286
f 286 287 288
f 287 289 288
f 288 289 290
f 289 291 290
f 290 291 292
f 291 293 292
f 292 293 294
f 293 295 294
f 294 295 296
f 295 297 296
f 296 297 298
f 298 299 300
f 297 299 298
f 300 299 301
f 299 302 301
f 302 303 301
f 301 303 304
f 304 305 306
f 303 305 304
f 306 307 308
f 305 307 306
f 308 309 310
f 307 309 308
f 310 311 312
f 309 311 310
f 312 313 314
f 311 313 312
f 314 315 316
f 316 315 317
f 313 315 314
f 315 318 317
f 317 319 320
f 320 319 321
f 318 319 317
f 319 322 321
f 321 323 324
f 322 323 321
f 324 325 326
f 323 325 324
f 325 327 326
f 326 327 328
f 328 327 329
f 327 330 329
f 330 331 329
f 329 331 332
f 331 333 332
f 332 333 334
f 334 333 335
f 333 336 335
f 336 337 335
f 335 337 338
f 337 339 338
f 338 339 340
f 340 339 341
f 339 342 341
f 342 343 341
f 341 343 344
f 343 345 344
f 344 345 346
f 346 345 347
f 345 348 347
f 348 349 347
f 347 349 350
f 349 351 350
f 350 351 352
f 351 353 352
f 352 353 354
f 354 353 355
f 353 356 355
f 356 357 355
f 355 357 358
f 357 359 358
f 358 359 360
f 360 359 361
f 359 362 361
f 362 363 361
f 361 363 364
f 363 365 364
f 364 365 366
f 366 365 367
f 365 368 367
f 367 369 370
f 368 369 367
f 370 371 372
f 372 371 373
f 369 371 370
f 371 374 373
f 373 375 376
f 374 375 373
f 375 377 376
f 376 377 378
f 377 379 378
f 378 379 380
f 380 379 381
f 379 382 381
f 382 383 381
f 381 383 384
f 383 385 384
f 384 385 386
f 386 385 387
f 385 388 387
f 388 389 387
f 387 389 390
f 389 391 390
f 390 391 392
f 392 391 393
f 391 394 393
f 394 395 393
f 393 395 396
f 395 397 396
f 396 397 398
f 397 399 398
f 398 399 400
f 400 401 402
f 402 401 403
f 399 401 400
f 401 404 403
f 403 405 406
f 404 405 403
f 406 407 408
f 405 407 406
f 408 409 410
f 410 409 411
f 407 409 408
f 409 412 411
f 411 413 414
f 414 413 415
f 412 413 411
f 413 416 415
f 415 417 418
f 416 417 415
f 418 419 420
f 417 419 418
f 420 421 422
f 422 421 423
f 419 421 420
f 421 424 423
f 423 425 426
f 426 425 427
f 424 425 423
f 425 428 427
f 428 429 427
f 427 429 430
f 429 431 430
f 430 431 432
f 431 433 432
f 432 433 434
f 434 433 435
f 433 436 435
f 435 437 438
f 438 437 439
f 436 437 435
f 439 440 441
f 437 440 439
f 440 442 441
f 441 443 444
f 444 443 445
f 442 443 441
f 443 446 445
f 445 447 448
f 448 447 449
f 446 447 445
f 447 450 449
f 449 451 452
f 450 451 449
f 452 453 454
f 451 453 452
f 454 455 456
f 456 455 457
f 453 455 454
f 455 458 457
f 457 459 460
f 460 459 461
f 458 459 457
f 459 462 461
f 461 463 464
f 462 463 461
f 464 465 466
f 463 465 464
f 466 467 468
f 468 467 469
f 465 467 466
f 467 470 469
f 469 471 472
f 470 471 469
f 472 473 474
f 471 473 472
f 474 475 476
f 473 475 474
f 475 477 476
f 476 477 478
f 478 477 479
f 477 480 479
f 479 481 482
f 480 481 479
f 481 483 482
f 482 483 484
f 484 483 485
f 483 486 485
f 486 487 485
f 485 487 488
f 487 489 488
f 488 489 490
f 489 491 490
f 490 491 492
f 491 493 492
f 492 493 494
f 493 495 494
f 494 495 496
f 495 497 496
f 496 497 498
f 498 497 499
f 497 500 499
f 500 501 499
f 499 501 502
f 501 503 502
f 502 503 504
f 503 254 504
f 504 254 253
f 471 475 473
f 477 475 471
f 465 470 467
f 483 481 480
f 459 463 462
f 459 465 463
f 459 470 465
f 491 486 483
f 491 487 486
f 491 489 487
f 455 459 458
f 455 471 470
f 455 477 471
f 455 470 459
f 493 480 477
f 493 491 483
f 493 483 480
f 495 493 477
f 500 497 495
f 446 455 453
f 446 450 447
f 446 451 450
f 446 453 451
f 503 501 500
f 503 500 495
f 443 455 446
f 442 455 443
f 256 254 503
f 440 455 442
f 259 257 256
f 436 477 455
f 436 440 437
f 436 455 440
f 261 259 256
f 267 261 256
f 267 263 261
f 267 266 263
f 267 256 503
f 425 429 428
f 425 431 429
f 424 431 425
f 421 431 424
f 276 270 267
f 276 271 270
f 276 273 271
f 276 267 503
f 419 431 421
f 417 431 419
f 417 433 431
f 417 436 433
f 413 436 417
f 413 417 416
f 284 277 276
f 284 279 277
f 284 281 279
f 285 284 276
f 409 436 413
f 409 413 412
f 291 289 287
f 404 407 405
f 293 287 285
f 293 285 276
f 293 291 287
f 401 477 436
f 401 436 409
f 401 407 404
f 401 495 477
f 401 409 407
f 401 503 495
f 297 295 293
f 397 503 401
f 397 401 399
f 299 297 293
f 303 302 299
f 303 299 293
f 391 395 394
f 389 397 395
f 389 395 391
f 385 389 388
f 385 397 389
f 313 305 303
f 313 307 305
f 313 309 307
f 313 311 309
f 379 383 382
f 379 385 383
f 318 313 303
f 318 315 313
f 377 385 379
f 319 318 303
f 319 397 385
f 319 276 503
f 319 293 276
f 319 503 397
f 319 303 293
f 374 385 377
f 374 377 375
f 323 322 319
f 371 385 374
f 325 323 319
f 369 385 371
f 331 325 319
f 331 327 325
f 331 330 327
f 363 385 369
f 363 368 365
f 363 369 368
f 336 331 319
f 336 333 331
f 339 337 336
f 356 359 357
f 356 362 359
f 356 363 362
f 342 336 319
f 342 339 336
f 343 342 319
f 348 319 385
f 348 385 363
f 348 345 343
f 348 363 356
f 348 351 349
f 348 353 351
f 348 356 353
f 348 343 319
f 505 506 507
f 507 506 508
f 509 510 511
f 506 512 509
f 505 512 506
f 509 512 510
f 513 505 514
f 514 505 507
f 515 516 517
f 517 516 518
f 515 519 516
f 519 514 520
f 519 513 514
f 515 513 519
f 512 515 510
f 510 515 517
f 505 513 512
f 512 513 515
f 521 519 522
f 522 519 520
f 516 283 286
f 286 288 516
f 516 282 283
f 288 290 516
f 516 280 282
f 290 292 516
f 516 278 280
f 292 294 516
f 516 275 278
f 294 296 516
f 516 274 275
f 296 298 516
f 516 272 274
f 298 300 516
f 516 269 272
f 300 301 516
f 516 268 269
f 301 304 516
f 516 265 268
f 304 306 516
f 516 264 265
f 306 308 516
f 516 262 264
f 516 260 262
f 516 258 260
f 516 255 258
f 519 253 516
f 516 253 255
f 519 504 253
f 519 502 504
f 519 499 502
f 519 498 499
f 519 496 498
f 519 494 496
f 519 492 494
f 519 490 492
f 519 488 490
f 519 485 488
f 519 484 485
f 519 482 484
f 519 479 482
f 519 478 479
f 519 476 478
f 310 523 308
f 312 523 310
f 314 523 312
f 316 523 314
f 317 523 316
f 320 523 317
f 321 523 320
f 324 523 321
f 326 523 324
f 328 523 326
f 329 523 328
f 332 523 329
f 334 523 332
f 335 523 334
f 338 523 335
f 340 523 338
f 341 523 340
f 344 523 341
f 346 523 344
f 347 523 346
f 308 523 516
f 519 474 476
f 347 350 523
f 519 472 474
f 350 352 523
f 519 469 472
f 352 354 523
f 519 468 469
f 354 355 523
f 519 466 468
f 355 358 523
f 519 464 466
f 358 360 523
f 519 461 464
f 360 361 523
f 361 364 523
f 364 366 523
f 366 367 523
f 367 370 523
f 370 372 523
f 372 373 523
f 373 376 523
f 376 378 523
f 378 380 523
f 448 521 445
f 449 521 448
f 380 521 523
f 381 521 380
f 384 521 381
f 386 521 384
f 387 521 386
f 390 521 387
f 392 521 390
f 393 521 392
f 396 521 393
f 398 521 396
f 400 521 398
f 402 521 400
f 403 521 402
f 406 521 403
f 408 521 406
f 410 521 408
f 411 521 410
f 414 521 411
f 415 521 414
f 418 521 415
f 420 521 418
f 422 521 420
f 423 521 422
f 426 521 423
f 427 521 426
f 430 521 427
f 432 521 430
f 434 521 432
f 435 521 434
f 438 521 435
f 439 521 438
f 441 521 439
f 444 521 441
f 445 521 444
f 519 521 449
f 519 449 452
f 519 452 454
f 519 454 456
f 519 456 457
f 519 457 460
f 519 460 461
f 524 31 34
f 34 36 524
f 524 30 31
f 36 38 524
f 524 28 30
f 38 40 524
f 524 26 28
f 40 42 524
f 524 23 26
f 42 44 524
f 524 22 23
f 44 46 524
f 524 20 22
f 46 48 524
f 524 17 20
f 48 49 524
f 524 16 17
f 49 52 524
f 524 13 16
f 52 54 524
f 524 12 13
f 54 56 524
f 524 10 12
f 56 58 524
f 524 8 10
f 58 60 524
f 524 6 8
f 60 62 524
f 524 3 6
f 62 64 524
f 524 1 3
f 64 65 524
f 65 68 524
f 68 69 524
f 69 72 524
f 72 74 524
f 226 525 224
f 227 525 226
f 230 525 227
f 232 525 230
f 233 525 232
f 236 525 233
f 238 525 236
f 240 525 238
f 242 525 240
f 244 525 242
f 246 525 244
f 247 525 246
f 250 525 247
f 252 525 250
f 1 525 252
f 524 525 1
f 525 222 224
f 525 220 222
f 525 217 220
f 525 216 217
f 525 214 216
f 525 212 214
f 525 209 212
f 525 208 209
f 525 205 208
f 525 204 205
f 525 202 204
f 525 200 202
f 525 197 200
f 525 196 197
f 525 193 196
f 525 192 193
f 525 189 192
f 525 187 189
f 525 186 187
f 525 183 186
f 76 509 74
f 77 509 76
f 80 509 77
f 82 509 80
f 83 509 82
f 86 509 83
f 88 509 86
f 89 509 88
f 92 509 89
f 94 509 92
f 95 509 94
f 98 509 95
f 100 509 98
f 102 509 100
f 103 509 102
f 106 509 103
f 108 509 106
f 109 509 108
f 112 509 109
f 114 509 112
f 115 509 114
f 118 509 115
f 120 509 118
f 121 509 120
f 124 509 121
f 126 509 124
f 128 509 126
f 74 509 524
f 128 506 509
f 129 506 128
f 132 506 129
f 134 506 132
f 135 506 134
f 138 506 135
f 140 506 138
f 141 506 140
f 144 506 141
f 146 506 144
f 148 506 146
f 150 506 148
f 151 506 150
f 154 506 151
f 156 506 154
f 158 506 156
f 159 506 158
f 162 506 159
f 163 506 162
f 166 506 163
f 168 506 166
f 170 506 168
f 171 506 170
f 525 506 183
f 183 506 182
f 182 506 180
f 180 506 178
f 178 506 175
f 175 506 174
f 174 506 171
f 518 523 526
f 516 523 518
f 524 509 527
f 527 509 511
f 525 524 528
f 528 524 527
f 508 525 528
f 506 525 508
f 523 521 526
f 526 521 522
f 529 530 531
f 529 532 530
f 532 533 530
f 532 534 533
f 534 535 533
f 534 536 535
f 536 531 535
f 536 529 531
f 517 526 536
f 518 526 517
f 529 526 522
f 529 536 526
f 534 510 517
f 534 517 536
f 514 522 520
f 514 529 522
f 527 511 510
f 527 510 534
f 528 507 508
f 532 528 527
f 532 514 507
f 532 529 514
f 532 507 528
f 532 527 534
f 535 531 533
f 531 530 533
# Vertices: 536, normals: 0, texture coordinates: 0, faces: 1068

o obj2
v 199.5 115 30
v 199.4881897 114.52646637 30
v 199.5 115 60
v 199.4881897 114.52646637 60
v 199.45278931 114.05410767 30
v 199.45278931 114.05410767 60
v 199.39389038 113.58409882 30
v 199.39389038 113.58409882 60
v 199.31164551 113.11761475 30
v 199.31164551 113.11761475 60
v 199.20623779 112.6558075 30
v 199.20623779 112.6558075 60
v 199.07794189 112.1998291 30
v 199.07794189 112.1998291 60
v 198.92707825 111.75080872 30
v 198.92707825 111.75080872 60
v 198.75402832 111.30986786 30
v 198.75402832 111.30986786 60
v 198.5592041 110.87810516 30
v 198.5592041 110.87810516 60
v 198.34310913 110.45658875 30
v 198.34310913 110.45658875 60
v 198.10626221 110.04636383 30
v 198.10626221 110.04636383 60
v 197.84927368 109.64846039 30
v 197.84927368 109.64846039 60
v 197.57275391 109.26385498 30
v 197.57275391 109.26385498 60
v 197.27742004 108.89351654 30
v 197.27742004 108.89351654 60
v 196.96398926 108.5383606 30
v 196.96398926 108.5383606 60
v 196.633255 108.19926453 30
v 196.633255 108.19926453 60
v 196.28601074 107.8770752 30
v 196.28601074 107.8770752 60
v 195.92315674 107.57260132 30
v 195.92315674 107.57260132 60
v 195.54556274 107.28659058 30
v 195.54556274 107.28659058 60
v 195.15419006 107.0197525 30
v 195.15419006 107.0197525 60
v 194.75 106.77275848 30
v 194.75 106.77275848 60
v 194.33399963 106.54621887 30
v 194.33399963 106.54621887 60
v 193.90722656 106.34069061 30
v 193.90722656 106.34069061 60
v 193.47073364 106.15670013 30
v 193.47073364 106.15670013 60
v 193.02561951 105.99468994 30
v 193.02561951 105.99468994 60
v 192.57298279 105.85507202 30
v 192.57298279 105.85507202 60
v 192.11395264 105.73818207 30
v 192.11395264 105.73818207 60
v 191.6496582 105.64432526 30
v 191.6496582 105.64432526 60
v 191.18125916 105.57373047 30
v 191.18125916 105.57373047 60
v 190.70993042 105.52656555 30
v 190.70993042 105.52656555 60
v 190.23684692 105.50295258 30
v 190.23684692 105.50295258 60
v 189.76315308 105.50295258 30
v 189.76315308 105.50295258 60
v 189.29006958 105.52656555 30
v 189.29006958 105.52656555 60
v 188.81874084 105.57373047 30
v 188.81874084 105.57373047 60
v 188.3503418 105.64432526 30
v 188.3503418 105.64432526 60
v 187.88604736 105.73818207 30
v 187.88604736 105.73818207 60
v 187.42701721 105.85507202 30
v 187.42701721 105.85507202 60
v 186.97438049 105.99468994 30
v 186.97438049 105.99468994 60
v 186.52926636 106.15670013 30
v 186.52926636 106.15670013 60
v 186.09277344 106.34069061 30
v 186.09277344 106.34069061 60
v 185.66600037 106.54621887 30
v 185.66600037 106.54621887 60
v 185.25 106.77275848 30
v 185.25 106.77275848 60
v 184.84580994 107.0197525 30
v 184.84580994 107.0197525 60
v 184.45443726 107.28659058 30
v 184.45443726 107.28659058 60
v 184.07684326 107.57260132 30
v 184.07684326 107.57260132 60
v 183.71398926 107.8770752 30
v 183.71398926 107.8770752 60
v 183.366745 108.19926453 30
v 183.366745 108.19926453 60
v 183.03601074 108.5383606 30
v 183.03601074 108.5383606 60
v 182.72257996 108.89351654 30
v 182.72257996 108.89351654 60
v 182.42724609 109.26385498 30
v 182.42724609 109.26385498 60
v 182.15072632 109.64846039 30
v 182.15072632 109.64846039 60
v 181.89373779 110.04636383 30
v 181.89373779 110.04636383 60
v 181.65689087 110.45658875 30
v 181.65689087 110.45658875 60
v 181.4407959 110.87810516 30
v 181.4407959 110.87810516 60
v 181.24597168 111.30986786 30
v 181.24597168 111.30986786 60
v 181.07292175 111.75080872 30
v 181.07292175 111.75080872 60
v 180.92205811 112.1998291 30
v 180.92205811 112.1998291 60
v 180.79376221 112.6558075 30
v 180.79376221 112.6558075 60
v 180.68835449 113.11761475 30
v 180.68835449 113.11761475 60
v 180.60610962 113.58409882 30
v 180.60610962 113.58409882 60
v 180.54721069 114.05410767 30
v 180.54721069 114.05410767 60
v 180.5118103 114.52646637 30
v 180.5118103 114.52646637 60
v 180.5 115 30
v 180.5 115 60
v 180.5118103 115.47353363 30
v 180.5118103 115.47353363 60
v 180.54721069 115.94589233 30
v 180.54721069 115.94589233 60
v 180.60610962 116.41590118 30
v 180.60610962 116.41590118 60
v 180.68835449 116.88238525 30
v 180.68835449 116.88238525 60
v 180.79376221 117.3441925 30
v 180.79376221 117.3441925 60
v 180.92205811 117.8001709 30
v 180.92205811 117.8001709 60
v 181.07292175 118.24919128 30
v 181.07292175 118.24919128 60
v 181.24597168 118.69013214 30
v 181.24597168 118.69013214 60
v 181.4407959 119.12189484 30
v 181.4407959 119.12189484 60
v 181.65689087 119.54341125 30
v 181.65689087 119.54341125 60
v 181.89373779 119.95363617 30
v 181.89373779 119.95363617 60
v 182.15072632 120.35153961 30
v 182.15072632 120.35153961 60
v 182.42724609 120.73614502 30
v 182.42724609 120.73614502 60
v 182.72257996 121.10648346 30
v 182.72257996 121.10648346 60
v 183.03601074 121.4616394 30
v 183.03601074 121.4616394 60
v 183.366745 121.80073547 30
v 183.366745 121.80073547 60
v 183.71398926 122.1229248 30
v 183.71398926 122.1229248 60
v 184.07684326 122.42739868 30
v 184.07684326 122.42739868 60
v 184.45443726 122.71340942 30
v 184.45443726 122.71340942 60
v 184.84580994 122.9802475 30
v 184.84580994 122.9802475 60
v 185.25 123.22724152 30
v 185.25 123.22724152 60
v 185.66600037 123.45378113 30
v 185.66600037 123.45378113 60
v 186.09277344 123.65930939 30
v 186.09277344 123.65930939 60
v 186.52926636 123.84329987 60
v 186.52926636 123.84329987 30
v 186.97438049 124.00531006 30
v 186.97438049 124.00531006 60
v 187.42701721 124.14492798 30
v 187.42701721 124.14492798 60
v 187.88604736 124.26181793 30
v 187.88604736 124.26181793 60
v 188.3503418 124.35567474 30
v 188.3503418 124.35567474 60
v 188.81874084 124.42626953 30
v 188.81874084 124.42626953 60
v 189.29006958 124.47343445 30
v 189.29006958 124.47343445 60
v 189.76315308 124.49704742 30
v 189.76315308 124.49704742 60
v 190.23684692 124.49704742 30
v 190.23684692 124.49704742 60
v 190.70993042 124.47343445 30
v 190.70993042 124.47343445 60
v 191.18125916 124.42626953 30
v 191.18125916 124.42626953 60
v 191.6496582 124.35567474 30
v 191.6496582 124.35567474 60
v 192.11395264 124.26181793 60
v 192.11395264 124.26181793 30
v 192.57298279 124.14492798 30
v 192.57298279 124.14492798 60
v 193.02561951 124.00531006 30
v 193.02561951 124.00531006 60
v 193.47073364 123.84329987 30
v 193.47073364 123.84329987 60
v 193.90722656 123.65930939 30
v 193.90722656 123.65930939 60
v 194.33399963 123.45378113 60
v 194.33399963 123.45378113 30
v 194.75 123.22724152 30
v 194.75 123.22724152 60
v 195.15419006 122.9802475 30
v 195.15419006 122.9802475 60
v 195.54556274 122.71340942 60
v 195.54556274 122.71340942 30
v 195.92315674 122.42739868 30
v 195.92315674 122.42739868 60
v 196.28601074 122.1229248 30
v 196.28601074 122.1229248 60
v 196.633255 121.80073547 30
v 196.633255 121.80073547 60
v 196.96398926 121.4616394 30
v 196.96398926 121.4616394 60
v 197.27742004 121.10648346 30
v 197.27742004 121.10648346 60
v 197.57275391 120.73614502 30
v 197.57275391 120.73614502 60
v 197.84927368 120.35153961 30
v 197.84927368 120.35153961 60
v 198.10626221 119.95363617 30
v 198.10626221 119.95363617 60
v 198.34310913 119.54341125 30
v 198.34310913 119.54341125 60
v 198.5592041 119.12189484 30
v 198.5592041 119.12189484 60
v 198.75402832 118.69013214 30
v 198.75402832 118.69013214 60
v 198.92707825 118.24919128 30
v 198.92707825 118.24919128 60
v 199.07794189 117.8001709 30
v 199.07794189 117.8001709 60
v 199.20623779 117.3441925 30
v 199.20623779 117.3441925 60
v 199.31164551 116.88238525 30
v 199.31164551 116.88238525 60
v 199.39389038 116.41590118 30
v 199.39389038 116.41590118 60
v 199.45278931 115.94589233 30
v 199.45278931 115.94589233 60
v 199.4881897 115.47353363 30
v 199.4881897 115.47353363 60
v 49.5 115 30
v 49.4881897 114.52646637 30
v 49.5 115 60
v 49.4881897 114.52646637 60
v 49.45279312 114.05410767 30
v 49.45279312 114.05410767 60
v 49.3938942 113.58409882 30
v 49.3938942 113.58409882 60
v 49.31163788 113.11761475 30
v 49.31163788 113.11761475 60
v 49.20623398 112.6558075 30
v 49.20623398 112.6558075 60
v 49.07794189 112.1998291 30
v 49.07794189 112.1998291 60
v 48.92707825 111.75080872 30
v 48.92707825 111.75080872 60
v 48.75402451 111.30986786 30
v 48.75402451 111.30986786 60
v 48.5592041 110.87810516 30
v 48.5592041 110.87810516 60
v 48.34310532 110.45658875 30
v 48.34310532 110.45658875 60
v 48.10626221 110.04636383 30
v 48.10626221 110.04636383 60
v 47.84926987 109.64846039 30
v 47.84926987 109.64846039 60
v 47.57275772 109.26385498 30
v 47.57275772 109.26385498 60
v 47.27742386 108.89351654 30
v 47.27742386 108.89351654 60
v 46.96399307 108.5383606 30
v 46.96399307 108.5383606 60
v 46.63325119 108.19926453 30
v 46.63325119 108.19926453 60
v 46.28601456 107.8770752 30
v 46.28601456 107.8770752 60
v 45.92315292 107.57260132 30
v 45.92315292 107.57260132 60
v 45.54556656 107.28659058 30
v 45.54556656 107.28659058 60
v 45.15419006 107.0197525 30
v 45.15419006 107.0197525 60
v 44.75 106.77275848 30
v 44.75 106.77275848 60
v 44.33399963 106.54621887 30
v 44.33399963 106.54621887 60
v 43.90722656 106.34069061 30
v 43.90722656 106.34069061 60
v 43.47074127 106.15670013 30
v 43.47074127 106.15670013 60
v 43.02562332 105.99468994 30
v 43.02562332 105.99468994 60
v 42.57298279 105.85507202 30
v 42.57298279 105.85507202 60
v 42.11394882 105.73818207 30
v 42.11394882 105.73818207 60
v 41.6496582 105.64432526 30
v 41.6496582 105.64432526 60
v 41.18126678 105.57373047 30
v 41.18126678 105.57373047 60
v 40.70993423 105.52656555 30
v 40.70993423 105.52656555 60
v 40.23684311 105.50295258 30
v 40.23684311 105.50295258 60
v 39.76315689 105.50295258 30
v 39.76315689 105.50295258 60
v 39.29006577 105.52656555 30
v 39.29006577 105.52656555 60
v 38.81873322 105.57373047 30
v 38.81873322 105.57373047 60
v 38.3503418 105.64432526 30
v 38.3503418 105.64432526 60
v 37.88605118 105.73818207 30
v 37.88605118 105.73818207 60
v 37.42701721 105.85507202 30
v 37.42701721 105.85507202 60
v 36.97437668 105.99468994 30
v 36.97437668 105.99468994 60
v 36.52925873 106.15670013 30
v 36.52925873 106.15670013 60
v 36.09277344 106.34069061 30
v 36.09277344 106.34069061 60
v 35.66600037 106.54621887 30
v 35.66600037 106.54621887 60
v 35.25 106.77275848 30
v 35.25 106.77275848 60
v 34.84580994 107.0197525 30
v 34.84580994 107.0197525 60
v 34.45443344 107.28659058 30
v 34.45443344 107.28659058 60
v 34.07684708 107.57260132 30
v 34.07684708 107.57260132 60
v 33.71398544 107.8770752 30
v 33.71398544 107.8770752 60
v 33.36674881 108.19926453 30
v 33.36674881 108.19926453 60
v 33.03600693 108.5383606 30
v 33.03600693 108.5383606 60
v 32.72257614 108.89351654 30
v 32.72257614 108.89351654 60
v 32.42724228 109.26385498 30
v 32.42724228 109.26385498 60
v 32.15073013 109.64846039 30
v 32.15073013 109.64846039 60
v 31.89373589 110.04636383 30
v 31.89373589 110.04636383 60
v 31.65689468 110.45658875 30
v 31.65689468 110.45658875 60
v 31.4407959 110.87810516 30
v 31.4407959 110.87810516 60
v 31.24597549 111.30986786 30
v 31.24597549 111.30986786 60
v 31.07291985 111.75080872 30
v 31.07291985 111.75080872 60
v 30.92205811 112.1998291 30
v 30.92205811 112.1998291 60
v 30.79376602 112.6558075 30
v 30.79376602 112.6558075 60
v 30.68836212 113.11761475 30
v 30.68836212 113.11761475 60
v 30.60610771 113.58409882 30
v 30.60610771 113.58409882 60
v 30.54720688 114.05410767 30
v 30.54720688 114.05410767 60
v 30.5118084 114.52646637 30
v 30.5118084 114.52646637 60
v 30.5 115 30
v 30.5 115 60
v 30.5118084 115.47353363 30
v 30.5118084 115.47353363 60
v 30.54720688 115.94589233 30
v 30.54720688 115.94589233 60
v 30.60610771 116.41590118 30
v 30.60610771 116.41590118 60
v 30.68836212 116.88238525 30
v 30.68836212 116.88238525 60
v 30.79376602 117.3441925 30
v 30.79376602 117.3441925 60
v 30.92205811 117.8001709 30
v 30.92205811 117.8001709 60
v 31.07291985 118.24919128 30
v 31.07291985 118.24919128 60
v 31.24597549 118.69013214 30
v 31.24597549 118.69013214 60
v 31.4407959 119.12189484 30
v 31.4407959 119.12189484 60
v 31.65689468 119.54341125 30
v 31.65689468 119.54341125 60
v 31.89373589 119.95363617 30
v 31.89373589 119.95363617 60
v 32.15073013 120.35153961 30
v 32.15073013 120.35153961 60
v 32.42724228 120.73614502 30
v 32.42724228 120.73614502 60
v 32.72257614 121.10648346 30
v 32.72257614 121.10648346 60
v 33.03600693 121.4616394 30
v 33.03600693 121.4616394 60
v 33.36674881 121.80073547 30
v 33.36674881 121.80073547 60
v 33.71398544 122.1229248 30
v 33.71398544 122.1229248 60
v 34.07684708 122.42739868 30
v 34.07684708 122.42739868 60
v 34.45443344 122.71340942 30
v 34.45443344 122.71340942 60
v 34.84580994 122.9802475 30
v 34.84580994 122.9802475 60
v 35.25 123.22724152 30
v 35.25 123.22724152 60
v 35.66600037 123.45378113 30
v 35.66600037 123.45378113 60
v 36.09277344 123.65930939 30
v 36.09277344 123.65930939 60
v 36.52925873 123.84329987 60
v 36.52925873 123.84329987 30
v 36.97437668 124.00531006 30
v 36.97437668 124.00531006 60
v 37.42701721 124.14492798 30
v 37.42701721 124.14492798 60
v 37.88605118 124.26181793 30
v 37.88605118 124.26181793 60
v 38.3503418 124.35567474 30
v 38.3503418 124.35567474 60
v 38.81873322 124.42626953 30
v 38.81873322 124.42626953 60
v 39.29006577 124.47343445 30
v 39.29006577 124.47343445 60
v 39.76315689 124.49704742 30
v 39.76315689 124.49704742 60
v 40.23684311 124.49704742 30
v 40.23684311 124.49704742 60
v 40.70993423 124.47343445 30
v 40.70993423 124.47343445 60
v 41.18126678 124.42626953 30
v 41.18126678 124.42626953 60
v 41.6496582 124.35567474 30
v 41.6496582 124.35567474 60
v 42.11394882 124.26181793 60
v 42.11394882 124.26181793 30
v 42.57298279 124.14492798 30
v 42.57298279 124.14492798 60
v 43.02562332 124.00531006 30
v 43.02562332 124.00531006 60
v 43.47074127 123.84329987 30
v 43.47074127 123.84329987 60
v 43.90722656 123.65930939 30
v 43.90722656 123.65930939 60
v 44.33399963 123.45378113 60
v 44.33399963 123.45378113 30
v 44.75 123.22724152 30
v 44.75 123.22724152 60
v 45.15419006 122.9802475 30
v 45.15419006 122.9802475 60
v 45.54556656 122.71340942 60
v 45.54556656 122.71340942 30
v 45.92315292 122.42739868 30
v 45.92315292 122.42739868 60
v 46.28601456 122.1229248 30
v 46.28601456 122.1229248 60
v 46.63325119 121.80073547 30
v 46.63325119 121.80073547 60
v 46.96399307 121.4616394 30
v 46.96399307 121.4616394 60
v 47.27742386 121.10648346 30
v 47.27742386 121.10648346 60
v 47.57275772 120.73614502 30
v 47.57275772 120.73614502 60
v 47.84926987 120.35153961 30
v 47.84926987 120.35153961 60
v 48.10626221 119.95363617 30
v 48.10626221 119.95363617 60
v 48.34310532 119.54341125 30
v 48.34310532 119.54341125 60
v 48.5592041 119.12189484 30
v 48.5592041 119.12189484 60
v 48.75402451 118.69013214 30
v 48.75402451 118.69013214 60
v 48.92707825 118.24919128 30
v 48.92707825 118.24919128 60
v 49.07794189 117.8001709 30
v 49.07794189 117.8001709 60
v 49.20623398 117.3441925 30
v 49.20623398 117.3441925 60
v 49.31163788 116.88238525 30
v 49.31163788 116.88238525 60
v 49.3938942 116.41590118 30
v 49.3938942 116.41590118 60
v 49.45279312 115.94589233 30
v 49.45279312 115.94589233 60
v 49.4881897 115.47353363 30
v 49.4881897 115.47353363 60
v 25 130 60
v 25 100 30
v 25 100 60
v 25 130 30
v 98 100 30
v 98 130 30
v 98 100 60
v 98 130 60
v 132 100 60
v 132 130 60
v 132 100 30
v 132 130 30
v 205 100 30
v 205 130 30
v 205 100 60
v 205 130 60
v 145 100 60
v 145 130 60
v 145 100 130
v 145 130 130
v 85 130 130
v 85 100 130
v 85 100 60
v 85 130 60
usemtl mat2
f 537 538 539
f 539 538 540
f 540 541 542
f 538 541 540
f 542 543 544
f 541 543 542
f 544 545 546
f 543 545 544
f 546 547 548
f 545 547 546
f 548 549 550
f 547 549 548
f 550 551 552
f 549 551 550
f 552 553 554
f 551 553 552
f 554 555 556
f 553 555 554
f 556 557 558
f 555 557 556
f 557 559 558
f 558 559 560
f 559 561 560
f 560 561 562
f 561 563 562
f 562 563 564
f 563 565 564
f 564 565 566
f 565 567 566
f 566 567 568
f 567 569 568
f 568 569 570
f 569 571 570
f 570 571 572
f 571 573 572
f 572 573 574
f 573 575 574
f 574 575 576
f 575 577 576
f 576 577 578
f 577 579 578
f 578 579 580
f 579 581 580
f 580 581 582
f 582 583 584
f 581 583 582
f 584 585 586
f 583 585 584
f 586 587 588
f 585 587 586
f 588 589 590
f 587 589 588
f 590 591 592
f 589 591 590
f 592 593 594
f 591 593 592
f 594 595 596
f 593 595 594
f 596 597 598
f 595 597 596
f 598 599 600
f 597 599 598
f 600 601 602
f 599 601 600
f 602 603 604
f 601 603 602
f 604 605 606
f 603 605 604
f 606 607 608
f 605 607 606
f 608 609 610
f 607 609 608
f 609 611 610
f 610 611 612
f 611 613 612
f 612 613 614
f 613 615 614
f 614 615 616
f 615 617 616
f 616 617 618
f 617 619 618
f 618 619 620
f 619 621 620
f 620 621 622
f 621 623 622
f 622 623 624
f 623 625 624
f 624 625 626
f 625 627 626
f 626 627 628
f 627 629 628
f 628 629 630
f 629 631 630
f 630 631 632
f 631 633 632
f 632 633 634
f 633 635 634
f 634 635 636
f 635 637 636
f 636 637 638
f 637 639 638
f 638 639 640
f 639 641 640
f 640 641 642
f 641 643 642
f 642 643 644
f 643 645 644
f 644 645 646
f 645 647 646
f 646 647 648
f 647 649 648
f 648 649 650
f 649 651 650
f 650 651 652
f 652 653 654
f 651 653 652
f 654 655 656
f 653 655 654
f 656 657 658
f 655 657 656
f 658 659 660
f 657 659 658
f 659 661 660
f 660 661 662
f 661 663 662
f 662 663 664
f 663 665 664
f 664 665 666
f 665 667 666
f 666 667 668
f 667 669 668
f 668 669 670
f 669 671 670
f 670 671 672
f 671 673 672
f 672 673 674
f 673 675 674
f 674 675 676
f 675 677 676
f 676 677 678
f 677 679 678
f 678 679 680
f 679 681 680
f 680 681 682
f 681 683 682
f 682 683 684
f 684 685 686
f 683 685 684
f 686 687 688
f 685 687 686
f 688 689 690
f 687 689 688
f 690 691 692
f 689 691 690
f 692 693 694
f 691 693 692
f 694 695 696
f 693 695 694
f 696 697 698
f 695 697 696
f 698 699 700
f 697 699 698
f 700 701 702
f 699 701 700
f 702 703 704
f 701 703 702
f 704 705 706
f 703 705 704
f 706 707 708
f 705 707 706
f 708 709 710
f 710 709 711
f 707 709 708
f 709 712 711
f 712 713 711
f 711 713 714
f 713 715 714
f 714 715 716
f 715 717 716
f 716 717 718
f 717 719 718
f 718 719 720
f 720 721 722
f 719 721 720
f 722 723 724
f 721 723 722
f 724 725 726
f 723 725 724
f 726 727 728
f 725 727 726
f 728 729 730
f 727 729 728
f 730 731 732
f 729 731 730
f 732 733 734
f 734 733 735
f 731 733 732
f 733 736 735
f 735 737 738
f 736 737 735
f 738 739 740
f 737 739 738
f 740 741 742
f 739 741 740
f 742 743 744
f 744 743 745
f 741 743 742
f 743 746 745
f 745 747 748
f 746 747 745
f 748 749 750
f 750 749 751
f 747 749 748
f 749 752 751
f 751 753 754
f 752 753 751
f 754 755 756
f 753 755 754
f 756 757 758
f 755 757 756
f 758 759 760
f 757 759 758
f 759 761 760
f 760 761 762
f 761 763 762
f 762 763 764
f 763 765 764
f 764 765 766
f 765 767 766
f 766 767 768
f 767 769 768
f 768 769 770
f 769 771 770
f 770 771 772
f 771 773 772
f 772 773 774
f 773 775 774
f 774 775 776
f 775 777 776
f 776 777 778
f 777 779 778
f 778 779 780
f 779 781 780
f 780 781 782
f 781 783 782
f 782 783 784
f 783 785 784
f 784 785 786
f 785 787 786
f 786 787 788
f 788 537 539
f 787 537 788
f 789 790 791
f 791 790 792
f 792 793 794
f 790 793 792
f 794 795 796
f 793 795 794
f 796 797 798
f 795 797 796
f 798 799 800
f 797 799 798
f 800 801 802
f 799 801 800
f 802 803 804
f 801 803 802
f 804 805 806
f 803 805 804
f 806 807 808
f 805 807 806
f 808 809 810
f 807 809 808
f 809 811 810
f 810 811 812
f 811 813 812
f 812 813 814
f 813 815 814
f 814 815 816
f 815 817 816
f 816 817 818
f 817 819 818
f 818 819 820
f 819 821 820
f 820 821 822
f 821 823 822
f 822 823 824
f 823 825 824
f 824 825 826
f 825 827 826
f 826 827 828
f 827 829 828
f 828 829 830
f 829 831 830
f 830 831 832
f 831 833 832
f 832 833 834
f 834 835 836
f 833 835 834
f 836 837 838
f 835 837 836
f 838 839 840
f 837 839 838
f 840 841 842
f 839 841 840
f 842 843 844
f 841 843 842
f 844 845 846
f 843 845 844
f 846 847 848
f 845 847 846
f 848 849 850
f 847 849 848
f 850 851 852
f 849 851 850
f 852 853 854
f 851 853 852
f 854 855 856
f 853 855 854
f 856 857 858
f 855 857 856
f 858 859 860
f 857 859 858
f 860 861 862
f 859 861 860
f 861 863 862
f 862 863 864
f 863 865 864
f 864 865 866
f 865 867 866
f 866 867 868
f 867 869 868
f 868 869 870
f 869 871 870
f 870 871 872
f 871 873 872
f 872 873 874
f 873 875 874
f 874 875 876
f 875 877 876
f 876 877 878
f 877 879 878
f 878 879 880
f 879 881 880
f 880 881 882
f 881 883 882
f 882 883 884
f 883 885 884
f 884 885 886
f 885 887 886
f 886 887 888
f 887 889 888
f 888 889 890
f 889 891 890
f 890 891 892
f 891 893 892
f 892 893 894
f 893 895 894
f 894 895 896
f 895 897 896
f 896 897 898
f 897 899 898
f 898 899 900
f 899 901 900
f 900 901 902
f 901 903 902
f 902 903 904
f 904 905 906
f 903 905 904
f 906 907 908
f 905 907 906
f 908 909 910
f 907 909 908
f 910 911 912
f 909 911 910
f 911 913 912
f 912 913 914
f 913 915 914
f 914 915 916
f 915 917 916
f 916 917 918
f 917 919 918
f 918 919 920
f 919 921 920
f 920 921 922
f 921 923 922
f 922 923 924
f 923 925 924
f 924 925 926
f 925 927 926
f 926 927 928
f 927 929 928
f 928 929 930
f 929 931 930
f 930 931 932
f 931 933 932
f 932 933 934
f 933 935 934
f 934 935 936
f 936 937 938
f 935 937 936
f 938 939 940
f 937 939 938
f 940 941 942
f 939 941 940
f 942 943 944
f 941 943 942
f 944 945 946
f 943 945 944
f 946 947 948
f 945 947 946
f 948 949 950
f 947 949 948
f 950 951 952
f 949 951 950
f 952 953 954
f 951 953 952
f 954 955 956
f 953 955 954
f 956 957 958
f 955 957 956
f 958 959 960
f 957 959 958
f 960 961 962
f 962 961 963
f 959 961 960
f 961 964 963
f 964 965 963
f 963 965 966
f 965 967 966
f 966 967 968
f 967 969 968
f 968 969 970
f 969 971 970
f 970 971 972
f 972 973 974
f 971 973 972
f 974 975 976
f 973 975 974
f 976 977 978
f 975 977 976
f 978 979 980
f 977 979 978
f 980 981 982
f 979 981 980
f 982 983 984
f 981 983 982
f 984 985 986
f 986 985 987
f 983 985 984
f 985 988 987
f 987 989 990
f 988 989 987
f 990 991 992
f 989 991 990
f 992 993 994
f 991 993 992
f 994 995 996
f 996 995 997
f 993 995 994
f 995 998 997
f 997 999 1000
f 998 999 997
f 1000 1001 1002
f 1002 1001 1003
f 999 1001 1000
f 1001 1004 1003
f 1003 1005 1006
f 1004 1005 1003
f 1006 1007 1008
f 1005 1007 1006
f 1008 1009 1010
f 1007 1009 1008
f 1010 1011 1012
f 1009 1011 1010
f 1011 1013 1012
f 1012 1013 1014
f 1013 1015 1014
f 1014 1015 1016
f 1015 1017 1016
f 1016 1017 1018
f 1017 1019 1018
f 1018 1019 1020
f 1019 1021 1020
f 1020 1021 1022
f 1021 1023 1022
f 1022 1023 1024
f 1023 1025 1024
f 1024 1025 1026
f 1025 1027 1026
f 1026 1027 1028
f 1027 1029 1028
f 1028 1029 1030
f 1029 1031 1030
f 1030 1031 1032
f 1031 1033 1032
f 1032 1033 1034
f 1033 1035 1034
f 1034 1035 1036
f 1035 1037 1036
f 1036 1037 1038
f 1037 1039 1038
f 1038 1039 1040
f 1040 789 791
f 1039 789 1040
f 1041 1042 1043
f 1041 1044 1042
f 819 1045 821
f 823 821 1045
f 817 1045 819
f 825 823 1045
f 815 1045 817
f 827 825 1045
f 813 1045 815
f 829 827 1045
f 811 1045 813
f 831 829 1045
f 809 1045 811
f 833 831 1045
f 807 1045 809
f 835 833 1045
f 805 1045 807
f 837 835 1045
f 803 1045 805
f 839 837 1045
f 801 1045 803
f 841 839 1045
f 799 1045 801
f 843 841 1045
f 797 1045 799
f 795 1045 797
f 793 1045 795
f 790 1045 793
f 789 1046 1045
f 789 1045 790
f 1039 1046 789
f 1037 1046 1039
f 1035 1046 1037
f 1033 1046 1035
f 1031 1046 1033
f 1029 1046 1031
f 1027 1046 1029
f 1025 1046 1027
f 1023 1046 1025
f 1021 1046 1023
f 1019 1046 1021
f 1017 1046 1019
f 1015 1046 1017
f 1013 1046 1015
f 1011 1046 1013
f 1042 849 847
f 1042 847 845
f 1042 845 843
f 1042 843 1045
f 1042 883 881
f 1042 881 879
f 1042 879 877
f 1042 877 875
f 1042 875 873
f 1042 873 871
f 1042 871 869
f 1042 869 867
f 1042 867 865
f 1042 865 863
f 1042 863 861
f 1042 861 859
f 1042 859 857
f 1042 857 855
f 1042 855 853
f 1042 853 851
f 1042 851 849
f 1009 1046 1011
f 885 883 1042
f 1007 1046 1009
f 887 885 1042
f 1005 1046 1007
f 889 887 1042
f 1004 1046 1005
f 891 889 1042
f 1001 1046 1004
f 893 891 1042
f 999 1046 1001
f 895 893 1042
f 897 895 1042
f 899 897 1042
f 901 899 1042
f 903 901 1042
f 905 903 1042
f 907 905 1042
f 909 907 1042
f 911 909 1042
f 913 911 1042
f 915 913 1042
f 1044 915 1042
f 1044 983 981
f 1044 981 979
f 1044 979 977
f 1044 977 975
f 1044 975 973
f 1044 973 971
f 1044 971 969
f 1044 969 967
f 1044 967 965
f 1044 965 964
f 1044 964 961
f 1044 961 959
f 1044 959 957
f 1044 957 955
f 1044 955 953
f 1044 953 951
f 1044 951 949
f 1044 949 947
f 1044 947 945
f 1044 945 943
f 1044 943 941
f 1044 941 939
f 1044 939 937
f 1044 937 935
f 1044 935 933
f 1044 933 931
f 1044 931 929
f 1044 929 927
f 1044 927 925
f 1044 925 923
f 1044 923 921
f 1044 921 919
f 1044 919 917
f 1044 917 915
f 1044 1046 983
f 983 1046 985
f 985 1046 988
f 988 1046 989
f 989 1046 991
f 991 1046 993
f 993 1046 995
f 995 1046 998
f 998 1046 999
f 1046 1047 1045
f 1046 1048 1047
f 1048 1049 1047
f 1048 1050 1049
f 1050 1051 1049
f 1050 1052 1051
f 567 1053 569
f 571 569 1053
f 565 1053 567
f 573 571 1053
f 563 1053 565
f 575 573 1053
f 561 1053 563
f 577 575 1053
f 559 1053 561
f 579 577 1053
f 557 1053 559
f 581 579 1053
f 555 1053 557
f 583 581 1053
f 553 1053 555
f 585 583 1053
f 551 1053 553
f 587 585 1053
f 549 1053 551
f 589 587 1053
f 547 1053 549
f 591 589 1053
f 545 1053 547
f 593 591 1053
f 543 1053 545
f 595 593 1053
f 541 1053 543
f 597 595 1053
f 538 1053 541
f 599 597 1053
f 537 1053 538
f 601 599 1053
f 603 601 1053
f 605 603 1053
f 607 605 1053
f 609 607 1053
f 1054 537 787
f 1054 787 785
f 1054 785 783
f 1054 783 781
f 1054 781 779
f 1054 779 777
f 1054 777 775
f 1054 775 773
f 1054 773 771
f 1054 771 769
f 1054 769 767
f 1054 767 765
f 1054 765 763
f 1054 763 761
f 1054 761 759
f 1054 1053 537
f 757 1054 759
f 755 1054 757
f 753 1054 755
f 752 1054 753
f 749 1054 752
f 747 1054 749
f 746 1054 747
f 743 1054 746
f 741 1054 743
f 739 1054 741
f 737 1054 739
f 736 1054 737
f 733 1054 736
f 731 1054 733
f 729 1054 731
f 727 1054 729
f 725 1054 727
f 723 1054 725
f 721 1054 723
f 1051 663 661
f 1051 661 659
f 1051 659 657
f 1051 657 655
f 1051 655 653
f 1051 653 651
f 1051 651 649
f 1051 649 647
f 1051 647 645
f 1051 645 643
f 1051 643 641
f 1051 641 639
f 1051 639 637
f 1051 637 635
f 1051 635 633
f 1051 633 631
f 1051 631 629
f 1051 629 627
f 1051 627 625
f 1051 625 623
f 1051 623 621
f 1051 621 619
f 1051 619 617
f 1051 617 615
f 1051 615 613
f 1051 613 611
f 1051 611 609
f 1051 609 1053
f 1052 663 1051
f 1052 705 703
f 1052 703 701
f 1052 701 699
f 1052 699 697
f 1052 697 695
f 1052 695 693
f 1052 693 691
f 1052 691 689
f 1052 689 687
f 1052 687 685
f 1052 685 683
f 1052 683 681
f 1052 681 679
f 1052 679 677
f 1052 677 675
f 1052 675 673
f 1052 673 671
f 1052 671 669
f 1052 669 667
f 1052 667 665
f 1052 665 663
f 1052 1054 721
f 1052 721 719
f 1052 719 717
f 1052 717 715
f 1052 715 713
f 1052 713 712
f 1052 712 709
f 1052 709 707
f 1052 707 705
f 1054 1055 1053
f 1054 1056 1055
f 634 1057 632
f 630 632 1057
f 636 1057 634
f 628 630 1057
f 638 1057 636
f 626 628 1057
f 640 1057 638
f 624 626 1057
f 642 1057 640
f 622 624 1057
f 644 1057 642
f 620 622 1057
f 646 1057 644
f 618 620 1057
f 648 1057 646
f 616 618 1057
f 650 1057 648
f 614 616 1057
f 652 1057 650
f 612 614 1057
f 654 1057 652
f 610 612 1057
f 656 1057 654
f 608 610 1057
f 658 1057 656
f 660 1057 658
f 662 1057 660
f 664 1058 1057
f 664 1057 662
f 666 1058 664
f 668 1058 666
f 670 1058 668
f 672 1058 670
f 674 1058 672
f 676 1058 674
f 678 1058 676
f 680 1058 678
f 682 1058 680
f 684 1058 682
f 686 1058 684
f 688 1058 686
f 690 1058 688
f 692 1058 690
f 694 1058 692
f 1055 570 572
f 1055 572 574
f 1055 574 576
f 1055 576 578
f 1055 578 580
f 1055 580 582
f 1055 582 584
f 1055 584 586
f 1055 586 588
f 1055 588 590
f 1055 590 592
f 1055 592 594
f 1055 594 596
f 1055 596 598
f 1055 598 600
f 1055 600 602
f 1055 602 604
f 1055 604 606
f 1055 608 1057
f 1055 606 608
f 696 1058 694
f 568 570 1055
f 698 1058 696
f 566 568 1055
f 700 1058 698
f 564 566 1055
f 702 1058 700
f 562 564 1055
f 704 1058 702
f 560 562 1055
f 706 1058 704
f 558 560 1055
f 708 1058 706
f 556 558 1055
f 554 556 1055
f 552 554 1055
f 550 552 1055
f 548 550 1055
f 546 548 1055
f 544 546 1055
f 542 544 1055
f 540 542 1055
f 539 540 1055
f 1056 730 732
f 1056 732 734
f 1056 734 735
f 1056 539 1055
f 1056 735 738
f 1056 738 740
f 1056 740 742
f 1056 742 744
f 1056 744 745
f 1056 745 748
f 1056 748 750
f 1056 750 751
f 1056 751 754
f 1056 754 756
f 1056 756 758
f 1056 758 760
f 1056 760 762
f 1056 762 764
f 1056 764 766
f 1056 766 768
f 1056 768 770
f 1056 770 772
f 1056 772 774
f 1056 774 776
f 1056 776 778
f 1056 778 780
f 1056 780 782
f 1056 782 784
f 1056 784 786
f 1056 786 788
f 1056 788 539
f 1056 724 726
f 1056 726 728
f 1056 728 730
f 1056 1058 724
f 724 1058 722
f 722 1058 720
f 720 1058 718
f 718 1058 716
f 716 1058 714
f 714 1058 711
f 711 1058 710
f 710 1058 708
f 1058 1059 1057
f 1058 1060 1059
f 1059 1061 1062
f 1060 1061 1059
f 1061 1063 1062
f 1061 1064 1063
f 886 1043 884
f 882 884 1043
f 888 1043 886
f 880 882 1043
f 890 1043 888
f 878 880 1043
f 892 1043 890
f 876 878 1043
f 894 1043 892
f 874 876 1043
f 896 1043 894
f 872 874 1043
f 898 1043 896
f 870 872 1043
f 900 1043 898
f 868 870 1043
f 902 1043 900
f 866 868 1043
f 904 1043 902
f 864 866 1043
f 906 1043 904
f 862 864 1043
f 908 1043 906
f 860 862 1043
f 910 1043 908
f 858 860 1043
f 912 1043 910
f 856 858 1043
f 914 1043 912
f 854 856 1043
f 916 1043 914
f 852 854 1043
f 850 852 1043
f 848 850 1043
f 846 848 1043
f 1041 916 918
f 1041 918 920
f 1041 920 922
f 1041 922 924
f 1041 924 926
f 1041 926 928
f 1041 928 930
f 1041 930 932
f 1041 932 934
f 1041 934 936
f 1041 936 938
f 1041 938 940
f 1041 940 942
f 1041 942 944
f 1041 944 946
f 1041 1043 916
f 948 1041 946
f 950 1041 948
f 952 1041 950
f 954 1041 952
f 956 1041 954
f 958 1041 956
f 960 1041 958
f 962 1041 960
f 963 1041 962
f 966 1041 963
f 968 1041 966
f 970 1041 968
f 972 1041 970
f 974 1041 972
f 976 1041 974
f 978 1041 976
f 980 1041 978
f 982 1041 980
f 1063 791 792
f 1063 792 794
f 1063 794 796
f 1063 796 798
f 1063 798 800
f 1063 800 802
f 1063 802 804
f 1063 846 1043
f 1063 804 806
f 1063 806 808
f 1063 808 810
f 1063 810 812
f 1063 812 814
f 1063 814 816
f 1063 816 818
f 1063 818 820
f 1063 820 822
f 1063 822 824
f 1063 824 826
f 1063 826 828
f 1063 828 830
f 1063 830 832
f 1063 832 834
f 1063 834 836
f 1063 836 838
f 1063 838 840
f 1063 840 842
f 1063 842 844
f 1063 844 846
f 1064 997 1000
f 1064 1000 1002
f 1064 1002 1003
f 1064 1003 1006
f 1064 1006 1008
f 1064 1008 1010
f 1064 1010 1012
f 1064 1012 1014
f 1064 1014 1016
f 1064 1016 1018
f 1064 1018 1020
f 1064 1020 1022
f 1064 1022 1024
f 1064 1024 1026
f 1064 1026 1028
f 1064 1028 1030
f 1064 1030 1032
f 1064 1032 1034
f 1064 1034 1036
f 1064 1036 1038
f 1064 1038 1040
f 1064 1040 791
f 1064 791 1063
f 1064 1041 982
f 1064 982 984
f 1064 984 986
f 1064 986 987
f 1064 987 990
f 1064 990 992
f 1064 992 994
f 1064 994 996
f 1064 996 997
f 1064 1046 1044
f 1064 1044 1041
f 1048 1046 1064
f 1058 1052 1050
f 1061 1048 1064
f 1054 1052 1058
f 1056 1054 1058
f 1060 1050 1048
f 1060 1048 1061
f 1060 1058 1050
f 1042 1063 1043
f 1063 1047 1062
f 1042 1045 1063
f 1063 1045 1047
f 1062 1049 1059
f 1047 1049 1062
f 1049 1057 1059
f 1049 1051 1057
f 1057 1053 1055
f 1051 1053 1057
# Vertices: 528, normals: 0, texture coordinates: 0, faces: 1060

o obj3
v 100 65 5
v 130 65 105
v 100 65 105
v 130 65 5
v 100 95 105
v 130 95 105
v 130 95 60
v 100 95 60
v 130 135 60
v 130 135 105
v 100 135 105
v 100 135 60
v 100 165 105
v 130 165 105
v 130 165 5
v 100 165 5
usemtl mat3
f 1065 1066 1067
f 1068 1066 1065
f 1066 1069 1067
f 1066 1070 1069
f 1070 1071 1072
f 1070 1072 1069
f 1073 1074 1075
f 1073 1075 1076
f 1074 1077 1075
f 1074 1078 1077
f 1077 1079 1080
f 1078 1079 1077
f 1080 1068 1065
f 1079 1068 1080
f 1079 1071 1068
f 1066 1068 1071
f 1073 1071 1079
f 1070 1066 1071
f 1078 1074 1073
f 1078 1073 1079
f 1077 1080 1076
f 1065 1076 1080
f 1072 1076 1065
f 1075 1077 1076
f 1067 1069 1072
f 1067 1072 1065
f 1073 1076 1072
f 1073 1072 1071
# Vertices: 16, normals: 0, texture coordinates: 0, faces: 28

o obj4
v 45.79245377 124.98903656 60
v 45.49789047 120.10129547 60
v 45.23677444 120.3690033 60
v 44.96264267 120.62335968 60
v 45.74533463 119.82090759 60
v 44.67617416 120.86373901 60
v 45.97849274 119.52853394 60
v 44.37807846 121.08953857 60
v 46.1967926 119.22489929 60
v 44.06909561 121.30019379 60
v 46.39968109 118.9107666 60
v 43.75 121.49519348 60
v 51.54698563 114.97810364 60
v 46.58666229 118.58690643 60
v 43.42158127 121.67404175 60
v 46.757267 118.2541275 60
v 43.08465195 121.83629608 60
v 46.91107178 117.91326141 60
v 42.7400589 121.98155212 60
v 47.04769516 117.5651474 60
v 42.38864899 122.10945129 60
v 47.16679764 117.21066284 60
v 42.03130341 122.21968079 60
v 47.26807785 116.85067749 60
v 41.66890717 122.31195831 60
v 47.35129547 116.48609924 60
v 41.30236053 122.38605499 60
v 47.41623306 116.11782074 60
v 40.93257904 122.44179535 60
v 47.46273041 115.74675751 60
v 40.5604744 122.47902679 60
v 47.49067688 115.37384033 60
v 40.1869812 122.49766541 60
v 47.5 115 60
v 47.49067688 114.62615967 60
v 47.46273041 114.25324249 60
v 47.41623306 113.88217926 60
v 47.35129547 113.51390076 60
v 47.26807785 113.14932251 60
v 47.16679764 112.78933716 60
v 47.04769516 112.4348526 60
v 34.24546814 125.01092529 60
v 39.8130188 122.49766541 60
v 39.4395256 122.47902679 60
v 39.06742096 122.44179535 60
v 38.69763947 122.38605499 60
v 38.33109283 122.31195831 60
v 37.96869659 122.21968079 60
v 37.61135101 122.10945129 60
v 37.2599411 121.98155212 60
v 46.91107178 112.08673859 60
v 36.91534805 121.83629608 60
v 46.757267 111.7458725 60
v 36.57841873 121.67404175 60
v 46.58666229 111.41309357 60
v 36.25 121.49519348 60
v 46.39968109 111.0892334 60
v 35.93090439 121.30019379 60
v 35.62192154 121.08953857 60
v 35.32382584 120.86373901 60
v 35.03735733 120.62335968 60
v 34.76322556 120.3690033 60
v 34.50210953 120.10129547 60
v 34.25466537 119.82090759 60
v 34.02150726 119.52853394 60
v 33.8032074 119.22489929 60
v 33.60031891 118.9107666 60
v 43.08465195 108.16370392 60
v 45.75453186 104.98907471 60
v 42.7400589 108.01844788 60
v 43.42158127 108.32595825 60
v 43.75 108.50480652 60
v 44.06909561 108.69980621 60
v 44.37807846 108.91046143 60
v 44.67617416 109.13626099 60
v 44.96264267 109.37664032 60
v 45.23677444 109.6309967 60
v 45.49789047 109.89870453 60
v 45.74533463 110.17909241 60
v 45.97849274 110.47146606 60
v 46.1967926 110.77510071 60
v 42.38864899 107.89054871 60
v 42.03130341 107.78031921 60
v 41.66890717 107.68804169 60
v 41.30236053 107.61394501 60
v 40.93257904 107.55820465 60
v 40.5604744 107.52097321 60
v 40.1869812 107.50233459 60
v 39.8130188 107.50233459 60
v 32.50932312 114.62615967 60
v 28.45301628 115.02189636 60
v 32.5 115 60
v 32.53726959 114.25324249 60
v 32.58376694 113.88217926 60
v 32.64870453 113.51390076 60
v 32.73192215 113.14932251 60
v 32.83320236 112.78933716 60
v 32.95230484 112.4348526 60
v 33.08892822 112.08673859 60
v 33.242733 111.7458725 60
v 33.41333771 111.41309357 60
v 33.41333771 118.58690643 60
v 33.242733 118.2541275 60
v 33.08892822 117.91326141 60
v 32.95230484 117.5651474 60
v 32.83320236 117.21066284 60
v 32.73192215 116.85067749 60
v 32.64870453 116.48609924 60
v 32.58376694 116.11782074 60
v 32.53726959 115.74675751 60
v 32.50932312 115.37384033 60
v 33.60031891 111.0892334 60
v 34.20754623 105.01096344 60
v 33.8032074 110.77510071 60
v 34.02150726 110.47146606 60
v 34.25466537 110.17909241 60
v 34.50210953 109.89870453 60
v 34.76322556 109.6309967 60
v 35.03735733 109.37664032 60
v 35.32382584 109.13626099 60
v 35.62192154 108.91046143 60
v 35.93090439 108.69980621 60
v 36.25 108.50480652 60
v 36.57841873 108.32595825 60
v 36.91534805 108.16370392 60
v 37.2599411 108.01844788 60
v 37.61135101 107.89054871 60
v 37.96869659 107.78031921 60
v 38.33109283 107.68804169 60
v 38.69763947 107.61394501 60
v 39.06742096 107.55820465 60
v 39.4395256 107.52097321 60
v 45.75453186 104.98907471 115
v 34.20754623 105.01096344 115
v 28.45301628 115.02189636 115
v 34.24546814 125.01092529 115
v 45.79245377 124.98903656 115
v 51.54698563 114.97810364 115
v 32.5 115 15
v 32.50932312 114.62615967 15
v 32.53726959 114.25324249 15
v 32.58376694 113.88217926 15
v 32.64870453 113.51390076 15
v 32.73192215 113.14932251 15
v 32.83320236 112.78933716 15
v 32.95230484 112.4348526 15
v 33.08892822 112.08673859 15
v 33.242733 111.7458725 15
v 33.41333771 111.41309357 15
v 33.60031891 111.0892334 15
v 33.8032074 110.77510071 15
v 34.02150726 110.47146606 15
v 34.25466537 110.17909241 15
v 34.50210953 109.89870453 15
v 34.76322556 109.6309967 15
v 35.03735733 109.37664032 15
v 35.32382584 109.13626099 15
v 35.62192154 108.91046143 15
v 35.93090439 108.69980621 15
v 36.25 108.50480652 15
v 36.57841873 108.32595825 15
v 36.91534805 108.16370392 15
v 37.2599411 108.01844788 15
v 37.61135101 107.89054871 15
v 37.96869659 107.78031921 15
v 38.33109283 107.68804169 15
v 38.69763947 107.61394501 15
v 39.06742096 107.55820465 15
v 39.4395256 107.52097321 15
v 39.8130188 107.50233459 15
v 40.1869812 107.50233459 15
v 40.5604744 107.52097321 15
v 40.93257904 107.55820465 15
v 41.30236053 107.61394501 15
v 41.66890717 107.68804169 15
v 42.03130341 107.78031921 15
v 42.38864899 107.89054871 15
v 42.7400589 108.01844788 15
v 43.08465195 108.16370392 15
v 43.42158127 108.32595825 15
v 43.75 108.50480652 15
v 44.06909561 108.69980621 15
v 44.37807846 108.91046143 15
v 44.67617416 109.13626099 15
v 44.96264267 109.37664032 15
v 45.23677444 109.6309967 15
v 45.49789047 109.89870453 15
v 45.74533463 110.17909241 15
v 45.97849274 110.47146606 15
v 46.1967926 110.77510071 15
v 46.39968109 111.0892334 15
v 46.58666229 111.41309357 15
v 46.757267 111.7458725 15
v 46.91107178 112.08673859 15
v 47.04769516 112.4348526 15
v 47.16679764 112.78933716 15
v 47.26807785 113.14932251 15
v 47.35129547 113.51390076 15
v 47.41623306 113.88217926 15
v 47.46273041 114.25324249 15
v 47.49067688 114.62615967 15
v 47.5 115 15
v 47.49067688 115.37384033 15
v 47.46273041 115.74675751 15
v 47.41623306 116.11782074 15
v 47.35129547 116.48609924 15
v 47.26807785 116.85067749 15
v 47.16679764 117.21066284 15
v 47.04769516 117.5651474 15
v 46.91107178 117.91326141 15
v 46.757267 118.2541275 15
v 46.58666229 118.58690643 15
v 46.39968109 118.9107666 15
v 46.1967926 119.22489929 15
v 45.97849274 119.52853394 15
v 45.74533463 119.82090759 15
v 45.49789047 120.10129547 15
v 45.23677444 120.3690033 15
v 44.96264267 120.62335968 15
v 44.67617416 120.86373901 15
v 44.37807846 121.08953857 15
v 44.06909561 121.30019379 15
v 43.75 121.49519348 15
v 43.42158127 121.67404175 15
v 43.08465195 121.83629608 15
v 42.7400589 121.98155212 15
v 42.38864899 122.10945129 15
v 42.03130341 122.21968079 15
v 41.66890717 122.31195831 15
v 41.30236053 122.38605499 15
v 40.93257904 122.44179535 15
v 40.5604744 122.47902679 15
v 40.1869812 122.49766541 15
v 39.8130188 122.49766541 15
v 39.4395256 122.47902679 15
v 39.06742096 122.44179535 15
v 38.69763947 122.38605499 15
v 38.33109283 122.31195831 15
v 37.96869659 122.21968079 15
v 37.61135101 122.10945129 15
v 37.2599411 121.98155212 15
v 36.91534805 121.83629608 15
v 36.57841873 121.67404175 15
v 36.25 121.49519348 15
v 35.93090439 121.30019379 15
v 35.62192154 121.08953857 15
v 35.32382584 120.86373901 15
v 35.03735733 120.62335968 15
v 34.76322556 120.3690033 15
v 34.50210953 120.10129547 15
v 34.25466537 119.82090759 15
v 34.02150726 119.52853394 15
v 33.8032074 119.22489929 15
v 33.60031891 118.9107666 15
v 33.41333771 118.58690643 15
v 33.242733 118.2541275 15
v 33.08892822 117.91326141 15
v 32.95230484 117.5651474 15
v 32.83320236 117.21066284 15
v 32.73192215 116.85067749 15
v 32.64870453 116.48609924 15
v 32.58376694 116.11782074 15
v 32.53726959 115.74675751 15
v 32.50932312 115.37384033 15
usemtl mat4
f 1081 1082 1083
f 1083 1084 1081
f 1081 1085 1082
f 1084 1086 1081
f 1081 1087 1085
f 1086 1088 1081
f 1081 1089 1087
f 1088 1090 1081
f 1081 1091 1089
f 1090 1092 1081
f 1093 1094 1081
f 1081 1094 1091
f 1092 1095 1081
f 1093 1096 1094
f 1095 1097 1081
f 1093 1098 1096
f 1097 1099 1081
f 1093 1100 1098
f 1099 1101 1081
f 1093 1102 1100
f 1101 1103 1081
f 1093 1104 1102
f 1103 1105 1081
f 1093 1106 1104
f 1105 1107 1081
f 1093 1108 1106
f 1107 1109 1081
f 1093 1110 1108
f 1109 1111 1081
f 1093 1112 1110
f 1111 1113 1081
f 1093 1114 1112
f 1093 1115 1114
f 1093 1116 1115
f 1093 1117 1116
f 1093 1118 1117
f 1093 1119 1118
f 1093 1120 1119
f 1093 1121 1120
f 1113 1122 1081
f 1123 1122 1113
f 1124 1122 1123
f 1125 1122 1124
f 1126 1122 1125
f 1127 1122 1126
f 1128 1122 1127
f 1129 1122 1128
f 1129 1130 1122
f 1093 1131 1121
f 1130 1132 1122
f 1093 1133 1131
f 1132 1134 1122
f 1093 1135 1133
f 1134 1136 1122
f 1093 1137 1135
f 1136 1138 1122
f 1138 1139 1122
f 1139 1140 1122
f 1140 1141 1122
f 1141 1142 1122
f 1142 1143 1122
f 1143 1144 1122
f 1144 1145 1122
f 1145 1146 1122
f 1146 1147 1122
f 1148 1149 1150
f 1151 1149 1148
f 1093 1149 1137
f 1152 1149 1151
f 1153 1149 1152
f 1154 1149 1153
f 1155 1149 1154
f 1156 1149 1155
f 1157 1149 1156
f 1158 1149 1157
f 1159 1149 1158
f 1160 1149 1159
f 1161 1149 1160
f 1137 1149 1161
f 1149 1162 1150
f 1149 1163 1162
f 1149 1164 1163
f 1149 1165 1164
f 1149 1166 1165
f 1149 1167 1166
f 1149 1168 1167
f 1149 1169 1168
f 1170 1171 1172
f 1173 1171 1170
f 1174 1171 1173
f 1175 1171 1174
f 1176 1171 1175
f 1177 1171 1176
f 1178 1171 1177
f 1179 1171 1178
f 1180 1171 1179
f 1181 1171 1180
f 1182 1171 1147
f 1183 1171 1182
f 1184 1171 1183
f 1185 1171 1184
f 1186 1171 1185
f 1187 1171 1186
f 1188 1171 1187
f 1189 1171 1188
f 1190 1171 1189
f 1191 1171 1190
f 1172 1171 1191
f 1147 1171 1122
f 1192 1193 1181
f 1194 1193 1192
f 1195 1193 1194
f 1196 1193 1195
f 1197 1193 1196
f 1198 1193 1197
f 1199 1193 1198
f 1200 1193 1199
f 1201 1193 1200
f 1202 1193 1201
f 1203 1193 1202
f 1204 1193 1203
f 1205 1193 1204
f 1149 1193 1169
f 1206 1193 1205
f 1207 1193 1206
f 1208 1193 1207
f 1209 1193 1208
f 1210 1193 1209
f 1211 1193 1210
f 1212 1193 1211
f 1169 1193 1212
f 1181 1193 1171
f 1213 1193 1149
f 1213 1214 1193
f 1214 1171 1193
f 1214 1215 1171
f 1215 1122 1171
f 1215 1216 1122
f 1216 1081 1122
f 1216 1217 1081
f 1217 1093 1081
f 1217 1218 1093
f 1218 1149 1093
f 1218 1213 1149
f 1216 1215 1214
f 1217 1213 1218
f 1217 1214 1213
f 1217 1216 1214
f 1170 1172 1219
f 1170 1219 1220
f 1173 1220 1221
f 1173 1221 1222
f 1173 1170 1220
f 1174 1173 1222
f 1175 1222 1223
f 1175 1174 1222
f 1176 1223 1224
f 1176 1224 1225
f 1176 1175 1223
f 1177 1176 1225
f 1178 1225 1226
f 1178 1226 1227
f 1178 1177 1225
f 1179 1178 1227
f 1180 1227 1228
f 1180 1179 1227
f 1181 1228 1229
f 1181 1180 1228
f 1192 1181 1229
f 1192 1229 1230
f 1192 1230 1231
f 1194 1192 1231
f 1195 1194 1231
f 1195 1231 1232
f 1195 1232 1233
f 1196 1195 1233
f 1197 1196 1233
f 1197 1233 1234
f 1197 1234 1235
f 1198 1197 1235
f 1199 1198 1235
f 1199 1235 1236
f 1200 1199 1236
f 1200 1236 1237
f 1201 1200 1237
f 1201 1237 1238
f 1202 1201 1238
f 1202 1238 1239
f 1203 1202 1239
f 1203 1239 1240
f 1204 1203 1240
f 1204 1240 1241
f 1204 1241 1242
f 1205 1242 1243
f 1205 1204 1242
f 1206 1205 1243
f 1207 1206 1243
f 1207 1243 1244
f 1208 1244 1245
f 1208 1207 1244
f 1209 1245 1246
f 1209 1246 1247
f 1209 1208 1245
f 1210 1209 1247
f 1211 1247 1248
f 1211 1210 1247
f 1212 1248 1249
f 1212 1211 1248
f 1169 1249 1250
f 1169 1212 1249
f 1168 1250 1251
f 1168 1169 1250
f 1167 1251 1252
f 1167 1168 1251
f 1166 1252 1253
f 1166 1167 1252
f 1165 1253 1254
f 1165 1166 1253
f 1164 1254 1255
f 1164 1165 1254
f 1163 1164 1255
f 1163 1255 1256
f 1163 1256 1257
f 1162 1163 1257
f 1150 1162 1257
f 1150 1257 1258
f 1148 1150 1258
f 1148 1258 1259
f 1151 1148 1259
f 1151 1259 1260
f 1152 1151 1260
f 1152 1260 1261
f 1153 1152 1261
f 1153 1261 1262
f 1154 1153 1262
f 1154 1262 1263
f 1155 1154 1263
f 1155 1263 1264
f 1156 1155 1264
f 1156 1264 1265
f 1157 1156 1265
f 1157 1265 1266
f 1158 1157 1266
f 1158 1266 1267
f 1159 1158 1267
f 1159 1267 1268
f 1160 1159 1268
f 1160 1268 1269
f 1161 1160 1269
f 1161 1269 1270
f 1161 1270 1271
f 1137 1161 1271
f 1135 1137 1271
f 1135 1271 1272
f 1133 1135 1272
f 1133 1272 1273
f 1131 1133 1273
f 1131 1273 1274
f 1121 1131 1274
f 1121 1274 1275
f 1120 1121 1275
f 1120 1275 1276
f 1119 1276 1277
f 1119 1120 1276
f 1118 1277 1278
f 1118 1119 1277
f 1117 1278 1279
f 1117 1118 1278
f 1116 1279 1280
f 1116 1117 1279
f 1115 1116 1280
f 1115 1280 1281
f 1114 1115 1281
f 1114 1281 1282
f 1112 1114 1282
f 1112 1282 1283
f 1110 1112 1283
f 1110 1283 1284
f 1108 1110 1284
f 1108 1284 1285
f 1106 1108 1285
f 1106 1285 1286
f 1104 1106 1286
f 1104 1286 1287
f 1102 1104 1287
f 1102 1287 1288
f 1100 1102 1288
f 1100 1288 1289
f 1098 1100 1289
f 1098 1289 1290
f 1096 1098 1290
f 1096 1290 1291
f 1094 1096 1291
f 1094 1291 1292
f 1091 1094 1292
f 1091 1292 1293
f 1089 1293 1294
f 1089 1091 1293
f 1087 1294 1295
f 1087 1089 1294
f 1085 1295 1296
f 1085 1087 1295
f 1082 1296 1297
f 1082 1085 1296
f 1083 1297 1298
f 1083 1082 1297
f 1084 1298 1299
f 1084 1299 1300
f 1084 1083 1298
f 1086 1300 1301
f 1086 1084 1300
f 1088 1086 1301
f 1090 1301 1302
f 1090 1088 1301
f 1092 1302 1303
f 1092 1303 1304
f 1092 1090 1302
f 1095 1304 1305
f 1095 1092 1304
f 1097 1095 1305
f 1099 1305 1306
f 1099 1097 1305
f 1101 1099 1306
f 1101 1306 1307
f 1101 1307 1308
f 1103 1101 1308
f 1103 1308 1309
f 1105 1103 1309
f 1107 1309 1310
f 1107 1105 1309
f 1109 1310 1311
f 1109 1107 1310
f 1111 1311 1312
f 1111 1109 1311
f 1113 1312 1313
f 1113 1313 1314
f 1113 1111 1312
f 1123 1113 1314
f 1124 1314 1315
f 1124 1123 1314
f 1125 1315 1316
f 1125 1124 1315
f 1126 1316 1317
f 1126 1125 1316
f 1127 1317 1318
f 1127 1126 1317
f 1128 1318 1319
f 1128 1127 1318
f 1129 1319 1320
f 1129 1320 1321
f 1129 1128 1319
f 1130 1129 1321
f 1132 1321 1322
f 1132 1322 1323
f 1132 1130 1321
f 1134 1132 1323
f 1136 1323 1324
f 1136 1134 1323
f 1138 1324 1325
f 1138 1136 1324
f 1139 1325 1326
f 1139 1138 1325
f 1140 1326 1327
f 1140 1327 1328
f 1140 1139 1326
f 1141 1140 1328
f 1142 1328 1329
f 1142 1141 1328
f 1143 1329 1330
f 1143 1142 1329
f 1144 1143 1330
f 1144 1330 1331
f 1145 1144 1331
f 1145 1331 1332
f 1146 1145 1332
f 1146 1332 1333
f 1146 1333 1334
f 1147 1146 1334
f 1182 1147 1334
f 1182 1334 1335
f 1183 1182 1335
f 1183 1335 1336
f 1183 1336 1337
f 1184 1183 1337
f 1185 1184 1337
f 1185 1337 1338
f 1186 1185 1338
f 1186 1338 1339
f 1187 1186 1339
f 1187 1339 1340
f 1188 1187 1340
f 1188 1340 1341
f 1189 1188 1341
f 1189 1341 1342
f 1190 1342 1343
f 1190 1189 1342
f 1191 1190 1343
f 1191 1343 1344
f 1172 1344 1219
f 1172 1191 1344
f 1234 1233 1235
f 1235 1237 1236
f 1231 1230 1232
f 1232 1230 1233
f 1238 1240 1239
f 1229 1228 1230
f 1233 1228 1235
f 1230 1228 1233
f 1237 1242 1238
f 1240 1242 1241
f 1235 1242 1237
f 1238 1242 1240
f 1228 1242 1235
f 1242 1244 1243
f 1242 1245 1244
f 1225 1224 1226
f 1226 1224 1227
f 1223 1222 1224
f 1245 1248 1246
f 1246 1248 1247
f 1242 1248 1245
f 1220 1219 1221
f 1221 1219 1222
f 1222 1219 1224
f 1248 1251 1249
f 1249 1251 1250
f 1227 1342 1228
f 1343 1342 1344
f 1344 1342 1219
f 1224 1342 1227
f 1219 1342 1224
f 1251 1254 1252
f 1252 1254 1253
f 1228 1254 1242
f 1242 1254 1248
f 1248 1254 1251
f 1340 1339 1341
f 1341 1339 1342
f 1254 1257 1255
f 1255 1257 1256
f 1254 1258 1257
f 1228 1259 1254
f 1342 1259 1228
f 1339 1259 1342
f 1337 1259 1338
f 1254 1259 1258
f 1338 1259 1339
f 1337 1336 1259
f 1336 1260 1259
f 1260 1262 1261
f 1336 1264 1260
f 1260 1264 1262
f 1262 1264 1263
f 1264 1266 1265
f 1329 1328 1330
f 1330 1328 1331
f 1266 1268 1267
f 1264 1268 1266
f 1331 1327 1332
f 1328 1327 1331
f 1334 1269 1335
f 1335 1269 1336
f 1336 1269 1264
f 1264 1269 1268
f 1332 1326 1333
f 1327 1326 1332
f 1269 1271 1270
f 1325 1324 1326
f 1323 1322 1324
f 1333 1322 1334
f 1326 1322 1333
f 1324 1322 1326
f 1272 1275 1273
f 1273 1275 1274
f 1321 1320 1322
f 1334 1320 1269
f 1269 1320 1271
f 1322 1320 1334
f 1271 1276 1272
f 1272 1276 1275
f 1276 1278 1277
f 1278 1280 1279
f 1315 1314 1316
f 1316 1314 1317
f 1278 1282 1280
f 1280 1282 1281
f 1271 1282 1276
f 1276 1282 1278
f 1314 1313 1317
f 1271 1284 1282
f 1282 1284 1283
f 1312 1311 1313
f 1284 1286 1285
f 1308 1307 1309
f 1309 1307 1310
f 1307 1306 1310
f 1319 1290 1320
f 1313 1290 1317
f 1284 1290 1286
f 1271 1290 1284
f 1311 1290 1313
f 1286 1290 1287
f 1287 1290 1288
f 1288 1290 1289
f 1320 1290 1271
f 1310 1290 1311
f 1317 1290 1318
f 1318 1290 1319
f 1306 1305 1310
f 1290 1292 1291
f 1305 1303 1310
f 1304 1303 1305
f 1310 1293 1290
f 1290 1293 1292
f 1303 1302 1310
f 1302 1300 1310
f 1301 1300 1302
f 1300 1299 1310
f 1294 1297 1295
f 1295 1297 1296
f 1310 1298 1293
f 1299 1298 1310
f 1293 1298 1294
f 1294 1298 1297
# Vertices: 264, normals: 0, texture coordinates: 0, faces: 524

o obj5
v 195.79244995 124.98903656 60
v 195.49789429 120.10129547 60
v 195.23677063 120.3690033 60
v 194.96264648 120.62335968 60
v 195.74533081 119.82090759 60
v 194.67617798 120.86373901 60
v 195.97850037 119.52853394 60
v 194.37808228 121.08953857 60
v 196.1967926 119.22489929 60
v 194.0690918 121.30019379 60
v 196.39968872 118.9107666 60
v 193.75 121.49519348 60
v 201.54698181 114.97810364 60
v 196.58665466 118.58690643 60
v 193.42158508 121.67404175 60
v 196.75726318 118.2541275 60
v 193.08465576 121.83629608 60
v 196.91107178 117.91326141 60
v 192.74005127 121.98155212 60
v 197.04769897 117.5651474 60
v 192.38865662 122.10945129 60
v 197.16679382 117.21066284 60
v 192.03131104 122.21968079 60
v 197.26808167 116.85067749 60
v 191.66889954 122.31195831 60
v 197.35128784 116.48609924 60
v 191.30236816 122.38605499 60
v 197.41622925 116.11782074 60
v 190.93257141 122.44179535 60
v 197.46273804 115.74675751 60
v 190.56047058 122.47902679 60
v 197.49067688 115.37384033 60
v 190.1869812 122.49766541 60
v 197.5 115 60
v 197.49067688 114.62615967 60
v 197.46273804 114.25324249 60
v 197.41622925 113.88217926 60
v 197.35128784 113.51390076 60
v 197.26808167 113.14932251 60
v 197.16679382 112.78933716 60
v 197.04769897 112.4348526 60
v 189.8130188 122.49766541 60
v 184.24546814 125.01092529 60
v 189.43952942 122.47902679 60
v 189.06742859 122.44179535 60
v 188.69763184 122.38605499 60
v 188.33110046 122.31195831 60
v 187.96868896 122.21968079 60
v 187.61134338 122.10945129 60
v 187.25994873 121.98155212 60
v 196.91107178 112.08673859 60
v 186.91534424 121.83629608 60
v 196.75726318 111.7458725 60
v 186.57841492 121.67404175 60
v 196.58665466 111.41309357 60
v 186.25 121.49519348 60
v 196.39968872 111.0892334 60
v 185.9309082 121.30019379 60
v 185.62191772 121.08953857 60
v 185.32382202 120.86373901 60
v 185.03735352 120.62335968 60
v 184.76322937 120.3690033 60
v 184.50210571 120.10129547 60
v 184.25466919 119.82090759 60
v 184.02149963 119.52853394 60
v 183.8032074 119.22489929 60
v 183.60031128 118.9107666 60
v 193.08465576 108.16370392 60
v 195.75453186 104.98907471 60
v 192.74005127 108.01844788 60
v 193.42158508 108.32595825 60
v 193.75 108.50480652 60
v 194.0690918 108.69980621 60
v 194.37808228 108.91046143 60
v 194.67617798 109.13626099 60
v 194.96264648 109.37664032 60
v 195.23677063 109.6309967 60
v 195.49789429 109.89870453 60
v 195.74533081 110.17909241 60
v 195.97850037 110.47146606 60
v 196.1967926 110.77510071 60
v 192.38865662 107.89054871 60
v 192.03131104 107.78031921 60
v 191.66889954 107.68804169 60
v 191.30236816 107.61394501 60
v 190.93257141 107.55820465 60
v 190.56047058 107.52097321 60
v 190.1869812 107.50233459 60
v 189.8130188 107.50233459 60
v 182.50932312 114.62615967 60
v 178.45301819 115.02189636 60
v 182.5 115 60
v 182.53726196 114.25324249 60
v 182.58377075 113.88217926 60
v 182.64871216 113.51390076 60
v 182.73191833 113.14932251 60
v 182.83320618 112.78933716 60
v 182.95230103 112.4348526 60
v 183.08892822 112.08673859 60
v 183.24273682 111.7458725 60
v 183.41334534 111.41309357 60
v 183.41334534 118.58690643 60
v 183.24273682 118.2541275 60
v 183.08892822 117.91326141 60
v 182.95230103 117.5651474 60
v 182.83320618 117.21066284 60
v 182.73191833 116.85067749 60
v 182.64871216 116.48609924 60
v 182.58377075 116.11782074 60
v 182.53726196 115.74675751 60
v 182.50932312 115.37384033 60
v 183.60031128 111.0892334 60
v 184.20755005 105.01096344 60
v 183.8032074 110.77510071 60
v 184.02149963 110.47146606 60
v 184.25466919 110.17909241 60
v 184.50210571 109.89870453 60
v 184.76322937 109.6309967 60
v 185.03735352 109.37664032 60
v 185.32382202 109.13626099 60
v 185.62191772 108.91046143 60
v 185.9309082 108.69980621 60
v 186.25 108.50480652 60
v 186.57841492 108.32595825 60
v 186.91534424 108.16370392 60
v 187.25994873 108.01844788 60
v 187.61134338 107.89054871 60
v 187.96868896 107.78031921 60
v 188.33110046 107.68804169 60
v 188.69763184 107.61394501 60
v 189.06742859 107.55820465 60
v 189.43952942 107.52097321 60
v 195.75453186 104.98907471 115
v 184.20755005 105.01096344 115
v 178.45301819 115.02189636 115
v 184.24546814 125.01092529 115
v 195.79244995 124.98903656 115
v 201.54698181 114.97810364 115
v 182.5 115 15
v 182.50932312 114.62615967 15
v 182.53726196 114.25324249 15
v 182.58377075 113.88217926 15
v 182.64871216 113.51390076 15
v 182.73191833 113.14932251 15
v 182.83320618 112.78933716 15
v 182.95230103 112.4348526 15
v 183.08892822 112.08673859 15
v 183.24273682 111.7458725 15
v 183.41334534 111.41309357 15
v 183.60031128 111.0892334 15
v 183.8032074 110.77510071 15
v 184.02149963 110.47146606 15
v 184.25466919 110.17909241 15
v 184.50210571 109.89870453 15
v 184.76322937 109.6309967 15
v 185.03735352 109.37664032 15
v 185.32382202 109.13626099 15
v 185.62191772 108.91046143 15
v 185.9309082 108.69980621 15
v 186.25 108.50480652 15
v 186.57841492 108.32595825 15
v 186.91534424 108.16370392 15
v 187.25994873 108.01844788 15
v 187.61134338 107.89054871 15
v 187.96868896 107.78031921 15
v 188.33110046 107.68804169 15
v 188.69763184 107.61394501 15
v 189.06742859 107.55820465 15
v 189.43952942 107.52097321 15
v 189.8130188 107.50233459 15
v 190.1869812 107.50233459 15
v 190.56047058 107.52097321 15
v 190.93257141 107.55820465 15
v 191.30236816 107.61394501 15
v 191.66889954 107.68804169 15
v 192.03131104 107.78031921 15
v 192.38865662 107.89054871 15
v 192.74005127 108.01844788 15
v 193.08465576 108.16370392 15
v 193.42158508 108.32595825 15
v 193.75 108.50480652 15
v 194.0690918 108.69980621 15
v 194.37808228 108.91046143 15
v 194.67617798 109.13626099 15
v 194.96264648 109.37664032 15
v 195.23677063 109.6309967 15
v 195.49789429 109.89870453 15
v 195.74533081 110.17909241 15
v 195.97850037 110.47146606 15
v 196.1967926 110.77510071 15
v 196.39968872 111.0892334 15
v 196.58665466 111.41309357 15
v 196.75726318 111.7458725 15
v 196.91107178 112.08673859 15
v 197.04769897 112.4348526 15
v 197.16679382 112.78933716 15
v 197.26808167 113.14932251 15
v 197.35128784 113.51390076 15
v 197.41622925 113.88217926 15
v 197.46273804 114.25324249 15
v 197.49067688 114.62615967 15
v 197.5 115 15
v 197.49067688 115.37384033 15
v 197.46273804 115.74675751 15
v 197.41622925 116.11782074 15
v 197.35128784 116.48609924 15
v 197.26808167 116.85067749 15
v 197.16679382 117.21066284 15
v 197.04769897 117.5651474 15
v 196.91107178 117.91326141 15
v 196.75726318 118.2541275 15
v 196.58665466 118.58690643 15
v 196.39968872 118.9107666 15
v 196.1967926 119.22489929 15
v 195.97850037 119.52853394 15
v 195.74533081 119.82090759 15
v 195.49789429 120.10129547 15
v 195.23677063 120.3690033 15
v 194.96264648 120.62335968 15
v 194.67617798 120.86373901 15
v 194.37808228 121.08953857 15
v 194.0690918 121.30019379 15
v 193.75 121.49519348 15
v 193.42158508 121.67404175 15
v 193.08465576 121.83629608 15
v 192.74005127 121.98155212 15
v 192.38865662 122.10945129 15
v 192.03131104 122.21968079 15
v 191.66889954 122.31195831 15
v 191.30236816 122.38605499 15
v 190.93257141 122.44179535 15
v 190.56047058 122.47902679 15
v 190.1869812 122.49766541 15
v 189.8130188 122.49766541 15
v 189.43952942 122.47902679 15
v 189.06742859 122.44179535 15
v 188.69763184 122.38605499 15
v 188.33110046 122.31195831 15
v 187.96868896 122.21968079 15
v 187.61134338 122.10945129 15
v 187.25994873 121.98155212 15
v 186.91534424 121.83629608 15
v 186.57841492 121.67404175 15
v 186.25 121.49519348 15
v 185.9309082 121.30019379 15
v 185.62191772 121.08953857 15
v 185.32382202 120.86373901 15
v 185.03735352 120.62335968 15
v 184.76322937 120.3690033 15
v 184.50210571 120.10129547 15
v 184.25466919 119.82090759 15
v 184.02149963 119.52853394 15
v 183.8032074 119.22489929 15
v 183.60031128 118.9107666 15
v 183.41334534 118.58690643 15
v 183.24273682 118.2541275 15
v 183.08892822 117.91326141 15
v 182.95230103 117.5651474 15
v 182.83320618 117.21066284 15
v 182.73191833 116.85067749 15
v 182.64871216 116.48609924 15
v 182.58377075 116.11782074 15
v 182.53726196 115.74675751 15
v 182.50932312 115.37384033 15
usemtl mat5
f 1345 1346 1347
f 1347 1348 1345
f 1345 1349 1346
f 1348 1350 1345
f 1345 1351 1349
f 1350 1352 1345
f 1345 1353 1351
f 1352 1354 1345
f 1345 1355 1353
f 1354 1356 1345
f 1357 1358 1345
f 1345 1358 1355
f 1356 1359 1345
f 1357 1360 1358
f 1359 1361 1345
f 1357 1362 1360
f 1361 1363 1345
f 1357 1364 1362
f 1363 1365 1345
f 1357 1366 1364
f 1365 1367 1345
f 1357 1368 1366
f 1367 1369 1345
f 1357 1370 1368
f 1369 1371 1345
f 1357 1372 1370
f 1371 1373 1345
f 1357 1374 1372
f 1373 1375 1345
f 1357 1376 1374
f 1375 1377 1345
f 1357 1378 1376
f 1357 1379 1378
f 1357 1380 1379
f 1357 1381 1380
f 1357 1382 1381
f 1357 1383 1382
f 1357 1384 1383
f 1357 1385 1384
f 1386 1387 1377
f 1388 1387 1386
f 1389 1387 1388
f 1390 1387 1389
f 1391 1387 1390
f 1392 1387 1391
f 1393 1387 1392
f 1377 1387 1345
f 1393 1394 1387
f 1357 1395 1385
f 1394 1396 1387
f 1357 1397 1395
f 1396 1398 1387
f 1357 1399 1397
f 1398 1400 1387
f 1357 1401 1399
f 1400 1402 1387
f 1402 1403 1387
f 1403 1404 1387
f 1404 1405 1387
f 1405 1406 1387
f 1406 1407 1387
f 1407 1408 1387
f 1408 1409 1387
f 1409 1410 1387
f 1410 1411 1387
f 1412 1413 1414
f 1415 1413 1412
f 1416 1413 1415
f 1357 1413 1401
f 1417 1413 1416
f 1418 1413 1417
f 1419 1413 1418
f 1420 1413 1419
f 1421 1413 1420
f 1422 1413 1421
f 1423 1413 1422
f 1424 1413 1423
f 1425 1413 1424
f 1401 1413 1425
f 1413 1426 1414
f 1413 1427 1426
f 1413 1428 1427
f 1413 1429 1428
f 1413 1430 1429
f 1413 1431 1430
f 1413 1432 1431
f 1413 1433 1432
f 1434 1435 1436
f 1437 1435 1434
f 1438 1435 1437
f 1439 1435 1438
f 1440 1435 1439
f 1441 1435 1440
f 1442 1435 1441
f 1443 1435 1442
f 1444 1435 1443
f 1445 1435 1444
f 1446 1435 1411
f 1447 1435 1446
f 1448 1435 1447
f 1449 1435 1448
f 1450 1435 1449
f 1451 1435 1450
f 1452 1435 1451
f 1453 1435 1452
f 1454 1435 1453
f 1455 1435 1454
f 1436 1435 1455
f 1411 1435 1387
f 1456 1457 1445
f 1458 1457 1456
f 1459 1457 1458
f 1460 1457 1459
f 1461 1457 1460
f 1462 1457 1461
f 1463 1457 1462
f 1464 1457 1463
f 1465 1457 1464
f 1466 1457 1465
f 1467 1457 1466
f 1468 1457 1467
f 1413 1457 1433
f 1469 1457 1468
f 1470 1457 1469
f 1471 1457 1470
f 1472 1457 1471
f 1473 1457 1472
f 1474 1457 1473
f 1475 1457 1474
f 1476 1457 1475
f 1433 1457 1476
f 1445 1457 1435
f 1477 1457 1413
f 1477 1478 1457
f 1478 1435 1457
f 1478 1479 1435
f 1479 1387 1435
f 1479 1480 1387
f 1480 1345 1387
f 1480 1481 1345
f 1481 1357 1345
f 1481 1482 1357
f 1482 1413 1357
f 1482 1477 1413
f 1480 1479 1478
f 1481 1477 1482
f 1481 1478 1477
f 1481 1480 1478
f 1434 1436 1483
f 1434 1483 1484
f 1437 1484 1485
f 1437 1485 1486
f 1437 1434 1484
f 1438 1437 1486
f 1439 1486 1487
f 1439 1438 1486
f 1440 1487 1488
f 1440 1488 1489
f 1440 1439 1487
f 1441 1440 1489
f 1442 1489 1490
f 1442 1490 1491
f 1442 1441 1489
f 1443 1442 1491
f 1444 1491 1492
f 1444 1443 1491
f 1445 1492 1493
f 1445 1444 1492
f 1456 1445 1493
f 1456 1493 1494
f 1456 1494 1495
f 1458 1456 1495
f 1459 1458 1495
f 1459 1495 1496
f 1459 1496 1497
f 1460 1459 1497
f 1461 1460 1497
f 1461 1497 1498
f 1461 1498 1499
f 1462 1461 1499
f 1463 1462 1499
f 1463 1499 1500
f 1464 1463 1500
f 1464 1500 1501
f 1465 1464 1501
f 1465 1501 1502
f 1466 1465 1502
f 1466 1502 1503
f 1467 1466 1503
f 1467 1503 1504
f 1468 1467 1504
f 1468 1504 1505
f 1468 1505 1506
f 1469 1506 1507
f 1469 1468 1506
f 1470 1469 1507
f 1471 1470 1507
f 1471 1507 1508
f 1472 1508 1509
f 1472 1471 1508
f 1473 1509 1510
f 1473 1510 1511
f 1473 1472 1509
f 1474 1473 1511
f 1475 1511 1512
f 1475 1474 1511
f 1476 1512 1513
f 1476 1475 1512
f 1433 1513 1514
f 1433 1476 1513
f 1432 1514 1515
f 1432 1433 1514
f 1431 1515 1516
f 1431 1432 1515
f 1430 1516 1517
f 1430 1431 1516
f 1429 1517 1518
f 1429 1430 1517
f 1428 1518 1519
f 1428 1429 1518
f 1427 1428 1519
f 1427 1519 1520
f 1427 1520 1521
f 1426 1427 1521
f 1414 1426 1521
f 1414 1521 1522
f 1412 1414 1522
f 1412 1522 1523
f 1415 1412 1523
f 1415 1523 1524
f 1416 1415 1524
f 1416 1524 1525
f 1417 1416 1525
f 1417 1525 1526
f 1418 1417 1526
f 1418 1526 1527
f 1419 1418 1527
f 1419 1527 1528
f 1420 1419 1528
f 1420 1528 1529
f 1421 1420 1529
f 1421 1529 1530
f 1422 1421 1530
f 1422 1530 1531
f 1423 1422 1531
f 1423 1531 1532
f 1424 1423 1532
f 1424 1532 1533
f 1425 1424 1533
f 1425 1533 1534
f 1425 1534 1535
f 1401 1425 1535
f 1399 1401 1535
f 1399 1535 1536
f 1397 1399 1536
f 1397 1536 1537
f 1395 1397 1537
f 1395 1537 1538
f 1385 1395 1538
f 1385 1538 1539
f 1384 1385 1539
f 1384 1539 1540
f 1383 1540 1541
f 1383 1384 1540
f 1382 1541 1542
f 1382 1383 1541
f 1381 1542 1543
f 1381 1382 1542
f 1380 1543 1544
f 1380 1381 1543
f 1379 1380 1544
f 1379 1544 1545
f 1378 1379 1545
f 1378 1545 1546
f 1376 1378 1546
f 1376 1546 1547
f 1374 1376 1547
f 1374 1547 1548
f 1372 1374 1548
f 1372 1548 1549
f 1370 1372 1549
f 1370 1549 1550
f 1368 1370 1550
f 1368 1550 1551
f 1366 1368 1551
f 1366 1551 1552
f 1364 1366 1552
f 1364 1552 1553
f 1362 1364 1553
f 1362 1553 1554
f 1360 1362 1554
f 1360 1554 1555
f 1358 1360 1555
f 1358 1555 1556
f 1355 1358 1556
f 1355 1556 1557
f 1353 1557 1558
f 1353 1355 1557
f 1351 1558 1559
f 1351 1353 1558
f 1349 1559 1560
f 1349 1351 1559
f 1346 1560 1561
f 1346 1349 1560
f 1347 1561 1562
f 1347 1346 1561
f 1348 1562 1563
f 1348 1563 1564
f 1348 1347 1562
f 1350 1564 1565
f 1350 1348 1564
f 1352 1350 1565
f 1354 1565 1566
f 1354 1352 1565
f 1356 1566 1567
f 1356 1567 1568
f 1356 1354 1566
f 1359 1568 1569
f 1359 1356 1568
f 1361 1359 1569
f 1363 1569 1570
f 1363 1361 1569
f 1365 1363 1570
f 1365 1570 1571
f 1365 1571 1572
f 1367 1365 1572
f 1367 1572 1573
f 1369 1367 1573
f 1371 1573 1574
f 1371 1369 1573
f 1373 1574 1575
f 1373 1371 1574
f 1375 1575 1576
f 1375 1373 1575
f 1377 1576 1577
f 1377 1577 1578
f 1377 1375 1576
f 1386 1377 1578
f 1388 1578 1579
f 1388 1386 1578
f 1389 1579 1580
f 1389 1388 1579
f 1390 1580 1581
f 1390 1389 1580
f 1391 1581 1582
f 1391 1390 1581
f 1392 1582 1583
f 1392 1391 1582
f 1393 1583 1584
f 1393 1584 1585
f 1393 1392 1583
f 1394 1393 1585
f 1396 1585 1586
f 1396 1586 1587
f 1396 1394 1585
f 1398 1396 1587
f 1400 1587 1588
f 1400 1398 1587
f 1402 1588 1589
f 1402 1400 1588
f 1403 1589 1590
f 1403 1402 1589
f 1404 1590 1591
f 1404 1591 1592
f 1404 1403 1590
f 1405 1404 1592
f 1406 1592 1593
f 1406 1405 1592
f 1407 1593 1594
f 1407 1406 1593
f 1408 1407 1594
f 1408 1594 1595
f 1409 1408 1595
f 1409 1595 1596
f 1410 1409 1596
f 1410 1596 1597
f 1410 1597 1598
f 1411 1410 1598
f 1446 1411 1598
f 1446 1598 1599
f 1447 1446 1599
f 1447 1599 1600
f 1447 1600 1601
f 1448 1447 1601
f 1449 1448 1601
f 1449 1601 1602
f 1450 1449 1602
f 1450 1602 1603
f 1451 1450 1603
f 1451 1603 1604
f 1452 1451 1604
f 1452 1604 1605
f 1453 1452 1605
f 1453 1605 1606
f 1454 1606 1607
f 1454 1453 1606
f 1455 1454 1607
f 1455 1607 1608
f 1436 1608 1483
f 1436 1455 1608
f 1498 1497 1499
f 1499 1501 1500
f 1495 1494 1496
f 1496 1494 1497
f 1502 1504 1503
f 1493 1492 1494
f 1497 1492 1499
f 1494 1492 1497
f 1501 1506 1502
f 1504 1506 1505
f 1499 1506 1501
f 1502 1506 1504
f 1492 1506 1499
f 1506 1508 1507
f 1506 1509 1508
f 1489 1488 1490
f 1490 1488 1491
f 1487 1486 1488
f 1509 1512 1510
f 1510 1512 1511
f 1506 1512 1509
f 1484 1483 1485
f 1485 1483 1486
f 1486 1483 1488
f 1512 1515 1513
f 1513 1515 1514
f 1491 1606 1492
f 1607 1606 1608
f 1608 1606 1483
f 1488 1606 1491
f 1483 1606 1488
f 1515 1518 1516
f 1516 1518 1517
f 1492 1518 1506
f 1506 1518 1512
f 1512 1518 1515
f 1604 1603 1605
f 1605 1603 1606
f 1518 1521 1519
f 1519 1521 1520
f 1518 1522 1521
f 1492 1523 1518
f 1606 1523 1492
f 1603 1523 1606
f 1601 1523 1602
f 1518 1523 1522
f 1602 1523 1603
f 1601 1600 1523
f 1600 1524 1523
f 1524 1526 1525
f 1600 1528 1524
f 1524 1528 1526
f 1526 1528 1527
f 1528 1530 1529
f 1593 1592 1594
f 1594 1592 1595
f 1530 1532 1531
f 1528 1532 1530
f 1595 1591 1596
f 1592 1591 1595
f 1598 1533 1599
f 1599 1533 1600
f 1600 1533 1528
f 1528 1533 1532
f 1596 1590 1597
f 1591 1590 1596
f 1533 1535 1534
f 1589 1588 1590
f 1587 1586 1588
f 1597 1586 1598
f 1590 1586 1597
f 1588 1586 1590
f 1536 1539 1537
f 1537 1539 1538
f 1585 1584 1586
f 1598 1584 1533
f 1533 1584 1535
f 1586 1584 1598
f 1535 1540 1536
f 1536 1540 1539
f 1540 1542 1541
f 1542 1544 1543
f 1579 1578 1580
f 1580 1578 1581
f 1542 1546 1544
f 1544 1546 1545
f 1535 1546 1540
f 1540 1546 1542
f 1578 1577 1581
f 1535 1548 1546
f 1546 1548 1547
f 1576 1575 1577
f 1548 1550 1549
f 1572 1571 1573
f 1573 1571 1574
f 1571 1570 1574
f 1583 1554 1584
f 1577 1554 1581
f 1548 1554 1550
f 1535 1554 1548
f 1575 1554 1577
f 1550 1554 1551
f 1551 1554 1552
f 1552 1554 1553
f 1584 1554 1535
f 1574 1554 1575
f 1581 1554 1582
f 1582 1554 1583
f 1570 1569 1574
f 1554 1556 1555
f 1569 1567 1574
f 1568 1567 1569
f 1574 1557 1554
f 1554 1557 1556
f 1567 1566 1574
f 1566 1564 1574
f 1565 1564 1566
f 1564 1563 1574
f 1558 1561 1559
f 1559 1561 1560
f 1574 1562 1557
f 1563 1562 1574
f 1557 1562 1558
f 1558 1562 1561
# Vertices: 264, normals: 0, texture coordinates: 0, faces: 524

