# https://github.com/mikedh/trimesh
v -5.86271510 -7.66104385 -4.99430299
v -4.50656153 -7.66104385 -4.99430299
v -5.86271510 -7.66104385 50.00000000
v -5.86271510 -4.67338786 -5.08056879
v -5.74501641 -4.82068770 -5.08056879
v -5.49818315 -5.10040857 -5.08056879
v -5.23657799 -5.36673814 -5.08056879
v -4.96306010 -5.62116504 -5.08056879
v -4.67667617 -5.86071312 -5.08056879
v -4.50656153 -5.99015839 -5.08056879
v -4.37861793 -6.08687066 -5.08056879
v -4.06983793 -6.29666150 -5.08056879
v -3.75081338 -6.49157315 -5.08056879
v -3.42892930 -6.66863024 -5.08056879
v -3.43012065 -7.65955597 -4.99430299
v -3.42892930 -7.65955597 -4.81638014
v -4.50656153 -7.66104385 50.00000000
v -5.86271510 7.53910169 50.00000000
v -5.86271510 4.67345156 -5.08056879
v -3.42892930 6.65679052 -5.08056879
v -3.42892930 -7.65806809 -4.99430299
v -3.42892930 -7.65955597 50.00000000
v -5.86271510 7.53910169 -4.99430299
v -4.50656153 7.53910169 50.00000000
v -5.74477836 4.82075140 -5.08056879
v -3.75009850 6.49163648 -5.08056879
v -4.50656153 7.53910169 -4.99430299
v -3.42892930 7.53761381 -4.99430299
v -3.42892930 7.53761381 50.00000000
v -4.06912342 6.29821271 -5.08056879
v -4.37790304 6.08544648 -5.08056879
v -4.50656153 5.99022210 -5.08056879
v -4.67596166 5.86077683 -5.08056879
v -4.96258363 5.62122874 -5.08056879
v -5.23657799 5.36680184 -5.08056879
v -5.49770668 5.10047227 -5.08056879
f 1 2 17
f 1 17 3
f 1 3 18
f 1 18 23
f 1 23 19
f 1 19 4
f 1 4 5
f 1 5 6
f 1 6 7
f 1 7 8
f 1 8 9
f 1 9 10
f 1 10 11
f 1 11 12
f 1 12 13
f 1 13 14
f 1 14 2
f 2 15 16
f 2 16 22
f 2 22 17
f 2 14 15
f 3 17 22
f 3 22 29
f 3 29 24
f 3 24 18
f 4 19 25
f 4 25 36
f 4 36 35
f 4 35 34
f 4 34 33
f 4 33 32
f 4 32 31
f 4 31 30
f 4 30 26
f 4 26 20
f 4 20 14
f 4 14 13
f 4 13 12
f 4 12 11
f 4 11 10
f 4 10 9
f 4 9 8
f 4 8 7
f 4 7 6
f 4 6 5
f 14 20 28
f 14 28 29
f 14 29 22
f 14 22 16
f 14 16 21
f 14 21 15
f 15 21 16
f 18 24 27
f 18 27 23
f 19 23 25
f 20 26 23
f 20 23 27
f 20 27 28
f 23 26 30
f 23 30 31
f 23 31 32
f 23 32 33
f 23 33 34
f 23 34 35
f 23 35 36
f 23 36 25
f 24 29 28
f 24 28 27

