# https://github.com/mikedh/trimesh
v 4.19754945 6.21274337 -30.74881434
v 4.06853296 6.30029142 -30.74881434
v -4.19755094 6.21274337 -30.74881434
v 4.19754945 6.21274337 -50.00000000
v 4.06853296 6.30029142 -50.00000000
v 3.93212102 6.38381466 -30.74881434
v -4.06853445 6.30029142 -30.74881434
v -4.19755094 6.21274337 -50.00000000
v 3.74969020 6.49526268 -50.00000000
v 3.74969020 6.49526268 -30.74881434
v -3.74969169 6.49526268 -30.74881434
v -4.06853445 6.30029142 -50.00000000
v 3.42098624 6.67413250 -50.00000000
v 3.56232896 6.59740195 -30.74881434
v -3.56233045 6.59740195 -30.74881434
v -3.74969169 6.49526268 -50.00000000
v 3.08406465 6.83639869 -50.00000000
v 3.22869420 6.76696450 -30.74881434
v 3.42098624 6.67425841 -30.74881434
v -3.42098773 6.67413250 -30.74881434
v -3.42098773 6.67413250 -50.00000000
v 2.73974724 6.98143244 -50.00000000
v 3.08406465 6.83639869 -30.74881434
v -3.27717960 6.74369335 -30.74881434
v -3.08406614 6.83639869 -50.00000000
v 2.38803383 7.10935816 -50.00000000
v 2.38885563 7.10923225 -30.74881434
v 2.73974724 6.98143244 -30.74881434
v -3.08406614 6.83639869 -30.74881434
v -2.88766548 6.91929311 -30.74881434
v -2.73974873 6.98143244 -50.00000000
v 2.03056820 7.21967444 -50.00000000
v 2.03056820 7.21967444 -30.74881434
v -2.73974873 6.98143244 -30.74881434
v -2.38803532 7.10935816 -50.00000000
v -2.58936659 7.03627542 -30.74881434
v 1.66817214 7.31187686 -50.00000000
v 1.82348471 7.27237910 -30.74881434
v -2.03056969 7.21967444 -50.00000000
v -2.38803532 7.10935816 -30.74881434
v -2.18423884 7.17237815 -30.74881434
v 1.30166709 7.38596544 -50.00000000
v 1.51121598 7.34370127 -30.74881434
v 1.66817214 7.31187686 -30.74881434
v -1.66817363 7.31187686 -50.00000000
v -2.03056969 7.21967444 -30.74881434
v -1.82348620 7.27237910 -30.74881434
v 0.93187513 7.44168982 -50.00000000
v 1.14306742 7.40986541 -30.74881434
v 1.30166709 7.38596544 -30.74881434
v -1.30166858 7.38596544 -50.00000000
v -1.66817363 7.31187686 -30.74881434
v -1.45944655 7.35426694 -30.74881434
v 0.56043961 7.47892261 -50.00000000
v 0.93187513 7.44168982 -30.74881434
v -0.93187662 7.44168982 -50.00000000
v -1.30166858 7.38596544 -30.74881434
v 0.18653878 7.49766529 -50.00000000
v 0.40019639 7.48697296 -30.74881434
v 0.56043961 7.47892261 -30.74881434
v -0.56044110 7.47892261 -50.00000000
v -0.93187662 7.44168982 -30.74881434
v -0.71986252 7.46294782 -30.74881434
v -0.18654027 7.49766529 -50.00000000
v 0.18653878 7.49766529 -30.74881434
v -0.56044110 7.47892261 -30.74881434
v -0.18654027 7.49766529 -30.74881434
f 1 2 6
f 1 6 10
f 1 10 14
f 1 14 19
f 1 19 18
f 1 18 23
f 1 23 28
f 1 28 27
f 1 27 33
f 1 33 38
f 1 38 44
f 1 44 43
f 1 43 50
f 1 50 49
f 1 49 55
f 1 55 60
f 1 60 59
f 1 59 65
f 1 65 67
f 1 67 66
f 1 66 63
f 1 63 62
f 1 62 57
f 1 57 53
f 1 53 52
f 1 52 47
f 1 47 46
f 1 46 41
f 1 41 40
f 1 40 36
f 1 36 34
f 1 34 30
f 1 30 29
f 1 29 24
f 1 24 20
f 1 20 15
f 1 15 11
f 1 11 7
f 1 7 3
f 1 3 8
f 1 8 4
f 1 4 5
f 1 5 2
f 2 5 6
f 3 7 12
f 3 12 8
f 4 8 12
f 4 12 16
f 4 16 21
f 4 21 25
f 4 25 31
f 4 31 35
f 4 35 39
f 4 39 45
f 4 45 51
f 4 51 56
f 4 56 61
f 4 61 64
f 4 64 58
f 4 58 54
f 4 54 48
f 4 48 42
f 4 42 37
f 4 37 32
f 4 32 26
f 4 26 22
f 4 22 17
f 4 17 13
f 4 13 9
f 4 9 5
f 5 9 6
f 6 9 10
f 7 11 16
f 7 16 12
f 9 13 14
f 9 14 10
f 11 15 16
f 13 17 18
f 13 18 19
f 13 19 14
f 15 20 21
f 15 21 16
f 17 22 28
f 17 28 23
f 17 23 18
f 20 24 21
f 21 24 25
f 22 26 27
f 22 27 28
f 24 29 25
f 25 29 30
f 25 30 31
f 26 32 27
f 27 32 33
f 30 34 31
f 31 34 36
f 31 36 35
f 32 37 38
f 32 38 33
f 35 36 40
f 35 40 41
f 35 41 39
f 37 42 43
f 37 43 44
f 37 44 38
f 39 41 46
f 39 46 47
f 39 47 45
f 42 48 49
f 42 49 50
f 42 50 43
f 45 47 52
f 45 52 53
f 45 53 51
f 48 54 60
f 48 60 55
f 48 55 49
f 51 53 57
f 51 57 62
f 51 62 56
f 54 58 59
f 54 59 60
f 56 62 63
f 56 63 61
f 58 64 67
f 58 67 65
f 58 65 59
f 61 63 66
f 61 66 67
f 61 67 64

