# https://github.com/mikedh/trimesh
v 5.75396046 -7.57941827 50.00000000
v -0.02374160 -7.57941827 50.00000000
v 5.75396046 -10.01092419 50.00000000
v 5.75396046 -7.57941827 24.28200841
v -5.86284772 -7.66105577 50.00000000
v -0.02374160 -7.57941827 -5.00000119
v -5.79120964 -9.98878926 50.00000000
v 5.75396046 -10.01092419 49.98923242
v 5.75396046 -9.68842134 -5.00000119
v 5.74941188 -7.57941827 -5.00000119
v -5.86284772 -9.86645222 50.00000000
v -5.86284772 -7.66105577 -5.00000119
v -5.79120964 -9.98878926 -5.00000119
v -0.02374160 -9.99973789 -5.00000119
v 5.75396046 -10.01021042 -5.00000119
v -5.86284772 -9.86645222 -5.00000119
f 1 2 5
f 1 5 11
f 1 11 7
f 1 7 3
f 1 3 8
f 1 8 15
f 1 15 9
f 1 9 4
f 1 4 10
f 1 10 6
f 1 6 2
f 2 6 12
f 2 12 5
f 3 7 13
f 3 13 8
f 4 9 10
f 5 12 16
f 5 16 11
f 6 10 9
f 6 9 15
f 6 15 14
f 6 14 13
f 6 13 16
f 6 16 12
f 7 11 16
f 7 16 13
f 8 13 14
f 8 14 15

