# https://github.com/mikedh/trimesh
v 5.85818440 4.67961319 -5.08188158
v 5.85818440 4.63846773 -5.08188158
v 5.85818440 4.67961319 -18.52583885
v 5.77882864 4.77869846 -18.52583885
v 5.74432611 4.82096374 -5.08188158
v -5.88989556 4.63846773 -5.08188158
v 5.85818440 4.63846773 -18.52583885
v 5.74432611 4.82096374 -18.52583885
v 5.57181388 5.01745492 -18.52583885
v 5.49705885 5.10142520 -5.08188158
v -5.74383549 4.82152328 -5.08188158
v -5.89104593 4.63846773 -18.52583885
v 5.49705885 5.10142520 -18.52583885
v 5.31419590 5.28895967 -18.52583885
v 5.23599014 5.36901131 -5.08188158
v -5.49771786 5.10142520 -5.08188158
v -5.74498549 4.82152328 -18.52583885
v 5.23599014 5.36901131 -18.52583885
v 5.10603115 5.49020916 -18.52583885
v 4.96227108 5.62344231 -5.08188158
v -5.23664951 5.36901131 -5.08188158
v -5.49771786 5.10142520 -18.52583885
v 4.96227108 5.62344231 -18.52583885
v 4.67475057 5.86415790 -5.08188158
v -4.96178009 5.62344231 -5.08188158
v -5.09288944 5.50224483 -18.52583885
v -5.23664951 5.36901131 -18.52583885
v 4.67475057 5.86415790 -18.52583885
v 4.58619446 5.93161434 -18.52583885
v 4.44473438 6.03909642 -18.52583885
v 4.37802970 6.08947873 -5.08188158
v -4.67540994 5.86387813 -5.08188158
v -4.76166606 5.79194315 -18.52583885
v -4.96178009 5.62344231 -18.52583885
v 4.37802970 6.08947873 -18.52583885
v 4.06865776 6.29996508 -5.08188158
v 4.23081927 6.18968382 -18.52583885
v -4.37753871 6.08947873 -5.08188158
v -4.58685346 5.93133420 -18.52583885
v -4.67540994 5.86387813 -18.52583885
v 4.06865776 6.29996508 -18.52583885
v 3.91684696 6.39289245 -18.52583885
v 3.74893509 6.49505705 -5.08188158
v -4.06816714 6.29996508 -5.08188158
v -4.28553224 6.15245663 -18.52583885
v -4.37753871 6.08947873 -18.52583885
v 3.74893509 6.49505705 -18.52583885
v 3.65117826 6.54851794 -18.52583885
v 3.49476710 6.63388819 -18.52583885
v 3.42001207 6.67419359 -5.08188158
v -3.74959446 6.49505705 -5.08188158
v -3.97271030 6.35846481 -18.52583885
v -4.06816714 6.29996508 -18.52583885
v 3.42001207 6.67419359 -18.52583885
v 3.08418833 6.83625713 -5.08188158
v 3.31995487 6.72261715 -18.52583885
v 3.16009372 6.79986998 -18.52583885
v -3.42067108 6.67391419 -5.08188158
v -3.74959446 6.49505705 -18.52583885
v -3.90140526 6.40212893 -18.52583885
v 2.73916386 6.98152632 -5.08188158
v 3.08418833 6.83625713 -18.52583885
v -3.08369752 6.83625713 -5.08188158
v -3.34591605 6.71030134 -18.52583885
v -3.42067108 6.67391419 -18.52583885
v 2.38838904 7.10916147 -5.08188158
v 2.73916386 6.98152632 -18.52583885
v 2.49419659 7.07081482 -18.52583885
v -2.73982324 6.98152632 -5.08188158
v -2.98134014 6.87964186 -18.52583885
v -3.08369752 6.83625713 -18.52583885
v 2.03071386 7.21944273 -5.08188158
v 2.38838904 7.10916147 -18.52583885
v 2.11121961 7.19481111 -18.52583885
v -2.38789823 7.10944086 -5.08188158
v -2.49370579 7.07109496 -18.52583885
v -2.73982324 6.98152632 -18.52583885
v 1.66843832 7.31181055 -5.08188158
v 2.03071386 7.21944273 -18.52583885
v 1.92260612 7.24715292 -18.52583885
v -2.03022305 7.21944273 -5.08188158
v -2.20043510 7.16710091 -18.52583885
v -2.38789823 7.10944086 -18.52583885
v 1.30156232 7.38598406 -5.08188158
v 1.75009407 7.29109794 -18.52583885
v 1.66843832 7.31181055 -18.52583885
v 1.41197015 7.36387223 -18.52583885
v -1.66794751 7.31181055 -5.08188158
v -1.92211531 7.24715292 -18.52583885
v -2.03022305 7.21944273 -18.52583885
v 0.93238624 7.44168460 -5.08188158
v 1.30156232 7.38598406 -18.52583885
v 1.12559991 7.41257519 -18.52583885
v -1.30222160 7.38598406 -5.08188158
v -1.66794751 7.31181055 -18.52583885
v 0.55975993 7.47891143 -5.08188158
v 0.93238624 7.44168460 -18.52583885
v -0.93189543 7.44168460 -5.08188158
v -1.30222160 7.38598406 -18.52583885
v 0.18598353 7.49766529 -5.08188158
v 0.55975993 7.47891143 -18.52583885
v 0.29869149 7.49206692 -18.52583885
v -0.56041921 7.47891143 -5.08188158
v -0.73753172 7.46127814 -18.52583885
v -0.93189543 7.44168460 -18.52583885
v -0.18664279 7.49766529 -5.08188158
v 0.18598353 7.49766529 -18.52583885
v -0.56041921 7.47891143 -18.52583885
v -0.18664279 7.49766529 -18.52583885
f 1 2 7
f 1 7 3
f 1 3 4
f 1 4 5
f 1 5 10
f 1 10 15
f 1 15 20
f 1 20 24
f 1 24 31
f 1 31 36
f 1 36 43
f 1 43 50
f 1 50 55
f 1 55 61
f 1 61 66
f 1 66 72
f 1 72 78
f 1 78 84
f 1 84 91
f 1 91 96
f 1 96 100
f 1 100 106
f 1 106 103
f 1 103 98
f 1 98 94
f 1 94 88
f 1 88 81
f 1 81 75
f 1 75 69
f 1 69 63
f 1 63 58
f 1 58 51
f 1 51 44
f 1 44 38
f 1 38 32
f 1 32 25
f 1 25 21
f 1 21 16
f 1 16 11
f 1 11 6
f 1 6 2
f 2 6 12
f 2 12 7
f 3 7 12
f 3 12 17
f 3 17 22
f 3 22 27
f 3 27 26
f 3 26 34
f 3 34 33
f 3 33 40
f 3 40 39
f 3 39 46
f 3 46 45
f 3 45 53
f 3 53 52
f 3 52 60
f 3 60 59
f 3 59 65
f 3 65 64
f 3 64 71
f 3 71 70
f 3 70 77
f 3 77 76
f 3 76 83
f 3 83 82
f 3 82 90
f 3 90 89
f 3 89 95
f 3 95 99
f 3 99 105
f 3 105 104
f 3 104 108
f 3 108 109
f 3 109 107
f 3 107 102
f 3 102 101
f 3 101 97
f 3 97 93
f 3 93 92
f 3 92 87
f 3 87 86
f 3 86 85
f 3 85 80
f 3 80 79
f 3 79 74
f 3 74 73
f 3 73 68
f 3 68 67
f 3 67 62
f 3 62 57
f 3 57 56
f 3 56 54
f 3 54 49
f 3 49 48
f 3 48 47
f 3 47 42
f 3 42 41
f 3 41 37
f 3 37 35
f 3 35 30
f 3 30 29
f 3 29 28
f 3 28 23
f 3 23 19
f 3 19 18
f 3 18 14
f 3 14 13
f 3 13 9
f 3 9 8
f 3 8 4
f 4 8 5
f 5 8 9
f 5 9 10
f 6 11 17
f 6 17 12
f 9 13 10
f 10 13 14
f 10 14 15
f 11 16 17
f 14 18 15
f 15 18 19
f 15 19 20
f 16 21 27
f 16 27 22
f 16 22 17
f 19 23 20
f 20 23 28
f 20 28 24
f 21 25 26
f 21 26 27
f 24 28 29
f 24 29 30
f 24 30 31
f 25 32 33
f 25 33 34
f 25 34 26
f 30 35 31
f 31 35 37
f 31 37 36
f 32 38 39
f 32 39 40
f 32 40 33
f 36 37 41
f 36 41 42
f 36 42 43
f 38 44 45
f 38 45 46
f 38 46 39
f 42 47 43
f 43 47 48
f 43 48 49
f 43 49 50
f 44 51 52
f 44 52 53
f 44 53 45
f 49 54 50
f 50 54 56
f 50 56 57
f 50 57 55
f 51 58 65
f 51 65 59
f 51 59 60
f 51 60 52
f 55 57 62
f 55 62 67
f 55 67 61
f 58 63 64
f 58 64 65
f 61 67 68
f 61 68 66
f 63 69 70
f 63 70 71
f 63 71 64
f 66 68 73
f 66 73 74
f 66 74 72
f 69 75 76
f 69 76 77
f 69 77 70
f 72 74 79
f 72 79 80
f 72 80 78
f 75 81 82
f 75 82 83
f 75 83 76
f 78 80 85
f 78 85 86
f 78 86 87
f 78 87 84
f 81 88 89
f 81 89 90
f 81 90 82
f 84 87 92
f 84 92 93
f 84 93 91
f 88 94 99
f 88 99 95
f 88 95 89
f 91 93 97
f 91 97 101
f 91 101 96
f 94 98 105
f 94 105 99
f 96 101 102
f 96 102 100
f 98 103 104
f 98 104 105
f 100 102 107
f 100 107 109
f 100 109 106
f 103 106 109
f 103 109 108
f 103 108 104

