# https://github.com/mikedh/trimesh
v 5.85818365 -1.67798903 -30.74881434
v 5.85818365 -4.67916951 -30.74881434
v 5.85818365 -1.67798903 -50.00000000
v -7.30759129 -1.67798903 -30.74881434
v 5.74477464 -4.82102670 -30.74881434
v 5.85818365 -4.67916951 -50.00000000
v -7.30759129 -1.67798903 -50.00000000
v -7.26764053 -1.85081214 -30.74881434
v 5.49733639 -5.10139354 -30.74881434
v 5.74477464 -4.82060835 -50.00000000
v -7.26764053 -1.85081214 -50.00000000
v -7.20964745 -2.05669347 -30.74881434
v 5.23572192 -5.36878817 -30.74881434
v 5.23572192 -5.36878817 -50.00000000
v 5.49733639 -5.10097519 -50.00000000
v -7.16582984 -2.21068598 -50.00000000
v -7.16582984 -2.21068598 -30.74881434
v 5.07978424 -5.51441163 -30.74881434
v 4.96250913 -5.62321059 -50.00000000
v -7.04726577 -2.56553832 -50.00000000
v -7.11556897 -2.36258619 -30.74881434
v 4.96122018 -5.62321059 -30.74881434
v 4.67512012 -5.86340576 -50.00000000
v 4.79755029 -5.76088354 -30.74881434
v 4.67512012 -5.86382374 -30.74881434
v -6.91065937 -2.91327685 -50.00000000
v -7.04726577 -2.56553832 -30.74881434
v 4.55784425 -5.95253706 -50.00000000
v 4.55784425 -5.95253706 -30.74881434
v -6.75600991 -3.25432010 -50.00000000
v -6.84493333 -3.05973720 -30.74881434
v -6.91065937 -2.91327685 -30.74881434
v -4.55870703 -5.95253706 -50.00000000
v -4.55870703 -5.95253706 -30.74881434
v -6.58589676 -3.58699411 -50.00000000
v -6.68384060 -3.39701436 -30.74881434
v -6.75600991 -3.25432010 -30.74881434
v -4.67598289 -5.86340576 -50.00000000
v -4.67598289 -5.86340576 -30.74881434
v -6.39902875 -3.91046219 -50.00000000
v -6.50599450 -3.72550376 -30.74881434
v -6.58589676 -3.58699411 -30.74881434
v -4.96208295 -5.62321059 -50.00000000
v -4.83965278 -5.72615117 -30.74881434
v -6.19669706 -4.22472432 -50.00000000
v -6.39902875 -3.91046219 -30.74881434
v -5.23658469 -5.36878817 -50.00000000
v -4.96208295 -5.62279224 -30.74881434
v -5.11930957 -5.47758713 -30.74881434
v -5.97761050 -4.52852473 -50.00000000
v -6.19669706 -4.22472432 -30.74881434
v -5.49691021 -5.10097519 -50.00000000
v -5.23658469 -5.36878817 -30.74881434
v -5.34870550 -5.25371209 -30.74881434
v -5.74434847 -4.82060835 -50.00000000
v -5.84487021 -4.69507091 -30.74881434
v -5.97761050 -4.52810600 -30.74881434
v -5.49691021 -5.10097519 -30.74881434
v -5.63867167 -4.94070575 -30.74881434
v -5.74434847 -4.82060835 -30.74881434
f 1 2 6
f 1 6 3
f 1 3 7
f 1 7 4
f 1 4 8
f 1 8 12
f 1 12 17
f 1 17 21
f 1 21 27
f 1 27 32
f 1 32 31
f 1 31 37
f 1 37 36
f 1 36 42
f 1 42 41
f 1 41 46
f 1 46 51
f 1 51 57
f 1 57 56
f 1 56 60
f 1 60 59
f 1 59 58
f 1 58 54
f 1 54 53
f 1 53 49
f 1 49 48
f 1 48 44
f 1 44 39
f 1 39 34
f 1 34 29
f 1 29 25
f 1 25 24
f 1 24 22
f 1 22 18
f 1 18 13
f 1 13 9
f 1 9 5
f 1 5 2
f 2 5 6
f 3 6 10
f 3 10 15
f 3 15 14
f 3 14 19
f 3 19 23
f 3 23 28
f 3 28 33
f 3 33 38
f 3 38 43
f 3 43 47
f 3 47 52
f 3 52 55
f 3 55 50
f 3 50 45
f 3 45 40
f 3 40 35
f 3 35 30
f 3 30 26
f 3 26 20
f 3 20 16
f 3 16 11
f 3 11 7
f 4 7 11
f 4 11 8
f 5 9 15
f 5 15 10
f 5 10 6
f 8 11 12
f 9 13 14
f 9 14 15
f 11 16 12
f 12 16 17
f 13 18 14
f 14 18 19
f 16 20 21
f 16 21 17
f 18 22 19
f 19 22 24
f 19 24 25
f 19 25 23
f 20 26 32
f 20 32 27
f 20 27 21
f 23 25 28
f 25 29 28
f 26 30 31
f 26 31 32
f 28 29 34
f 28 34 33
f 30 35 36
f 30 36 37
f 30 37 31
f 33 34 39
f 33 39 38
f 35 40 41
f 35 41 42
f 35 42 36
f 38 39 44
f 38 44 43
f 40 45 51
f 40 51 46
f 40 46 41
f 43 44 48
f 43 48 49
f 43 49 47
f 45 50 51
f 47 49 53
f 47 53 54
f 47 54 52
f 50 55 56
f 50 56 57
f 50 57 51
f 52 54 58
f 52 58 59
f 52 59 55
f 55 59 60
f 55 60 56

