# https://github.com/mikedh/trimesh
v 3.26869786 -6.74766600 -25.41952431
v 3.26869786 -6.74766600 -30.74801564
v 3.26805785 -6.74766600 -22.59728909
v 3.19126770 -6.78495988 -22.59728909
v 3.08376234 -6.83642328 -30.74801564
v -3.26866657 -6.74766600 -30.74801564
v -3.26802656 -6.74766600 -22.59728909
v 3.08376234 -6.83649704 -22.59728909
v 2.88730878 -6.91945478 -30.74801564
v -3.08437143 -6.83642328 -30.74801564
v -3.18291858 -6.78885132 -22.59728909
v 2.84891389 -6.93560615 -22.59728909
v 2.73948852 -6.98171034 -30.74801564
v 2.73948852 -6.98171034 -22.59728909
v -2.88727786 -6.91945478 -30.74801564
v -2.84056403 -6.93920329 -22.59728909
v -3.08373142 -6.83649704 -22.59728909
v 2.38817558 -7.10952431 -30.74801564
v 2.60254685 -7.03163221 -22.59728909
v -2.73945760 -6.98156357 -30.74801564
v -2.73945760 -6.98156357 -22.59728909
v 2.03046352 -7.21971914 -30.74801564
v 2.38817558 -7.10952431 -22.59728909
v 2.28386950 -7.14168027 -22.59728909
v 2.16996484 -7.17677176 -22.59728909
v -2.58971769 -7.03633055 -30.74801564
v -2.62811258 -7.02216178 -22.59728909
v 1.82377119 -7.27243051 -30.74801564
v 2.03046352 -7.21971914 -22.59728909
v -2.38878466 -7.10937753 -30.74801564
v -2.38878466 -7.10937753 -22.59728909
v 1.66827198 -7.31192753 -30.74801564
v 1.88904237 -7.25576580 -22.59728909
v 1.78345665 -7.28263557 -22.59728909
v 1.66827198 -7.31192753 -22.59728909
v -2.03107242 -7.21964613 -30.74801564
v -2.03107242 -7.21964613 -22.59728909
v 1.45902000 -7.35428780 -30.74801564
v 1.52557110 -7.34085292 -22.59728909
v 1.41870547 -7.36251026 -22.59728909
v -1.66888107 -7.31192753 -30.74801564
v -1.66888107 -7.31192753 -22.59728909
v 1.30224107 -7.38600269 -30.74801564
v 1.30224107 -7.38600269 -22.59728909
v -1.30221015 -7.38600269 -30.74801564
v -1.30221015 -7.38600269 -22.59728909
v 0.93237059 -7.44172409 -30.74801564
v 0.93237059 -7.44172409 -22.59728909
v -1.14351138 -7.40993544 -30.74801564
v -0.93233967 -7.44172409 -22.59728909
v 0.71991906 -7.46301413 -30.74801564
v 0.67832461 -7.46719837 -22.59728909
v -0.93233967 -7.44172409 -30.74801564
v -0.81395553 -7.45361745 -22.59728909
v 0.55994047 -7.47901872 -30.74801564
v 0.55994047 -7.47901872 -22.59728909
v -0.77300100 -7.45772794 -30.74801564
v -0.55990955 -7.47901872 -22.59728909
v 0.34684900 -7.48966336 -30.74801564
v 0.41467990 -7.48628676 -22.59728909
v -0.55990955 -7.47901872 -30.74801564
v -0.18683951 -7.49759227 -22.59728909
v 0.18687043 -7.49759227 -30.74801564
v 0.30525457 -7.49171898 -22.59728909
v 0.18687043 -7.49759227 -22.59728909
v -0.18683951 -7.49759227 -30.74801564
f 1 2 6
f 1 6 7
f 1 7 3
f 1 3 4
f 1 4 2
f 2 4 5
f 2 5 9
f 2 9 13
f 2 13 18
f 2 18 22
f 2 22 28
f 2 28 32
f 2 32 38
f 2 38 43
f 2 43 47
f 2 47 51
f 2 51 55
f 2 55 59
f 2 59 63
f 2 63 66
f 2 66 61
f 2 61 57
f 2 57 53
f 2 53 49
f 2 49 45
f 2 45 41
f 2 41 36
f 2 36 30
f 2 30 26
f 2 26 20
f 2 20 15
f 2 15 10
f 2 10 6
f 3 7 11
f 3 11 17
f 3 17 16
f 3 16 21
f 3 21 27
f 3 27 31
f 3 31 37
f 3 37 42
f 3 42 46
f 3 46 50
f 3 50 54
f 3 54 58
f 3 58 62
f 3 62 65
f 3 65 64
f 3 64 60
f 3 60 56
f 3 56 52
f 3 52 48
f 3 48 44
f 3 44 40
f 3 40 39
f 3 39 35
f 3 35 34
f 3 34 33
f 3 33 29
f 3 29 25
f 3 25 24
f 3 24 23
f 3 23 19
f 3 19 14
f 3 14 12
f 3 12 8
f 3 8 4
f 4 8 5
f 5 8 9
f 6 10 11
f 6 11 7
f 8 12 9
f 9 12 14
f 9 14 13
f 10 15 16
f 10 16 17
f 10 17 11
f 13 14 19
f 13 19 18
f 15 20 16
f 16 20 21
f 18 19 23
f 18 23 24
f 18 24 25
f 18 25 22
f 20 26 21
f 21 26 27
f 22 25 29
f 22 29 28
f 26 30 31
f 26 31 27
f 28 29 33
f 28 33 34
f 28 34 35
f 28 35 32
f 30 36 37
f 30 37 31
f 32 35 39
f 32 39 40
f 32 40 38
f 36 41 42
f 36 42 37
f 38 40 43
f 40 44 43
f 41 45 46
f 41 46 42
f 43 44 48
f 43 48 47
f 45 49 46
f 46 49 50
f 47 48 52
f 47 52 51
f 49 53 50
f 50 53 54
f 51 52 55
f 52 56 55
f 53 57 54
f 54 57 58
f 55 56 60
f 55 60 59
f 57 61 58
f 58 61 66
f 58 66 62
f 59 60 64
f 59 64 65
f 59 65 63
f 62 66 63
f 62 63 65

