# https://github.com/mikedh/trimesh
v 5.85818365 -1.61181204 -5.08307815
v -7.32260123 -1.61181204 -5.08307815
v 5.85818365 -2.74766497 -5.08307815
v 5.85818365 -1.61181204 -30.74881434
v -7.26712197 -1.85074583 -5.08307815
v -7.32260123 -1.61181204 -30.74881434
v -6.97553456 -2.74766497 -5.08307815
v 5.85818365 -2.74766497 -30.74881434
v -7.16648549 -2.21064761 -5.08307815
v -7.26712197 -1.85074583 -30.74881434
v -7.04649612 -2.56510135 -5.08307815
v -6.97553456 -2.74766497 -30.74881434
v -7.16648549 -2.21064761 -30.74881434
v -7.04649612 -2.56510135 -30.74881434
f 1 2 5
f 1 5 9
f 1 9 11
f 1 11 7
f 1 7 3
f 1 3 8
f 1 8 4
f 1 4 6
f 1 6 2
f 2 6 10
f 2 10 5
f 3 7 12
f 3 12 8
f 4 8 12
f 4 12 14
f 4 14 13
f 4 13 10
f 4 10 6
f 5 10 13
f 5 13 9
f 7 11 14
f 7 14 12
f 9 13 14
f 9 14 11

