# https://github.com/mikedh/trimesh
v 5.85818365 -3.49766538 -5.08476943
v -6.63241372 -3.49766538 -5.08476943
v 5.85818365 -4.67971489 -5.08476943
v 5.85818365 -3.49766538 -27.08192170
v -6.58473074 -3.58736888 -5.08476943
v -6.63241372 -3.49766538 -27.08192170
v -6.57739416 -3.60263735 -26.03320777
v 5.74447699 -4.82190438 -5.08476943
v 5.85818365 -4.67971489 -27.08192170
v -6.39888719 -3.91055569 -5.08476943
v -6.58473074 -3.58736888 -27.08192170
v -6.39888719 -3.91087383 -27.08192170
v -6.48691803 -3.75977755 -26.03320777
v 5.49627915 -5.10214791 -5.08476943
v 5.49750179 -5.10182977 -26.03320777
v 5.53295836 -5.06174974 -27.08192170
v 5.62954806 -4.95232418 -26.03320777
v 5.74447699 -4.82158624 -27.08192170
v -6.19592741 -4.22515385 -5.08476943
v -6.39888719 -3.91087383 -26.03320777
v -6.30474314 -4.05751653 -26.03320777
v -6.29985258 -4.06483263 -27.08192170
v 5.23585454 -5.36903180 -5.08476943
v 5.27375676 -5.33054173 -27.08192170
v 5.49750179 -5.10182977 -27.08192170
v -5.97707294 -4.52830046 -5.08476943
v -6.19592741 -4.22515385 -27.08192170
v -6.18614629 -4.23978642 -26.03320777
v 4.96198088 -5.62350936 -5.08476943
v 5.23585454 -5.36903180 -27.08192170
v -5.74476942 -4.82126810 -5.08476943
v -5.97707294 -4.52861860 -26.03320777
v -5.85847571 -4.67907861 -26.03320777
v -5.97707294 -4.52861860 -27.08192170
v 4.67465781 -5.86367287 -5.08476943
v 4.67588045 -5.86367287 -26.03320777
v 4.82871197 -5.73547967 -26.03320777
v 4.96198088 -5.62319122 -27.08192170
v 5.00110574 -5.58692813 -27.08192170
v -5.49779385 -5.10119386 -5.08476943
v -5.82668707 -4.71884087 -26.03320777
v -5.74476942 -4.82126810 -27.08192170
v -5.49779385 -5.10151200 -27.08192170
v 4.37633134 -6.08952194 -5.08476943
v 4.42034677 -6.05707616 -27.08192170
v 4.67588045 -5.86367287 -27.08192170
v -5.23492396 -5.36871366 -5.08476943
v -5.23492396 -5.36871366 -27.08192170
v 4.06822339 -6.30010217 -5.08476943
v 4.37755398 -6.08920380 -26.03320777
v 4.37755398 -6.08920380 -27.08192170
v -4.96105030 -5.62255532 -5.08476943
v -5.08942865 -5.50422296 -26.03320777
v -5.09554185 -5.49817905 -27.08192170
v 3.74911167 -6.49509579 -5.08476943
v 4.06822339 -6.30010217 -26.03320777
v 4.22594510 -6.19258545 -27.08192170
v -4.67617288 -5.86303659 -5.08476943
v -4.94882390 -5.63432463 -26.03320777
v -4.96105030 -5.62287346 -27.08192170
v 3.80779877 -6.45915121 -26.03320777
v 3.42021845 -6.67386651 -5.08476943
v 3.59628014 -6.57843724 -26.03320777
v 3.74911167 -6.49477765 -27.08192170
v 3.91172394 -6.39553145 -27.08192170
v 4.06822339 -6.29978403 -27.08192170
v 4.11223881 -6.26988336 -27.08192170
v -4.37662341 -6.08856753 -5.08476943
v -4.67617288 -5.86303659 -27.08192170
v -4.37662341 -6.08888566 -26.03320777
v -4.92070280 -5.65722771 -27.08192170
v 3.26860994 -6.74734712 -5.08476943
v 3.27594578 -6.74384832 -26.03320777
v 3.42021845 -6.67386651 -27.08192170
v 3.46790180 -6.64810091 -27.08192170
v -4.06729281 -6.29946589 -5.08476943
v -4.32160422 -6.12769350 -26.03320777
v -4.37662341 -6.08888566 -27.08192170
v -3.26645672 -6.74734712 -5.08476943
v 3.26860994 -6.74734712 -27.08192170
v -3.74818109 -6.49445951 -5.08476943
v -4.05384377 -6.30869120 -26.03320777
v -4.33260798 -6.11910522 -27.08192170
v -4.06729281 -6.29946589 -27.08192170
v -3.42173353 -6.67323023 -5.08476943
v -3.42173353 -6.67354837 -26.03320777
v -3.26645672 -6.74734712 -27.08192170
v -3.74818109 -6.49445951 -27.08192170
v -3.70294303 -6.52022585 -27.08192170
v -4.02205475 -6.32745847 -27.08192170
v -3.42173353 -6.67354837 -27.08192170
f 1 2 5
f 1 5 10
f 1 10 19
f 1 19 26
f 1 26 31
f 1 31 40
f 1 40 47
f 1 47 52
f 1 52 58
f 1 58 68
f 1 68 76
f 1 76 81
f 1 81 85
f 1 85 79
f 1 79 72
f 1 72 62
f 1 62 55
f 1 55 49
f 1 49 44
f 1 44 35
f 1 35 29
f 1 29 23
f 1 23 14
f 1 14 8
f 1 8 3
f 1 3 9
f 1 9 4
f 1 4 6
f 1 6 2
f 2 6 7
f 2 7 5
f 3 8 9
f 4 9 18
f 4 18 16
f 4 16 25
f 4 25 24
f 4 24 30
f 4 30 39
f 4 39 38
f 4 38 46
f 4 46 45
f 4 45 51
f 4 51 57
f 4 57 67
f 4 67 66
f 4 66 65
f 4 65 64
f 4 64 75
f 4 75 74
f 4 74 80
f 4 80 87
f 4 87 91
f 4 91 89
f 4 89 88
f 4 88 90
f 4 90 84
f 4 84 83
f 4 83 78
f 4 78 69
f 4 69 71
f 4 71 60
f 4 60 54
f 4 54 48
f 4 48 43
f 4 43 42
f 4 42 34
f 4 34 27
f 4 27 22
f 4 22 12
f 4 12 11
f 4 11 6
f 5 7 10
f 6 11 7
f 7 11 12
f 7 12 13
f 7 13 10
f 8 14 15
f 8 15 16
f 8 16 17
f 8 17 18
f 8 18 9
f 10 13 20
f 10 20 21
f 10 21 19
f 12 22 21
f 12 21 20
f 12 20 13
f 14 23 15
f 15 23 24
f 15 24 25
f 15 25 16
f 16 18 17
f 19 21 27
f 19 27 28
f 19 28 26
f 21 22 27
f 23 29 30
f 23 30 24
f 26 28 32
f 26 32 33
f 26 33 31
f 27 34 28
f 28 34 32
f 29 35 36
f 29 36 37
f 29 37 38
f 29 38 39
f 29 39 30
f 31 33 41
f 31 41 42
f 31 42 43
f 31 43 40
f 32 34 33
f 33 34 42
f 33 42 41
f 35 44 36
f 36 44 45
f 36 45 46
f 36 46 37
f 37 46 38
f 40 43 47
f 43 48 47
f 44 49 50
f 44 50 45
f 45 50 51
f 47 48 53
f 47 53 52
f 48 54 53
f 49 55 56
f 49 56 57
f 49 57 50
f 50 57 51
f 52 53 59
f 52 59 58
f 53 54 60
f 53 60 59
f 55 61 56
f 55 62 63
f 55 63 64
f 55 64 61
f 56 61 65
f 56 65 66
f 56 66 67
f 56 67 57
f 58 59 69
f 58 69 78
f 58 78 70
f 58 70 68
f 59 60 71
f 59 71 69
f 61 64 65
f 62 72 73
f 62 73 74
f 62 74 75
f 62 75 63
f 63 75 64
f 68 70 77
f 68 77 76
f 70 78 77
f 72 79 87
f 72 87 80
f 72 80 73
f 73 80 74
f 76 77 82
f 76 82 81
f 77 78 83
f 77 83 84
f 77 84 82
f 79 85 86
f 79 86 91
f 79 91 87
f 81 82 88
f 81 88 89
f 81 89 85
f 82 84 90
f 82 90 88
f 85 89 86
f 86 89 91

