# https://github.com/mikedh/trimesh
v 5.85818440 -2.74805631 -27.08192468
v 5.85818440 -4.67953645 -27.08192468
v 5.85818440 -2.74805631 -30.74845672
v -6.97606355 -2.74805631 -27.08192468
v 5.80290779 -4.74844798 -27.08192468
v 5.74511811 -4.82088327 -30.74845672
v 5.85818440 -4.67953645 -30.74845672
v -6.97606355 -2.74805631 -30.74845672
v -6.91073611 -2.91328747 -27.08192468
v 5.74386194 -4.82088327 -27.08192468
v 5.62325791 -4.95831482 -27.08192468
v 5.53280562 -5.06129079 -27.08192468
v 5.49762920 -5.10122813 -27.08192468
v 5.49762920 -5.10122813 -30.74845672
v -6.91073611 -2.91328747 -30.74845672
v -6.75621331 -3.25432122 -27.08192468
v 5.23632094 -5.36904335 -27.08192468
v 5.23632094 -5.36904335 -30.74845672
v -6.75621331 -3.25432122 -30.74845672
v -6.73234388 -3.30169797 -27.08192468
v 5.00139520 -5.58713228 -27.08192468
v 5.07928506 -5.51430546 -30.74845672
v -6.58661425 -3.58713232 -30.74845672
v -6.58661425 -3.58713232 -27.08192468
v 4.96119410 -5.62354587 -27.08192468
v 4.96119410 -5.62315434 -30.74845672
v -6.39942735 -3.91054675 -30.74845672
v -6.39942735 -3.91054675 -27.08192468
v 4.82174605 -5.74100874 -27.08192468
v 4.79787663 -5.76058589 -30.74845672
v -6.28384873 -4.09026481 -30.74845672
v -6.27128556 -4.10945043 -27.08192468
v 4.71621752 -5.82949743 -27.08192468
v 4.67476025 -5.86356148 -30.74845672
v -6.19590804 -4.22495529 -30.74845672
v -6.19590804 -4.22495529 -27.08192468
v 4.67476025 -5.86356148 -27.08192468
v 4.50516120 -5.99277094 -30.74845672
v -6.10294268 -4.35494781 -30.74845672
v -6.08535483 -4.37961482 -27.08192468
v 4.52903062 -5.97436801 -27.08192468
v 4.41973358 -6.05737530 -27.08192468
v 4.37701941 -6.08948171 -30.74845672
v -5.97857013 -4.52840105 -30.74845672
v -5.97857013 -4.52840105 -27.08192468
v 4.37701941 -6.08948171 -27.08192468
v 4.22626510 -6.19284883 -27.08192468
v 4.20113876 -6.20968528 -30.74845672
v -5.84540367 -4.69558984 -30.74845672
v -5.86424768 -4.67170551 -27.08192468
v 4.06797230 -6.30013198 -27.08192468
v 4.06797230 -6.30013198 -30.74845672
v -5.74490055 -4.82088327 -30.74845672
v -5.74490055 -4.82088327 -27.08192468
v 3.91219258 -6.39566779 -27.08192468
v 3.88581082 -6.41172156 -30.74845672
v -5.63937202 -4.94069532 -30.74845672
v -5.70972413 -4.86082062 -27.08192468
v 3.74887511 -6.49511963 -27.08192468
v 3.74887511 -6.49511963 -30.74845672
v -5.49741164 -5.10083660 -30.74845672
v -5.61927184 -4.96340506 -27.08192468
v 3.56168821 -6.59731254 -30.74845672
v 3.42098325 -6.67405501 -27.08192468
v -5.49741164 -5.10083660 -27.08192468
v -5.23610339 -5.36865145 -30.74845672
v -5.33283800 -5.27037457 -27.08192468
v 3.42098325 -6.67405501 -30.74845672
v 3.29032987 -6.73709363 -27.08192468
v -5.11926860 -5.47750071 -30.74845672
v -5.19715846 -5.40506504 -27.08192468
v -5.23610339 -5.36865145 -27.08192468
v 3.26771662 -6.74766526 -30.74845672
v 3.26771662 -6.74766526 -27.08192468
v -4.96223271 -5.62315434 -30.74845672
v -5.09665534 -5.49825244 -27.08192468
v -3.26749869 -6.74766526 -30.74845672
v -3.26749869 -6.74766526 -27.08192468
v -4.67579886 -5.86316995 -30.74845672
v -4.81650308 -5.74570745 -27.08192468
v -4.96223271 -5.62276281 -27.08192468
v -3.29011194 -6.73709363 -27.08192468
v -3.42076570 -6.67366385 -30.74845672
v -4.63308468 -5.89566827 -27.08192468
v -4.67579886 -5.86316995 -27.08192468
v -4.37805802 -6.08909018 -30.74845672
v -4.52378765 -5.97867519 -27.08192468
v -3.42076570 -6.67366385 -27.08192468
v -3.60920951 -6.57147095 -30.74845672
v -4.33408767 -6.11923896 -27.08192468
v -4.37805802 -6.08909018 -27.08192468
v -4.06901091 -6.29974008 -30.74845672
v -3.74991372 -6.49472848 -27.08192468
v -3.74991372 -6.49472848 -30.74845672
v -4.06901091 -6.29974008 -27.08192468
v -3.93207520 -6.38353005 -30.74845672
v -4.02378440 -6.32753968 -27.08192468
f 1 2 7
f 1 7 3
f 1 3 8
f 1 8 4
f 1 4 9
f 1 9 16
f 1 16 20
f 1 20 24
f 1 24 28
f 1 28 32
f 1 32 36
f 1 36 40
f 1 40 45
f 1 45 50
f 1 50 54
f 1 54 58
f 1 58 62
f 1 62 65
f 1 65 67
f 1 67 72
f 1 72 71
f 1 71 76
f 1 76 81
f 1 81 80
f 1 80 85
f 1 85 84
f 1 84 87
f 1 87 91
f 1 91 90
f 1 90 95
f 1 95 97
f 1 97 93
f 1 93 88
f 1 88 82
f 1 82 78
f 1 78 74
f 1 74 69
f 1 69 64
f 1 64 59
f 1 59 55
f 1 55 51
f 1 51 47
f 1 47 46
f 1 46 42
f 1 42 41
f 1 41 37
f 1 37 33
f 1 33 29
f 1 29 25
f 1 25 21
f 1 21 17
f 1 17 13
f 1 13 12
f 1 12 11
f 1 11 10
f 1 10 5
f 1 5 2
f 2 5 6
f 2 6 7
f 3 7 6
f 3 6 14
f 3 14 18
f 3 18 22
f 3 22 26
f 3 26 30
f 3 30 34
f 3 34 38
f 3 38 43
f 3 43 48
f 3 48 52
f 3 52 56
f 3 56 60
f 3 60 63
f 3 63 68
f 3 68 73
f 3 73 77
f 3 77 83
f 3 83 89
f 3 89 94
f 3 94 96
f 3 96 92
f 3 92 86
f 3 86 79
f 3 79 75
f 3 75 70
f 3 70 66
f 3 66 61
f 3 61 57
f 3 57 53
f 3 53 49
f 3 49 44
f 3 44 39
f 3 39 35
f 3 35 31
f 3 31 27
f 3 27 23
f 3 23 19
f 3 19 15
f 3 15 8
f 4 8 15
f 4 15 9
f 5 10 6
f 6 10 11
f 6 11 12
f 6 12 13
f 6 13 14
f 9 15 19
f 9 19 16
f 13 17 18
f 13 18 14
f 16 19 20
f 17 21 18
f 18 21 22
f 19 23 20
f 20 23 24
f 21 25 26
f 21 26 22
f 23 27 28
f 23 28 24
f 25 29 26
f 26 29 30
f 27 31 28
f 28 31 32
f 29 33 30
f 30 33 34
f 31 35 36
f 31 36 32
f 33 37 34
f 34 37 38
f 35 39 40
f 35 40 36
f 37 41 38
f 38 41 42
f 38 42 43
f 39 44 40
f 40 44 45
f 42 46 43
f 43 46 47
f 43 47 48
f 44 49 45
f 45 49 50
f 47 51 52
f 47 52 48
f 49 53 54
f 49 54 50
f 51 55 52
f 52 55 56
f 53 57 58
f 53 58 54
f 55 59 60
f 55 60 56
f 57 61 62
f 57 62 58
f 59 63 60
f 59 64 63
f 61 65 62
f 61 66 67
f 61 67 65
f 63 64 68
f 64 69 68
f 66 70 71
f 66 71 72
f 66 72 67
f 68 69 73
f 69 74 73
f 70 75 71
f 71 75 76
f 73 74 78
f 73 78 77
f 75 79 80
f 75 80 81
f 75 81 76
f 77 78 82
f 77 82 83
f 79 84 85
f 79 85 80
f 79 86 87
f 79 87 84
f 82 88 83
f 83 88 89
f 86 90 91
f 86 91 87
f 86 92 90
f 88 93 89
f 89 93 94
f 90 92 95
f 92 96 97
f 92 97 95
f 93 97 96
f 93 96 94

