# https://github.com/mikedh/trimesh
v -0.02330765 9.99979675 49.99461770
v -0.02330765 7.53910244 49.99461770
v -0.02330765 9.99979675 -4.99461889
v -4.11246642 10.00778079 49.99461770
v -4.11246642 10.00753865 50.00000000
v -4.11246642 7.53910244 49.99461770
v -0.02330765 7.53910244 -4.99461889
v -4.11246642 7.53934383 50.00000000
v -4.11246642 10.00753865 -5.00000119
v -4.11246642 10.00778079 -4.99461889
v -5.75407445 10.01044214 50.00000000
v -5.86267672 7.53934383 50.00000000
v -4.11246642 7.53910244 -4.99461889
v -4.11246642 7.53934383 -5.00000119
v -5.75407445 10.01044214 -5.00000119
v -5.86267672 9.82391238 50.00000000
v -5.86267672 7.53934383 -5.00000119
v -5.86267672 9.82391238 -5.00000119
f 1 2 7
f 1 7 3
f 1 3 10
f 1 10 4
f 1 4 5
f 1 5 8
f 1 8 2
f 2 6 13
f 2 13 7
f 2 8 12
f 2 12 6
f 3 7 14
f 3 14 9
f 3 9 10
f 4 11 5
f 4 10 15
f 4 15 11
f 5 11 16
f 5 16 12
f 5 12 8
f 6 12 17
f 6 17 13
f 7 13 17
f 7 17 14
f 9 14 17
f 9 17 18
f 9 18 15
f 9 15 10
f 11 15 18
f 11 18 16
f 12 16 18
f 12 18 17

