# https://github.com/mikedh/trimesh
v -7.32253939 -1.61181204 -29.52651680
v -2.93382350 -1.61181204 -29.52651680
v -7.32253939 -1.61181204 -5.08056581
v -7.34980628 -1.49190202 -29.52651680
v -2.93382350 4.63818796 -29.52651680
v -2.93382350 -1.61181204 -5.08056581
v -7.35114738 -1.48578417 -5.08056581
v -7.35114738 -1.48578417 -29.52651680
v -2.93382350 4.63818796 -5.08056581
v -5.89077547 4.63818796 -29.52651680
v -7.41596371 -1.11748949 -5.08056581
v -7.41596371 -1.11748949 -29.52651680
v -5.89077547 4.63818796 -5.08056581
v -5.97794168 4.52867821 -29.52651680
v -7.46245235 -0.74674748 -5.08056581
v -7.43741989 -0.94863661 -29.52651680
v -5.97794168 4.52867821 -5.08056581
v -5.98866977 4.51399535 -29.52651680
v -7.49061406 -0.37294645 -5.08056581
v -7.48927295 -0.39130002 -29.52651680
v -7.46245235 -0.74674748 -29.52651680
v -6.19608127 4.22523282 -5.08056581
v -6.19652830 4.22462076 -29.52651680
v -7.50000104 0.00024261 -5.08056581
v -7.49061406 -0.37294645 -29.52651680
v -6.39946908 3.91016304 -5.08056581
v -6.30693883 4.05393280 -29.52651680
v -7.49061406 0.37465524 -5.08056581
v -7.49106109 0.35691345 -29.52651680
v -7.50000104 0.00024261 -29.52651680
v -6.58631846 3.58714052 -5.08056581
v -6.39946908 3.91016304 -29.52651680
v -6.40840977 3.89486849 -29.52651680
v -7.46245235 0.74723260 -5.08056581
v -7.47541562 0.57715625 -29.52651680
v -7.49061406 0.37465524 -29.52651680
v -6.75662830 3.25432941 -5.08056581
v -6.58631846 3.58714052 -29.52651680
v -6.75707534 3.25432941 -29.52651680
v -7.41596371 1.11858640 -5.08056581
v -7.43741989 0.94912183 -29.52651680
v -7.46245235 0.74723260 -29.52651680
v -6.91084564 2.91295312 -5.08056581
v -6.91084564 2.91295312 -29.52651680
v -7.35070035 1.48688117 -5.08056581
v -7.35114738 1.48688117 -29.52651680
v -7.35427663 1.46913938 -29.52651680
v -7.41596371 1.11858640 -29.52651680
v -7.04718232 2.56545879 -5.08056581
v -6.91755041 2.89643481 -29.52651680
v -7.26755708 1.85089353 -5.08056581
v -7.26755708 1.85089353 -29.52651680
v -7.16653317 2.21123509 -5.08056581
v -7.04718232 2.56484710 -29.52651680
v -7.05299377 2.54832879 -29.52651680
v -7.17145056 2.19349340 -29.52651680
v -7.16653317 2.21062340 -29.52651680
f 1 2 6
f 1 6 3
f 1 3 4
f 1 4 8
f 1 8 12
f 1 12 16
f 1 16 21
f 1 21 20
f 1 20 25
f 1 25 30
f 1 30 29
f 1 29 36
f 1 36 35
f 1 35 42
f 1 42 41
f 1 41 48
f 1 48 47
f 1 47 46
f 1 46 52
f 1 52 56
f 1 56 57
f 1 57 55
f 1 55 54
f 1 54 50
f 1 50 44
f 1 44 39
f 1 39 38
f 1 38 33
f 1 33 32
f 1 32 27
f 1 27 23
f 1 23 18
f 1 18 14
f 1 14 10
f 1 10 5
f 1 5 2
f 2 5 9
f 2 9 6
f 3 6 9
f 3 9 13
f 3 13 17
f 3 17 22
f 3 22 26
f 3 26 31
f 3 31 37
f 3 37 43
f 3 43 49
f 3 49 53
f 3 53 51
f 3 51 45
f 3 45 40
f 3 40 34
f 3 34 28
f 3 28 24
f 3 24 19
f 3 19 15
f 3 15 11
f 3 11 7
f 3 7 4
f 4 7 8
f 5 10 13
f 5 13 9
f 7 11 12
f 7 12 8
f 10 14 17
f 10 17 13
f 11 15 16
f 11 16 12
f 14 18 17
f 15 19 20
f 15 20 21
f 15 21 16
f 17 18 22
f 18 23 22
f 19 24 30
f 19 30 25
f 19 25 20
f 22 23 27
f 22 27 26
f 24 28 29
f 24 29 30
f 26 27 32
f 26 32 33
f 26 33 31
f 28 34 35
f 28 35 36
f 28 36 29
f 31 33 38
f 31 38 39
f 31 39 37
f 34 40 41
f 34 41 42
f 34 42 35
f 37 39 43
f 39 44 43
f 40 45 46
f 40 46 47
f 40 47 48
f 40 48 41
f 43 44 50
f 43 50 49
f 45 51 46
f 46 51 52
f 49 50 54
f 49 54 55
f 49 55 53
f 51 53 52
f 52 53 56
f 53 55 57
f 53 57 56

