# https://github.com/mikedh/trimesh
v 5.85818440 -2.74766497 -5.08159176
v -6.97606355 -2.74766497 -5.08159176
v 5.85818440 -3.49766500 -5.08159176
v 5.85818440 -2.74766497 -27.08192170
v -6.91073611 -2.91328747 -5.08159176
v -6.97606355 -2.74766497 -27.08192170
v -6.63184077 -3.49766500 -5.08159176
v 5.85818440 -3.49766500 -27.08192170
v -6.75621331 -3.25400308 -5.08159176
v -6.91073611 -2.91328747 -27.08192170
v -6.83033392 -3.09183095 -15.55845141
v -6.66199178 -3.43974121 -15.55845141
v -6.63184077 -3.49766500 -27.08192170
v -6.79264516 -3.17449532 -15.55845141
v -6.75621331 -3.25400308 -27.08192170
v -6.73234314 -3.30157541 -27.08192170
f 1 2 5
f 1 5 9
f 1 9 7
f 1 7 3
f 1 3 8
f 1 8 4
f 1 4 6
f 1 6 2
f 2 6 10
f 2 10 5
f 3 7 13
f 3 13 8
f 4 8 13
f 4 13 16
f 4 16 15
f 4 15 10
f 4 10 6
f 5 10 11
f 5 11 9
f 7 9 12
f 7 12 13
f 9 11 14
f 9 14 15
f 9 15 16
f 9 16 12
f 10 15 11
f 11 15 14
f 12 16 13

