# https://github.com/mikedh/trimesh
v 5.75509444 -10.01092494 -4.99969274
v 5.75396046 -10.00896767 -4.99969274
v 5.75396046 -4.79556769 -5.08056730
v 5.97851351 -4.52736020 -5.08056730
v 6.19682968 -4.22391407 -5.08056730
v 6.39983490 -3.91067937 -5.08056730
v 11.54698506 -0.02069623 -4.99969274
v 5.75509444 -10.01092494 50.00000000
v 5.75396046 -10.00896767 50.00000000
v 5.75396046 4.80899103 -5.08056730
v 6.58639595 -3.58569846 -5.08056730
v 5.79252020 9.98715237 -4.99969274
v 11.54698506 -0.02069623 50.00000000
v 6.75707906 -3.25288661 -5.08056730
v 6.91131800 -2.91224401 -5.08056730
v 7.04797804 -2.56572813 -5.08056730
v 7.16705918 -2.20942367 -5.08056730
v 7.26856217 -1.84920374 -5.08056730
v 7.35135153 -1.48506844 -5.08056730
v 7.41656274 -1.11701768 -5.08056730
v 7.46306181 -0.74505145 -5.08056730
v 7.49084726 -0.37308526 -5.08056730
v 7.50048682 -0.00111907 -5.08056730
v 7.49084726 0.37280484 -5.08056730
v 7.46306181 0.74477103 -5.08056730
v 7.41656274 1.11673726 -5.08056730
v 7.35191852 1.48478802 -5.08056730
v 7.26856217 1.84892341 -5.08056730
v 7.16705918 2.20914315 -5.08056730
v 7.04797804 2.56348997 -5.08056730
v 6.91131800 2.91196350 -5.08056730
v 6.75764605 3.25260609 -5.08056730
v 6.58752993 3.58541831 -5.08056730
v 5.75396046 9.98910964 50.00000000
v 5.97851351 4.52708006 -5.08056730
v 5.75396046 9.98910964 -4.99969274
v 5.79252020 9.98715237 50.00000000
v 6.40040189 3.90844159 -5.08056730
v 6.19682968 4.22363393 -5.08056730
f 1 2 3
f 1 3 4
f 1 4 5
f 1 5 6
f 1 6 7
f 1 7 13
f 1 13 8
f 1 8 9
f 1 9 2
f 2 9 34
f 2 34 36
f 2 36 10
f 2 10 3
f 3 10 35
f 3 35 39
f 3 39 38
f 3 38 33
f 3 33 32
f 3 32 31
f 3 31 30
f 3 30 29
f 3 29 28
f 3 28 27
f 3 27 26
f 3 26 25
f 3 25 24
f 3 24 23
f 3 23 22
f 3 22 21
f 3 21 20
f 3 20 19
f 3 19 18
f 3 18 17
f 3 17 16
f 3 16 15
f 3 15 14
f 3 14 11
f 3 11 6
f 3 6 5
f 3 5 4
f 6 11 7
f 7 12 37
f 7 37 13
f 7 11 14
f 7 14 15
f 7 15 16
f 7 16 17
f 7 17 18
f 7 18 19
f 7 19 20
f 7 20 21
f 7 21 22
f 7 22 23
f 7 23 24
f 7 24 25
f 7 25 26
f 7 26 27
f 7 27 28
f 7 28 29
f 7 29 30
f 7 30 31
f 7 31 32
f 7 32 33
f 7 33 12
f 8 13 37
f 8 37 34
f 8 34 9
f 10 36 12
f 10 12 35
f 12 36 34
f 12 34 37
f 12 33 38
f 12 38 39
f 12 39 35

