# https://github.com/mikedh/trimesh
v 3.69975716 2.22621337 -5.08056730
v 3.69975716 6.31341413 -5.08056730
v 4.58633080 2.22621337 -5.08056730
v 3.69975716 2.22621337 50.00000000
v 4.04749587 6.31341413 -5.08056730
v 3.69975716 6.31341413 50.00000000
v 4.58633080 5.93173951 -5.08056730
v 4.58633080 2.22621337 50.00000000
v 4.06910516 6.29981160 -5.08056730
v 4.58633080 6.31341413 -4.99969274
v 4.58633080 6.31341413 50.00000000
v 4.37805206 6.08937033 -5.08056730
f 1 2 5
f 1 5 9
f 1 9 12
f 1 12 7
f 1 7 3
f 1 3 8
f 1 8 4
f 1 4 6
f 1 6 2
f 2 6 11
f 2 11 10
f 2 10 5
f 3 7 10
f 3 10 11
f 3 11 8
f 4 8 11
f 4 11 6
f 5 10 9
f 7 12 10
f 9 10 12

