# https://github.com/mikedh/trimesh
v 4.55894396 -5.95268831 -30.74881434
v 4.37776409 -6.08986206 -30.74881434
v 4.55894396 -5.95268831 -50.00000000
v -4.55805287 -5.95268831 -30.74881434
v 4.20104712 -6.21009693 -30.74881434
v 4.06895541 -6.30023479 -50.00000000
v 4.37776409 -6.08971082 -50.00000000
v -4.55894545 -5.95268831 -50.00000000
v -4.55894545 -5.95268831 -32.30534196
v -4.54823524 -5.96040152 -30.74881434
v 4.06806320 -6.30038604 -30.74881434
v 3.74943689 -6.49518147 -50.00000000
v 3.88599075 -6.41184896 -30.74881434
v 3.74943689 -6.49533272 -30.74881434
v -4.37776558 -6.08971082 -50.00000000
v -4.37776558 -6.08955957 -30.74881434
v 3.42099294 -6.67409748 -50.00000000
v 3.56200933 -6.59757033 -30.74881434
v -4.06895690 -6.30023479 -50.00000000
v -4.24567424 -6.17984906 -30.74881434
v 3.26837339 -6.74759895 -50.00000000
v 3.42099294 -6.67424873 -30.74881434
v -3.74943838 -6.49518147 -50.00000000
v -3.93240303 -6.38371855 -30.74881434
v -4.06895690 -6.30008355 -30.74881434
v 3.08362376 -6.83622509 -50.00000000
v 3.26837339 -6.74759895 -30.74881434
v 3.08362376 -6.83637634 -30.74881434
v -3.42099443 -6.67409748 -50.00000000
v -3.60931419 -6.57170862 -30.74881434
v -3.74943838 -6.49503022 -30.74881434
v 2.73911469 -6.98141456 -50.00000000
v 2.88727134 -6.91940635 -30.74881434
v -3.26837488 -6.74759895 -50.00000000
v -3.42099443 -6.67394623 -30.74881434
v 2.38746535 -7.10951388 -50.00000000
v 2.73911469 -6.98156580 -30.74881434
v -3.08362525 -6.83622509 -50.00000000
v -3.08362525 -6.83637634 -30.74881434
v -3.26837488 -6.74744770 -30.74881434
v 2.03046110 -7.21961558 -50.00000000
v 2.38746535 -7.10951388 -30.74881434
v -2.73911618 -6.98141456 -50.00000000
v -2.88727283 -6.91940635 -30.74881434
v 1.66810174 -7.31187090 -50.00000000
v 2.02956852 -7.21961558 -30.74881434
v 1.66810174 -7.31187090 -30.74881434
v -2.38746684 -7.10951388 -50.00000000
v -2.38835942 -7.10936189 -30.74881434
v -2.73911618 -6.98141456 -30.74881434
v 1.30217234 -7.38597810 -50.00000000
v 1.30217234 -7.38597810 -30.74881434
v -2.03046259 -7.21961558 -50.00000000
v -2.03046259 -7.21961558 -30.74881434
v 0.93178041 -7.44163394 -50.00000000
v 0.93178041 -7.44163394 -30.74881434
v -1.66810323 -7.31187090 -50.00000000
v -1.66810323 -7.31187090 -30.74881434
v 0.55960347 -7.47898966 -50.00000000
v 0.71936287 -7.46295825 -30.74881434
v -1.30217383 -7.38597810 -50.00000000
v -1.30217383 -7.38597810 -30.74881434
v 0.18653399 -7.49759227 -50.00000000
v 0.55960347 -7.47898966 -30.74881434
v -0.93178190 -7.44163394 -50.00000000
v -1.14330696 -7.40987360 -30.74881434
v -0.18653548 -7.49759227 -50.00000000
v 0.18653399 -7.49759227 -30.74881434
v -0.55960496 -7.47898966 -50.00000000
v -0.77291504 -7.45766535 -30.74881434
v -0.93178190 -7.44163394 -30.74881434
v -0.18653548 -7.49759227 -30.74881434
v -0.55960496 -7.47898966 -30.74881434
f 1 2 3
f 1 3 8
f 1 8 9
f 1 9 4
f 1 4 10
f 1 10 16
f 1 16 20
f 1 20 25
f 1 25 24
f 1 24 31
f 1 31 30
f 1 30 35
f 1 35 40
f 1 40 39
f 1 39 44
f 1 44 50
f 1 50 49
f 1 49 54
f 1 54 58
f 1 58 62
f 1 62 66
f 1 66 71
f 1 71 70
f 1 70 73
f 1 73 72
f 1 72 68
f 1 68 64
f 1 64 60
f 1 60 56
f 1 56 52
f 1 52 47
f 1 47 46
f 1 46 42
f 1 42 37
f 1 37 33
f 1 33 28
f 1 28 27
f 1 27 22
f 1 22 18
f 1 18 14
f 1 14 13
f 1 13 11
f 1 11 5
f 1 5 2
f 2 5 6
f 2 6 7
f 2 7 3
f 3 7 6
f 3 6 12
f 3 12 17
f 3 17 21
f 3 21 26
f 3 26 32
f 3 32 36
f 3 36 41
f 3 41 45
f 3 45 51
f 3 51 55
f 3 55 59
f 3 59 63
f 3 63 67
f 3 67 69
f 3 69 65
f 3 65 61
f 3 61 57
f 3 57 53
f 3 53 48
f 3 48 43
f 3 43 38
f 3 38 34
f 3 34 29
f 3 29 23
f 3 23 19
f 3 19 15
f 3 15 8
f 4 9 10
f 5 11 6
f 6 11 13
f 6 13 14
f 6 14 12
f 8 15 9
f 9 16 10
f 9 15 16
f 12 14 18
f 12 18 17
f 15 19 20
f 15 20 16
f 17 18 22
f 17 22 21
f 19 23 24
f 19 24 25
f 19 25 20
f 21 22 27
f 21 27 28
f 21 28 26
f 23 29 30
f 23 30 31
f 23 31 24
f 26 28 33
f 26 33 32
f 29 34 40
f 29 40 35
f 29 35 30
f 32 33 37
f 32 37 36
f 34 38 39
f 34 39 40
f 36 37 42
f 36 42 41
f 38 43 44
f 38 44 39
f 41 42 46
f 41 46 47
f 41 47 45
f 43 48 49
f 43 49 50
f 43 50 44
f 45 47 52
f 45 52 51
f 48 53 49
f 49 53 54
f 51 52 56
f 51 56 55
f 53 57 58
f 53 58 54
f 55 56 60
f 55 60 59
f 57 61 62
f 57 62 58
f 59 60 64
f 59 64 68
f 59 68 63
f 61 65 66
f 61 66 62
f 63 68 72
f 63 72 67
f 65 69 70
f 65 70 71
f 65 71 66
f 67 72 73
f 67 73 69
f 69 73 70

