# https://github.com/mikedh/trimesh
v -5.86301051 -9.86657739 -4.99969274
v -7.52571672 -6.97333813 -4.99969274
v -6.58676177 -3.58767621 -5.08056730
v -6.40004501 -3.91076356 -5.08056730
v -6.19688667 -4.22553942 -5.08056730
v -5.97891472 -4.52888831 -5.08056730
v -5.86301051 -4.67329025 -5.08056730
v -5.86301051 -9.86657739 50.00000000
v -7.49999657 -0.00047497 -5.08056730
v -7.49055520 -0.37342757 -5.08056730
v -7.46271834 -0.74741915 -5.08056730
v -7.41616115 -1.11829378 -5.08056730
v -7.35120922 -1.48709100 -5.08056730
v -7.26802498 -1.85069386 -5.08056730
v -7.16677159 -2.21117996 -5.08056730
v -7.04761147 -2.56543308 -5.08056730
v -6.91103339 -2.91345287 -5.08056730
v -6.75719976 -3.25420052 -5.08056730
v -7.52571672 -6.97333813 50.00000000
v -7.52571672 0.74646920 -4.99969274
v -5.86301051 0.74646920 -5.08056730
v -5.86301051 0.74646920 50.00000000
v -7.49055520 0.37351660 -5.08056730
v -7.52571672 0.74646920 50.00000000
v -7.46271834 0.74646920 -5.07517606
v -7.45327696 0.74646920 -5.08056730
f 1 2 3
f 1 3 4
f 1 4 5
f 1 5 6
f 1 6 7
f 1 7 21
f 1 21 22
f 1 22 8
f 1 8 19
f 1 19 2
f 2 9 10
f 2 10 11
f 2 11 12
f 2 12 13
f 2 13 14
f 2 14 15
f 2 15 16
f 2 16 17
f 2 17 18
f 2 18 3
f 2 19 24
f 2 24 20
f 2 20 9
f 3 18 17
f 3 17 16
f 3 16 15
f 3 15 14
f 3 14 13
f 3 13 12
f 3 12 11
f 3 11 10
f 3 10 9
f 3 9 23
f 3 23 26
f 3 26 21
f 3 21 7
f 3 7 6
f 3 6 5
f 3 5 4
f 8 22 24
f 8 24 19
f 9 20 23
f 20 25 23
f 20 24 22
f 20 22 21
f 20 21 26
f 20 26 25
f 23 25 26

