# https://github.com/mikedh/trimesh
v 3.26805338 -6.74766600 -5.08056656
v 3.08375861 -6.83657005 -5.08056656
v 3.19126397 -6.78495988 -22.59728909
v 3.26805338 -6.74766600 -22.59728909
v -3.26801315 -6.74766600 -5.08056656
v 2.73884572 -6.98178336 -5.08056656
v 2.73948554 -6.98171034 -22.59728909
v 2.84891073 -6.93560615 -22.59728909
v 3.08375861 -6.83649704 -22.59728909
v -3.26801315 -6.74766600 -22.59728909
v -3.08371875 -6.83657005 -5.08056656
v -3.24177742 -6.76065981 -22.59728909
v 2.38817353 -7.10952431 -5.08056656
v 2.60254424 -7.03163221 -22.59728909
v -2.73944568 -6.98156357 -5.08056656
v -3.08371875 -6.83649704 -22.59728909
v -2.84055192 -6.93920329 -22.59728909
v 2.03046240 -7.21979290 -5.08056656
v 2.28386782 -7.14168027 -22.59728909
v 2.38817353 -7.10952431 -22.59728909
v -2.38877367 -7.10923076 -5.08056656
v -2.73944568 -6.98156357 -22.59728909
v -2.62810104 -7.02216178 -22.59728909
v -2.38877367 -7.10937753 -22.59728909
v 1.66827198 -7.31192753 -5.08056656
v 1.78345628 -7.28263557 -22.59728909
v 1.88904181 -7.25576580 -22.59728909
v 2.03046240 -7.21971914 -22.59728909
v 2.16996334 -7.17677176 -22.59728909
v -2.03106254 -7.21964613 -5.08056656
v -2.03106254 -7.21964613 -22.59728909
v 1.30224200 -7.38600269 -5.08056656
v 1.41870603 -7.36251026 -22.59728909
v 1.52557148 -7.34085292 -22.59728909
v 1.66827198 -7.31192753 -22.59728909
v -1.66887194 -7.31192753 -5.08056656
v -1.66887194 -7.31192753 -22.59728909
v 0.93237255 -7.44172409 -5.08056656
v 1.30224200 -7.38600269 -22.59728909
v -1.30220214 -7.38600269 -5.08056656
v -1.30220214 -7.38600269 -22.59728909
v 0.55994340 -7.47901872 -5.08056656
v 0.67832726 -7.46719837 -22.59728909
v 0.93237255 -7.44172409 -22.59728909
v -0.93233269 -7.44172409 -5.08056656
v -0.93233269 -7.44172409 -22.59728909
v 0.18687440 -7.49759227 -5.08056656
v 0.41468325 -7.48628676 -22.59728909
v 0.55994340 -7.47901872 -22.59728909
v -0.55990354 -7.47901872 -5.08056656
v -0.81394883 -7.45361745 -22.59728909
v -0.18683454 -7.49759227 -5.08056656
v 0.18687440 -7.49759227 -22.59728909
v 0.30525823 -7.49171898 -22.59728909
v -0.55990354 -7.47901872 -22.59728909
v -0.18683454 -7.49759227 -22.59728909
f 1 2 3
f 1 3 4
f 1 4 10
f 1 10 5
f 1 5 11
f 1 11 15
f 1 15 21
f 1 21 30
f 1 30 36
f 1 36 40
f 1 40 45
f 1 45 50
f 1 50 52
f 1 52 47
f 1 47 42
f 1 42 38
f 1 38 32
f 1 32 25
f 1 25 18
f 1 18 13
f 1 13 6
f 1 6 2
f 2 6 7
f 2 7 8
f 2 8 9
f 2 9 3
f 3 9 8
f 3 8 7
f 3 7 14
f 3 14 20
f 3 20 19
f 3 19 29
f 3 29 28
f 3 28 27
f 3 27 26
f 3 26 35
f 3 35 34
f 3 34 33
f 3 33 39
f 3 39 44
f 3 44 43
f 3 43 49
f 3 49 48
f 3 48 54
f 3 54 53
f 3 53 56
f 3 56 55
f 3 55 51
f 3 51 46
f 3 46 41
f 3 41 37
f 3 37 31
f 3 31 24
f 3 24 23
f 3 23 22
f 3 22 17
f 3 17 16
f 3 16 12
f 3 12 10
f 3 10 4
f 5 10 12
f 5 12 11
f 6 13 14
f 6 14 7
f 11 12 16
f 11 16 17
f 11 17 15
f 13 18 19
f 13 19 20
f 13 20 14
f 15 17 22
f 15 22 23
f 15 23 24
f 15 24 21
f 18 25 26
f 18 26 27
f 18 27 28
f 18 28 29
f 18 29 19
f 21 24 30
f 24 31 30
f 25 32 33
f 25 33 34
f 25 34 35
f 25 35 26
f 30 31 37
f 30 37 36
f 32 38 44
f 32 44 39
f 32 39 33
f 36 37 41
f 36 41 40
f 38 42 43
f 38 43 44
f 40 41 46
f 40 46 45
f 42 47 48
f 42 48 49
f 42 49 43
f 45 46 51
f 45 51 50
f 47 52 56
f 47 56 53
f 47 53 54
f 47 54 48
f 50 51 55
f 50 55 56
f 50 56 52

