# https://github.com/mikedh/trimesh
v 5.85818440 4.67961319 -18.52583885
v 5.85818440 4.63846773 -18.52583885
v 5.85818440 4.67961319 -30.74881434
v 5.77882901 4.77869846 -18.52583885
v -5.88989928 4.63846773 -18.52583885
v 5.85818440 4.63846773 -30.74881434
v 5.74432611 4.82096374 -30.74881434
v 5.74432611 4.82096374 -18.52583885
v -5.85539639 4.68213223 -18.52583885
v -5.89104965 4.63846773 -21.87830359
v -5.89104965 4.63846773 -30.74881434
v 5.63851893 4.94132154 -30.74881434
v 5.57181388 5.01745492 -18.52583885
v -5.74498922 4.82152328 -18.52583885
v -5.74498922 4.82124351 -30.74881434
v 5.49705848 5.10142520 -30.74881434
v 5.49705848 5.10142520 -18.52583885
v -5.49772158 5.10142520 -18.52583885
v -5.49772158 5.10142520 -30.74881434
v 5.38550094 5.21618500 -30.74881434
v 5.31419590 5.28895967 -18.52583885
v -5.23665249 5.36901131 -18.52583885
v -5.23665249 5.36901131 -30.74881434
v 5.23599014 5.36901131 -30.74881434
v 5.23599014 5.36901131 -18.52583885
v -5.09289280 5.50224483 -18.52583885
v -4.96178344 5.62344231 -30.74881434
v 5.11868224 5.47817312 -30.74881434
v 5.10603115 5.49020916 -18.52583885
v -4.96178344 5.62344231 -18.52583885
v -4.67541292 5.86387813 -30.74881434
v -4.76166904 5.79194315 -18.52583885
v 4.96227071 5.62344231 -30.74881434
v 4.96227071 5.62344231 -18.52583885
v -4.50520068 5.99291287 -30.74881434
v -4.67541292 5.86387813 -18.52583885
v -4.58685681 5.93133420 -18.52583885
v 4.67590019 5.86415790 -30.74881434
v 4.67475057 5.86415790 -18.52583885
v -4.37754169 6.08947873 -30.74881434
v -4.37754169 6.08947873 -18.52583885
v 4.37802970 6.08947873 -30.74881434
v 4.44473401 6.03909642 -18.52583885
v 4.58619446 5.93161434 -18.52583885
v -4.06816974 6.29996508 -30.74881434
v -4.28553522 6.15245663 -18.52583885
v 4.06865776 6.29996508 -30.74881434
v 4.23081890 6.18968382 -18.52583885
v 4.37802970 6.08947873 -18.52583885
v -3.88645679 6.41136616 -30.74881434
v -4.06816974 6.29996508 -18.52583885
v 3.93179804 6.38365597 -30.74881434
v 3.91684696 6.39289245 -18.52583885
v 4.06865776 6.29996508 -18.52583885
v -3.74959707 6.49505705 -30.74881434
v -3.97271290 6.35846481 -18.52583885
v -3.90140787 6.40212893 -18.52583885
v -3.74959707 6.49505705 -18.52583885
v 3.74893472 6.49505705 -30.74881434
v 3.74893472 6.49505705 -18.52583885
v -3.56213376 6.59722090 -30.74881434
v -3.42067406 6.67391419 -18.52583885
v 3.42116132 6.67391419 -30.74881434
v 3.49476635 6.63388819 -18.52583885
v 3.65117788 6.54851794 -18.52583885
v -3.42067406 6.67391419 -30.74881434
v -3.34591866 6.71030134 -18.52583885
v 3.08418758 6.83625713 -30.74881434
v 3.16009298 6.79986998 -18.52583885
v 3.31995413 6.72261715 -18.52583885
v 3.42001170 6.67419359 -18.52583885
v -3.27691361 6.74332976 -30.74881434
v -3.08370013 6.83625713 -18.52583885
v -3.08370013 6.83625713 -30.74881434
v 2.73916312 6.98152632 -30.74881434
v 3.08418758 6.83625713 -18.52583885
v -2.98134275 6.87964186 -18.52583885
v -2.73982566 6.98152632 -30.74881434
v 2.58965250 7.03610703 -30.74881434
v 2.73916312 6.98152632 -18.52583885
v -2.73982566 6.98152632 -18.52583885
v -2.38790065 7.10944086 -30.74881434
v -2.49370821 7.07109496 -18.52583885
v 2.38838829 7.10916147 -30.74881434
v 2.49419566 7.07081482 -18.52583885
v -2.18433626 7.17241913 -30.74881434
v -2.38790065 7.10944086 -18.52583885
v 2.03071274 7.21944273 -30.74881434
v 2.11121850 7.19481111 -18.52583885
v 2.38838829 7.10916147 -18.52583885
v -2.03022528 7.21944273 -30.74881434
v -2.20043734 7.16710091 -18.52583885
v -2.03022528 7.21944273 -18.52583885
v 1.82369817 7.27234408 -30.74881434
v 1.92260519 7.24715292 -18.52583885
v 2.03071274 7.21944273 -18.52583885
v -1.82321072 7.27234408 -30.74881434
v -1.92211773 7.24715292 -18.52583885
v 1.66843720 7.31181055 -30.74881434
v 1.75009295 7.29109794 -18.52583885
v -1.66794956 7.31181055 -30.74881434
v -1.66794956 7.31181055 -18.52583885
v 1.30156111 7.38598406 -30.74881434
v 1.41196894 7.36387223 -18.52583885
v 1.66843720 7.31181055 -18.52583885
v -1.30222365 7.38598406 -30.74881434
v -1.30222365 7.38598406 -18.52583885
v 0.93238484 7.44168460 -30.74881434
v 1.12559861 7.41257519 -18.52583885
v 1.30156111 7.38598406 -18.52583885
v -1.09060863 7.41789341 -30.74881434
v -0.93189739 7.44168460 -18.52583885
v 0.55975844 7.47891143 -30.74881434
v 0.93238484 7.44168460 -18.52583885
v -0.93189739 7.44168460 -30.74881434
v -0.73753363 7.46127814 -18.52583885
v 0.18598193 7.49766529 -30.74881434
v 0.29868991 7.49206692 -18.52583885
v 0.55975844 7.47891143 -18.52583885
v -0.56042103 7.47891143 -30.74881434
v -0.56042103 7.47891143 -18.52583885
v -0.18664452 7.49766529 -30.74881434
v 0.18598193 7.49766529 -18.52583885
v -0.18664452 7.49766529 -18.52583885
f 1 2 6
f 1 6 3
f 1 3 4
f 1 4 8
f 1 8 13
f 1 13 17
f 1 17 21
f 1 21 25
f 1 25 29
f 1 29 34
f 1 34 39
f 1 39 44
f 1 44 43
f 1 43 49
f 1 49 48
f 1 48 54
f 1 54 53
f 1 53 60
f 1 60 65
f 1 65 64
f 1 64 71
f 1 71 70
f 1 70 69
f 1 69 76
f 1 76 80
f 1 80 85
f 1 85 90
f 1 90 89
f 1 89 96
f 1 96 95
f 1 95 100
f 1 100 105
f 1 105 104
f 1 104 110
f 1 110 109
f 1 109 114
f 1 114 119
f 1 119 118
f 1 118 123
f 1 123 124
f 1 124 121
f 1 121 116
f 1 116 112
f 1 112 107
f 1 107 102
f 1 102 98
f 1 98 93
f 1 93 92
f 1 92 87
f 1 87 83
f 1 83 81
f 1 81 77
f 1 77 73
f 1 73 67
f 1 67 62
f 1 62 58
f 1 58 57
f 1 57 56
f 1 56 51
f 1 51 46
f 1 46 41
f 1 41 37
f 1 37 36
f 1 36 32
f 1 32 30
f 1 30 26
f 1 26 22
f 1 22 18
f 1 18 14
f 1 14 9
f 1 9 5
f 1 5 2
f 2 5 10
f 2 10 11
f 2 11 6
f 3 6 11
f 3 11 15
f 3 15 19
f 3 19 23
f 3 23 27
f 3 27 31
f 3 31 35
f 3 35 40
f 3 40 45
f 3 45 50
f 3 50 55
f 3 55 61
f 3 61 66
f 3 66 72
f 3 72 74
f 3 74 78
f 3 78 82
f 3 82 86
f 3 86 91
f 3 91 97
f 3 97 101
f 3 101 106
f 3 106 111
f 3 111 115
f 3 115 120
f 3 120 122
f 3 122 117
f 3 117 113
f 3 113 108
f 3 108 103
f 3 103 99
f 3 99 94
f 3 94 88
f 3 88 84
f 3 84 79
f 3 79 75
f 3 75 68
f 3 68 63
f 3 63 59
f 3 59 52
f 3 52 47
f 3 47 42
f 3 42 38
f 3 38 33
f 3 33 28
f 3 28 24
f 3 24 20
f 3 20 16
f 3 16 12
f 3 12 7
f 3 7 4
f 4 7 8
f 5 9 10
f 7 12 13
f 7 13 8
f 9 14 10
f 10 14 11
f 11 14 15
f 12 16 13
f 13 16 17
f 14 18 19
f 14 19 15
f 16 20 17
f 17 20 21
f 18 22 23
f 18 23 19
f 20 24 25
f 20 25 21
f 22 26 23
f 23 26 27
f 24 28 29
f 24 29 25
f 26 30 27
f 27 30 32
f 27 32 31
f 28 33 29
f 29 33 34
f 31 32 36
f 31 36 37
f 31 37 35
f 33 38 34
f 34 38 39
f 35 37 40
f 37 41 40
f 38 42 43
f 38 43 44
f 38 44 39
f 40 41 46
f 40 46 45
f 42 47 48
f 42 48 49
f 42 49 43
f 45 46 51
f 45 51 50
f 47 52 53
f 47 53 54
f 47 54 48
f 50 51 56
f 50 56 57
f 50 57 58
f 50 58 55
f 52 59 53
f 53 59 60
f 55 58 61
f 58 62 61
f 59 63 64
f 59 64 65
f 59 65 60
f 61 62 66
f 62 67 66
f 63 68 69
f 63 69 70
f 63 70 71
f 63 71 64
f 66 67 72
f 67 73 74
f 67 74 72
f 68 75 80
f 68 80 76
f 68 76 69
f 73 77 74
f 74 77 78
f 75 79 80
f 77 81 78
f 78 81 83
f 78 83 82
f 79 84 85
f 79 85 80
f 82 83 87
f 82 87 86
f 84 88 89
f 84 89 90
f 84 90 85
f 86 87 92
f 86 92 93
f 86 93 91
f 88 94 95
f 88 95 96
f 88 96 89
f 91 93 98
f 91 98 97
f 94 99 100
f 94 100 95
f 97 98 102
f 97 102 101
f 99 103 104
f 99 104 105
f 99 105 100
f 101 102 107
f 101 107 106
f 103 108 109
f 103 109 110
f 103 110 104
f 106 107 111
f 107 112 111
f 108 113 119
f 108 119 114
f 108 114 109
f 111 112 115
f 112 116 115
f 113 117 118
f 113 118 119
f 115 116 120
f 116 121 120
f 117 122 124
f 117 124 123
f 117 123 118
f 120 121 124
f 120 124 122

