# https://github.com/mikedh/trimesh
v 5.75396009 9.98851284 50.00000000
v 5.75396009 7.61471093 50.00000000
v 5.75396009 9.98851284 -4.99969423
v -0.02330765 9.99969989 50.00000000
v 5.75339459 6.31377548 50.00000000
v 5.75396009 7.61471093 -4.98352051
v 5.75396009 9.34977308 -4.99969423
v 4.04668003 6.31377548 -5.08056879
v 3.74922082 6.49565384 -5.08056879
v 3.42009328 6.67464584 -5.08056879
v 3.08417920 6.83667585 -5.08056879
v 2.74091363 6.98174536 -5.08056879
v 2.38973089 7.10913241 -5.08056879
v 2.03176197 7.21991956 -5.08056879
v 1.66983455 7.31194168 -5.08056879
v 1.30338287 7.38628060 -5.08056879
v 0.93353819 7.44185448 -5.08056879
v 0.56143142 7.47902393 -5.08056879
v 0.18762834 7.49778971 -5.08056879
v -0.02330765 9.99969989 -4.99969423
v -0.02330765 7.61471093 50.00000000
v -0.02274215 6.31377548 50.00000000
v 5.75339459 6.31377548 -4.99430299
v 5.74943572 7.61471093 -4.99969423
v -0.02274215 6.31377548 -5.08056879
v -0.02274215 7.49778971 -5.08056879
v -0.02330765 7.61471093 -4.99969423
f 1 2 6
f 1 6 7
f 1 7 3
f 1 3 20
f 1 20 4
f 1 4 21
f 1 21 22
f 1 22 5
f 1 5 2
f 2 5 23
f 2 23 6
f 3 7 8
f 3 8 9
f 3 9 10
f 3 10 11
f 3 11 12
f 3 12 13
f 3 13 14
f 3 14 15
f 3 15 16
f 3 16 17
f 3 17 18
f 3 18 19
f 3 19 20
f 4 20 27
f 4 27 21
f 5 22 25
f 5 25 8
f 5 8 23
f 6 23 7
f 7 24 8
f 7 23 24
f 8 25 26
f 8 26 19
f 8 19 18
f 8 18 17
f 8 17 16
f 8 16 15
f 8 15 14
f 8 14 13
f 8 13 12
f 8 12 11
f 8 11 10
f 8 10 9
f 8 24 23
f 19 26 20
f 20 26 25
f 20 25 27
f 21 27 25
f 21 25 22

