# https://github.com/mikedh/trimesh
v 5.85834496 -4.67939712 -50.00000000
v 5.85834496 0.68947822 -50.00000000
v 5.97870499 -4.52751741 -50.00000000
v 5.97854443 -4.52804267 -29.74090278
v 5.85834496 -4.67939712 -28.22159529
v 7.46673495 0.68947822 -50.00000000
v 5.85834496 0.68947822 -24.43208843
v 6.19692802 -4.22428325 -50.00000000
v 6.08251356 -4.38352041 -29.74090278
v 6.02771677 -4.45972309 -24.43208843
v 5.97854443 -4.52804267 -24.43208843
v 5.87811060 -4.65417132 -24.43208843
v 5.85834496 -4.67887148 -24.43208843
v 7.49051794 0.37258007 -29.74090278
v 7.49035701 0.37310552 -50.00000000
v 7.46673495 0.68947822 -24.43208843
v 7.47525170 0.57648793 -24.43208843
v 6.20190948 -4.21639979 -29.73839939
v 6.19676746 -4.22428325 -24.43208843
v 6.10967092 -4.34568189 -24.43208843
v 6.08251356 -4.38352041 -29.73839939
v 6.39988482 -3.91001254 -50.00000000
v 6.28418475 -4.08922024 -24.43208843
v 7.49549940 0.17708074 -29.74090278
v 7.49051794 0.37258007 -24.43208843
v 7.49967694 -0.00055041 -50.00000000
v 6.58677220 -3.58628258 -50.00000000
v 6.48408905 -3.76443900 -29.74090278
v 6.39988482 -3.91001254 -24.43208843
v 7.49453530 0.21176599 -24.43208843
v 7.49967694 -0.00107605 -24.43208843
v 7.49035701 -0.37473217 -50.00000000
v 7.49967694 -0.00107605 -29.74090278
v 7.49485642 -0.20603500 -29.74090278
v 6.75710887 -3.25361788 -50.00000000
v 6.62517846 -3.51165608 -24.43208843
v 6.58661202 -3.58680785 -24.43208843
v 6.48408905 -3.76443900 -29.73839939
v 7.49598145 -0.15032832 -24.43208843
v 7.47509077 -0.57969112 -29.74090278
v 7.46255666 -0.74733710 -50.00000000
v 7.49035701 -0.37473217 -24.43208843
v 6.66792318 -3.42809595 -29.74090278
v 6.91089332 -2.91254520 -50.00000000
v 6.91073239 -2.91307084 -29.74090278
v 6.82636797 -3.10016163 -29.74090278
v 6.82636797 -3.10016163 -29.73839939
v 6.79165795 -3.17688994 -24.43208843
v 6.75694793 -3.25361788 -24.43208843
v 6.66792318 -3.42809595 -29.73839939
v 7.47509077 -0.57969112 -29.73839939
v 7.41595551 -1.11836549 -50.00000000
v 7.46255666 -0.74733710 -24.43208843
v 7.42656142 -1.03480527 -24.43208843
v 7.47926906 -0.52345879 -24.43208843
v 7.04748333 -2.56464034 -50.00000000
v 6.97243884 -2.75593549 -29.74090278
v 6.91073239 -2.91307084 -24.43208843
v 6.84934705 -3.04918457 -24.43208843
v 7.35103488 -1.48676615 -50.00000000
v 7.41595551 -1.11836549 -24.43208843
v 7.38044232 -1.32069681 -29.73839939
v 7.16655776 -2.20990367 -50.00000000
v 7.16655776 -2.21042912 -29.74090278
v 7.04732239 -2.56516598 -24.43208843
v 6.97243884 -2.75593549 -29.73839939
v 7.26779550 -1.85096264 -50.00000000
v 7.35103488 -1.48676615 -24.43208843
v 7.31793195 -1.63233969 -24.43208843
v 7.39008337 -1.26551557 -24.43208843
v 7.22746104 -1.99495945 -24.43208843
v 7.16655776 -2.21042912 -29.73839939
v 7.11513534 -2.36336011 -24.43208843
v 7.26779550 -1.85096264 -24.43208843
v 7.16639683 -2.21042912 -24.43208843
f 1 2 6
f 1 6 15
f 1 15 26
f 1 26 32
f 1 32 41
f 1 41 52
f 1 52 60
f 1 60 67
f 1 67 63
f 1 63 56
f 1 56 44
f 1 44 35
f 1 35 27
f 1 27 22
f 1 22 8
f 1 8 3
f 1 3 4
f 1 4 11
f 1 11 5
f 1 5 13
f 1 13 7
f 1 7 2
f 2 7 16
f 2 16 6
f 3 8 4
f 4 8 9
f 4 9 10
f 4 10 11
f 5 11 12
f 5 12 13
f 6 14 15
f 6 16 17
f 6 17 14
f 7 13 12
f 7 12 11
f 7 11 10
f 7 10 20
f 7 20 19
f 7 19 23
f 7 23 29
f 7 29 37
f 7 37 36
f 7 36 49
f 7 49 48
f 7 48 59
f 7 59 58
f 7 58 65
f 7 65 73
f 7 73 75
f 7 75 71
f 7 71 74
f 7 74 69
f 7 69 68
f 7 68 70
f 7 70 61
f 7 61 54
f 7 54 53
f 7 53 55
f 7 55 42
f 7 42 39
f 7 39 31
f 7 31 30
f 7 30 25
f 7 25 17
f 7 17 16
f 8 18 19
f 8 19 20
f 8 20 21
f 8 21 9
f 8 22 23
f 8 23 18
f 9 21 10
f 10 21 20
f 14 24 15
f 14 17 25
f 14 25 24
f 15 24 26
f 18 23 19
f 22 27 28
f 22 28 38
f 22 38 29
f 22 29 23
f 24 25 30
f 24 30 31
f 24 31 26
f 26 31 33
f 26 33 34
f 26 34 32
f 27 35 36
f 27 36 37
f 27 37 28
f 28 37 38
f 29 38 37
f 31 39 34
f 31 34 33
f 32 40 41
f 32 34 42
f 32 42 51
f 32 51 40
f 34 39 42
f 35 43 36
f 35 44 45
f 35 45 46
f 35 46 47
f 35 47 48
f 35 48 49
f 35 49 50
f 35 50 43
f 36 43 50
f 36 50 49
f 40 51 53
f 40 53 41
f 41 53 54
f 41 54 52
f 42 55 51
f 44 56 57
f 44 57 45
f 45 57 66
f 45 66 58
f 45 58 47
f 45 47 46
f 47 58 59
f 47 59 48
f 51 55 53
f 52 54 61
f 52 61 62
f 52 62 60
f 56 63 64
f 56 64 65
f 56 65 57
f 57 65 66
f 58 66 65
f 60 62 68
f 60 68 69
f 60 69 67
f 61 70 62
f 62 70 68
f 63 67 71
f 63 71 64
f 64 71 72
f 64 72 65
f 65 72 73
f 67 69 74
f 67 74 71
f 71 75 72
f 72 75 73

