# https://github.com/mikedh/trimesh
v 4.58644480 -6.06265888 -4.99430299
v 5.74721731 -6.06265888 -4.99430299
v 4.58644480 -6.06265888 50.00000000
v 4.58644480 -5.93061186 -5.08056879
v 4.67581414 -5.86277135 -5.08056879
v 4.96220738 -5.62290624 -5.08056879
v 5.23614399 -5.36850356 -5.08056879
v 5.49728051 -5.10077551 -5.08056879
v 5.74470311 -4.82093282 -5.08056879
v 5.75384572 -4.79549244 -5.08056879
v 5.75384572 -4.80881818 -5.06978631
v 5.75384572 -6.06265888 8.25824589
v 5.75384572 -6.06265888 50.00000000
v 4.58644480 6.31341413 50.00000000
v 4.58644480 5.93059920 -5.08056879
v 5.75384572 -1.20478375 -5.08056879
v 5.75384572 -1.20478375 50.00000000
v 5.75373173 6.31341413 50.00000000
v 4.58644480 6.31341413 -4.99430299
v 5.75373173 6.31341413 -4.99430299
v 4.67581414 5.86275831 -5.08056879
v 5.75373173 4.80880551 -5.08056879
v 5.74516058 4.81970832 -5.08056879
v 5.49750924 5.09955101 -5.08056879
v 5.23660108 5.36727943 -5.08056879
v 5.08666150 5.50780632 -5.08056879
v 4.96277884 5.62289320 -5.08056879
f 1 2 12
f 1 12 13
f 1 13 3
f 1 3 14
f 1 14 19
f 1 19 15
f 1 15 4
f 1 4 2
f 2 4 5
f 2 5 6
f 2 6 7
f 2 7 8
f 2 8 9
f 2 9 10
f 2 10 11
f 2 11 12
f 3 13 17
f 3 17 18
f 3 18 14
f 4 15 21
f 4 21 27
f 4 27 26
f 4 26 25
f 4 25 24
f 4 24 23
f 4 23 22
f 4 22 16
f 4 16 10
f 4 10 9
f 4 9 8
f 4 8 7
f 4 7 6
f 4 6 5
f 10 16 17
f 10 17 13
f 10 13 12
f 10 12 11
f 14 18 20
f 14 20 19
f 15 19 20
f 15 20 21
f 16 22 20
f 16 20 18
f 16 18 17
f 20 22 23
f 20 23 24
f 20 24 25
f 20 25 26
f 20 26 27
f 20 27 21

