# https://github.com/mikedh/trimesh
v -3.04049905 -7.66104460 -4.99582440
v -2.33668722 -7.66104460 -4.99582440
v -3.42858434 -7.66104460 -4.82633561
v -3.42858434 -7.65955597 -4.99582440
v -2.33668722 -7.12396204 -5.08056879
v -2.33668722 -7.66104460 36.14552021
v -3.42858434 -7.66104460 36.14552021
v -3.42858434 -6.67019337 -5.08056879
v -3.08389291 -6.83533549 -5.08056879
v -2.74016336 -6.98113590 -5.08056879
v -2.38948651 -7.10759610 -5.08056879
v -2.33668722 7.12435395 -5.08056879
v -2.33668722 7.53795207 36.14552021
v -3.42858434 7.53795207 36.14552021
v -3.42858434 6.65719658 -5.08056879
v -2.38884520 7.10798949 -5.08056879
v -3.42858434 7.53795207 -4.99582440
v -2.33668722 7.53795207 -4.99582440
v -3.42131630 6.67207390 -5.08056879
v -2.74027027 6.97855353 -5.08056879
v -3.08442730 6.83424026 -5.08056879
f 1 2 6
f 1 6 7
f 1 7 3
f 1 3 4
f 1 4 5
f 1 5 2
f 2 5 12
f 2 12 18
f 2 18 13
f 2 13 6
f 3 7 14
f 3 14 17
f 3 17 15
f 3 15 8
f 3 8 4
f 4 8 9
f 4 9 10
f 4 10 11
f 4 11 5
f 5 11 10
f 5 10 9
f 5 9 8
f 5 8 15
f 5 15 19
f 5 19 21
f 5 21 20
f 5 20 16
f 5 16 12
f 6 13 14
f 6 14 7
f 12 16 17
f 12 17 18
f 13 18 17
f 13 17 14
f 15 17 19
f 16 20 17
f 17 20 21
f 17 21 19

