# https://github.com/mikedh/trimesh
v -7.30700120 -1.67679861 -50.00000000
v -1.28016770 -1.67679861 -50.00000000
v -7.30700120 -1.67679861 -30.74881434
v -7.31552467 -1.64204352 -30.74881434
v -7.35083669 -1.48603171 -50.00000000
v -1.28016770 6.21184558 -50.00000000
v -1.28016770 -1.67679861 -30.74881434
v -7.35083669 -1.48603171 -30.74881434
v -7.41598234 -1.11762732 -50.00000000
v -4.19769324 6.21184558 -50.00000000
v -1.28016770 6.21184558 -30.74881434
v -7.41598234 -1.11762732 -30.74881434
v -7.43607357 -0.95852576 -30.74881434
v -7.46225342 -0.74613336 -50.00000000
v -4.37851660 6.08904436 -50.00000000
v -4.20195498 6.20952882 -30.74881434
v -4.19769324 6.21184558 -30.74881434
v -7.46225342 -0.74613336 -30.74881434
v -7.49025941 -0.37309490 -50.00000000
v -7.47869164 -0.53296853 -30.74881434
v -4.67562675 5.86352199 -50.00000000
v -4.50576246 5.99250197 -30.74881434
v -4.37851660 6.08904436 -30.74881434
v -7.50000104 0.00071600 -50.00000000
v -7.49025941 -0.37309490 -30.74881434
v -4.96238694 5.62332533 -50.00000000
v -4.67562675 5.86352199 -30.74881434
v -7.49025941 0.37452690 -50.00000000
v -7.50000104 0.00071600 -30.74881434
v -7.49452114 0.21388084 -30.74881434
v -5.23636155 5.36845438 -50.00000000
v -4.96238694 5.62332533 -30.74881434
v -7.46225342 0.74679302 -50.00000000
v -7.49025941 0.37452690 -30.74881434
v -7.47442991 0.58769174 -30.74881434
v -5.49755096 5.10122590 -50.00000000
v -5.34838662 5.25414869 -30.74881434
v -5.23636155 5.36845438 -30.74881434
v -7.41598234 1.11828689 -50.00000000
v -7.46225342 0.74679302 -30.74881434
v -7.43607357 0.95918551 -30.74881434
v -5.74473664 4.82086763 -50.00000000
v -5.49755096 5.10122590 -30.74881434
v -7.35083669 1.48669127 -50.00000000
v -7.41598234 1.11828689 -30.74881434
v -7.37884343 1.32913468 -30.74881434
v -5.97791970 4.52815220 -50.00000000
v -5.84458522 4.69574928 -30.74881434
v -5.74473664 4.82086763 -30.74881434
v -7.26803541 1.85123421 -50.00000000
v -7.35083669 1.48669127 -30.74881434
v -6.19649068 4.22462411 -50.00000000
v -6.07168004 4.39839959 -30.74881434
v -5.97791970 4.52815220 -30.74881434
v -7.16636032 2.21114289 -50.00000000
v -7.30334818 1.69522222 -30.74881434
v -7.26742670 1.85123421 -30.74881434
v -7.16636032 2.21114289 -30.74881434
v -6.39923215 3.91028300 -50.00000000
v -6.31216913 4.04544175 -30.74881434
v -6.19649068 4.22462411 -30.74881434
v -7.04763830 2.56487299 -50.00000000
v -7.09817111 2.41349507 -30.74881434
v -6.58614337 3.58667411 -50.00000000
v -6.47959784 3.77203487 -30.74881434
v -6.39923215 3.91028300 -30.74881434
v -6.91065118 2.91319676 -50.00000000
v -7.04702958 2.56487299 -30.74881434
v -6.96909875 2.76413579 -30.74881434
v -6.91065118 2.91319676 -30.74881434
v -6.75722510 3.25379707 -50.00000000
v -6.58614337 3.58667411 -30.74881434
v -6.84489757 3.05916835 -30.74881434
v -6.75661638 3.25379707 -30.74881434
f 1 2 7
f 1 7 3
f 1 3 4
f 1 4 5
f 1 5 9
f 1 9 14
f 1 14 19
f 1 19 24
f 1 24 28
f 1 28 33
f 1 33 39
f 1 39 44
f 1 44 50
f 1 50 55
f 1 55 62
f 1 62 67
f 1 67 71
f 1 71 64
f 1 64 59
f 1 59 52
f 1 52 47
f 1 47 42
f 1 42 36
f 1 36 31
f 1 31 26
f 1 26 21
f 1 21 15
f 1 15 10
f 1 10 6
f 1 6 2
f 2 6 11
f 2 11 7
f 3 7 11
f 3 11 17
f 3 17 16
f 3 16 23
f 3 23 22
f 3 22 27
f 3 27 32
f 3 32 38
f 3 38 37
f 3 37 43
f 3 43 49
f 3 49 48
f 3 48 54
f 3 54 53
f 3 53 61
f 3 61 60
f 3 60 66
f 3 66 65
f 3 65 72
f 3 72 74
f 3 74 73
f 3 73 70
f 3 70 69
f 3 69 68
f 3 68 63
f 3 63 58
f 3 58 57
f 3 57 56
f 3 56 51
f 3 51 46
f 3 46 45
f 3 45 41
f 3 41 40
f 3 40 35
f 3 35 34
f 3 34 30
f 3 30 29
f 3 29 25
f 3 25 20
f 3 20 18
f 3 18 13
f 3 13 12
f 3 12 8
f 3 8 4
f 4 8 5
f 5 8 12
f 5 12 9
f 6 10 17
f 6 17 11
f 9 12 13
f 9 13 14
f 10 15 16
f 10 16 17
f 13 18 14
f 14 18 20
f 14 20 19
f 15 21 22
f 15 22 23
f 15 23 16
f 19 20 25
f 19 25 29
f 19 29 24
f 21 26 32
f 21 32 27
f 21 27 22
f 24 29 30
f 24 30 28
f 26 31 38
f 26 38 32
f 28 30 34
f 28 34 35
f 28 35 33
f 31 36 37
f 31 37 38
f 33 35 40
f 33 40 41
f 33 41 39
f 36 42 49
f 36 49 43
f 36 43 37
f 39 41 45
f 39 45 46
f 39 46 44
f 42 47 48
f 42 48 49
f 44 46 51
f 44 51 50
f 47 52 53
f 47 53 54
f 47 54 48
f 50 51 56
f 50 56 57
f 50 57 58
f 50 58 55
f 52 59 60
f 52 60 61
f 52 61 53
f 55 58 62
f 58 63 62
f 59 64 65
f 59 65 66
f 59 66 60
f 62 63 68
f 62 68 69
f 62 69 70
f 62 70 67
f 64 71 72
f 64 72 65
f 67 70 73
f 67 73 71
f 71 73 74
f 71 74 72

