# https://github.com/mikedh/trimesh
v -1.28016751 -1.67679861 -50.00000000
v 5.85818365 -1.67679861 -50.00000000
v -1.28016751 -1.67679861 -30.74881434
v -1.28016751 6.21184558 -50.00000000
v 5.85818365 4.67875786 -50.00000000
v 5.85818365 -1.67679861 -30.74881434
v -1.28016751 6.21184558 -30.74881434
v 4.19727340 6.21184558 -50.00000000
v 5.74498773 4.82086763 -50.00000000
v 5.85818365 4.67875786 -30.74881434
v 4.19727340 6.21184558 -30.74881434
v 4.37754914 6.08904436 -50.00000000
v 4.24548686 6.17940761 -30.74881434
v 5.49763292 5.10122590 -50.00000000
v 5.74498773 4.82086763 -30.74881434
v 4.67591211 5.86352199 -50.00000000
v 4.37754914 6.08904436 -30.74881434
v 4.50541899 5.99250197 -30.74881434
v 5.23630306 5.36845438 -50.00000000
v 5.49763292 5.10122590 -30.74881434
v 4.96239625 5.62332533 -50.00000000
v 4.67591211 5.86352199 -30.74881434
v 5.23630306 5.36845438 -30.74881434
v 4.96239625 5.62332533 -30.74881434
f 1 2 6
f 1 6 3
f 1 3 7
f 1 7 4
f 1 4 8
f 1 8 12
f 1 12 16
f 1 16 21
f 1 21 19
f 1 19 14
f 1 14 9
f 1 9 5
f 1 5 2
f 2 5 10
f 2 10 6
f 3 6 10
f 3 10 15
f 3 15 20
f 3 20 23
f 3 23 24
f 3 24 22
f 3 22 18
f 3 18 17
f 3 17 13
f 3 13 11
f 3 11 7
f 4 7 11
f 4 11 8
f 5 9 15
f 5 15 10
f 8 11 13
f 8 13 12
f 9 14 20
f 9 20 15
f 12 13 17
f 12 17 18
f 12 18 16
f 14 19 23
f 14 23 20
f 16 18 22
f 16 22 24
f 16 24 21
f 19 21 24
f 19 24 23

