# https://github.com/mikedh/trimesh
v 3.69975716 -6.06313422 -5.08056283
v 3.69975716 2.22621337 -5.08056283
v 4.41276506 -6.06313422 -5.08056283
v 3.69975716 -6.06313422 50.00000000
v 4.58633080 2.22621337 -5.08056283
v 3.69975716 2.22621337 50.00000000
v 4.58633080 -5.93168624 -5.08056283
v 4.58633080 -6.06313422 -4.99968827
v 4.58633080 -6.06313422 50.00000000
v 4.58633080 2.22621337 50.00000000
f 1 2 5
f 1 5 7
f 1 7 3
f 1 3 8
f 1 8 9
f 1 9 4
f 1 4 6
f 1 6 2
f 2 6 10
f 2 10 5
f 3 7 8
f 4 9 10
f 4 10 6
f 5 10 9
f 5 9 8
f 5 8 7

