# https://github.com/mikedh/trimesh
v -1.62064694 -7.66104385 -4.99582440
v -1.09311752 -7.66104385 -4.99582440
v -1.62064694 -7.66104385 36.14552021
v -2.33654715 -7.65955597 -4.99582440
v -0.18748781 -7.49588981 -5.08056879
v -0.02356879 -7.65955597 -4.99582440
v -0.02356879 -7.66104385 32.48940706
v -0.02356879 -7.49588981 -5.08056879
v -0.02356879 -7.66104385 36.14552021
v -2.33654715 -7.65955597 36.14552021
v -2.33654715 -7.12392032 -5.08056879
v -2.03112345 -7.21914470 -5.08056879
v -1.66887157 -7.31139258 -5.08056879
v -1.30209159 -7.38578662 -5.08056879
v -1.09311752 -7.41703212 -5.08056879
v -0.93236826 -7.43935034 -5.08056879
v -0.56060725 -7.47803524 -5.08056879
v -0.02356879 7.49744102 -5.08056879
v -0.02356879 7.53910169 36.14552021
v -2.33654715 7.53761381 36.14552021
v -2.33654715 7.12398440 -5.08056879
v -0.18748781 7.49744102 -5.08056879
v -0.02356879 7.53910169 -4.99582440
v -1.62064694 7.53910169 36.14552021
v -2.33654715 7.53761381 -4.99582440
v -2.03112345 7.21772015 -5.08056879
v -0.56060725 7.47809857 -5.08056879
v -1.62064694 7.53910169 -4.99582440
v -0.93236826 7.44090155 -5.08056879
v -1.30209159 7.38287419 -5.08056879
v -1.62064694 7.32038394 -5.08056879
v -1.66887157 7.30996877 -5.08056879
f 1 2 7
f 1 7 9
f 1 9 3
f 1 3 10
f 1 10 4
f 1 4 5
f 1 5 8
f 1 8 2
f 2 6 7
f 2 8 6
f 3 9 19
f 3 19 24
f 3 24 20
f 3 20 10
f 4 10 20
f 4 20 25
f 4 25 21
f 4 21 11
f 4 11 12
f 4 12 13
f 4 13 14
f 4 14 15
f 4 15 16
f 4 16 17
f 4 17 5
f 5 17 16
f 5 16 15
f 5 15 14
f 5 14 13
f 5 13 12
f 5 12 11
f 5 11 21
f 5 21 26
f 5 26 32
f 5 32 31
f 5 31 30
f 5 30 29
f 5 29 27
f 5 27 22
f 5 22 18
f 5 18 8
f 6 8 18
f 6 18 23
f 6 23 19
f 6 19 9
f 6 9 7
f 18 22 28
f 18 28 23
f 19 23 28
f 19 28 24
f 20 24 28
f 20 28 25
f 21 25 26
f 22 27 25
f 22 25 28
f 25 27 29
f 25 29 30
f 25 30 31
f 25 31 32
f 25 32 26

