# https://github.com/mikedh/trimesh
v 5.85687608 4.63818796 -29.52663600
v 5.85687608 -1.61181204 -29.52663600
v 5.85687608 4.63818796 -30.74881434
v -5.89037612 4.63818796 -29.52663600
v 5.85687608 -1.61181204 -30.74881434
v -7.32217133 -1.61181204 -29.52663600
v -5.89037612 4.63818796 -30.74881434
v -5.97798377 4.52867821 -29.52663600
v -7.32217133 -1.61181204 -30.74881434
v -7.34963045 -1.49190202 -29.52663600
v -5.97798377 4.52867821 -30.74881434
v -6.19634911 4.22462076 -29.52663600
v -7.35093802 -1.48578417 -30.74881434
v -7.35093802 -1.48578417 -29.52663600
v -6.19634911 4.22462076 -30.74881434
v -6.31664544 4.03863825 -29.52663600
v -7.38624260 -1.28511861 -29.52663600
v -7.41239339 -1.13523118 -29.52663600
v -7.41500854 -1.11748949 -30.74881434
v -6.39902279 3.91016304 -30.74881434
v -6.39902279 3.91016304 -29.52663600
v -7.41500854 -1.11748949 -29.52663600
v -7.43723735 -0.94863661 -29.52663600
v -7.43592978 -0.95842518 -30.74881434
v -6.40817583 3.89486849 -29.52663600
v -6.58600628 3.58714052 -30.74881434
v -7.46208131 -0.74674748 -29.52663600
v -7.46208131 -0.74674748 -30.74881434
v -6.58600628 3.58714052 -29.52663600
v -6.65923059 3.44398282 -30.74881434
v -7.47777224 -0.54363459 -29.52663600
v -7.47777224 -0.53323433 -30.74881434
v -6.75599128 3.25432941 -29.52663600
v -6.75599128 3.25432941 -30.74881434
v -7.48954043 -0.37294645 -29.52663600
v -7.48954043 -0.37294645 -30.74881434
v -6.84490576 3.05916965 -30.74881434
v -6.84752092 3.05244010 -29.52663600
v -7.49869347 -0.01749918 -29.52663600
v -7.49869347 0.00024261 -30.74881434
v -6.91028461 2.91295312 -30.74881434
v -6.91028461 2.91295312 -29.52663600
v -7.49869347 0.00024261 -29.52663600
v -7.49477074 0.20396709 -29.52663600
v -7.48954043 0.37465524 -30.74881434
v -6.96912557 2.76428908 -30.74881434
v -6.97304830 2.75450051 -29.52663600
v -7.49084800 0.35691345 -29.52663600
v -7.47515708 0.57715625 -29.52663600
v -7.46208131 0.74723260 -30.74881434
v -7.04758018 2.56484710 -30.74881434
v -7.04758018 2.56484710 -29.52663600
v -7.46208131 0.74723260 -29.52663600
v -7.43723735 0.94912183 -29.52663600
v -7.43592978 0.95891040 -30.74881434
v -7.09857568 2.41312422 -30.74881434
v -7.16656968 2.21062340 -29.52663600
v -7.41762370 1.10084452 -29.52663600
v -7.41500854 1.11858640 -30.74881434
v -7.16656968 2.21062340 -30.74881434
v -7.26725310 1.85089353 -29.52663600
v -7.41500854 1.11858640 -29.52663600
v -7.35093802 1.48688117 -30.74881434
v -7.26725310 1.85089353 -30.74881434
v -7.35093802 1.48688117 -29.52663600
f 1 2 5
f 1 5 3
f 1 3 7
f 1 7 4
f 1 4 8
f 1 8 12
f 1 12 16
f 1 16 21
f 1 21 25
f 1 25 29
f 1 29 33
f 1 33 38
f 1 38 42
f 1 42 47
f 1 47 52
f 1 52 57
f 1 57 61
f 1 61 65
f 1 65 62
f 1 62 58
f 1 58 54
f 1 54 53
f 1 53 49
f 1 49 48
f 1 48 44
f 1 44 43
f 1 43 39
f 1 39 35
f 1 35 31
f 1 31 27
f 1 27 23
f 1 23 22
f 1 22 18
f 1 18 17
f 1 17 14
f 1 14 10
f 1 10 6
f 1 6 2
f 2 6 9
f 2 9 5
f 3 5 9
f 3 9 13
f 3 13 19
f 3 19 24
f 3 24 28
f 3 28 32
f 3 32 36
f 3 36 40
f 3 40 45
f 3 45 50
f 3 50 55
f 3 55 59
f 3 59 63
f 3 63 64
f 3 64 60
f 3 60 56
f 3 56 51
f 3 51 46
f 3 46 41
f 3 41 37
f 3 37 34
f 3 34 30
f 3 30 26
f 3 26 20
f 3 20 15
f 3 15 11
f 3 11 7
f 4 7 11
f 4 11 8
f 6 10 9
f 8 11 15
f 8 15 12
f 9 10 13
f 10 14 13
f 12 15 16
f 13 17 18
f 13 18 19
f 13 14 17
f 15 20 16
f 16 20 21
f 18 22 19
f 19 22 23
f 19 23 24
f 20 25 21
f 20 26 25
f 23 27 28
f 23 28 24
f 25 26 29
f 26 30 29
f 27 31 28
f 28 31 32
f 29 30 33
f 30 34 33
f 31 35 36
f 31 36 32
f 33 34 37
f 33 37 38
f 35 39 36
f 36 39 40
f 37 41 42
f 37 42 38
f 39 43 40
f 40 43 44
f 40 44 45
f 41 46 47
f 41 47 42
f 44 48 45
f 45 48 49
f 45 49 50
f 46 51 47
f 47 51 52
f 49 53 50
f 50 53 54
f 50 54 55
f 51 56 52
f 52 56 57
f 54 58 55
f 55 58 59
f 56 60 57
f 57 60 64
f 57 64 61
f 58 62 59
f 59 62 65
f 59 65 63
f 61 64 63
f 61 63 65

