# https://github.com/mikedh/trimesh
v 11.54698506 -0.02155837 50.00000000
v 5.79157695 9.98740643 50.00000000
v 5.75314723 -10.01092494 50.00000000
v 11.54698506 -0.02155837 -4.99969274
v -5.75314723 10.01092494 50.00000000
v 5.79157695 9.98740643 -4.99969274
v -5.79157695 -9.98740643 50.00000000
v 5.75314723 -10.01092494 -4.99969274
v 6.39967024 -3.90990488 -5.08056730
v 6.58503696 -3.58652957 -5.08056730
v 6.75683990 -3.25335450 -5.08056730
v 6.91055879 -2.91234031 -5.08056730
v 7.04619288 -2.56544650 -5.08056730
v 7.16600269 -2.21071318 -5.08056730
v 7.26772845 -1.85010042 -5.08056730
v 7.34910890 -1.48556791 -5.08056730
v 7.41466507 -1.11711575 -5.08056730
v 7.46213719 -0.74670366 -5.08056730
v 7.48926401 -0.37433174 -5.08056730
v 7.49830678 0.00000000 -5.08056730
v 7.48926401 0.37237189 -5.08056730
v 7.46213719 0.74474378 -5.08056730
v 7.41466507 1.11711575 -5.08056730
v 7.35136941 1.48360804 -5.08056730
v 7.26772845 1.84814055 -5.08056730
v 7.16600269 2.20875330 -5.08056730
v 7.04619288 2.56348662 -5.08056730
v 6.91055879 2.91234031 -5.08056730
v 6.75683990 3.25335450 -5.08056730
v 6.58503696 3.58456969 -5.08056730
v 6.39967024 3.90990488 -5.08056730
v -11.54698506 0.02155837 50.00000000
v -5.75314723 10.01092494 -4.99969274
v 6.19621873 4.22348119 -5.08056730
v 5.97694367 4.52725850 -5.08056730
v 5.74410520 4.81927656 -5.08056730
v 5.49770296 5.09953536 -5.08056730
v 5.23547716 5.36803491 -5.08056730
v 4.96194847 5.62281571 -5.08056730
v 4.67485599 5.86387739 -5.08056730
v 4.37646098 6.08926043 -5.08056730
v 4.06902358 6.29896447 -5.08056730
v 3.74802276 6.49494976 -5.08056730
v 3.42024043 6.67329654 -5.08056730
v 3.08341570 6.83596432 -5.08056730
v 2.73980927 6.98099360 -5.08056730
v 2.38716062 7.10838363 -5.08056730
v 2.02999078 7.21813515 -5.08056730
v 1.66829973 7.31024817 -5.08056730
v 1.30208759 7.38472268 -5.08056730
v 0.93135433 7.44155869 -5.08056730
v 0.55836048 7.47879595 -5.08056730
v 0.18536664 7.49643445 -5.08056730
v -5.79157695 -9.98740643 -4.99969274
v -0.18536664 -7.49643445 -5.08056730
v 0.18536664 -7.49643445 -5.08056730
v 0.55836048 -7.47879595 -5.08056730
v 0.93135433 -7.44155869 -5.08056730
v 1.30208759 -7.38472268 -5.08056730
v 1.66829973 -7.31024817 -5.08056730
v 2.02999078 -7.21813515 -5.08056730
v 2.38716062 -7.10838363 -5.08056730
v 2.73754876 -6.98099360 -5.08056730
v 3.08341570 -6.83596432 -5.08056730
v 3.42024043 -6.67329654 -5.08056730
v 3.74802276 -6.49494976 -5.08056730
v 4.06676307 -6.29896447 -5.08056730
v 4.37646098 -6.08926043 -5.08056730
v 4.67485599 -5.86387739 -5.08056730
v 4.96194847 -5.62281571 -5.08056730
v 5.23547716 -5.36803491 -5.08056730
v 5.49544245 -5.10149524 -5.08056730
v 5.74410520 -4.82123606 -5.08056730
v 5.97694367 -4.52725850 -5.08056730
v 6.19621873 -4.22544107 -5.08056730
v -11.54698506 0.02155837 -4.99969274
v -0.18536664 7.49643445 -5.08056730
v -0.55836048 7.47879595 -5.08056730
v -0.93135433 7.44155869 -5.08056730
v -1.30208759 7.38472268 -5.08056730
v -1.66829973 7.31024817 -5.08056730
v -2.02999078 7.21813515 -5.08056730
v -2.38716062 7.10838363 -5.08056730
v -2.73980927 6.98099360 -5.08056730
v -3.08341570 6.83596432 -5.08056730
v -3.42024043 6.67329654 -5.08056730
v -3.74802276 6.49494976 -5.08056730
v -4.06902358 6.29896447 -5.08056730
v -4.37646098 6.08926043 -5.08056730
v -4.67485599 5.86191788 -5.08056730
v -4.96194847 5.62281571 -5.08056730
v -5.23547716 5.36803491 -5.08056730
v -5.49770296 5.09953536 -5.08056730
v -5.74410520 4.82123606 -5.08056730
v -5.97694367 4.52725850 -5.08056730
v -6.19621873 4.22544107 -5.08056730
v -6.39967024 3.90990488 -5.08056730
v -6.39967024 -3.90990488 -5.08056730
v -6.19621873 -4.22348119 -5.08056730
v -5.97694367 -4.52725850 -5.08056730
v -5.74410520 -4.81927656 -5.08056730
v -5.49770296 -5.09953536 -5.08056730
v -5.23547716 -5.36803491 -5.08056730
v -4.96194847 -5.62281571 -5.08056730
v -4.67485599 -5.86191788 -5.08056730
v -4.37646098 -6.08730055 -5.08056730
v -4.06902358 -6.29896447 -5.08056730
v -3.75028364 -6.49299026 -5.08056730
v -3.42024043 -6.67329654 -5.08056730
v -3.08341570 -6.83596432 -5.08056730
v -2.73980927 -6.98099360 -5.08056730
v -2.38716062 -7.10838363 -5.08056730
v -2.02999078 -7.21813515 -5.08056730
v -1.66829973 -7.31024817 -5.08056730
v -1.30208759 -7.38472268 -5.08056730
v -0.93135433 -7.44155869 -5.08056730
v -0.55836048 -7.47879595 -5.08056730
v -6.58503696 3.58652957 -5.08056730
v -6.75683990 3.25335450 -5.08056730
v -6.91055879 2.91234031 -5.08056730
v -7.04619288 2.56544650 -5.08056730
v -7.16600269 2.21071318 -5.08056730
v -7.26772845 1.85010042 -5.08056730
v -7.34910890 1.48556791 -5.08056730
v -7.41466507 1.11711575 -5.08056730
v -7.46213719 0.74670366 -5.08056730
v -7.48926401 0.37433174 -5.08056730
v -7.49830678 0.00000000 -5.08056730
v -7.48926401 -0.37237189 -5.08056730
v -7.46213719 -0.74670366 -5.08056730
v -7.41466507 -1.11711575 -5.08056730
v -7.34910890 -1.48556791 -5.08056730
v -7.26772845 -1.85010042 -5.08056730
v -7.16600269 -2.20875330 -5.08056730
v -7.04619288 -2.56348662 -5.08056730
v -6.91055879 -2.91234031 -5.08056730
v -6.75683990 -3.25335450 -5.08056730
v -6.58503696 -3.58652957 -5.08056730
f 1 2 5
f 1 5 32
f 1 32 7
f 1 7 3
f 1 3 8
f 1 8 4
f 1 4 6
f 1 6 2
f 2 6 33
f 2 33 5
f 3 7 54
f 3 54 8
f 4 8 9
f 4 9 10
f 4 10 11
f 4 11 12
f 4 12 13
f 4 13 14
f 4 14 15
f 4 15 16
f 4 16 17
f 4 17 18
f 4 18 19
f 4 19 20
f 4 20 21
f 4 21 22
f 4 22 23
f 4 23 24
f 4 24 25
f 4 25 26
f 4 26 27
f 4 27 28
f 4 28 29
f 4 29 30
f 4 30 31
f 4 31 6
f 5 33 76
f 5 76 32
f 6 31 34
f 6 34 35
f 6 35 36
f 6 36 37
f 6 37 38
f 6 38 39
f 6 39 40
f 6 40 41
f 6 41 42
f 6 42 43
f 6 43 44
f 6 44 45
f 6 45 46
f 6 46 47
f 6 47 48
f 6 48 49
f 6 49 50
f 6 50 51
f 6 51 52
f 6 52 53
f 6 53 33
f 7 32 76
f 7 76 54
f 8 54 55
f 8 55 56
f 8 56 57
f 8 57 58
f 8 58 59
f 8 59 60
f 8 60 61
f 8 61 62
f 8 62 63
f 8 63 64
f 8 64 65
f 8 65 66
f 8 66 67
f 8 67 68
f 8 68 69
f 8 69 70
f 8 70 71
f 8 71 72
f 8 72 73
f 8 73 74
f 8 74 75
f 8 75 9
f 9 75 74
f 9 74 73
f 9 73 72
f 9 72 71
f 9 71 70
f 9 70 69
f 9 69 68
f 9 68 67
f 9 67 66
f 9 66 65
f 9 65 64
f 9 64 63
f 9 63 62
f 9 62 61
f 9 61 60
f 9 60 59
f 9 59 58
f 9 58 57
f 9 57 56
f 9 56 55
f 9 55 117
f 9 117 116
f 9 116 115
f 9 115 114
f 9 114 113
f 9 113 112
f 9 112 111
f 9 111 110
f 9 110 109
f 9 109 108
f 9 108 107
f 9 107 106
f 9 106 105
f 9 105 104
f 9 104 103
f 9 103 102
f 9 102 101
f 9 101 100
f 9 100 99
f 9 99 98
f 9 98 138
f 9 138 137
f 9 137 136
f 9 136 135
f 9 135 134
f 9 134 133
f 9 133 132
f 9 132 131
f 9 131 130
f 9 130 129
f 9 129 128
f 9 128 127
f 9 127 126
f 9 126 125
f 9 125 124
f 9 124 123
f 9 123 122
f 9 122 121
f 9 121 120
f 9 120 119
f 9 119 118
f 9 118 97
f 9 97 96
f 9 96 95
f 9 95 94
f 9 94 93
f 9 93 92
f 9 92 91
f 9 91 90
f 9 90 89
f 9 89 88
f 9 88 87
f 9 87 86
f 9 86 85
f 9 85 84
f 9 84 83
f 9 83 82
f 9 82 81
f 9 81 80
f 9 80 79
f 9 79 78
f 9 78 77
f 9 77 53
f 9 53 52
f 9 52 51
f 9 51 50
f 9 50 49
f 9 49 48
f 9 48 47
f 9 47 46
f 9 46 45
f 9 45 44
f 9 44 43
f 9 43 42
f 9 42 41
f 9 41 40
f 9 40 39
f 9 39 38
f 9 38 37
f 9 37 36
f 9 36 35
f 9 35 34
f 9 34 31
f 9 31 30
f 9 30 29
f 9 29 28
f 9 28 27
f 9 27 26
f 9 26 25
f 9 25 24
f 9 24 23
f 9 23 22
f 9 22 21
f 9 21 20
f 9 20 19
f 9 19 18
f 9 18 17
f 9 17 16
f 9 16 15
f 9 15 14
f 9 14 13
f 9 13 12
f 9 12 11
f 9 11 10
f 33 53 77
f 33 77 78
f 33 78 79
f 33 79 80
f 33 80 81
f 33 81 82
f 33 82 83
f 33 83 84
f 33 84 85
f 33 85 86
f 33 86 87
f 33 87 88
f 33 88 89
f 33 89 90
f 33 90 91
f 33 91 92
f 33 92 93
f 33 93 94
f 33 94 95
f 33 95 96
f 33 96 97
f 33 97 76
f 54 76 98
f 54 98 99
f 54 99 100
f 54 100 101
f 54 101 102
f 54 102 103
f 54 103 104
f 54 104 105
f 54 105 106
f 54 106 107
f 54 107 108
f 54 108 109
f 54 109 110
f 54 110 111
f 54 111 112
f 54 112 113
f 54 113 114
f 54 114 115
f 54 115 116
f 54 116 117
f 54 117 55
f 76 97 118
f 76 118 119
f 76 119 120
f 76 120 121
f 76 121 122
f 76 122 123
f 76 123 124
f 76 124 125
f 76 125 126
f 76 126 127
f 76 127 128
f 76 128 129
f 76 129 130
f 76 130 131
f 76 131 132
f 76 132 133
f 76 133 134
f 76 134 135
f 76 135 136
f 76 136 137
f 76 137 138
f 76 138 98

