# https://github.com/mikedh/trimesh
v -7.45327696 0.74646957 -5.08056730
v -5.86301051 0.74646957 -5.08056730
v -7.46271834 0.74646957 -5.07517606
v -7.46271834 0.74685514 -5.08056730
v -5.86301051 4.67346460 -5.08056730
v -5.86301051 0.74646957 50.00000000
v -7.52571672 0.74646957 -4.99969274
v -7.41599873 1.11857783 -5.08056730
v -7.52571672 4.68580388 -4.99969274
v -5.97810075 4.52886298 -5.08056730
v -5.86301051 4.68580388 -4.99969274
v -5.86301051 4.68580388 50.00000000
v -7.52571672 0.74646957 50.00000000
v -7.35104680 1.48682995 -5.08056730
v -6.19656108 4.22539227 -5.08056730
v -6.39971942 3.91073897 -5.08056730
v -6.58643618 3.58721688 -5.08056730
v -6.75687417 3.25444043 -5.08056730
v -6.91103339 2.91318055 -5.08056730
v -7.04744905 2.56613661 -5.08056730
v -7.16644600 2.21138056 -5.08056730
v -7.26786256 1.85161158 -5.08056730
v -7.52571672 4.68580388 50.00000000
f 1 2 6
f 1 6 13
f 1 13 7
f 1 7 3
f 1 3 4
f 1 4 8
f 1 8 14
f 1 14 22
f 1 22 21
f 1 21 20
f 1 20 19
f 1 19 18
f 1 18 17
f 1 17 16
f 1 16 15
f 1 15 10
f 1 10 5
f 1 5 2
f 2 5 11
f 2 11 12
f 2 12 6
f 3 7 4
f 4 7 9
f 4 9 8
f 5 10 9
f 5 9 11
f 6 12 23
f 6 23 13
f 7 13 23
f 7 23 9
f 8 9 14
f 9 10 15
f 9 15 16
f 9 16 17
f 9 17 18
f 9 18 19
f 9 19 20
f 9 20 21
f 9 21 22
f 9 22 14
f 9 23 12
f 9 12 11

