# https://github.com/mikedh/trimesh
v 5.75396009 -6.06313422 50.00000000
v 5.75396009 -7.57941827 50.00000000
v 5.75396009 -6.06313422 8.25824589
v -0.02245493 -6.06313422 50.00000000
v -0.02245493 -7.57941827 50.00000000
v 5.75396009 -7.57941827 24.28207546
v 5.74943647 -7.57941827 -4.99430299
v 5.74717447 -6.06313422 -4.99430299
v -0.02245493 -6.06313422 -5.08056879
v -0.02245493 -7.57941827 -4.99430299
v 0.18733945 -7.49763772 -5.08056879
v 0.56112409 -7.47878775 -5.08056879
v 0.93264692 -7.44168237 -5.08056879
v 1.30247306 -7.38587528 -5.08056879
v 1.66890658 -7.31181279 -5.08056879
v 2.03081593 -7.21979067 -5.08056879
v 2.38876715 -7.10921586 -5.08056879
v 2.73936689 -6.98157251 -5.08056879
v 3.08374651 -6.83626682 -5.08056879
v 3.42077464 -6.67448640 -5.08056879
v 3.74932066 -6.49578571 -5.08056879
v 4.06825356 -6.30075857 -5.08056879
v 4.37700748 -6.09014705 -5.08056879
v 4.41206768 -6.06313422 -5.08056879
v -0.02245493 -7.49763772 -5.08056879
f 1 2 6
f 1 6 3
f 1 3 8
f 1 8 24
f 1 24 9
f 1 9 4
f 1 4 5
f 1 5 2
f 2 5 10
f 2 10 7
f 2 7 6
f 3 6 7
f 3 7 8
f 4 9 25
f 4 25 10
f 4 10 5
f 7 10 25
f 7 25 11
f 7 11 12
f 7 12 13
f 7 13 14
f 7 14 15
f 7 15 16
f 7 16 17
f 7 17 18
f 7 18 19
f 7 19 20
f 7 20 21
f 7 21 22
f 7 22 23
f 7 23 24
f 7 24 8
f 9 24 23
f 9 23 22
f 9 22 21
f 9 21 20
f 9 20 19
f 9 19 18
f 9 18 17
f 9 17 16
f 9 16 15
f 9 15 14
f 9 14 13
f 9 13 12
f 9 12 11
f 9 11 25

