# https://github.com/mikedh/trimesh
v 5.85834458 -4.67939265 -24.42769110
v 5.97855486 -4.52854931 -24.42769110
v 5.97196557 -4.53695878 -7.44805634
v 5.85834458 -4.67886701 -7.44805634
v 5.85834458 0.68947840 -24.42769110
v 6.02773167 -4.46022302 -24.42769110
v 5.97839393 -4.52854931 -7.44805634
v 5.97823337 -4.52854931 -5.08246124
v 5.85834458 -4.67834175 -5.08246124
v 7.46687651 0.68947840 -24.42769110
v 5.85834458 0.68947840 -5.08246124
v 6.10969290 -4.34617065 -24.42769110
v 6.19663633 -4.22476009 -7.44805634
v 6.19647577 -4.22476009 -5.08246124
v 7.47539401 0.57700276 -24.42769110
v 7.46687651 0.68947840 -5.08246124
v 7.46816248 0.67318510 -7.44805634
v 6.19679689 -4.22476009 -24.42769110
v 6.39993250 -3.90993357 -7.44805634
v 6.28422275 -4.08968404 -24.42769110
v 6.39977157 -3.90993357 -5.08246124
v 7.49066174 0.37307497 -24.42769110
v 7.49066174 0.37307497 -5.08246124
v 6.58651516 -3.58669758 -7.44805634
v 6.39993250 -3.90993357 -24.42769110
v 6.58667609 -3.58669758 -24.42769110
v 6.58635423 -3.58669758 -5.08246124
v 7.49467909 0.21224543 -24.42769110
v 7.49982223 -0.00114292 -5.08246124
v 7.49998242 -0.00114292 -7.44805634
v 6.75686598 -3.25452648 -7.44805634
v 6.62524626 -3.51206400 -24.42769110
v 6.75686598 -3.25400084 -5.08246124
v 7.49982223 -0.00061747 -24.42769110
v 7.49033988 -0.37483536 -5.08246124
v 7.49050081 -0.37483536 -7.44805634
v 7.49596506 -0.16144700 -24.42769110
v 6.90262914 -2.93129049 -7.44805634
v 6.75702691 -3.25400084 -24.42769110
v 6.79173991 -3.17726508 -24.42769110
v 6.84943423 -3.04954760 -24.42769110
v 6.91082478 -2.91342046 -24.42769110
v 6.91066459 -2.91289482 -5.08246124
v 7.46253729 -0.74695088 -5.08246124
v 7.48905465 -0.39428212 -7.44805634
v 7.49050081 -0.37430972 -24.42769110
v 6.91066459 -2.91342046 -7.44805634
v 7.04742745 -2.56548189 -24.42769110
v 7.04742745 -2.56548189 -7.44805634
v 7.04742745 -2.56495625 -5.08246124
v 7.41609260 -1.11801531 -5.08246124
v 7.46269822 -0.74695088 -7.44805634
v 7.46269822 -0.74695088 -24.42769110
v 7.47941211 -0.52305087 -24.42769110
v 7.11524636 -2.36365646 -24.42769110
v 7.16651231 -2.21071057 -7.44805634
v 7.16635212 -2.21071057 -5.08246124
v 7.35116675 -1.48645174 -5.08246124
v 7.41271824 -1.13746207 -7.44805634
v 7.41609260 -1.11801531 -24.42769110
v 7.42670000 -1.03444699 -24.42769110
v 7.16651231 -2.21018512 -24.42769110
v 7.22758174 -1.99469440 -24.42769110
v 7.26261586 -1.87065583 -7.44805634
v 7.26791993 -1.85120907 -5.08246124
v 7.31806085 -1.63256489 -24.42769110
v 7.35116675 -1.48645174 -24.42769110
v 7.39021897 -1.26517965 -24.42769110
v 7.26791993 -1.85120907 -24.42769110
f 1 2 3
f 1 3 4
f 1 4 9
f 1 9 11
f 1 11 5
f 1 5 10
f 1 10 15
f 1 15 22
f 1 22 28
f 1 28 34
f 1 34 37
f 1 37 46
f 1 46 54
f 1 54 53
f 1 53 61
f 1 61 60
f 1 60 68
f 1 68 67
f 1 67 66
f 1 66 69
f 1 69 63
f 1 63 62
f 1 62 55
f 1 55 48
f 1 48 42
f 1 42 41
f 1 41 40
f 1 40 39
f 1 39 32
f 1 32 26
f 1 26 25
f 1 25 20
f 1 20 18
f 1 18 12
f 1 12 6
f 1 6 2
f 2 6 7
f 2 7 3
f 3 7 8
f 3 8 9
f 3 9 4
f 5 11 16
f 5 16 10
f 6 12 7
f 7 13 14
f 7 14 8
f 7 12 13
f 8 14 21
f 8 21 27
f 8 27 33
f 8 33 43
f 8 43 50
f 8 50 57
f 8 57 65
f 8 65 58
f 8 58 51
f 8 51 44
f 8 44 35
f 8 35 29
f 8 29 23
f 8 23 16
f 8 16 11
f 8 11 9
f 10 16 17
f 10 17 15
f 12 18 13
f 13 19 21
f 13 21 14
f 13 18 20
f 13 20 19
f 15 17 23
f 15 23 22
f 16 23 17
f 19 24 27
f 19 27 21
f 19 20 25
f 19 25 26
f 19 26 24
f 22 23 28
f 23 29 30
f 23 30 28
f 24 31 27
f 24 26 32
f 24 32 31
f 27 31 33
f 28 30 34
f 29 35 36
f 29 36 30
f 30 36 37
f 30 37 34
f 31 38 33
f 31 32 39
f 31 39 40
f 31 40 41
f 31 41 42
f 31 42 38
f 33 38 43
f 35 44 45
f 35 45 36
f 36 45 46
f 36 46 37
f 38 42 47
f 38 47 43
f 42 48 49
f 42 49 47
f 43 47 49
f 43 49 50
f 44 51 52
f 44 52 45
f 45 52 53
f 45 53 54
f 45 54 46
f 48 55 49
f 49 55 56
f 49 56 57
f 49 57 50
f 51 58 59
f 51 59 60
f 51 60 61
f 51 61 52
f 52 61 53
f 55 62 56
f 56 62 63
f 56 63 64
f 56 64 57
f 57 64 65
f 58 65 66
f 58 66 67
f 58 67 68
f 58 68 59
f 59 68 60
f 63 69 64
f 64 69 65
f 65 69 66

