# https://github.com/mikedh/trimesh
v 15.00000060 50.00000000 -14.99077827
v -15.00000060 50.00000000 -14.99077827
v 15.00000060 19.99590844 -14.99077827
v 15.00000060 50.00000000 -49.99657273
v -15.00000060 50.00000000 -49.99657273
v -15.00000060 19.99590844 -14.99077827
v 15.00000060 -19.96617317 -15.00448585
v 15.00000060 19.92742121 -50.00000000
v -15.00000060 19.92742121 -50.00000000
v -15.00000060 -19.96617317 -15.00448585
v 15.00000060 -19.96617317 -50.00000000
v -15.00000060 -19.96617317 -50.00000000
f 1 2 6
f 1 6 3
f 1 3 7
f 1 7 11
f 1 11 8
f 1 8 4
f 1 4 5
f 1 5 2
f 2 5 9
f 2 9 12
f 2 12 10
f 2 10 6
f 3 6 10
f 3 10 7
f 4 8 9
f 4 9 5
f 7 10 12
f 7 12 11
f 8 11 12
f 8 12 9

