# https://github.com/mikedh/trimesh
v -15.00000060 -49.99706149 -49.99657273
v -15.00000060 -19.97008175 -49.99657273
v 7.20006227 -49.99706149 -49.99657273
v -15.00000060 -49.99706149 -14.99077529
v 7.20006227 -19.97008175 -49.99657273
v -15.00000060 -19.97008175 -15.00105709
v 7.20006227 -49.99706149 -14.99077529
v -15.00000060 -20.00241578 -14.99077529
v 7.20006227 -19.97008175 -15.00105709
v 7.20006227 -20.00241578 -14.99077529
f 1 2 5
f 1 5 3
f 1 3 7
f 1 7 4
f 1 4 8
f 1 8 6
f 1 6 2
f 2 6 9
f 2 9 5
f 3 5 9
f 3 9 10
f 3 10 7
f 4 7 10
f 4 10 8
f 6 8 10
f 6 10 9

