# https://github.com/mikedh/trimesh
v -77.99804270 -14.99706432 -50.00000167
v -77.99804270 14.99706432 -50.00000167
v -58.00065207 -14.99706432 -50.00000167
v -77.99804270 -14.99706432 16.99344367
v -58.00065207 14.99706432 -50.00000167
v -77.99804270 14.99706432 16.99344367
v -57.96731758 -14.99706432 1.99451968
v -57.96731758 -14.99706432 16.99344367
v -57.96731758 14.99706432 1.99451968
v -57.96731758 14.99706432 16.99344367
f 1 2 5
f 1 5 3
f 1 3 7
f 1 7 8
f 1 8 4
f 1 4 6
f 1 6 2
f 2 6 10
f 2 10 9
f 2 9 5
f 3 5 9
f 3 9 7
f 4 8 10
f 4 10 6
f 7 9 10
f 7 10 8

