# https://github.com/mikedh/trimesh
v 1.44651486 7.35549033 -33.10493827
v 1.53110093 7.33964741 -33.10493827
v 1.44651486 7.35549033 -43.58580709
v 1.44651486 -7.35549033 -33.10493827
v 1.66895054 7.31084198 -33.10493827
v 1.61661729 7.32236430 -43.58580709
v 1.44651486 -7.35549033 -43.58580709
v 1.47822490 -7.34972954 -43.58580709
v 1.53017053 -7.33964741 -33.10493827
v 1.80524960 7.27627501 -33.10493827
v 1.72066353 7.29787946 -43.58580709
v 1.66895054 7.31084198 -43.58580709
v 1.63716301 7.31804296 -43.58580709
v 1.53094586 -7.33964741 -43.58580709
v 1.66895054 -7.31084198 -33.10493827
v 2.03125160 7.21866414 -33.10493827
v 2.03125160 7.21866414 -43.58580709
v 1.66895054 -7.31084198 -43.58580709
v 1.72058605 -7.29787946 -43.58580709
v 1.80641245 -7.27627501 -43.58580709
v 1.80501696 -7.27627501 -33.10493827
v 2.23849136 7.15529174 -33.10493827
v 2.23849136 7.15529174 -43.58580709
v 2.03117412 -7.21866414 -43.58580709
v 2.03101914 -7.21866414 -33.10493827
v 2.23849136 -7.15529174 -33.10493827
v 2.23849136 -7.15529174 -43.58580709
f 1 2 3
f 1 3 7
f 1 7 4
f 1 4 9
f 1 9 15
f 1 15 21
f 1 21 25
f 1 25 26
f 1 26 22
f 1 22 16
f 1 16 10
f 1 10 5
f 1 5 2
f 2 5 6
f 2 6 3
f 3 6 13
f 3 13 12
f 3 12 11
f 3 11 17
f 3 17 23
f 3 23 27
f 3 27 24
f 3 24 20
f 3 20 19
f 3 19 18
f 3 18 14
f 3 14 8
f 3 8 7
f 4 7 8
f 4 8 9
f 5 10 11
f 5 11 12
f 5 12 13
f 5 13 6
f 8 14 9
f 9 14 15
f 10 16 11
f 11 16 17
f 14 18 15
f 15 18 19
f 15 19 20
f 15 20 21
f 16 22 23
f 16 23 17
f 20 24 25
f 20 25 21
f 22 26 27
f 22 27 23
f 24 27 26
f 24 26 25

