# https://github.com/mikedh/trimesh
v 4.11813036 -6.44798726 -4.99969274
v 4.11813036 -6.26628622 -5.08056730
v 5.74803464 -6.44798726 -4.99969274
v 4.11813036 -6.44798726 50.00000000
v 4.11813036 0.47834069 -5.08056730
v 4.37753126 -6.08933121 -5.08056730
v 4.67568263 -5.86356148 -5.08056730
v 4.96198460 -5.62355369 -5.08056730
v 5.23627773 -5.36930785 -5.08056730
v 5.49728014 -5.10150269 -5.08056730
v 5.74483201 -4.82081547 -5.08056730
v 5.75379916 -4.80996743 -5.07517606
v 5.75379916 -6.44798726 12.32351214
v 5.75379916 -6.44798726 50.00000000
v 4.11813036 0.47834069 50.00000000
v 5.75379916 0.47834069 -5.08056730
v 5.75379916 -4.68589589 -5.08056730
v 5.75379916 0.47834069 50.00000000
f 1 2 3
f 1 3 13
f 1 13 14
f 1 14 4
f 1 4 15
f 1 15 5
f 1 5 2
f 2 5 16
f 2 16 17
f 2 17 11
f 2 11 10
f 2 10 9
f 2 9 8
f 2 8 7
f 2 7 6
f 2 6 3
f 3 6 7
f 3 7 8
f 3 8 9
f 3 9 10
f 3 10 11
f 3 11 12
f 3 12 13
f 4 14 18
f 4 18 15
f 5 15 18
f 5 18 16
f 11 17 12
f 12 17 16
f 12 16 18
f 12 18 14
f 12 14 13

