# https://github.com/mikedh/trimesh
v 0.01493250 -7.49766529 -23.23541790
v 0.18700454 -7.49766529 -23.23541790
v 0.01493250 -7.49766529 -5.08056730
v 0.01493250 -3.17777097 -23.23541790
v 0.56057465 -7.47863501 -23.23541790
v 0.18700454 -7.49766529 -5.08056730
v 0.01493250 -3.17777097 -5.08056730
v 1.44629721 -3.17777097 -23.23541790
v 0.78211036 -7.45664388 -23.23541790
v 0.56057465 -7.47863501 -5.08056730
v 1.44629721 -3.17777097 -5.08056730
v 1.44629721 -7.35684037 -23.23541790
v 0.93246326 -7.44141936 -23.23541790
v 0.93246326 -7.44141936 -5.08056730
v 1.44629721 -7.35684037 -5.08056730
v 1.38814589 -7.36868158 -23.23541790
v 1.15287807 -7.40843415 -23.23541790
v 1.30225001 -7.38601983 -5.08056730
v 1.30225001 -7.38601983 -23.23541790
f 1 2 6
f 1 6 3
f 1 3 7
f 1 7 4
f 1 4 8
f 1 8 12
f 1 12 16
f 1 16 19
f 1 19 17
f 1 17 13
f 1 13 9
f 1 9 5
f 1 5 2
f 2 5 10
f 2 10 6
f 3 6 10
f 3 10 14
f 3 14 18
f 3 18 15
f 3 15 11
f 3 11 7
f 4 7 11
f 4 11 8
f 5 9 10
f 8 11 15
f 8 15 12
f 9 13 14
f 9 14 10
f 12 15 16
f 13 17 14
f 14 17 18
f 15 18 16
f 16 18 19
f 17 19 18

