# https://github.com/mikedh/trimesh
v 2.23887451 7.15436637 -33.10493827
v 2.38911714 7.10813701 -33.10493827
v 2.23887451 7.15576708 -43.58580709
v 2.23887451 -7.15436637 -33.10493827
v 2.74019446 6.98065534 -33.10493827
v 2.69017741 6.99886680 -43.58580709
v 2.38892548 7.10813701 -43.58580709
v 2.23887451 -7.15576708 -43.58580709
v 2.25420538 -7.15016350 -33.10493827
v 2.74019446 6.98065534 -43.58580709
v 3.08494791 6.83496222 -33.10493827
v 2.95406040 6.89099804 -43.58580709
v 2.38892548 -7.10813701 -43.58580709
v 2.38892548 -7.10813701 -33.10493827
v 3.21142785 6.77472427 -33.10493827
v 3.08494791 6.83496222 -43.58580709
v 2.74019446 -6.98065534 -43.58580709
v 2.52077114 -7.06050619 -33.10493827
v 3.42107750 6.67385980 -33.10493827
v 3.42126936 6.67385980 -43.58580709
v 3.08475625 -6.83496222 -43.58580709
v 2.86974050 -6.92602098 -33.10493827
v 2.74000280 -6.98065534 -33.10493827
v 3.74973342 6.49454519 -33.10493827
v 3.74973342 6.49454519 -43.58580709
v 3.21257748 -6.77332282 -43.58580709
v 3.08456458 -6.83496222 -33.10493827
v 4.06880751 6.29982129 -33.10493827
v 3.94769348 6.37406856 -43.58580709
v 3.42126936 -6.67245910 -43.58580709
v 3.42107750 -6.67245910 -33.10493827
v 4.19643745 6.21296540 -33.10493827
v 4.06880751 6.29982129 -43.58580709
v 3.54602449 -6.60521612 -43.58580709
v 3.74954194 -6.49454519 -33.10493827
v 4.19643745 6.21296540 -43.58580709
v 4.19643745 -6.21156469 -33.10493827
v 3.74973342 -6.49454519 -43.58580709
v 4.06861603 -6.29982129 -33.10493827
v 4.19643745 -6.21156469 -43.58580709
v 4.06880751 -6.29982129 -43.58580709
f 1 2 3
f 1 3 8
f 1 8 4
f 1 4 9
f 1 9 14
f 1 14 18
f 1 18 23
f 1 23 22
f 1 22 27
f 1 27 31
f 1 31 35
f 1 35 39
f 1 39 37
f 1 37 32
f 1 32 28
f 1 28 24
f 1 24 19
f 1 19 15
f 1 15 11
f 1 11 5
f 1 5 2
f 2 5 6
f 2 6 7
f 2 7 3
f 3 7 6
f 3 6 10
f 3 10 12
f 3 12 16
f 3 16 20
f 3 20 25
f 3 25 29
f 3 29 33
f 3 33 36
f 3 36 40
f 3 40 41
f 3 41 38
f 3 38 34
f 3 34 30
f 3 30 26
f 3 26 21
f 3 21 17
f 3 17 13
f 3 13 8
f 4 8 9
f 5 10 6
f 5 11 12
f 5 12 10
f 8 13 14
f 8 14 9
f 11 15 16
f 11 16 12
f 13 17 18
f 13 18 14
f 15 19 20
f 15 20 16
f 17 21 22
f 17 22 23
f 17 23 18
f 19 24 20
f 20 24 25
f 21 26 27
f 21 27 22
f 24 28 29
f 24 29 25
f 26 30 31
f 26 31 27
f 28 32 36
f 28 36 33
f 28 33 29
f 30 34 31
f 31 34 35
f 32 37 40
f 32 40 36
f 34 38 35
f 35 38 41
f 35 41 39
f 37 39 41
f 37 41 40

