# https://github.com/mikedh/trimesh
v -3.56121026 -9.99293625 -4.99430299
v -3.56121026 -9.99293625 50.00000000
v -5.79238385 -9.98805612 -4.99430299
v -3.56121026 -6.59747571 -5.08056879
v -3.56121026 6.62806332 50.00000000
v -5.79238385 -9.98805612 50.00000000
v -5.85826449 -9.87254083 -4.99430299
v -5.85826449 -4.67766598 -5.08056879
v -5.74516580 -4.82083820 -5.08056879
v -5.49828187 -5.09904772 -5.08056879
v -5.23655787 -5.36912270 -5.08056879
v -4.96291704 -5.62292822 -5.08056879
v -4.67690937 -5.86209074 -5.08056879
v -4.37898487 -6.08823784 -5.08056879
v -4.06981781 -6.29974306 -5.08056879
v -3.75098251 -6.49497733 -5.08056879
v -3.56121026 6.59715086 -5.08056879
v -5.85826449 6.62806332 50.00000000
v -3.56121026 6.62806332 -4.99430299
v -5.85826449 -9.87254083 50.00000000
v -5.85826449 4.67734076 -5.08056879
v -3.75008322 6.49465173 -5.08056879
v -5.85826449 6.62806332 -4.99430299
v -5.74449115 4.82051261 -5.08056879
v -4.06936817 6.29941672 -5.08056879
v -4.37831059 6.08791299 -5.08056879
v -4.67645973 5.86176552 -5.08056879
v -4.96246740 5.62260263 -5.08056879
v -5.23655787 5.36717065 -5.08056879
v -5.49760722 5.09872250 -5.08056879
f 1 2 6
f 1 6 3
f 1 3 4
f 1 4 17
f 1 17 19
f 1 19 5
f 1 5 2
f 2 5 18
f 2 18 20
f 2 20 6
f 3 6 20
f 3 20 7
f 3 7 8
f 3 8 9
f 3 9 10
f 3 10 11
f 3 11 12
f 3 12 13
f 3 13 14
f 3 14 15
f 3 15 16
f 3 16 4
f 4 16 15
f 4 15 14
f 4 14 13
f 4 13 12
f 4 12 11
f 4 11 10
f 4 10 9
f 4 9 8
f 4 8 21
f 4 21 24
f 4 24 30
f 4 30 29
f 4 29 28
f 4 28 27
f 4 27 26
f 4 26 25
f 4 25 22
f 4 22 17
f 5 19 23
f 5 23 18
f 7 20 18
f 7 18 23
f 7 23 21
f 7 21 8
f 17 22 23
f 17 23 19
f 21 23 24
f 22 25 23
f 23 25 26
f 23 26 27
f 23 27 28
f 23 28 29
f 23 29 30
f 23 30 24

