# https://github.com/mikedh/trimesh
v -0.02330765 -9.99997258 -4.99969274
v -0.02330765 -9.99997258 50.00000000
v -3.56121026 -9.99213904 -4.99969274
v -0.18711239 -7.49717131 -5.08056730
v -0.02330765 -7.49717131 -5.08056730
v -0.02330765 9.99893397 50.00000000
v -3.56121026 -9.99213904 50.00000000
v -3.56121026 -6.59632012 -5.08056730
v -3.42199355 -6.67269677 -5.08056730
v -3.08399498 -6.83524162 -5.08056730
v -2.73976289 -6.98016137 -5.08056730
v -2.38895100 -7.10745528 -5.08056730
v -2.03121286 -7.21908286 -5.08056730
v -1.66897252 -7.31112584 -5.08056730
v -1.30257662 -7.38554448 -5.08056730
v -0.93271760 -7.44037852 -5.08056730
v -0.56078071 -7.47758746 -5.08056730
v -0.02330765 7.49613270 -5.08056730
v -3.56121026 10.00676751 50.00000000
v -0.02330765 9.99893397 -4.99969274
v -3.56121026 6.59723952 -5.08056730
v -0.18711239 7.49613270 -5.08056730
v -3.56121026 10.00676751 -4.99969274
v -3.42130102 6.67361617 -5.08056730
v -0.56078071 7.47850761 -5.08056730
v -0.93271760 7.44129866 -5.08056730
v -1.30257662 7.38450587 -5.08056730
v -1.66897252 7.31008723 -5.08056730
v -2.03121286 7.21804425 -5.08056730
v -2.38860473 7.10837543 -5.08056730
v -2.73976289 6.98108077 -5.08056730
v -3.08434144 6.83616102 -5.08056730
f 1 2 7
f 1 7 3
f 1 3 4
f 1 4 5
f 1 5 18
f 1 18 20
f 1 20 6
f 1 6 2
f 2 6 19
f 2 19 7
f 3 7 19
f 3 19 23
f 3 23 21
f 3 21 8
f 3 8 9
f 3 9 10
f 3 10 11
f 3 11 12
f 3 12 13
f 3 13 14
f 3 14 15
f 3 15 16
f 3 16 17
f 3 17 4
f 4 17 16
f 4 16 15
f 4 15 14
f 4 14 13
f 4 13 12
f 4 12 11
f 4 11 10
f 4 10 9
f 4 9 8
f 4 8 21
f 4 21 24
f 4 24 32
f 4 32 31
f 4 31 30
f 4 30 29
f 4 29 28
f 4 28 27
f 4 27 26
f 4 26 25
f 4 25 22
f 4 22 18
f 4 18 5
f 6 20 23
f 6 23 19
f 18 22 23
f 18 23 20
f 21 23 24
f 22 25 23
f 23 25 26
f 23 26 27
f 23 27 28
f 23 28 29
f 23 29 30
f 23 30 31
f 23 31 32
f 23 32 24

