# https://github.com/mikedh/trimesh
v 1.44643746 7.35674426 -23.23803604
v 1.44643746 3.85334417 -23.23803604
v 1.44643746 7.35674426 -50.00000000
v 1.36049967 7.37422556 -23.23803604
v -2.54420489 3.85334417 -23.23803604
v 1.44643746 3.85334417 -50.00000000
v 1.30229630 7.38599896 -50.00000000
v 1.30229630 7.38599896 -23.23803604
v -2.54420489 3.85334417 -50.00000000
v -2.54420489 7.05278367 -23.23803604
v 0.93237273 7.44165331 -50.00000000
v 1.08198281 7.41917789 -23.23803604
v -2.54420489 7.05278367 -50.00000000
v -2.38834489 7.10915178 -23.23803604
v 0.56010545 7.47875720 -50.00000000
v 0.71049673 7.46377259 -23.23803604
v 0.93237273 7.44165331 -23.23803604
v -2.38834489 7.10915178 -50.00000000
v -2.24420354 7.15374723 -23.23803604
v 0.18666633 7.49730840 -50.00000000
v 0.33783889 7.48981684 -23.23803604
v 0.56010545 7.47875720 -23.23803604
v -2.03092154 7.21939132 -50.00000000
v -2.03092154 7.21939132 -23.23803604
v -0.18716343 7.49730840 -50.00000000
v 0.18666633 7.49730840 -23.23803604
v -1.66881047 7.31179267 -50.00000000
v -1.88482702 7.25685135 -23.23803604
v -0.56021195 7.47875720 -50.00000000
v -0.40982068 7.48624876 -23.23803604
v -0.18716343 7.49730840 -23.23803604
v -1.30201206 7.38599896 -50.00000000
v -1.66881047 7.31179267 -23.23803604
v -0.93247918 7.44165331 -50.00000000
v -0.56021195 7.47875720 -23.23803604
v -1.30201206 7.38599896 -23.23803604
v -1.15279257 7.40847513 -23.23803604
v -0.93247918 7.44165331 -23.23803604
f 1 2 6
f 1 6 3
f 1 3 4
f 1 4 8
f 1 8 12
f 1 12 17
f 1 17 16
f 1 16 22
f 1 22 21
f 1 21 26
f 1 26 31
f 1 31 30
f 1 30 35
f 1 35 38
f 1 38 37
f 1 37 36
f 1 36 33
f 1 33 28
f 1 28 24
f 1 24 19
f 1 19 14
f 1 14 10
f 1 10 5
f 1 5 2
f 2 5 9
f 2 9 6
f 3 6 9
f 3 9 13
f 3 13 18
f 3 18 23
f 3 23 27
f 3 27 32
f 3 32 34
f 3 34 29
f 3 29 25
f 3 25 20
f 3 20 15
f 3 15 11
f 3 11 7
f 3 7 4
f 4 7 8
f 5 10 13
f 5 13 9
f 7 11 12
f 7 12 8
f 10 14 18
f 10 18 13
f 11 15 16
f 11 16 17
f 11 17 12
f 14 19 18
f 15 20 21
f 15 21 22
f 15 22 16
f 18 19 23
f 19 24 23
f 20 25 31
f 20 31 26
f 20 26 21
f 23 24 28
f 23 28 27
f 25 29 30
f 25 30 31
f 27 28 33
f 27 33 36
f 27 36 32
f 29 34 38
f 29 38 35
f 29 35 30
f 32 36 37
f 32 37 34
f 34 37 38

