# https://github.com/mikedh/trimesh
v 0.01493245 7.49730170 -5.08369580
v -0.18707123 7.49730170 -5.08369580
v 0.01493245 3.78101170 -5.08369580
v 0.01493245 7.49730170 -23.23541641
v -0.56058764 7.47838542 -5.08369580
v -0.18707123 7.49730170 -23.23541641
v -0.41003767 7.48602450 -23.23541641
v -6.47459701 3.78101170 -5.08369580
v 0.01493245 3.78101170 -23.23541641
v -0.65015536 7.46965483 -18.91205460
v -0.93283355 7.44128078 -5.08369580
v -0.56058764 7.47838542 -23.23541641
v -6.39963970 3.91124189 -5.08369580
v -6.47459701 3.78101170 -23.23541641
v -0.93283355 7.44128078 -23.23541641
v -1.30317379 7.38562346 -5.08369580
v -1.15389433 7.40817785 -23.23541641
v -6.19636551 4.22590449 -5.08369580
v -6.39963970 3.91124189 -23.23541641
v -1.55663136 7.33433217 -18.91205460
v -1.66970268 7.31141418 -5.08369580
v -1.30317379 7.38562346 -23.23541641
v -5.97784556 4.52965349 -5.08369580
v -6.19636551 4.22590449 -23.23541641
v -1.66970268 7.31141418 -23.23541641
v -1.91998407 7.24775419 -18.91205460
v -2.03242004 7.21901655 -5.08369580
v -5.74471578 4.82176207 -5.08369580
v -5.88383153 4.64751571 -23.23541641
v -5.97784556 4.52928990 -23.23541641
v -2.03242004 7.21901655 -23.23541641
v -2.27952525 7.14298785 -18.91205460
v -2.38942038 7.10879341 -5.08369580
v -5.49697503 5.10186628 -5.08369580
v -5.55668697 5.03493212 -18.91205460
v -5.64498417 4.93489504 -23.23541641
v -5.74471578 4.82176207 -23.23541641
v -2.24522278 7.15353787 -23.23541641
v -2.38942038 7.10879341 -23.23541641
v -2.49740984 7.06950650 -18.91205460
v -2.74006836 6.98110983 -5.08369580
v -5.23652993 5.36923818 -5.08369580
v -5.39216176 5.20990640 -23.23541641
v -5.49697503 5.10186628 -23.23541641
v -2.74006836 6.98110983 -23.23541641
v -2.82264855 6.94655180 -18.91205460
v -2.97955088 6.88070878 -18.91205460
v -3.08499932 6.83596507 -5.08369580
v -4.96210977 5.62387817 -5.08369580
v -5.23652993 5.36923818 -23.23541641
v -5.29878289 5.30557819 -18.91205460
v -2.94588357 6.89453185 -23.23541641
v -3.08499932 6.83596507 -23.23541641
v -3.42040174 6.67372271 -5.08369580
v -4.67498489 5.86323999 -5.08369580
v -4.83252257 5.73228225 -18.91205460
v -4.96210977 5.62387817 -23.23541641
v -3.42040174 6.67372271 -23.23541641
v -3.49917077 6.63116127 -18.91205460
v -3.74945216 6.49474710 -5.08369580
v -4.37706113 6.08914196 -5.08369580
v -4.55556139 5.95454648 -23.23541641
v -4.67498489 5.86323999 -23.23541641
v -4.79186773 5.76611310 -23.23541641
v -3.74945216 6.49474710 -23.23541641
v -4.06897366 6.29976541 -5.08369580
v -3.94002162 6.37870431 -23.23541641
v -4.14266065 6.24956526 -18.91205460
v -4.37706113 6.08914196 -23.23541641
v -4.06897366 6.29976541 -23.23541641
v -4.25255559 6.17426448 -23.23541641
f 1 2 5
f 1 5 11
f 1 11 16
f 1 16 21
f 1 21 27
f 1 27 33
f 1 33 41
f 1 41 48
f 1 48 54
f 1 54 60
f 1 60 66
f 1 66 61
f 1 61 55
f 1 55 49
f 1 49 42
f 1 42 34
f 1 34 28
f 1 28 23
f 1 23 18
f 1 18 13
f 1 13 8
f 1 8 3
f 1 3 9
f 1 9 4
f 1 4 6
f 1 6 2
f 2 6 7
f 2 7 5
f 3 8 14
f 3 14 9
f 4 9 14
f 4 14 19
f 4 19 24
f 4 24 30
f 4 30 29
f 4 29 37
f 4 37 36
f 4 36 44
f 4 44 43
f 4 43 50
f 4 50 57
f 4 57 64
f 4 64 63
f 4 63 62
f 4 62 69
f 4 69 71
f 4 71 70
f 4 70 67
f 4 67 65
f 4 65 58
f 4 58 53
f 4 53 52
f 4 52 45
f 4 45 39
f 4 39 38
f 4 38 31
f 4 31 25
f 4 25 22
f 4 22 17
f 4 17 15
f 4 15 12
f 4 12 7
f 4 7 6
f 5 10 11
f 5 7 12
f 5 12 10
f 8 13 19
f 8 19 14
f 10 12 15
f 10 15 11
f 11 15 17
f 11 17 16
f 13 18 24
f 13 24 19
f 16 20 21
f 16 17 22
f 16 22 20
f 18 23 24
f 20 22 25
f 20 25 21
f 21 26 27
f 21 25 26
f 23 28 29
f 23 29 30
f 23 30 24
f 25 31 26
f 26 31 27
f 27 32 33
f 27 31 32
f 28 34 35
f 28 35 36
f 28 36 37
f 28 37 29
f 31 38 32
f 32 38 39
f 32 39 33
f 33 40 41
f 33 39 40
f 34 42 43
f 34 43 44
f 34 44 35
f 35 44 36
f 39 45 40
f 40 45 41
f 41 46 47
f 41 47 48
f 41 45 46
f 42 49 57
f 42 57 50
f 42 50 51
f 42 51 43
f 43 51 50
f 45 52 47
f 45 47 46
f 47 52 53
f 47 53 48
f 48 53 58
f 48 58 54
f 49 55 56
f 49 56 57
f 54 59 60
f 54 58 59
f 55 61 62
f 55 62 63
f 55 63 64
f 55 64 56
f 56 64 57
f 58 65 59
f 59 65 60
f 60 65 67
f 60 67 66
f 61 66 68
f 61 68 69
f 61 69 62
f 66 67 70
f 66 70 68
f 68 70 71
f 68 71 69

