# https://github.com/mikedh/trimesh
v -6.36425763 -1.42134689 -5.08056581
v -6.36425763 3.96518148 -5.08056581
v -5.85826486 -1.42134689 -5.08056581
v -6.36425763 -1.42134689 25.11229515
v -6.19638562 4.22508419 -5.08056581
v -6.36425763 4.71067615 -4.99781221
v -5.85826486 4.67886329 -5.08056581
v -5.85826486 -1.42134689 25.11229515
v -6.36425763 4.71067615 25.11229515
v -5.97808808 4.52880412 -5.08056581
v -5.85826486 4.71067615 -4.99781221
v -5.85826486 4.71067615 25.11229515
f 1 2 5
f 1 5 10
f 1 10 7
f 1 7 3
f 1 3 8
f 1 8 4
f 1 4 9
f 1 9 6
f 1 6 2
f 2 6 5
f 3 7 11
f 3 11 12
f 3 12 8
f 4 8 12
f 4 12 9
f 5 6 10
f 6 11 7
f 6 7 10
f 6 9 12
f 6 12 11

