# https://github.com/mikedh/trimesh
v 0.01493250 -3.17734778 -23.23541790
v 1.44629721 -3.17734778 -23.23541790
v 0.01493250 -3.17734778 -5.08056730
v 0.01493250 7.49766529 -23.23541790
v 1.44629721 7.35659972 -23.23541790
v 1.44629721 -3.17734778 -5.08056730
v 0.01493250 7.49766529 -5.08056730
v 0.18700454 7.49766529 -23.23541790
v 1.30225001 7.38585740 -23.23541790
v 1.44629721 7.35659972 -5.08056730
v 0.18700454 7.49766529 -5.08056730
v 0.56057465 7.47885630 -23.23541790
v 0.93246326 7.44123906 -23.23541790
v 1.30225001 7.38585740 -5.08056730
v 0.56057465 7.47885630 -5.08056730
v 0.93246326 7.44123906 -5.08056730
f 1 2 6
f 1 6 3
f 1 3 7
f 1 7 4
f 1 4 8
f 1 8 12
f 1 12 13
f 1 13 9
f 1 9 5
f 1 5 2
f 2 5 10
f 2 10 6
f 3 6 10
f 3 10 14
f 3 14 16
f 3 16 15
f 3 15 11
f 3 11 7
f 4 7 11
f 4 11 8
f 5 9 14
f 5 14 10
f 8 11 15
f 8 15 12
f 9 13 16
f 9 16 14
f 12 15 16
f 12 16 13

