# https://github.com/mikedh/trimesh
v 5.75395897 -6.44814745 50.00000000
v -0.02330765 -6.44814745 50.00000000
v 5.75395897 -8.08864310 50.00000000
v 5.75395897 -6.44814745 12.32890189
v -0.02330765 -8.08864310 50.00000000
v -0.02330765 -6.44814745 -5.08056879
v 5.75395897 -10.01092419 49.99460876
v 5.75395897 -9.68728885 -4.98891175
v 5.74773848 -6.44814745 -4.99430299
v -0.02330765 -9.99941528 49.99460876
v 3.82612981 -6.44814745 -5.08056879
v -0.02330765 -7.49786943 -5.08056879
v -0.02330765 -9.99976397 29.99716997
v 5.75395897 -10.01092419 49.98921752
v 5.75395897 -10.00987813 -4.98891175
v 5.75056598 -8.08864310 -4.99430299
v 3.74922045 -6.49557710 -5.08056879
v 0.18706266 -7.49786943 -5.08056879
v -0.02330765 -9.99976397 -4.98891175
v 0.56086574 -7.47903734 -5.08056879
v 0.93297251 -7.44206980 -5.08056879
v 1.30281709 -7.38627091 -5.08056879
v 1.66926868 -7.31198788 -5.08056879
v 2.03119591 -7.22026825 -5.08056879
v 2.38916483 -7.10971653 -5.08056879
v 2.73978207 -6.98207542 -5.08056879
v 3.08361314 -6.83664903 -5.08056879
v 3.42065804 -6.67448267 -5.08056879
f 1 2 5
f 1 5 3
f 1 3 7
f 1 7 14
f 1 14 15
f 1 15 8
f 1 8 4
f 1 4 9
f 1 9 11
f 1 11 6
f 1 6 2
f 2 6 12
f 2 12 19
f 2 19 13
f 2 13 10
f 2 10 5
f 3 5 7
f 4 8 9
f 5 10 7
f 6 11 17
f 6 17 28
f 6 28 27
f 6 27 26
f 6 26 25
f 6 25 24
f 6 24 23
f 6 23 22
f 6 22 21
f 6 21 20
f 6 20 18
f 6 18 12
f 7 10 13
f 7 13 19
f 7 19 14
f 8 15 16
f 8 16 9
f 9 16 11
f 11 16 15
f 11 15 17
f 12 18 15
f 12 15 19
f 14 19 15
f 15 18 20
f 15 20 21
f 15 21 22
f 15 22 23
f 15 23 24
f 15 24 25
f 15 25 26
f 15 26 27
f 15 27 28
f 15 28 17

