# https://github.com/mikedh/trimesh
v -0.18735863 -7.49766529 -23.23541790
v 0.01493245 -7.49766529 -23.23541790
v -0.18735863 -7.49766529 -5.08056730
v -0.56104548 -7.47889727 -23.23541790
v 0.01493245 3.78101170 -23.23541790
v 0.01493245 -7.49766529 -5.08056730
v -0.56104548 -7.47889727 -5.08056730
v -0.93252584 -7.44025633 -23.23541790
v -6.47383258 3.78101170 -23.23541790
v 0.01493245 3.78101170 -5.08056730
v -0.93252584 -7.44025633 -5.08056730
v -1.30253471 -7.38505572 -23.23541790
v -6.58490881 3.58670428 -23.23541790
v -6.47383258 3.78101170 -5.08056730
v -1.30253471 -7.38505572 -5.08056730
v -1.66886561 -7.31108636 -23.23541790
v -6.68789297 3.38798054 -23.23541790
v -6.58490881 3.58670428 -5.08056730
v -1.66886561 -7.31108636 -5.08056730
v -1.75125320 -7.29121342 -23.23541790
v -6.75630420 3.25329006 -23.23541790
v -6.75556883 3.25329006 -5.08056730
v -1.75125320 -7.29121342 -5.08056730
v -2.03298964 -7.21834823 -23.23541790
v -6.91004544 2.91214734 -23.23541790
v -6.91004544 2.91214734 -5.08056730
v -2.03298964 -7.21834823 -5.08056730
v -2.39049345 -7.10794628 -23.23541790
v -7.04686791 2.56438069 -23.23541790
v -7.04686791 2.56438069 -5.08056730
v -2.39049345 -7.10794628 -5.08056730
v -2.53246501 -7.05716163 -23.23541790
v -7.11748600 2.35351287 -23.23541790
v -7.16530085 2.20999010 -5.08056730
v -2.74137668 -6.97987974 -5.08056730
v -2.74137668 -6.97987974 -23.23541790
v -7.16530085 2.20999010 -23.23541790
v -7.26754963 1.85007937 -5.08056730
v -7.22635537 1.99581012 -23.23541790
v -3.08563933 -6.83525279 -5.08056730
v -3.08563933 -6.83525279 -23.23541790
v -7.35067278 1.48575231 -5.08056730
v -7.26754963 1.85007937 -23.23541790
v -3.42328176 -6.67185783 -5.08056730
v -3.42328176 -6.67185783 -23.23541790
v -7.41467029 1.11590549 -5.08056730
v -7.35067278 1.48464851 -23.23541790
v -7.41540566 1.11590549 -23.23541790
v -3.75062563 -6.49190247 -5.08056730
v -3.75062563 -6.49411082 -23.23541790
v -7.46101290 0.74495450 -5.08056730
v -7.46101290 0.74495450 -23.23541790
v -4.06987779 -6.29759431 -5.08056730
v -4.06914204 -6.29759431 -23.23541790
v -7.48970211 0.37289932 -5.08056730
v -7.48970211 0.37289932 -23.23541790
v -4.37809601 -6.08783066 -5.08056730
v -4.19419482 -6.21368922 -23.23541790
v -7.50000030 -0.00246763 -5.08056730
v -7.50000030 -0.00246763 -23.23541790
v -4.67528030 -5.86261041 -5.08056730
v -4.37809601 -6.08783066 -23.23541790
v -7.48970211 -0.37452271 -5.08056730
v -7.48970211 -0.37452271 -23.23541790
v -4.96216565 -5.62193394 -5.08056730
v -4.67528030 -5.86261041 -23.23541790
v -7.46101290 -0.74878577 -5.08056730
v -7.46101290 -0.74878577 -23.23541790
v -5.23581058 -5.36690503 -5.08056730
v -5.07250652 -5.51926009 -23.23541790
v -4.96143028 -5.62193394 -23.23541790
v -7.41540566 -1.11973677 -5.08056730
v -7.41540566 -1.11973677 -23.23541790
v -5.49695008 -5.09862825 -5.08056730
v -5.39175868 -5.20682223 -23.23541790
v -5.23581058 -5.36690503 -23.23541790
v -7.34993666 -1.48847979 -5.08056730
v -7.34993666 -1.48847979 -23.23541790
v -5.74411303 -4.81820703 -5.08056730
v -5.49695008 -5.09862825 -23.23541790
v -7.26681352 -1.85059868 -5.08056730
v -7.26681352 -1.85059868 -23.23541790
v -5.97729981 -4.52564135 -5.08056730
v -5.74411303 -4.81820703 -23.23541790
v -7.16530085 -2.20940541 -5.08056730
v -7.22635537 -1.99522544 -23.23541790
v -6.10603020 -4.34789397 -5.08056730
v -5.97729981 -4.52564135 -23.23541790
v -7.04686791 -2.56379619 -5.08056730
v -7.16530085 -2.20940541 -23.23541790
v -6.19577393 -4.22313958 -5.08056730
v -6.10603020 -4.34789397 -23.23541790
v -6.91004544 -2.91266665 -5.08056730
v -7.04686791 -2.56379619 -23.23541790
v -6.39880076 -3.90849337 -5.08056730
v -6.19577393 -4.22313958 -23.23541790
v -6.75630420 -3.25270519 -5.08056730
v -6.91004544 -2.91266665 -23.23541790
v -6.58564419 -3.58501524 -5.08056730
v -6.39880076 -3.90849337 -23.23541790
v -6.75630420 -3.25270519 -23.23541790
v -6.58564419 -3.58501524 -23.23541790
f 1 2 6
f 1 6 3
f 1 3 7
f 1 7 4
f 1 4 8
f 1 8 12
f 1 12 16
f 1 16 20
f 1 20 24
f 1 24 28
f 1 28 32
f 1 32 36
f 1 36 41
f 1 41 45
f 1 45 50
f 1 50 54
f 1 54 58
f 1 58 62
f 1 62 66
f 1 66 71
f 1 71 70
f 1 70 76
f 1 76 75
f 1 75 80
f 1 80 84
f 1 84 88
f 1 88 92
f 1 92 96
f 1 96 100
f 1 100 102
f 1 102 101
f 1 101 98
f 1 98 94
f 1 94 90
f 1 90 86
f 1 86 82
f 1 82 78
f 1 78 73
f 1 73 68
f 1 68 64
f 1 64 60
f 1 60 56
f 1 56 52
f 1 52 48
f 1 48 47
f 1 47 43
f 1 43 39
f 1 39 37
f 1 37 33
f 1 33 29
f 1 29 25
f 1 25 21
f 1 21 17
f 1 17 13
f 1 13 9
f 1 9 5
f 1 5 2
f 2 5 10
f 2 10 6
f 3 6 10
f 3 10 14
f 3 14 18
f 3 18 22
f 3 22 26
f 3 26 30
f 3 30 34
f 3 34 38
f 3 38 42
f 3 42 46
f 3 46 51
f 3 51 55
f 3 55 59
f 3 59 63
f 3 63 67
f 3 67 72
f 3 72 77
f 3 77 81
f 3 81 85
f 3 85 89
f 3 89 93
f 3 93 97
f 3 97 99
f 3 99 95
f 3 95 91
f 3 91 87
f 3 87 83
f 3 83 79
f 3 79 74
f 3 74 69
f 3 69 65
f 3 65 61
f 3 61 57
f 3 57 53
f 3 53 49
f 3 49 44
f 3 44 40
f 3 40 35
f 3 35 31
f 3 31 27
f 3 27 23
f 3 23 19
f 3 19 15
f 3 15 11
f 3 11 7
f 4 7 11
f 4 11 8
f 5 9 14
f 5 14 10
f 8 11 15
f 8 15 12
f 9 13 18
f 9 18 14
f 12 15 19
f 12 19 16
f 13 17 18
f 16 19 23
f 16 23 20
f 17 21 22
f 17 22 18
f 20 23 27
f 20 27 24
f 21 25 26
f 21 26 22
f 24 27 31
f 24 31 28
f 25 29 30
f 25 30 26
f 28 31 32
f 29 33 30
f 30 33 34
f 31 35 32
f 32 35 36
f 33 37 34
f 34 37 39
f 34 39 38
f 35 40 41
f 35 41 36
f 38 39 43
f 38 43 42
f 40 44 45
f 40 45 41
f 42 43 47
f 42 47 48
f 42 48 46
f 44 49 50
f 44 50 45
f 46 48 51
f 48 52 51
f 49 53 50
f 50 53 54
f 51 52 56
f 51 56 55
f 53 57 58
f 53 58 54
f 55 56 60
f 55 60 59
f 57 61 66
f 57 66 62
f 57 62 58
f 59 60 64
f 59 64 63
f 61 65 66
f 63 64 68
f 63 68 67
f 65 69 70
f 65 70 71
f 65 71 66
f 67 68 73
f 67 73 72
f 69 74 75
f 69 75 76
f 69 76 70
f 72 73 78
f 72 78 77
f 74 79 84
f 74 84 80
f 74 80 75
f 77 78 82
f 77 82 81
f 79 83 88
f 79 88 84
f 81 82 86
f 81 86 85
f 83 87 92
f 83 92 88
f 85 86 90
f 85 90 94
f 85 94 89
f 87 91 96
f 87 96 92
f 89 94 98
f 89 98 93
f 91 95 100
f 91 100 96
f 93 98 101
f 93 101 97
f 95 99 102
f 95 102 100
f 97 101 102
f 97 102 99

