# https://github.com/mikedh/trimesh
v 5.33283912 -5.27060479 -33.44101608
v 5.23672998 -5.36908098 -49.99560416
v 5.33283912 -5.27060479 -49.99560416
v 5.33272773 -5.27060479 -5.08056730
v 5.23617342 -5.36954254 -5.08056730
v 4.96264063 -5.62344007 -49.99560416
v 4.19654846 -5.27060479 -49.99560416
v 4.19654846 -5.27060479 -5.08056730
v 4.96208444 -5.62380925 -5.08056730
v 4.67620417 -5.86367846 -49.99560416
v 4.67564799 -5.86414002 -5.08056730
v 4.19654846 -6.21328354 -49.99560416
v 4.19654846 -6.21328354 -5.08056730
v 4.37808782 -6.08951896 -49.99560416
v 4.37753163 -6.08988814 -5.08056730
f 1 2 3
f 1 3 7
f 1 7 8
f 1 8 4
f 1 4 5
f 1 5 2
f 2 6 10
f 2 10 14
f 2 14 12
f 2 12 7
f 2 7 3
f 2 5 6
f 4 8 13
f 4 13 15
f 4 15 11
f 4 11 9
f 4 9 5
f 5 9 6
f 6 9 11
f 6 11 10
f 7 12 13
f 7 13 8
f 10 11 14
f 11 15 14
f 12 14 13
f 13 14 15

