# https://github.com/mikedh/trimesh
v -6.36425763 -4.98976037 -4.99969274
v -6.36425763 -3.96527350 -5.08056730
v -6.19678199 -4.22480069 -5.08056730
v -5.97893037 -4.52799015 -5.08056730
v -5.85826486 -4.67923544 -5.08056730
v -5.85826486 -4.98976037 -4.99969274
v -6.36425763 -4.98976037 50.00000000
v -6.36425763 -1.42169613 -5.08056730
v -5.85826486 -1.42169613 -5.08056730
v -5.85826486 -4.98976037 50.00000000
v -6.36425763 -1.42169613 50.00000000
v -5.85826486 -1.42169613 50.00000000
f 1 2 3
f 1 3 4
f 1 4 5
f 1 5 6
f 1 6 10
f 1 10 7
f 1 7 11
f 1 11 8
f 1 8 2
f 2 8 9
f 2 9 5
f 2 5 4
f 2 4 3
f 5 9 12
f 5 12 10
f 5 10 6
f 7 10 12
f 7 12 11
f 8 11 12
f 8 12 9

