# https://github.com/mikedh/trimesh
v 4.19673175 2.07448434 -49.99560416
v 4.19643745 3.53581794 -49.99560416
v 7.20481575 2.07448434 -49.99560416
v 4.19673175 2.07448434 -5.08496314
v 4.19643745 6.21297099 -49.99560416
v 4.19643745 3.53581794 -5.08496314
v 7.16623962 2.21101586 -49.99560416
v 7.16653392 2.21020561 -5.08496314
v 7.20481575 2.07448434 -5.08496314
v 4.37812991 6.08899891 -49.99560416
v 4.19643745 6.21297099 -5.08496314
v 4.30774987 6.13761544 -39.73847926
v 7.04727024 2.56551187 -49.99560416
v 7.04756528 2.56470162 -5.08496314
v 4.40816656 6.06671609 -45.55509984
v 4.67643514 5.86333647 -49.99560416
v 4.37812991 6.08899891 -5.08496314
v 6.91063330 2.91352551 -49.99560416
v 6.91092759 2.91271526 -5.08496314
v 4.40816656 6.06671609 -45.55070400
v 4.67614084 5.86374179 -5.08496314
v 4.96355034 5.62308989 -49.99560416
v 6.75691590 3.25424671 -49.99560416
v 6.75721020 3.25384140 -5.08496314
v 4.96325567 5.62308989 -5.08496314
v 4.96355034 5.62308989 -39.73847926
v 5.23711964 5.36825806 -49.99560416
v 5.17439581 5.42700291 -39.73847926
v 6.58641383 3.58727053 -49.99560416
v 6.61026612 3.54148969 -45.55509984
v 6.58670813 3.58686522 -5.08496314
v 6.61026612 3.54148969 -45.55070400
v 5.23711964 5.36825806 -5.08496314
v 5.49802631 5.10086641 -49.99560416
v 6.39942065 3.91138084 -49.99560416
v 6.39942065 3.91057059 -5.08496314
v 6.39942065 3.91138084 -39.73847926
v 5.49802631 5.10086641 -5.08496314
v 5.74479811 4.82091606 -49.99560416
v 6.19652607 4.22495790 -49.99560416
v 6.19652607 4.22495790 -5.08496314
v 5.74479811 4.82091606 -5.08496314
v 5.95505498 4.55757640 -45.55509984
v 5.97772971 4.52840626 -49.99560416
v 5.94445355 4.57094572 -39.73847926
v 6.16531149 4.26871292 -39.73847926
v 5.97802401 4.52840626 -5.08496314
v 5.95505498 4.55757640 -45.55070400
v 5.97802401 4.52840626 -39.73847926
f 1 2 5
f 1 5 10
f 1 10 16
f 1 16 22
f 1 22 27
f 1 27 34
f 1 34 39
f 1 39 44
f 1 44 40
f 1 40 35
f 1 35 29
f 1 29 23
f 1 23 18
f 1 18 13
f 1 13 7
f 1 7 3
f 1 3 9
f 1 9 4
f 1 4 6
f 1 6 2
f 2 6 11
f 2 11 5
f 3 7 8
f 3 8 9
f 4 9 8
f 4 8 14
f 4 14 19
f 4 19 24
f 4 24 31
f 4 31 36
f 4 36 41
f 4 41 47
f 4 47 42
f 4 42 38
f 4 38 33
f 4 33 25
f 4 25 21
f 4 21 17
f 4 17 11
f 4 11 6
f 5 11 12
f 5 12 10
f 7 13 14
f 7 14 8
f 10 15 16
f 10 12 17
f 10 17 20
f 10 20 15
f 11 17 12
f 13 18 19
f 13 19 14
f 15 20 21
f 15 21 16
f 16 21 22
f 17 21 20
f 18 23 24
f 18 24 19
f 21 25 26
f 21 26 22
f 22 26 28
f 22 28 27
f 23 29 30
f 23 30 24
f 24 30 32
f 24 32 31
f 25 33 28
f 25 28 26
f 27 28 33
f 27 33 38
f 27 38 34
f 29 35 31
f 29 31 30
f 30 31 32
f 31 35 37
f 31 37 36
f 34 38 42
f 34 42 39
f 35 40 41
f 35 41 37
f 36 37 41
f 39 43 44
f 39 42 45
f 39 45 43
f 40 44 46
f 40 46 41
f 41 46 47
f 42 47 45
f 43 45 48
f 43 48 47
f 43 47 49
f 43 49 44
f 44 49 46
f 45 47 48
f 46 49 47

