# https://github.com/mikedh/trimesh
v -0.02330765 -6.44798726 -5.08056730
v -0.02330765 2.08427608 -5.08056730
v 3.82706188 -6.44798726 -5.08056730
v -0.02330765 -6.44798726 50.00000000
v 4.11812998 2.08427608 -5.08056730
v -0.02330765 2.08427608 50.00000000
v 4.06826735 -6.30014539 -5.08056730
v 4.11812998 -6.44798726 -4.99969274
v 4.11812998 -6.44798726 50.00000000
v 4.11812998 -6.26589954 -5.08056730
v 4.11812998 2.08427608 50.00000000
f 1 2 5
f 1 5 10
f 1 10 7
f 1 7 3
f 1 3 8
f 1 8 9
f 1 9 4
f 1 4 6
f 1 6 2
f 2 6 11
f 2 11 5
f 3 7 8
f 4 9 11
f 4 11 6
f 5 11 9
f 5 9 8
f 5 8 10
f 7 10 8

