# https://github.com/mikedh/trimesh
v -7.16895908 -2.20267810 -5.08056879
v -6.36430681 -2.20267810 -5.08056879
v -7.55514055 -2.20267810 -4.99430299
v -7.26803988 -1.85010768 -5.08056879
v -6.36430681 3.96493264 -5.08056879
v -6.36430681 -2.20267810 50.00000000
v -7.55514055 -2.20267810 50.00000000
v -7.55514055 4.71067615 -4.99430299
v -7.49988854 0.00004005 -5.08056879
v -7.49056339 -0.37283162 -5.08056879
v -7.46270418 -0.74638026 -5.08056879
v -7.41619468 -1.11722192 -5.08056879
v -7.35115111 -1.48535660 -5.08056879
v -6.39974251 3.91011834 -5.08056879
v -6.36430681 4.71067615 -4.99430299
v -6.36430681 4.71067615 50.00000000
v -7.55514055 4.71067615 50.00000000
v -6.58636391 3.58664729 -5.08056879
v -6.61165863 3.53792347 -5.08056879
v -6.75713271 3.25437859 -5.08056879
v -6.91123232 2.91263573 -5.08056879
v -7.04738125 2.56547928 -5.08056879
v -7.14028403 2.28870139 -5.08056879
v -7.16639459 2.21087877 -5.08056879
v -7.26780668 1.85154136 -5.08056879
v -7.35091791 1.48679018 -5.08056879
v -7.41596147 1.11933220 -5.08056879
v -7.46270418 0.74713710 -5.08056879
v -7.49056339 0.37561879 -5.08056879
f 1 2 6
f 1 6 7
f 1 7 3
f 1 3 4
f 1 4 13
f 1 13 12
f 1 12 11
f 1 11 10
f 1 10 9
f 1 9 29
f 1 29 28
f 1 28 27
f 1 27 26
f 1 26 25
f 1 25 24
f 1 24 23
f 1 23 22
f 1 22 21
f 1 21 20
f 1 20 19
f 1 19 18
f 1 18 14
f 1 14 5
f 1 5 2
f 2 5 15
f 2 15 16
f 2 16 6
f 3 7 17
f 3 17 8
f 3 8 9
f 3 9 10
f 3 10 11
f 3 11 12
f 3 12 13
f 3 13 4
f 5 14 8
f 5 8 15
f 6 16 17
f 6 17 7
f 8 14 18
f 8 18 19
f 8 19 20
f 8 20 21
f 8 21 22
f 8 22 23
f 8 23 24
f 8 24 25
f 8 25 26
f 8 26 27
f 8 27 28
f 8 28 29
f 8 29 9
f 8 17 16
f 8 16 15

