# https://github.com/mikedh/trimesh
v -2.54420489 7.05251396 -23.23803604
v -2.54420489 3.77264395 -23.23803604
v -2.54420489 7.05251396 -50.00000000
v -2.74027269 6.98123351 -23.23803604
v -6.47942796 3.77264395 -23.23803604
v -2.54420489 3.77264395 -50.00000000
v -2.74027269 6.98123351 -50.00000000
v -2.94558536 6.89486191 -23.23803604
v -6.39930591 3.91103104 -23.23803604
v -6.47942796 3.77264395 -50.00000000
v -3.08502838 6.83610365 -50.00000000
v -3.08502838 6.83610365 -23.23803604
v -6.27835244 4.09854390 -23.23803604
v -6.39930591 3.91103104 -50.00000000
v -3.42169479 6.67395666 -50.00000000
v -3.42169479 6.67395666 -23.23803604
v -6.19630441 4.22537178 -23.23803604
v -6.19668961 4.22505066 -50.00000000
v -3.75027210 6.49511293 -50.00000000
v -3.75027210 6.49511293 -23.23803604
v -5.97789511 4.52911705 -23.23803604
v -5.97828031 4.52879593 -50.00000000
v -4.06921953 6.29989356 -50.00000000
v -3.94017696 6.37888014 -23.23803604
v -5.88390566 4.64727581 -23.23803604
v -5.74523285 4.82098237 -50.00000000
v -4.37815152 6.08926304 -50.00000000
v -4.25334610 6.17467128 -23.23803604
v -4.06921953 6.29989356 -23.23803604
v -5.74484766 4.82130311 -23.23803604
v -5.49754798 5.10160923 -50.00000000
v -5.49754798 5.10160923 -23.23803604
v -4.67591248 5.86354099 -50.00000000
v -4.37815152 6.08926304 -23.23803604
v -5.23676649 5.36907203 -50.00000000
v -5.23676649 5.36907203 -23.23803604
v -4.96250279 5.62304929 -50.00000000
v -4.79185805 5.76657392 -23.23803604
v -4.67591248 5.86354099 -23.23803604
v -4.96250279 5.62304929 -23.23803604
f 1 2 6
f 1 6 3
f 1 3 7
f 1 7 4
f 1 4 8
f 1 8 12
f 1 12 16
f 1 16 20
f 1 20 24
f 1 24 29
f 1 29 28
f 1 28 34
f 1 34 39
f 1 39 38
f 1 38 40
f 1 40 36
f 1 36 32
f 1 32 30
f 1 30 25
f 1 25 21
f 1 21 17
f 1 17 13
f 1 13 9
f 1 9 5
f 1 5 2
f 2 5 10
f 2 10 6
f 3 6 10
f 3 10 14
f 3 14 18
f 3 18 22
f 3 22 26
f 3 26 31
f 3 31 35
f 3 35 37
f 3 37 33
f 3 33 27
f 3 27 23
f 3 23 19
f 3 19 15
f 3 15 11
f 3 11 7
f 4 7 8
f 5 9 14
f 5 14 10
f 7 11 8
f 8 11 12
f 9 13 14
f 11 15 16
f 11 16 12
f 13 17 18
f 13 18 14
f 15 19 20
f 15 20 16
f 17 21 22
f 17 22 18
f 19 23 24
f 19 24 20
f 21 25 22
f 22 25 26
f 23 27 28
f 23 28 29
f 23 29 24
f 25 30 26
f 26 30 32
f 26 32 31
f 27 33 39
f 27 39 34
f 27 34 28
f 31 32 36
f 31 36 35
f 33 37 38
f 33 38 39
f 35 36 40
f 35 40 37
f 37 40 38

