# https://github.com/mikedh/trimesh
v 1.44643756 7.35549033 -43.58581305
v 1.61656290 7.32236430 -43.58581305
v 1.44643756 7.35549033 -49.99937415
v 1.44643756 -7.35549033 -43.58581305
v 1.63729005 7.31804296 -43.58581305
v 1.66905411 7.31084198 -49.99937415
v 1.44643756 -7.35549033 -49.99937415
v 1.47847058 -7.34972954 -43.58581305
v 1.66905411 7.31084198 -43.58581305
v 1.72073767 7.29787946 -43.58581305
v 2.03137770 7.21866414 -49.99937415
v 1.66905411 -7.31084198 -49.99937415
v 1.53096179 -7.33964741 -43.58581305
v 2.03137770 7.21866414 -43.58581305
v 2.30433196 7.13512823 -43.58581305
v 2.38885619 7.10920319 -49.99937415
v 2.03137770 -7.21866414 -49.99937415
v 1.80660784 -7.27627501 -43.58581305
v 1.72073767 -7.29787946 -43.58581305
v 1.66905411 -7.31084198 -43.58581305
v 2.38885619 7.10920319 -43.58581305
v 2.60689650 7.02998787 -43.58581305
v 2.69007497 6.99974224 -43.58581305
v 2.74014343 6.98101893 -49.99937415
v 2.38885619 -7.10920319 -49.99937415
v 2.33771093 -7.12504610 -43.58581305
v 2.03137770 -7.21866414 -43.58581305
v 2.74014343 6.98101893 -43.58581305
v 3.08443177 6.83555081 -49.99937415
v 2.74014343 -6.98101893 -49.99937415
v 2.38885619 -7.10920319 -43.58581305
v 3.08443177 6.83555081 -43.58581305
v 3.13261598 6.81250617 -43.58581305
v 3.34150419 6.71168715 -43.58581305
v 3.42145227 6.67279959 -49.99937415
v 3.08443177 -6.83555081 -49.99937415
v 2.87069846 -6.92628846 -43.58581305
v 2.74014343 -6.98101893 -43.58581305
v 3.42145227 6.67279959 -43.58581305
v 3.46829034 6.64831474 -43.58581305
v 3.74985859 6.49420545 -49.99937415
v 3.42145227 -6.67279959 -49.99937415
v 3.13261598 -6.81250617 -43.58581305
v 3.08443177 -6.83555081 -43.58581305
v 3.67206410 6.53741360 -43.58581305
v 3.74985859 6.49420545 -43.58581305
v 4.06884328 6.29976764 -49.99937415
v 3.74985859 -6.49420545 -49.99937415
v 3.46829034 -6.64831474 -43.58581305
v 3.42145227 -6.67279959 -43.58581305
v 4.06884328 6.29976764 -43.58581305
v 4.19643745 6.21335134 -49.99937415
v 4.06884328 -6.29976764 -49.99937415
v 3.87099199 -6.42075092 -43.58581305
v 3.79535109 -6.46684021 -43.58581305
v 3.74985859 -6.49420545 -43.58581305
v 4.19643745 6.21335134 -43.58581305
v 4.19643745 -6.21335134 -49.99937415
v 4.06884328 -6.29976764 -43.58581305
v 4.19643745 -6.21335134 -43.58581305
f 1 2 3
f 1 3 7
f 1 7 4
f 1 4 8
f 1 8 13
f 1 13 20
f 1 20 19
f 1 19 18
f 1 18 27
f 1 27 26
f 1 26 31
f 1 31 38
f 1 38 37
f 1 37 44
f 1 44 43
f 1 43 50
f 1 50 49
f 1 49 56
f 1 56 55
f 1 55 54
f 1 54 59
f 1 59 60
f 1 60 57
f 1 57 51
f 1 51 46
f 1 46 45
f 1 45 40
f 1 40 39
f 1 39 34
f 1 34 33
f 1 33 32
f 1 32 28
f 1 28 23
f 1 23 22
f 1 22 21
f 1 21 15
f 1 15 14
f 1 14 10
f 1 10 9
f 1 9 5
f 1 5 2
f 2 5 6
f 2 6 3
f 3 6 11
f 3 11 16
f 3 16 24
f 3 24 29
f 3 29 35
f 3 35 41
f 3 41 47
f 3 47 52
f 3 52 58
f 3 58 53
f 3 53 48
f 3 48 42
f 3 42 36
f 3 36 30
f 3 30 25
f 3 25 17
f 3 17 12
f 3 12 7
f 4 7 8
f 5 9 6
f 6 9 10
f 6 10 11
f 7 12 13
f 7 13 8
f 10 14 11
f 11 14 15
f 11 15 16
f 12 17 18
f 12 18 19
f 12 19 20
f 12 20 13
f 15 21 16
f 16 21 22
f 16 22 23
f 16 23 24
f 17 25 26
f 17 26 27
f 17 27 18
f 23 28 24
f 24 28 32
f 24 32 29
f 25 30 38
f 25 38 31
f 25 31 26
f 29 32 33
f 29 33 34
f 29 34 35
f 30 36 37
f 30 37 38
f 34 39 35
f 35 39 40
f 35 40 41
f 36 42 43
f 36 43 44
f 36 44 37
f 40 45 41
f 41 45 46
f 41 46 51
f 41 51 47
f 42 48 49
f 42 49 50
f 42 50 43
f 47 51 57
f 47 57 52
f 48 53 54
f 48 54 55
f 48 55 56
f 48 56 49
f 52 57 60
f 52 60 58
f 53 58 60
f 53 60 59
f 53 59 54

