# https://github.com/mikedh/trimesh
v -2.54420489 3.77236381 -23.23803604
v -6.47912174 3.77236381 -23.23803604
v -2.54420489 0.91415076 -23.23803604
v -2.54420489 3.77236381 -50.00000000
v -6.51076138 3.71808186 -23.23803604
v -6.47912174 3.77236381 -50.00000000
v -7.44127780 0.91415076 -23.23803604
v -2.54420489 0.91415076 -50.00000000
v -6.58602789 3.58713269 -23.23803604
v -6.58650696 3.58685292 -50.00000000
v -7.41586909 1.11840870 -23.23803604
v -7.44175687 0.91415076 -25.34703016
v -7.44175687 0.91415076 -50.00000000
v -6.75669387 3.25444415 -23.23803604
v -6.75717369 3.25388424 -50.00000000
v -7.35115036 1.48663279 -23.23803604
v -7.35115036 1.48635292 -50.00000000
v -7.41586909 1.11784916 -50.00000000
v -6.91106096 2.91308127 -23.23803604
v -6.91106096 2.91308127 -50.00000000
v -7.26773441 1.85121931 -23.23803604
v -7.26773441 1.85093954 -50.00000000
v -7.04721063 2.56528296 -23.23803604
v -7.04768971 2.56500319 -50.00000000
v -7.22698569 1.99671816 -23.23803604
v -7.16658086 2.21076943 -50.00000000
v -7.16658086 2.21104920 -23.23803604
f 1 2 5
f 1 5 9
f 1 9 14
f 1 14 19
f 1 19 23
f 1 23 27
f 1 27 25
f 1 25 21
f 1 21 16
f 1 16 11
f 1 11 7
f 1 7 3
f 1 3 8
f 1 8 4
f 1 4 6
f 1 6 2
f 2 6 5
f 3 7 12
f 3 12 13
f 3 13 8
f 4 8 13
f 4 13 18
f 4 18 17
f 4 17 22
f 4 22 26
f 4 26 24
f 4 24 20
f 4 20 15
f 4 15 10
f 4 10 6
f 5 6 10
f 5 10 9
f 7 11 12
f 9 10 14
f 10 15 14
f 11 16 17
f 11 17 18
f 11 18 13
f 11 13 12
f 14 15 19
f 15 20 19
f 16 21 22
f 16 22 17
f 19 20 24
f 19 24 23
f 21 25 22
f 22 25 26
f 23 24 27
f 24 26 27
f 25 27 26

