# https://github.com/mikedh/trimesh
v -0.18755402 -7.49766529 -50.00000000
v -0.56021190 -7.47766644 -50.00000000
v 0.18666638 -7.49766529 -50.00000000
v -0.18755402 -7.49766529 -23.23666811
v -0.81646303 -7.45322257 -36.01579368
v -0.93247909 -7.44100064 -50.00000000
v -0.56021190 -7.47766644 -23.23666811
v 0.55971490 -7.47766644 -50.00000000
v 0.40932363 -7.48655498 -23.23666811
v 0.18666638 -7.49766529 -23.23666811
v -0.93247909 -7.44100064 -23.23666811
v -1.18716769 -7.40322471 -36.01579368
v -1.30201206 -7.38544762 -50.00000000
v 0.93237273 -7.44100064 -50.00000000
v 0.78198146 -7.45655596 -23.23666811
v 0.55971490 -7.47766644 -23.23666811
v -1.08169857 -7.41877928 -23.23666811
v -1.30201206 -7.38544762 -23.23666811
v -1.66881047 -7.31100589 -50.00000000
v 1.30229630 -7.38544762 -50.00000000
v 1.04760770 -7.42433518 -36.01579368
v 0.93237273 -7.44100064 -23.23666811
v -1.66881047 -7.31100589 -23.23666811
v -2.03092135 -7.21767694 -50.00000000
v -1.81529559 -7.27434084 -23.23666811
v -1.84185803 -7.26767480 -36.01579368
v 1.44643746 -7.35656023 -50.00000000
v 1.34721827 -7.37655908 -36.01579368
v 1.30229630 -7.38544762 -23.23666811
v -2.38834489 -7.10879192 -50.00000000
v -2.03092135 -7.21767694 -23.23666811
v -2.20162533 -7.16656744 -36.01579368
v 1.44643746 3.85298729 -50.00000000
v 1.44643746 -7.35656023 -23.23666811
v -2.54420489 -7.05212802 -50.00000000
v -2.38873549 -7.10879192 -36.01579368
v -2.46295463 -7.08212629 -36.01579368
v -2.38873549 -7.10879192 -23.23666811
v -2.54420489 3.85298729 -50.00000000
v 1.44643746 3.85298729 -23.23666811
v -2.54420489 -7.05212802 -23.23666811
v -2.54420489 3.85298729 -23.23666811
f 1 2 6
f 1 6 13
f 1 13 19
f 1 19 24
f 1 24 30
f 1 30 35
f 1 35 39
f 1 39 33
f 1 33 27
f 1 27 20
f 1 20 14
f 1 14 8
f 1 8 3
f 1 3 10
f 1 10 4
f 1 4 7
f 1 7 2
f 2 5 6
f 2 7 5
f 3 8 9
f 3 9 10
f 4 10 9
f 4 9 16
f 4 16 15
f 4 15 22
f 4 22 29
f 4 29 34
f 4 34 40
f 4 40 42
f 4 42 41
f 4 41 38
f 4 38 31
f 4 31 25
f 4 25 23
f 4 23 18
f 4 18 17
f 4 17 11
f 4 11 7
f 5 7 11
f 5 11 6
f 6 12 13
f 6 11 12
f 8 14 15
f 8 15 16
f 8 16 9
f 11 17 12
f 12 17 18
f 12 18 13
f 13 18 23
f 13 23 19
f 14 20 21
f 14 21 22
f 14 22 15
f 19 23 25
f 19 25 26
f 19 26 24
f 20 27 28
f 20 28 29
f 20 29 21
f 21 29 22
f 24 26 31
f 24 31 32
f 24 32 30
f 25 31 26
f 27 33 40
f 27 40 34
f 27 34 28
f 28 34 29
f 30 32 36
f 30 36 37
f 30 37 35
f 31 38 32
f 32 38 36
f 33 39 42
f 33 42 40
f 35 37 41
f 35 41 42
f 35 42 39
f 36 38 37
f 37 38 41

