# https://github.com/mikedh/trimesh
v 1.44643756 7.35549033 -27.76613235
v 1.48762288 7.34828934 -27.76613235
v 1.44643756 7.35549033 -33.10391307
v 1.44643756 -7.35549033 -27.76613235
v 1.55895706 7.33388662 -27.76613235
v 1.53123094 7.33964741 -33.10391307
v 1.44643756 -7.35549033 -33.10391307
v 1.48896882 -7.34828934 -27.76613235
v 1.66905411 7.31084198 -27.76613235
v 1.66905411 7.31084198 -33.10391307
v 1.53015424 -7.33964741 -33.10391307
v 1.66905411 -7.31084198 -33.10391307
v 1.66905411 -7.31084198 -27.76613235
v 1.77942012 7.28347674 -27.76613235
v 1.84833147 7.26619363 -27.76613235
v 1.80526190 7.27627501 -33.10391307
v 1.80499274 -7.27627501 -33.10391307
v 1.84806250 -7.26619363 -27.76613235
v 2.03137770 7.21866414 -27.76613235
v 2.03137770 7.21866414 -33.10391307
v 2.03110855 -7.21866414 -33.10391307
v 2.03110855 -7.21866414 -27.76613235
v 2.14039795 7.18553811 -27.76613235
v 2.38912553 7.10920319 -33.10391307
v 2.25426350 -7.15097114 -33.10391307
v 2.21146289 -7.16393366 -27.76613235
v 2.38912553 7.10920319 -27.76613235
v 2.67338529 7.00550303 -27.76613235
v 2.74014343 6.98101893 -33.10391307
v 2.38885619 -7.10920319 -33.10391307
v 2.38885619 -7.10920319 -27.76613235
v 2.74014343 6.98101893 -27.76613235
v 2.95495354 6.89028129 -33.10391307
v 2.73987427 -6.98101893 -33.10391307
v 2.56248098 -7.04583079 -27.76613235
v 2.91403737 6.90756440 -27.76613235
v 3.08443177 6.83555081 -27.76613235
v 3.08443177 6.83555081 -33.10391307
v 3.08416262 -6.83555081 -33.10391307
v 2.80555543 -6.95365369 -27.76613235
v 2.73987427 -6.98101893 -27.76613235
v 3.18699144 6.78658113 -27.76613235
v 3.21094915 6.77505881 -33.10391307
v 3.21094915 -6.77505881 -33.10391307
v 3.14849801 -6.80530518 -27.76613235
v 3.08416262 -6.83555081 -27.76613235
v 3.42118293 6.67279959 -27.76613235
v 3.42118293 6.67279959 -33.10391307
v 3.42118293 -6.67279959 -33.10391307
v 3.42118293 -6.67279959 -27.76613235
v 3.52131985 6.61950931 -27.76613235
v 3.54500823 6.60654679 -33.10391307
v 3.54473926 -6.60654679 -33.10391307
v 3.48363407 -6.63967282 -27.76613235
v 3.74985859 6.49420545 -27.76613235
v 3.74985859 6.49420545 -33.10391307
v 3.74958925 -6.49420545 -33.10391307
v 3.74958925 -6.49420545 -27.76613235
v 3.58377099 -6.58494234 -27.76613235
v 3.91110070 6.39626682 -27.76613235
v 3.94905582 6.37322217 -33.10391307
v 4.06884328 -6.29976764 -33.10391307
v 3.81042510 -6.45819828 -27.76613235
v 4.00827676 6.33721501 -27.76613235
v 4.06884328 6.29976764 -33.10391307
v 4.19643745 -6.21335134 -33.10391307
v 4.19643745 -6.21335134 -27.76613235
v 4.06857431 -6.29976764 -27.76613235
v 4.06884328 6.29976764 -27.76613235
v 4.19643745 6.21335134 -33.10391307
v 4.19643745 6.21335134 -27.76613235
f 1 2 3
f 1 3 7
f 1 7 4
f 1 4 8
f 1 8 13
f 1 13 18
f 1 18 22
f 1 22 26
f 1 26 31
f 1 31 35
f 1 35 41
f 1 41 40
f 1 40 46
f 1 46 45
f 1 45 50
f 1 50 54
f 1 54 59
f 1 59 58
f 1 58 63
f 1 63 68
f 1 68 67
f 1 67 71
f 1 71 69
f 1 69 64
f 1 64 60
f 1 60 55
f 1 55 51
f 1 51 47
f 1 47 42
f 1 42 37
f 1 37 36
f 1 36 32
f 1 32 28
f 1 28 27
f 1 27 23
f 1 23 19
f 1 19 15
f 1 15 14
f 1 14 9
f 1 9 5
f 1 5 2
f 2 5 6
f 2 6 3
f 3 6 10
f 3 10 16
f 3 16 20
f 3 20 24
f 3 24 29
f 3 29 33
f 3 33 38
f 3 38 43
f 3 43 48
f 3 48 52
f 3 52 56
f 3 56 61
f 3 61 65
f 3 65 70
f 3 70 66
f 3 66 62
f 3 62 57
f 3 57 53
f 3 53 49
f 3 49 44
f 3 44 39
f 3 39 34
f 3 34 30
f 3 30 25
f 3 25 21
f 3 21 17
f 3 17 12
f 3 12 11
f 3 11 7
f 4 7 8
f 5 9 10
f 5 10 6
f 7 11 8
f 8 11 12
f 8 12 13
f 9 14 10
f 10 14 15
f 10 15 16
f 12 17 18
f 12 18 13
f 15 19 20
f 15 20 16
f 17 21 18
f 18 21 22
f 19 23 20
f 20 23 24
f 21 25 22
f 22 25 26
f 23 27 24
f 24 27 28
f 24 28 29
f 25 30 31
f 25 31 26
f 28 32 29
f 29 32 36
f 29 36 33
f 30 34 35
f 30 35 31
f 33 36 37
f 33 37 38
f 34 39 40
f 34 40 41
f 34 41 35
f 37 42 38
f 38 42 43
f 39 44 45
f 39 45 46
f 39 46 40
f 42 47 43
f 43 47 48
f 44 49 50
f 44 50 45
f 47 51 48
f 48 51 52
f 49 53 54
f 49 54 50
f 51 55 52
f 52 55 56
f 53 57 58
f 53 58 59
f 53 59 54
f 55 60 61
f 55 61 56
f 57 62 63
f 57 63 58
f 60 64 61
f 61 64 65
f 62 66 67
f 62 67 68
f 62 68 63
f 64 69 65
f 65 69 71
f 65 71 70
f 66 70 71
f 66 71 67

