# https://github.com/mikedh/trimesh
v -2.54468992 -7.05283508 -50.00000000
v -2.74067093 -6.98030889 -50.00000000
v -2.54420470 -5.83080426 -50.00000000
v -2.54420470 -7.05283508 -30.88335097
v -2.54468992 -7.05283508 -30.88335097
v -2.74067093 -6.98030889 -30.88335097
v -2.98516192 -6.87814802 -30.88335097
v -3.08557786 -6.83603585 -50.00000000
v -2.54420470 0.91415048 -50.00000000
v -2.54420470 -7.05283508 -23.23616743
v -2.74018571 -6.98030889 -23.23616743
v -3.08460779 -6.83603585 -23.23616743
v -3.08509283 -6.83603585 -30.88335097
v -3.42223831 -6.67382628 -23.23616743
v -3.42223831 -6.67382628 -30.88335097
v -3.42223831 -6.67304620 -50.00000000
v -7.44130313 0.91415048 -50.00000000
v -2.54420470 0.91415048 -23.23616743
v -3.75113711 -6.49368018 -23.23616743
v -3.61094251 -6.57088533 -30.88335097
v -3.75113711 -6.49368018 -50.00000000
v -7.46264756 0.74648187 -50.00000000
v -7.44372904 0.89621358 -23.23616743
v -7.44130313 0.91415048 -23.23616743
v -3.87968868 -6.41569495 -23.23616743
v -3.93353514 -6.38294071 -30.88335097
v -4.07033376 -6.29949644 -30.88335097
v -4.06936333 -6.29949644 -50.00000000
v -7.48981312 0.37371181 -50.00000000
v -7.48253688 0.48055165 -30.88335097
v -7.46264756 0.74648187 -23.23616743
v -4.07033376 -6.29949644 -23.23616743
v -4.24739569 -6.17861897 -30.88335097
v -4.37885821 -6.08815588 -50.00000000
v -7.50000030 -0.00061803 -50.00000000
v -7.49612004 0.15067346 -23.23616743
v -7.48981312 0.37371181 -23.23616743
v -7.47914091 0.52422360 -23.23616743
v -4.37885821 -6.08815588 -23.23616743
v -4.55009900 -5.95948026 -30.88335097
v -4.67719547 -5.86277843 -50.00000000
v -7.49223903 -0.30320119 -50.00000000
v -7.49320909 -0.26732795 -30.88335097
v -7.50000030 -0.00061803 -23.23616743
v -4.49964851 -5.99691309 -23.23616743
v -4.67719547 -5.86277843 -23.23616743
v -4.71600369 -5.83080426 -50.00000000
v -7.48981312 -0.37494786 -50.00000000
v -7.49223903 -0.30320119 -30.88335097
v -7.48981312 -0.37416797 -23.23616743
v -4.79313470 -5.76607659 -23.23616743
v -4.71600369 -5.83080426 -30.88335097
v -4.96389046 -5.62258326 -50.00000000
v -7.46216252 -0.74771792 -50.00000000
v -7.47865587 -0.53403787 -30.88335097
v -7.48981312 -0.37494786 -30.88335097
v -7.46264756 -0.74693803 -23.23616743
v -4.96389046 -5.62258326 -23.23616743
v -5.23603223 -5.36835119 -30.88335097
v -5.23554720 -5.36835119 -50.00000000
v -7.41559267 -1.11892819 -50.00000000
v -7.43596703 -0.96061788 -30.88335097
v -7.46264756 -0.74693803 -30.88335097
v -7.41607770 -1.11814830 -23.23616743
v -5.23603223 -5.36835119 -23.23616743
v -5.49798720 -5.10086119 -30.88335097
v -5.49653172 -5.09930141 -50.00000000
v -7.35058933 -1.48701910 -50.00000000
v -7.35107437 -1.48701910 -30.88335097
v -7.41607770 -1.11814830 -30.88335097
v -7.35107437 -1.48701910 -23.23616743
v -5.49798720 -5.10086119 -23.23616743
v -5.74441850 -4.82089370 -30.88335097
v -5.74393347 -4.81933393 -50.00000000
v -7.26763681 -1.85277052 -50.00000000
v -7.30159432 -1.70381851 -23.23616743
v -7.26763681 -1.85277052 -30.88335097
v -5.74441850 -4.82089370 -23.23616743
v -5.91129363 -4.61189300 -30.88335097
v -5.97775243 -4.52688895 -50.00000000
v -7.16625080 -2.21228302 -50.00000000
v -7.16673583 -2.21072342 -30.88335097
v -7.26763681 -1.85121074 -23.23616743
v -7.16673583 -2.21072342 -23.23616743
v -5.97872250 -4.52688895 -23.23616743
v -6.10339344 -4.35376130 -30.88335097
v -6.19604811 -4.22352590 -50.00000000
v -7.04643056 -2.56633665 -50.00000000
v -7.04691559 -2.56555676 -30.88335097
v -7.16625080 -2.21228302 -30.88335097
v -7.04691559 -2.56555676 -23.23616743
v -6.19653314 -4.22430560 -23.23616743
v -6.19653314 -4.22430560 -30.88335097
v -6.39833510 -3.90924476 -50.00000000
v -6.28239587 -4.09095064 -30.88335097
v -6.90963194 -2.91415136 -50.00000000
v -7.00810775 -2.66615786 -30.88335097
v -6.91011697 -2.91337147 -23.23616743
v -6.31780848 -4.03636098 -23.23616743
v -6.58558458 -3.58638540 -50.00000000
v -6.39930516 -3.90924476 -30.88335097
v -6.50699809 -3.72363962 -30.88335097
v -6.75633997 -3.25416774 -50.00000000
v -6.84559867 -3.05920430 -30.88335097
v -6.91011697 -2.91337147 -30.88335097
v -6.81940317 -3.11535373 -23.23616743
v -6.39930516 -3.90924476 -23.23616743
v -6.58655465 -3.58638540 -30.88335097
v -6.58655465 -3.58638540 -23.23616743
v -6.75633997 -3.25416774 -30.88335097
v -6.75633997 -3.25260796 -23.23616743
v -6.65543899 -3.45147066 -23.23616743
f 1 2 8
f 1 8 16
f 1 16 21
f 1 21 28
f 1 28 34
f 1 34 41
f 1 41 47
f 1 47 53
f 1 53 60
f 1 60 67
f 1 67 74
f 1 74 80
f 1 80 87
f 1 87 94
f 1 94 100
f 1 100 103
f 1 103 96
f 1 96 88
f 1 88 81
f 1 81 75
f 1 75 68
f 1 68 61
f 1 61 54
f 1 54 48
f 1 48 42
f 1 42 35
f 1 35 29
f 1 29 22
f 1 22 17
f 1 17 9
f 1 9 3
f 1 3 4
f 1 4 10
f 1 10 5
f 1 5 6
f 1 6 2
f 2 6 7
f 2 7 8
f 3 9 18
f 3 18 10
f 3 10 4
f 5 10 11
f 5 11 6
f 6 11 7
f 7 11 12
f 7 12 13
f 7 13 8
f 8 13 14
f 8 14 15
f 8 15 16
f 9 17 24
f 9 24 18
f 10 18 24
f 10 24 23
f 10 23 31
f 10 31 38
f 10 38 37
f 10 37 36
f 10 36 44
f 10 44 50
f 10 50 57
f 10 57 64
f 10 64 71
f 10 71 76
f 10 76 83
f 10 83 84
f 10 84 91
f 10 91 98
f 10 98 106
f 10 106 111
f 10 111 112
f 10 112 109
f 10 109 107
f 10 107 99
f 10 99 92
f 10 92 85
f 10 85 78
f 10 78 72
f 10 72 65
f 10 65 58
f 10 58 51
f 10 51 46
f 10 46 45
f 10 45 39
f 10 39 32
f 10 32 25
f 10 25 19
f 10 19 14
f 10 14 12
f 10 12 11
f 12 14 13
f 14 19 20
f 14 20 15
f 15 20 21
f 15 21 16
f 17 22 23
f 17 23 24
f 19 25 21
f 19 21 20
f 21 26 27
f 21 27 28
f 21 25 26
f 22 29 30
f 22 30 31
f 22 31 23
f 25 32 26
f 26 32 27
f 27 32 33
f 27 33 28
f 28 33 34
f 29 35 36
f 29 36 37
f 29 37 30
f 30 37 38
f 30 38 31
f 32 39 33
f 33 39 34
f 34 40 41
f 34 39 40
f 35 42 43
f 35 43 44
f 35 44 36
f 39 45 40
f 40 45 46
f 40 46 41
f 41 46 52
f 41 52 47
f 42 48 56
f 42 56 49
f 42 49 43
f 43 49 44
f 44 49 50
f 46 51 52
f 47 52 51
f 47 51 53
f 48 54 55
f 48 55 56
f 49 56 50
f 50 56 55
f 50 55 57
f 51 58 53
f 53 59 60
f 53 58 65
f 53 65 59
f 54 61 62
f 54 62 63
f 54 63 55
f 55 63 57
f 57 63 62
f 57 62 64
f 59 66 60
f 59 65 72
f 59 72 66
f 60 66 67
f 61 68 69
f 61 69 70
f 61 70 62
f 62 70 64
f 64 70 69
f 64 69 71
f 66 72 78
f 66 78 73
f 66 73 74
f 66 74 67
f 68 75 69
f 69 75 77
f 69 77 71
f 71 77 76
f 73 78 79
f 73 79 80
f 73 80 74
f 75 81 82
f 75 82 84
f 75 84 77
f 76 77 83
f 77 84 83
f 78 85 79
f 79 85 80
f 80 86 87
f 80 85 86
f 81 88 89
f 81 89 91
f 81 91 90
f 81 90 84
f 81 84 82
f 84 90 91
f 85 92 86
f 86 93 87
f 86 92 93
f 87 93 95
f 87 95 94
f 88 96 97
f 88 97 89
f 89 97 91
f 91 97 98
f 92 99 93
f 93 99 95
f 94 95 101
f 94 101 102
f 94 102 100
f 95 99 101
f 96 103 104
f 96 104 105
f 96 105 97
f 97 105 98
f 98 105 104
f 98 104 106
f 99 107 101
f 100 102 108
f 100 108 103
f 101 107 102
f 102 107 109
f 102 109 108
f 103 108 109
f 103 109 110
f 103 110 104
f 104 110 106
f 106 110 111
f 109 112 110
f 110 112 111

