# https://github.com/mikedh/trimesh
v -5.85826412 6.62806183 -5.00000119
v -3.56158651 6.62806183 -5.00000119
v -5.85826412 6.62806183 50.00000000
v -5.85826412 9.83178169 -5.00000119
v -3.56158651 10.00661999 -5.00000119
v -3.56158651 6.62806183 50.00000000
v -5.85826412 9.83178169 50.00000000
v -5.75439110 10.01092494 -5.00000119
v -3.56158651 10.00661999 50.00000000
v -5.75439110 10.01092494 50.00000000
f 1 2 6
f 1 6 3
f 1 3 7
f 1 7 4
f 1 4 8
f 1 8 5
f 1 5 2
f 2 5 9
f 2 9 6
f 3 6 9
f 3 9 10
f 3 10 7
f 4 7 10
f 4 10 8
f 5 8 10
f 5 10 9

