# https://github.com/mikedh/trimesh
v -7.55514055 -4.98976037 -4.99969274
v -7.55514055 -2.20318232 -4.99969274
v -7.16895908 -2.20318232 -5.08056730
v -7.16674402 -2.21082047 -5.08056730
v -7.04761446 -2.56517828 -5.08056730
v -6.91111609 -2.91326195 -5.08056730
v -6.75736591 -3.25425267 -5.08056730
v -6.58671409 -3.58706005 -5.08056730
v -6.40009269 -3.91004644 -5.08056730
v -6.36430681 -3.96542363 -5.08056730
v -6.36430681 -4.98976037 -4.99969274
v -7.55514055 -4.98976037 50.00000000
v -7.55514055 -2.20318232 50.00000000
v -6.36430681 -2.20318232 -5.08056730
v -6.36430681 -4.98976037 50.00000000
v -6.36430681 -2.20318232 50.00000000
f 1 2 3
f 1 3 4
f 1 4 5
f 1 5 6
f 1 6 7
f 1 7 8
f 1 8 9
f 1 9 10
f 1 10 11
f 1 11 15
f 1 15 12
f 1 12 13
f 1 13 2
f 2 13 16
f 2 16 14
f 2 14 3
f 3 14 10
f 3 10 9
f 3 9 8
f 3 8 7
f 3 7 6
f 3 6 5
f 3 5 4
f 10 14 16
f 10 16 15
f 10 15 11
f 12 15 16
f 12 16 13

