# https://github.com/mikedh/trimesh
v -7.55497366 4.71067578 -5.00000119
v -5.85843064 4.71067578 -5.00000119
v -7.55497366 4.71067578 2.86021829
v -7.55497366 6.90640509 -5.00000119
v -5.85843064 9.83203948 -5.00000119
v -5.85843064 4.71067578 2.86021829
v -7.55480826 4.71067578 50.00000000
v -7.55497366 6.90640509 2.86021829
v -5.85859641 9.83203948 2.86021829
v -5.85843064 9.83203948 2.86021829
v -5.85859641 4.71067578 50.00000000
v -7.55480826 6.90640509 50.00000000
v -5.85859641 9.83203948 50.00000000
f 1 2 6
f 1 6 11
f 1 11 7
f 1 7 3
f 1 3 8
f 1 8 4
f 1 4 5
f 1 5 2
f 2 5 10
f 2 10 6
f 3 7 12
f 3 12 8
f 4 8 13
f 4 13 9
f 4 9 5
f 5 9 13
f 5 13 10
f 6 10 13
f 6 13 11
f 7 11 13
f 7 13 12
f 8 12 13

