# https://github.com/mikedh/trimesh
v 4.19643745 -5.27051240 -49.99560416
v 4.19643745 2.07448434 -49.99560416
v 5.33308834 -5.27051240 -49.99560416
v 4.19643745 -5.27051240 -5.08056730
v 7.20508546 2.07448434 -49.99560416
v 4.19643745 2.07448434 -5.08056730
v 5.49800768 -5.10083586 -49.99560416
v 5.49768433 -5.10155484 -5.08056730
v 5.33308834 -5.27051240 -5.08056730
v 7.26781934 1.85016561 -49.99560416
v 7.20508546 2.07448434 -5.08056730
v 7.26814270 1.84944663 -5.08056730
v 5.74538670 -4.82043773 -49.99560416
v 5.74506335 -4.82115597 -5.08056730
v 7.35124946 1.48564801 -49.99560416
v 7.35124946 1.48492903 -5.08056730
v 5.97821437 -4.52781655 -49.99560416
v 5.97789064 -4.52853553 -5.08056730
v 7.41592348 1.11753531 -49.99560416
v 7.41624683 1.11681633 -5.08056730
v 6.19648993 -4.22441140 -49.99560416
v 6.19616657 -4.22513038 -5.08056730
v 7.46248960 0.74654687 -49.99560416
v 7.46248960 0.74582789 -5.08056730
v 6.39956743 -3.91022116 -49.99560416
v 6.39956743 -3.91022116 -5.08056730
v 7.49062225 0.37340149 -49.99560416
v 7.49062225 0.37268251 -5.08056730
v 6.58647567 -3.58668491 -49.99560416
v 6.58615232 -3.58740389 -5.08056730
v 7.50000030 -0.00046287 -49.99560416
v 7.49967694 -0.00118185 -5.08056730
v 6.75721616 -3.25380191 -49.99560416
v 6.75689280 -3.25452089 -5.08056730
v 7.49062225 -0.37432732 -49.99560416
v 7.49062225 -0.37504630 -5.08056730
v 6.91081733 -2.91301012 -49.99560416
v 6.91049397 -2.91372910 -5.08056730
v 7.46248960 -0.74747270 -49.99560416
v 7.46248960 -0.74747270 -5.08056730
v 7.04760328 -2.56502870 -49.99560416
v 7.04727992 -2.56574769 -5.08056730
v 7.41592348 -1.11846123 -49.99560416
v 7.41592348 -1.11846123 -5.08056730
v 7.16660470 -2.21057646 -49.99560416
v 7.16628134 -2.21129544 -5.08056730
v 7.35124946 -1.48657374 -49.99560416
v 7.35124946 -1.48657374 -5.08056730
v 7.26781934 -1.85037255 -49.99560416
v 7.26781934 -1.85037255 -5.08056730
f 1 2 5
f 1 5 10
f 1 10 15
f 1 15 19
f 1 19 23
f 1 23 27
f 1 27 31
f 1 31 35
f 1 35 39
f 1 39 43
f 1 43 47
f 1 47 49
f 1 49 45
f 1 45 41
f 1 41 37
f 1 37 33
f 1 33 29
f 1 29 25
f 1 25 21
f 1 21 17
f 1 17 13
f 1 13 7
f 1 7 3
f 1 3 9
f 1 9 4
f 1 4 6
f 1 6 2
f 2 6 11
f 2 11 5
f 3 7 8
f 3 8 9
f 4 9 8
f 4 8 14
f 4 14 18
f 4 18 22
f 4 22 26
f 4 26 30
f 4 30 34
f 4 34 38
f 4 38 42
f 4 42 46
f 4 46 50
f 4 50 48
f 4 48 44
f 4 44 40
f 4 40 36
f 4 36 32
f 4 32 28
f 4 28 24
f 4 24 20
f 4 20 16
f 4 16 12
f 4 12 11
f 4 11 6
f 5 11 12
f 5 12 10
f 7 13 14
f 7 14 8
f 10 12 15
f 12 16 15
f 13 17 18
f 13 18 14
f 15 16 20
f 15 20 19
f 17 21 22
f 17 22 18
f 19 20 23
f 20 24 23
f 21 25 22
f 22 25 26
f 23 24 28
f 23 28 27
f 25 29 30
f 25 30 26
f 27 28 31
f 28 32 31
f 29 33 34
f 29 34 30
f 31 32 36
f 31 36 35
f 33 37 38
f 33 38 34
f 35 36 39
f 36 40 39
f 37 41 42
f 37 42 38
f 39 40 44
f 39 44 43
f 41 45 46
f 41 46 42
f 43 44 48
f 43 48 47
f 45 49 50
f 45 50 46
f 47 48 50
f 47 50 49

