# https://github.com/mikedh/trimesh
v 5.75499311 -10.01092494 -4.99430299
v 7.05899224 -7.75768012 -4.99430299
v 7.51578808 -6.97266608 -4.98891175
v 5.75499311 -10.01092494 50.00000000
v 5.75413108 -10.00896692 49.98921752
v 5.75413108 -10.00700966 -4.99430299
v 5.75413108 -4.68418449 -5.08056879
v 5.97830415 -4.52757329 -5.08056879
v 6.19695932 -4.22413871 -5.08056879
v 6.40009493 -3.91091630 -5.08056879
v 6.58667609 -3.58790569 -5.08056879
v 6.75653070 -3.25510651 -5.08056879
v 6.91034794 -2.91447714 -5.08056879
v 7.51578808 -4.79772761 -4.99430299
v 7.51578808 -6.97266608 50.00000000
v 7.04709366 -2.56601702 -5.08056879
v 7.16642290 -2.21168399 -5.08056879
v 7.26764575 -1.85147822 -5.08056879
v 7.35110715 -1.48539934 -5.08056879
v 7.41594508 -1.11736283 -5.08056879
v 7.46233165 -0.74736876 -5.08056879
v 7.49026686 -0.37541701 -5.08056879
v 7.49975145 -0.00346526 -5.08056879
v 5.75413108 -10.00896692 50.00000000
v 5.75413108 4.81037349 -5.08056879
v 7.51578808 6.98922724 -4.99430299
v 7.51578808 6.98922724 50.00000000
v 7.49026686 0.37240176 -5.08056879
v 5.75413108 9.98833328 50.00000000
v 5.75413108 9.98833328 -4.99430299
v 5.79275787 9.98833328 -4.99430299
v 5.97882159 4.52847332 -5.08056879
v 7.46233165 0.74435351 -5.08056879
v 7.41611719 1.11630522 -5.08056879
v 7.35110715 1.48434173 -5.08056879
v 7.26799071 1.84846297 -5.08056879
v 7.16676787 2.20866874 -5.08056879
v 7.04778358 2.56495941 -5.08056879
v 6.91103786 2.91146189 -5.08056879
v 6.75739273 3.25209126 -5.08056879
v 6.58719316 3.58684808 -5.08056879
v 5.79275787 9.98833328 50.00000000
v 6.40026778 3.90985869 -5.08056879
v 6.19695932 4.22503874 -5.08056879
f 1 2 3
f 1 3 15
f 1 15 4
f 1 4 24
f 1 24 5
f 1 5 6
f 1 6 7
f 1 7 8
f 1 8 9
f 1 9 10
f 1 10 2
f 2 10 11
f 2 11 12
f 2 12 13
f 2 13 3
f 3 14 26
f 3 26 27
f 3 27 15
f 3 13 16
f 3 16 17
f 3 17 18
f 3 18 19
f 3 19 20
f 3 20 21
f 3 21 22
f 3 22 23
f 3 23 14
f 4 15 27
f 4 27 42
f 4 42 29
f 4 29 24
f 5 24 29
f 5 29 30
f 5 30 25
f 5 25 7
f 5 7 6
f 7 25 32
f 7 32 44
f 7 44 43
f 7 43 41
f 7 41 40
f 7 40 39
f 7 39 38
f 7 38 37
f 7 37 36
f 7 36 35
f 7 35 34
f 7 34 33
f 7 33 28
f 7 28 23
f 7 23 22
f 7 22 21
f 7 21 20
f 7 20 19
f 7 19 18
f 7 18 17
f 7 17 16
f 7 16 13
f 7 13 12
f 7 12 11
f 7 11 10
f 7 10 9
f 7 9 8
f 14 23 26
f 23 28 26
f 25 30 31
f 25 31 32
f 26 28 33
f 26 33 34
f 26 34 35
f 26 35 36
f 26 36 37
f 26 37 38
f 26 38 39
f 26 39 40
f 26 40 41
f 26 41 31
f 26 31 42
f 26 42 27
f 29 42 31
f 29 31 30
f 31 41 43
f 31 43 44
f 31 44 32

