# https://github.com/mikedh/trimesh
v -0.02330765 2.08567604 -5.08056879
v 5.75395897 2.08567604 -5.08056879
v -0.02330765 2.08567604 50.00000000
v -0.02330765 5.23020327 -5.08056879
v 5.75395897 4.81031314 -5.08056879
v 5.75395897 2.08567604 50.00000000
v -0.02330765 10.00006124 50.00000000
v -0.02330765 10.00006124 -4.99969423
v -0.02274215 7.49698952 -5.08056879
v 5.74491099 4.82115895 -5.08056879
v 5.75395897 9.98844057 -4.99969423
v 5.75395897 9.98844057 50.00000000
v 0.18762816 7.49698952 -5.08056879
v 5.49778230 5.10160215 -5.08056879
v 5.23595028 5.36965020 -5.08056879
v 4.96167727 5.62375337 -5.08056879
v 4.67496291 5.86468652 -5.08056879
v 4.37750369 6.08857609 -5.08056879
v 4.06816900 6.29929602 -5.08056879
v 3.74922045 6.49529621 -5.08056879
v 3.42009254 6.67347834 -5.08056879
v 3.22894976 6.76566809 -5.08056879
v 3.08417864 6.83539212 -5.08056879
v 2.74034757 6.98103607 -5.08056879
v 2.38973033 7.10886270 -5.08056879
v 2.03232691 7.21809566 -5.08056879
v 1.66926868 7.31106028 -5.08056879
v 1.30281709 7.38543198 -5.08056879
v 0.93353800 7.44121075 -5.08056879
v 0.56086574 7.47762173 -5.08056879
f 1 2 6
f 1 6 3
f 1 3 7
f 1 7 8
f 1 8 4
f 1 4 9
f 1 9 13
f 1 13 30
f 1 30 29
f 1 29 28
f 1 28 27
f 1 27 26
f 1 26 25
f 1 25 24
f 1 24 23
f 1 23 22
f 1 22 21
f 1 21 20
f 1 20 19
f 1 19 18
f 1 18 17
f 1 17 16
f 1 16 15
f 1 15 14
f 1 14 10
f 1 10 5
f 1 5 2
f 2 5 11
f 2 11 12
f 2 12 6
f 3 6 12
f 3 12 7
f 4 8 9
f 5 10 11
f 7 12 11
f 7 11 8
f 8 11 13
f 8 13 9
f 10 14 11
f 11 14 15
f 11 15 16
f 11 16 17
f 11 17 18
f 11 18 19
f 11 19 20
f 11 20 21
f 11 21 22
f 11 22 23
f 11 23 24
f 11 24 25
f 11 25 26
f 11 26 27
f 11 27 28
f 11 28 29
f 11 29 30
f 11 30 13

