# https://github.com/mikedh/trimesh
v 1.44643756 -7.35549033 -27.76613235
v 1.66932307 -7.31084198 -27.76613235
v 1.44643756 -7.35549033 -5.08278608
v 1.44643756 7.35549033 -27.76613235
v 2.03110855 -7.21866414 -27.76613235
v 1.66932307 -7.31084198 -5.08278608
v 1.44643756 7.35549033 -5.08278608
v 1.66932307 7.31084198 -27.76613235
v 2.38885619 -7.10920319 -27.76613235
v 2.38885619 -7.10920319 -5.08278608
v 2.03083940 -7.21866414 -5.08278608
v 1.66932307 7.31084198 -5.08278608
v 1.77942012 7.28347674 -27.76613235
v 2.56301928 -7.04583079 -27.76613235
v 2.74014343 -6.98101893 -5.08278608
v 2.03137770 7.21866414 -5.08278608
v 2.03137770 7.21866414 -27.76613235
v 2.74041258 -6.98101893 -27.76613235
v 3.08389347 -6.83555081 -5.08278608
v 2.38939449 7.10776299 -5.08278608
v 2.14039795 7.18553811 -27.76613235
v 3.08416262 -6.83555081 -27.76613235
v 3.42064463 -6.67279959 -5.08278608
v 3.42118293 -6.67279959 -27.76613235
v 2.74041258 6.97957799 -5.08278608
v 2.38939449 7.10776299 -27.76613235
v 3.74932028 -6.49420545 -5.08278608
v 3.74932028 -6.49420545 -27.76613235
v 3.08443177 6.83555081 -5.08278608
v 2.74041258 6.97957799 -27.76613235
v 4.06830497 -6.29976764 -5.08278608
v 4.06857431 -6.29976764 -27.76613235
v 3.42064463 6.67423978 -5.08278608
v 3.08443177 6.83555081 -27.76613235
v 4.19643745 -6.21191114 -5.08278608
v 4.19643745 -6.21191114 -27.76613235
v 3.74985859 6.49420545 -5.08278608
v 3.74985859 6.49420545 -27.76613235
v 3.42118293 6.67279959 -27.76613235
v 4.19643745 6.21191114 -5.08278608
v 4.19643745 6.21191114 -27.76613235
v 4.06857431 6.29976764 -5.08278608
v 3.91110070 6.39626682 -27.76613235
v 4.06857431 6.29976764 -27.76613235
f 1 2 6
f 1 6 3
f 1 3 7
f 1 7 4
f 1 4 8
f 1 8 13
f 1 13 17
f 1 17 21
f 1 21 26
f 1 26 30
f 1 30 34
f 1 34 39
f 1 39 38
f 1 38 43
f 1 43 44
f 1 44 41
f 1 41 36
f 1 36 32
f 1 32 28
f 1 28 24
f 1 24 22
f 1 22 18
f 1 18 14
f 1 14 9
f 1 9 5
f 1 5 2
f 2 5 6
f 3 6 11
f 3 11 10
f 3 10 15
f 3 15 19
f 3 19 23
f 3 23 27
f 3 27 31
f 3 31 35
f 3 35 40
f 3 40 42
f 3 42 37
f 3 37 33
f 3 33 29
f 3 29 25
f 3 25 20
f 3 20 16
f 3 16 12
f 3 12 7
f 4 7 12
f 4 12 8
f 5 9 10
f 5 10 11
f 5 11 6
f 8 12 13
f 9 14 10
f 10 14 15
f 12 16 13
f 13 16 17
f 14 18 15
f 15 18 22
f 15 22 19
f 16 20 21
f 16 21 17
f 19 22 24
f 19 24 23
f 20 25 30
f 20 30 26
f 20 26 21
f 23 24 27
f 24 28 27
f 25 29 34
f 25 34 30
f 27 28 32
f 27 32 31
f 29 33 34
f 31 32 35
f 32 36 35
f 33 37 38
f 33 38 39
f 33 39 34
f 35 36 41
f 35 41 40
f 37 42 43
f 37 43 38
f 40 41 44
f 40 44 42
f 42 44 43

